<svg xmlns="http://www.w3.org/2000/svg" width="96" height="96" viewBox="0 0 96 96">
  <g id="Сгруппировать_1176" data-name="Сгруппировать 1176" transform="translate(-993 -6871)">
    <g id="Page-1" transform="translate(1025.012 6906.023)">
      <g id="Icon-Set-Filled" transform="translate(-518 -1039)">
        <path id="checkmark" d="M548.783,1040.2a4.021,4.021,0,0,0-5.775,0l-14.439,14.72-3.609-3.68a4.039,4.039,0,0,0-5.775,0,4.223,4.223,0,0,0,0,5.89l6.5,6.63a4.021,4.021,0,0,0,5.775,0l17.326-17.67a4.223,4.223,0,0,0,0-5.89" fill="#98ba56" fill-rule="evenodd"/>
      </g>
    </g>
    <g id="Эллипс_46" data-name="Эллипс 46" transform="translate(993 6871)" fill="none" stroke="#98ba56" stroke-width="2">
      <circle cx="48" cy="48" r="48" stroke="none"/>
      <circle cx="48" cy="48" r="47" fill="none"/>
    </g>
  </g>
</svg>
