<svg xmlns="http://www.w3.org/2000/svg" width="21.463" height="21.463" viewBox="0 0 21.463 21.463"><defs><style>.a{fill-rule:evenodd;}</style></defs><path class="a" d="M211.464,181.463h-10.28A1.185,1.185,0,0,1,200,180.278V161.185A1.184,1.184,0,0,1,201.185,160h19.094a1.184,1.184,0,0,1,1.185,1.185v19.094a1.185,1.185,0,0,1-1.185,1.185h-5.469v-8.312h2.79l.418-3.239h-3.208v-2.068c0-.938.26-1.577,1.605-1.577h1.715v-2.9a22.931,22.931,0,0,0-2.5-.128,3.9,3.9,0,0,0-4.166,4.282v2.389h-2.8v3.239h2.8v8.312Z" transform="translate(-200 -160)"/></svg>