<svg xmlns="http://www.w3.org/2000/svg" width="179.644" height="136.805" viewBox="0 0 179.644 136.805"><defs><style>.a{fill:#baccd6;}.b{fill:#fff;fill-rule:evenodd;}.c{fill:#535e76;}</style></defs><g transform="translate(-414.092 -171.217)"><g transform="translate(414.092 171.217)"><path class="a" d="M541.123,219.427c-13.541,8.16-30.2-5.776-47.936-4.857-20.185,1.047-41.656,15.534-59.241,6.5-32.863-16.88-53.343-47.328-33.053-87.213,11.5-22.613,36.477-45.884,74.276-46.562s68.112,2.418,86.374,31.276C581.151,149.558,574.334,199.411,541.123,219.427Z" transform="translate(-392.813 -87.217)"/><g transform="translate(19.041 39.911)"><g transform="translate(18.146 0.388)"><path class="b" d="M994.621,908.784s20.22.5,39.044-.509,36.25-3.528,36.25-3.528l1.76,1.759,19.206-.293-2.529,1.842,3.709-.253-2.232,2.288,4.4,2.345-4.739,1.843,3.6.249-2.375,1.838,1.633.364-5.482,4.567-.219,3.913,2.028-.019-1.862,2.841,3.441.342-3.91,4,4.829.2-2.754,1.827,2.905,1.352-.945.434-.14,3.718-2.072,2.374,3.08,9.751-4.317-.187,1.82,1.933-1.486-.021.054,1.929-3,.137,6.742,5.062-2.79.278,7.987,5.027-3.511-.045,3.019,2.321-5.663-.466,2.544,3.313-11.736-.724,4.914,2.555-1.992-.01,9.113,5.788-7.636-.456,2.507,1.9-3.9-.035-.052,1.565-87.391.642-1.4-1.778-1.641.1.921-1.352-3.9-3.885-.065-3.834-1.413-.477,3.709-1.259-3.275-2.085,5.176,0-4.013-4.006,3.724-.663-1.818-2.455,1.651-.242-.065-3.859-5.6-4.381,1.583-.611-2.209-1.621,3.387-.447-4.7-1.752,4.625-2.46-3.285-2.18,8.782-5.405-1.714-.672,4.571-2.385-11.284.8,2.583-3.054-5.815.561,3.312-2.806-3.714.329,7.888-5.292-2.58-.116,6.907-5.2-3.068,0,0-1.829-2.255-.1,2.6-1.815-4.357.16,3.875-4.734Z" transform="translate(-984.585 -904.747)"/></g><g transform="translate(28.427 40.401)"><path class="c" d="M1062.966,1190.022a.472.472,0,0,1-.31-.118c-.394-.35-.862-.8-1.4-1.317a63.19,63.19,0,0,0-4.886-4.34.466.466,0,1,1,.575-.734,64.6,64.6,0,0,1,4.958,4.4c.53.507.987.947,1.374,1.29a.468.468,0,0,1,.04.66A.458.458,0,0,1,1062.966,1190.022Z" transform="translate(-1056.191 -1183.415)"/></g><g transform="translate(47.139 51.032)"><path class="c" d="M1252.652,1263.419c-7.1,0-16.691-.045-26.405-.223-19.065-.353-39.095-1.232-39.293-1.24a.465.465,0,0,1-.446-.487.486.486,0,0,1,.486-.446c.2.009,20.216.89,39.271,1.24,15.971.293,31.62.224,36.373.192l-5.931-4.155a.467.467,0,1,1,.537-.763l7.122,4.99a.468.468,0,0,1-.263.849C1264.012,1263.378,1259.488,1263.419,1252.652,1263.419Z" transform="translate(-1186.507 -1257.453)"/></g><g transform="translate(25.355 55.865)"><path class="c" d="M1042.489,1302.234a.461.461,0,0,1-.423-.274c-1.137-2.491-7.107-9.9-7.17-9.971a.468.468,0,0,1,.355-.761l6.736-.117a.475.475,0,0,1,.473.461.466.466,0,0,1-.458.474l-5.788.1a85.911,85.911,0,0,1,6.527,9.079c1.458-.351,6.842-1.563,10.427-1.369a.467.467,0,1,1-.054.932c-3.942-.221-10.446,1.412-10.513,1.431A.5.5,0,0,1,1042.489,1302.234Z" transform="translate(-1034.794 -1291.111)"/></g><g transform="translate(59.497 65.358)"><path class="c" d="M1331.449,1361.17a5.41,5.41,0,0,1-.945-.117,86.693,86.693,0,0,0-11.117-1.015c-12.637-.666-38.052-1.659-38.307-1.666l-8.048-.214a.468.468,0,0,1-.455-.478.456.456,0,0,1,.48-.454l8.053.212c.261.01,25.681,1,38.326,1.668a87.948,87.948,0,0,1,11.229,1.029,3.388,3.388,0,0,0,.959.094,39.433,39.433,0,0,0-4.861-1.773.466.466,0,1,1,.272-.892c6.041,1.835,6.008,2.525,6,2.858-.011.185-.108.509-.681.629A4.23,4.23,0,0,1,1331.449,1361.17Z" transform="translate(-1272.576 -1357.225)"/></g><g transform="translate(33.666 57.153)"><path class="c" d="M1185.489,1310.352a.478.478,0,0,1-.275-.088c-.265-.121-2.69-.911-20.828-1.138-20.131-.252-59.97.2-60.37.208a.384.384,0,0,1-.29-.1l-10.864-8.323a.465.465,0,1,1,.567-.738l10.738,8.225c2.8-.033,40.743-.451,60.234-.207,6.02.076,15.3.283,19.413.851a5.18,5.18,0,0,1-1.444-1.919.466.466,0,1,1,.908-.212,9.609,9.609,0,0,0,2.5,2.607l0,.006a.343.343,0,0,1,.089.079.47.47,0,0,1-.048.613A.464.464,0,0,1,1185.489,1310.352Z" transform="translate(-1092.677 -1300.079)"/></g><g transform="translate(21.632 47.204)"><path class="c" d="M1021.367,1241.673a.459.459,0,0,1-.292-.1l-12.036-9.753a.466.466,0,0,1,.232-.824l1.484-.2a.466.466,0,1,1,.122.924l-.408.054,11.193,9.071a.466.466,0,0,1-.295.827Z" transform="translate(-1008.866 -1230.792)"/></g><g transform="translate(35.042 44.51)"><path class="c" d="M1102.986,1213.506a.468.468,0,0,1-.428-.28c-.076-.17-.157-.344-.249-.517a.466.466,0,0,1,.826-.433c.1.192.193.383.277.576a.466.466,0,0,1-.24.615A.473.473,0,0,1,1102.986,1213.506Z" transform="translate(-1102.255 -1212.027)"/></g><g transform="translate(35.521 47.542)"><path class="c" d="M1108.618,1238.506h-.028l-2.557-.141a.471.471,0,0,1-.383-.243.457.457,0,0,1,0-.451,6.5,6.5,0,0,0,.386-3.974.466.466,0,0,1,.918-.161,8.009,8.009,0,0,1-.216,3.931l1.9.106a.467.467,0,0,1-.025.933Z" transform="translate(-1105.592 -1233.149)"/></g><g transform="translate(114.163 37.476)"><path class="c" d="M1663.823,1173.741h-.047c-.067-.007-6.956-.719-9.925-.079a.471.471,0,0,1-.555-.359.465.465,0,0,1,.358-.554c2.572-.553,7.658-.171,9.525,0l-2.747-9.1a.467.467,0,1,1,.895-.271l2.944,9.767a.471.471,0,0,1-.09.432A.455.455,0,0,1,1663.823,1173.741Z" transform="translate(-1653.286 -1163.042)"/></g><g transform="translate(115.509 46.974)"><path class="c" d="M1663.127,1233.979a.467.467,0,0,1,0-.934l4.3-.019.024-1.44a.468.468,0,0,1,.453-.461l.519-.014-1.726-1.056a.466.466,0,0,1,.488-.8l3.065,1.876a.47.47,0,0,1,.207.518.462.462,0,0,1-.437.344l-1.644.045-.021,1.451a.468.468,0,0,1-.465.461l-4.761.023Z" transform="translate(-1662.66 -1229.192)"/></g><g transform="translate(23.574 67.495)"><path class="c" d="M1026.487,1379.958a.473.473,0,0,1-.371-.183l-.216-.281-3.187-3.524a.491.491,0,0,1-.119-.284l-.2-3.085a.469.469,0,0,1,.436-.495.458.458,0,0,1,.494.437l.19,2.921,3.343,3.742a.467.467,0,0,1-.371.751Z" transform="translate(-1022.394 -1372.105)"/></g><g transform="translate(28.46 75.813)"><path class="c" d="M1058.044,1432.708a.471.471,0,0,1-.37-.181l-1.158-1.5a.466.466,0,0,1,.739-.569l1.016,1.32,86.718-.517.036-.775a.455.455,0,0,1,.49-.442.464.464,0,0,1,.442.486l-.057,1.216a.467.467,0,0,1-.464.446l-87.391.519Z" transform="translate(-1056.42 -1430.038)"/></g><g transform="translate(30.071 76.023)"><path class="c" d="M1068.1,1433.766h-.017a.468.468,0,0,1-.447-.485l.045-1.336a.466.466,0,0,1,.93.034l-.045,1.335A.467.467,0,0,1,1068.1,1433.766Z" transform="translate(-1067.637 -1431.499)"/></g><g transform="translate(35.755 49.801)"><path class="c" d="M1107.688,1249.833a.466.466,0,0,1,0-.932l3.174-.021h0a.467.467,0,0,1,0,.934l-3.176.018Z" transform="translate(-1107.223 -1248.881)"/></g><g transform="translate(34.919 54.712)"><path class="c" d="M1112.011,1292.808a.466.466,0,0,1-.3-.115l-10.148-8.792a.467.467,0,0,1,.612-.7l10.014,8.677,16.665-.032h0a.466.466,0,0,1,0,.933l-16.841.033Z" transform="translate(-1101.4 -1283.082)"/></g><g transform="translate(30.156 73.652)"><path class="c" d="M1068.7,1417.982a.466.466,0,0,1-.015-.932c.064,0,6.828-.2,27.345-.3,17.812-.08,52.963.052,62.238.089-.547-.305-1.266-.668-1.921-.969a.467.467,0,0,1,.393-.847c3.423,1.586,3.341,1.968,3.264,2.306-.039.169-.192.431-.707.445-7.307-.029-44.708-.176-63.264-.091-20.5.091-27.253.294-27.32.294Zm90.44-.57h0Z" transform="translate(-1068.231 -1414.984)"/></g><g transform="translate(20.784 45.139)"><path class="c" d="M1026.793,1233.211a.473.473,0,0,1-.267-.085c-.077-.054-7.7-5.343-12.939-8.717-4.515-2.9-9.744-6.444-10.324-6.839a.567.567,0,0,1-.275-.679c.116-.319.244-.682,4.229-.341a.467.467,0,0,1-.079.93c-.862-.074-1.835-.127-2.536-.13,1.757,1.185,5.856,3.938,9.49,6.275,5.257,3.38,12.891,8.679,12.966,8.735a.467.467,0,0,1,.118.649A.472.472,0,0,1,1026.793,1233.211Z" transform="translate(-1002.958 -1216.413)"/></g><g transform="translate(35.295 43.757)"><path class="c" d="M1190.056,1208.836h-.013c-.4-.011-40.174-1.092-61.316-1.119h-.887c-20,0-23.079.942-23.2.984a.469.469,0,0,1-.589-.29.464.464,0,0,1,.278-.591c.119-.042,3.184-1.036,24.4-1.033,21.151.026,60.941,1.107,61.34,1.118a.466.466,0,0,1-.013.932Z" transform="translate(-1104.023 -1206.786)"/></g><g transform="translate(24.262 44.984)"><path class="c" d="M1047.548,1231.827a.465.465,0,0,1-.293-.1c-.055-.045-5.566-4.506-10.657-8.47s-9.191-7.056-9.23-7.088a.465.465,0,1,1,.559-.744c.042.032,4.145,3.126,9.242,7.1s10.618,8.435,10.673,8.481a.465.465,0,0,1-.293.828Z" transform="translate(-1027.181 -1215.328)"/></g><g transform="translate(24.719 67.744)"><path class="c" d="M1034.548,1380.452a.46.46,0,0,1-.389-.21l-3.716-5.681a.466.466,0,0,1,.78-.512l3.715,5.682a.469.469,0,0,1-.135.646A.484.484,0,0,1,1034.548,1380.452Z" transform="translate(-1030.367 -1373.839)"/></g><g transform="translate(49.78 68.092)"><path class="c" d="M1281.837,1383.224h-.029c-.2-.013-20.368-1.265-35.08-1.4-15.971-.147-41.092.707-41.346.715a.484.484,0,0,1-.482-.449.467.467,0,0,1,.45-.483c.252-.009,25.391-.86,41.385-.717,12.086.115,27.838.976,33.23,1.29l-8.432-5.046a.467.467,0,0,1,.48-.8l10.064,6.027a.466.466,0,0,1-.24.865Z" transform="translate(-1204.9 -1376.265)"/></g><g transform="translate(22.588 62.962)"><path class="c" d="M1027.374,1350.581a.466.466,0,0,1-.337-.143,58.781,58.781,0,0,0-5.717-5.179,54,54,0,0,0-5.339-3.432c-.479-.277-.5-.581-.43-.789.115-.347.269-.82,5.756-.193a.47.47,0,0,1,.411.517.476.476,0,0,1-.515.412c-1.4-.16-2.971-.284-3.972-.3a51.379,51.379,0,0,1,4.655,3.048,58.648,58.648,0,0,1,5.659,5.1c17.992-2.419,72.672-.943,73.225-.926a.463.463,0,0,1,.453.479.487.487,0,0,1-.478.453c-.554-.016-55.637-1.507-73.307.95A.347.347,0,0,1,1027.374,1350.581Z" transform="translate(-1015.523 -1340.538)"/></g><g transform="translate(42.62 58.235)"><path class="c" d="M1155.5,1312.812a.466.466,0,0,1-.3-.821l4.993-4.265a.464.464,0,1,1,.6.708l-3.771,3.227c2.454-.335,7.244-.946,10.573-1.1,13.953-.632,43.368-1.593,43.664-1.6a.492.492,0,0,1,.481.451.465.465,0,0,1-.45.481c-.3.011-29.7.972-43.654,1.6-4.582.207-11.99,1.3-12.065,1.311A.646.646,0,0,1,1155.5,1312.812Z" transform="translate(-1155.036 -1307.614)"/></g><g transform="translate(43.408 56.134)"><path class="c" d="M1247.388,1299.279l-.03,0c-.2-.013-20.427-1.346-31.9-1.942-12.753-.659-43.585-2.115-54.44-1.331a.466.466,0,1,1-.064-.93c10.9-.783,41.783.669,54.553,1.33,9.415.489,24.723,1.474,30.029,1.821l-7.132-4.378a.467.467,0,0,1,.489-.8l8.735,5.364a.464.464,0,0,1,.2.537A.47.47,0,0,1,1247.388,1299.279Z" transform="translate(-1160.522 -1292.982)"/></g><g transform="translate(23.557 58.606)"><path class="c" d="M1031.041,1321.287a.468.468,0,0,1-.4-.224,50.762,50.762,0,0,0-4.107-5.8,22.276,22.276,0,0,0-4.059-3.708.469.469,0,0,1-.2-.494.473.473,0,0,1,.394-.358l3.747-.5a.467.467,0,0,1,.122.925l-2.608.346a24.252,24.252,0,0,1,3.306,3.176,49.764,49.764,0,0,1,4.033,5.659c1.646-.281,9.051-1.481,11.228-.838a.471.471,0,0,1,.316.58.465.465,0,0,1-.58.315c-1.821-.537-8.642.479-11.116.913A.447.447,0,0,1,1031.041,1321.287Z" transform="translate(-1022.27 -1310.199)"/></g><g transform="translate(21.685 38.6)"><path class="c" d="M1023.655,1182.823a.472.472,0,0,1-.3-.112c-.021-.018-2.332-1.964-5.219-4.235l-8.72-6.769a.463.463,0,0,1-.154-.522.432.432,0,0,1,.446-.313l4.826.051a.466.466,0,0,1,0,.933h-.006l-3.443-.035,7.627,5.923c2.9,2.282,5.225,4.236,5.247,4.254a.468.468,0,0,1-.3.826Z" transform="translate(-1009.235 -1170.87)"/></g><g transform="translate(40.299 55.192)"><path class="c" d="M1142.256,1290.161a.463.463,0,0,1-.387-.205,15.173,15.173,0,0,0-2.809-2.689.466.466,0,1,1,.555-.748,15.865,15.865,0,0,1,3.027,2.915.467.467,0,0,1-.125.648A.443.443,0,0,1,1142.256,1290.161Z" transform="translate(-1138.869 -1286.426)"/></g><g transform="translate(19.452 40.809)"><path class="c" d="M1010.093,1197.724a.467.467,0,0,1-.285-.1,62.823,62.823,0,0,0-8.594-5.563,29.165,29.165,0,0,0-7.139-2.405.466.466,0,0,1-.14-.873l4.681-2.475a.466.466,0,1,1,.436.824l-3.549,1.877a31.086,31.086,0,0,1,6.118,2.215,62.614,62.614,0,0,1,8.756,5.66.468.468,0,0,1,.084.655A.462.462,0,0,1,1010.093,1197.724Z" transform="translate(-993.686 -1186.258)"/></g><g transform="translate(22.023 65.206)"><path class="c" d="M1019.826,1363.914a.463.463,0,0,1-.361-.171c-3.84-4.695-7.473-5.549-7.512-5.556a.469.469,0,0,1-.365-.441.464.464,0,0,1,.336-.462l3.842-1.1a.466.466,0,0,1,.257.9l-2.453.7a18.646,18.646,0,0,1,6.617,5.371.468.468,0,0,1-.064.656A.482.482,0,0,1,1019.826,1363.914Z" transform="translate(-1011.588 -1356.165)"/></g><g transform="translate(57.819 61.049)"><path class="c" d="M1266.43,1331.05a.472.472,0,0,1-.277-.094,44.888,44.888,0,0,0-5.011-2.858.467.467,0,0,1,.416-.837,47.564,47.564,0,0,1,5.019,2.849c2.664-.088,37.015-1.233,46.637-1.153,7.377.059,14.411.548,17.617.8l-2.142-1.427a.465.465,0,1,1,.514-.774l3.656,2.43a.465.465,0,0,1,.181.544.487.487,0,0,1-.482.308c-.092-.01-9.41-.869-19.349-.948s-46.394,1.146-46.76,1.158Z" transform="translate(-1260.884 -1327.215)"/></g><g transform="translate(26.322 70.429)"><path class="c" d="M1041.992,1399.217a.465.465,0,0,1-.34-.783c.83-.9,5.023-5.406,5.833-5.837a.462.462,0,0,1,.631.193.466.466,0,0,1-.193.631,58.673,58.673,0,0,0-4.68,4.671c2.266-.334,7.166-1.034,12.491-1.666,10.911-1.3,42.244-3.089,54.4-3.531a.467.467,0,1,1,.036.934c-12.143.439-43.434,2.231-54.326,3.523-7.251.862-13.714,1.849-13.779,1.859A.519.519,0,0,1,1041.992,1399.217Z" transform="translate(-1041.526 -1392.54)"/></g><g transform="translate(38.769 64.928)"><path class="c" d="M1210.7,1362.466a.2.2,0,0,1-.046,0c-.15-.015-15.138-1.508-33.864-2.206s-41.694-.622-41.921-.622h0a.466.466,0,0,1-.369-.178c-.028-.036-2.789-3.548-5.927-4.312a.465.465,0,1,1,.219-.9c3.062.743,5.663,3.691,6.3,4.46,2.431-.006,23.979-.039,41.734.624,14.54.542,26.834,1.563,31.7,2-2.271-1.2-5.891-3.084-6.83-3.453a.466.466,0,0,1,.34-.869c1.238.484,8.683,4.384,8.981,4.649a.466.466,0,0,1-.31.813Z" transform="translate(-1128.212 -1354.228)"/></g><g transform="translate(36.317 44.139)"><path class="c" d="M1111.606,1221.533a.467.467,0,0,1-.421-.668,48.826,48.826,0,0,1,3.383-5.776,47.946,47.946,0,0,1,3.481-4.172c.483-.532.891-.982,1.152-1.3a.466.466,0,0,1,.722.59c-.268.329-.687.793-1.182,1.34a46.289,46.289,0,0,0-3.411,4.082,45.8,45.8,0,0,0-2.94,4.922l23.521-1.557c.131-.007,12.49-.633,26.128-1.105,11.98-.417,25.221-.723,28.366-.793a24.033,24.033,0,0,1-1.879-6.31.464.464,0,0,1,.434-.5.47.47,0,0,1,.5.435c.157,2.387,2.06,6.586,2.079,6.629a.467.467,0,0,1-.415.659c-.155,0-15.417.337-29.05.808s-25.981,1.1-26.106,1.1l-24.33,1.612A.131.131,0,0,1,1111.606,1221.533Z" transform="translate(-1111.139 -1209.443)"/></g><g transform="translate(27.22 52.079)"><path class="c" d="M1048.251,1269.231a.467.467,0,0,1-.469-.465v-3.559a.467.467,0,0,1,.934,0v3.559A.464.464,0,0,1,1048.251,1269.231Z" transform="translate(-1047.782 -1264.74)"/></g><g transform="translate(119.666 40.316)"><path class="c" d="M1693.287,1188.327a.465.465,0,0,1-.449-.347l-1.212-4.574a.466.466,0,0,1,.9-.238l1.212,4.574a.466.466,0,0,1-.331.569A.413.413,0,0,1,1693.287,1188.327Z" transform="translate(-1691.61 -1182.818)"/></g><g transform="translate(35.07 41.821)"><path class="c" d="M1102.924,1196.877a.466.466,0,0,1-.335-.791l2.577-2.643a.466.466,0,1,1,.668.651l-2.577,2.639A.456.456,0,0,1,1102.924,1196.877Z" transform="translate(-1102.457 -1193.303)"/></g><g transform="translate(114.908 48.864)"><path class="c" d="M1658.939,1243.316a.467.467,0,0,1,0-.934l5.252-.031h0a.467.467,0,0,1,0,.933l-5.254.032Z" transform="translate(-1658.475 -1242.351)"/></g><g transform="translate(32.975 44.276)"><path class="c" d="M1091.833,1214.213c-3.848,0-3.864-.066-3.951-.4a.472.472,0,0,1,.228-.53,48.562,48.562,0,0,1,7.143-2.871.467.467,0,0,1,.185.915,41.2,41.2,0,0,0-5.132,1.951c1.641.007,3.938,0,5.187-.005l1.255,0a.466.466,0,1,1,0,.931l-1.252.005C1093.993,1214.21,1092.792,1214.213,1091.833,1214.213Z" transform="translate(-1087.866 -1210.401)"/></g><g transform="translate(41.776 44.15)"><path class="c" d="M1149.908,1219.141c-.621,0-.666-.143-.739-.38-.277-.865,5.621-8.458,6.255-9.1a.466.466,0,1,1,.662.655,72.336,72.336,0,0,0-5.767,7.874c1.245-.1,4.381-.558,8.724-1.2,2.54-.372,5.6-.821,9.192-1.334,8.1-1.158,28.7-3.891,45.047-4.327.165,0,.462-.034.569-.19a.728.728,0,0,0,.015-.547.466.466,0,0,1,.875-.32,1.63,1.63,0,0,1-.117,1.388,1.538,1.538,0,0,1-1.32.6c-16.293.433-36.853,3.162-44.939,4.317q-5.388.769-9.183,1.334C1153.21,1218.8,1150.867,1219.141,1149.908,1219.141Z" transform="translate(-1149.159 -1209.526)"/></g><g transform="translate(105.168 1.402)"><path class="c" d="M1598.242,921.87a.467.467,0,0,1-.309-.815c.413-.365.828-.776,1.3-1.238a46.725,46.725,0,0,1,4.289-3.828,54.581,54.581,0,0,1,4.663-3.237l-17.071.136h0a.466.466,0,0,1,0-.932l18.772-.15a.491.491,0,0,1,.453.345.463.463,0,0,1-.219.525,56.95,56.95,0,0,0-6.016,4.045,46.364,46.364,0,0,0-4.21,3.758c-.481.475-.907.9-1.33,1.272A.47.47,0,0,1,1598.242,921.87Z" transform="translate(-1590.641 -911.807)"/></g><g transform="translate(22.776 15.488)"><path class="c" d="M1028.662,1015.876c-6.789,0-11.275-.042-11.365-.042a.465.465,0,0,1-.263-.846l7.121-4.994a.466.466,0,1,1,.536.763l-5.927,4.157c4.75.032,20.4.1,36.37-.193,19.055-.351,39.071-1.231,39.271-1.24a.475.475,0,0,1,.487.446.467.467,0,0,1-.447.486c-.2.01-20.223.888-39.292,1.241C1045.4,1015.832,1035.77,1015.876,1028.662,1015.876Z" transform="translate(-1016.836 -1009.909)"/></g><g transform="translate(103.803 20.324)"><path class="c" d="M1592.253,1054.708a.359.359,0,0,1-.114-.015c-.066-.015-6.568-1.648-10.512-1.429a.462.462,0,0,1-.491-.441.467.467,0,0,1,.438-.49c3.592-.2,8.967,1.018,10.426,1.369a86.849,86.849,0,0,1,6.527-9.082l-5.788-.1a.467.467,0,0,1-.458-.474.492.492,0,0,1,.474-.457l6.738.115a.467.467,0,0,1,.354.76c-.061.074-6.033,7.481-7.168,9.971A.466.466,0,0,1,1592.253,1054.708Z" transform="translate(-1581.135 -1043.589)"/></g><g transform="translate(28.02 29.814)"><path class="c" d="M1054.936,1113.625a4.144,4.144,0,0,1-.9-.118c-.576-.118-.673-.446-.683-.629-.014-.333-.044-1.025,6-2.859a.466.466,0,0,1,.272.892,39.455,39.455,0,0,0-4.855,1.77,3.446,3.446,0,0,0,.949-.089,87.366,87.366,0,0,1,11.232-1.03c12.646-.667,38.065-1.657,38.321-1.67l8.06-.212a.467.467,0,0,1,.024.934l-8.055.211c-.248.01-25.665,1-38.3,1.666a86.722,86.722,0,0,0-11.12,1.018A5.427,5.427,0,0,1,1054.936,1113.625Z" transform="translate(-1053.354 -1109.679)"/></g><g transform="translate(21.027 21.609)"><path class="c" d="M1005.119,1062.81a.468.468,0,0,1-.326-.132.464.464,0,0,1-.047-.614.4.4,0,0,1,.086-.08l0-.006a9.531,9.531,0,0,0,2.5-2.605.467.467,0,0,1,.909.212,5.194,5.194,0,0,1-1.446,1.918c4.113-.569,13.4-.775,19.413-.85,19.491-.244,57.431.173,60.235.206l10.738-8.224a.466.466,0,0,1,.568.739l-10.866,8.324a.463.463,0,0,1-.289.1c-.4-.005-40.24-.464-60.37-.21-18.138.228-20.563,1.017-20.831,1.138A.458.458,0,0,1,1005.119,1062.81Z" transform="translate(-1004.652 -1052.537)"/></g><g transform="translate(113.371 11.659)"><path class="c" d="M1648.242,994.128a.467.467,0,0,1-.3-.829l11.2-9.071-.411-.055a.467.467,0,0,1,.121-.925l1.485.2a.465.465,0,0,1,.232.825l-12.036,9.752A.461.461,0,0,1,1648.242,994.128Z" transform="translate(-1647.773 -983.244)"/></g><g transform="translate(111.732 8.963)"><path class="c" d="M1636.826,965.952a.476.476,0,0,1-.189-.041.464.464,0,0,1-.237-.615c.083-.187.176-.379.276-.571a.465.465,0,1,1,.826.426c-.089.176-.172.351-.249.523A.466.466,0,0,1,1636.826,965.952Z" transform="translate(-1636.359 -964.47)"/></g><g transform="translate(108.961 11.999)"><path class="c" d="M1617.523,990.966a.467.467,0,0,1-.028-.932l1.9-.105a8.046,8.046,0,0,1-.217-3.933.466.466,0,0,1,.917.163,6.5,6.5,0,0,0,.389,3.974.465.465,0,0,1-.383.69l-2.56.141A.075.075,0,0,1,1617.523,990.966Z" transform="translate(-1617.056 -985.609)"/></g><g transform="translate(22.804 6.721)"><path class="c" d="M1017.494,954.768a.465.465,0,0,1-.362-.755l3.935-4.982a.466.466,0,1,1,.729.579l-3.258,4.127c2.106-.179,6.721-.479,9.129.036a.465.465,0,0,1,.357.551.47.47,0,0,1-.554.36c-2.969-.638-9.855.075-9.926.08C1017.529,954.766,1017.512,954.768,1017.494,954.768Z" transform="translate(-1017.03 -948.855)"/></g><g transform="translate(24.65 11.43)"><path class="c" d="M1037.232,986.438h0l-4.763-.024a.465.465,0,0,1-.462-.458l-.025-1.452-1.64-.045a.466.466,0,0,1-.231-.864l3.066-1.876a.467.467,0,0,1,.488.8l-1.726,1.056.518.014a.468.468,0,0,1,.455.458l.021,1.442,4.3.021a.466.466,0,0,1,0,.933Z" transform="translate(-1029.888 -981.65)"/></g><g transform="translate(119.839 31.951)"><path class="c" d="M1693.282,1132.418a.466.466,0,0,1-.284-.1.461.461,0,0,1-.084-.652l.214-.282,3.126-3.461.188-2.924a.455.455,0,0,1,.5-.433.466.466,0,0,1,.436.5l-.2,3.083a.445.445,0,0,1-.118.281l-3.405,3.806A.462.462,0,0,1,1693.282,1132.418Z" transform="translate(-1692.815 -1124.568)"/></g><g transform="translate(29.974 40.271)"><path class="c" d="M1154.877,1185.176h0l-87.392-.521a.467.467,0,0,1-.464-.445l-.058-1.215a.469.469,0,0,1,.447-.487.463.463,0,0,1,.488.444l.036.772,86.716.517,1.017-1.319a.466.466,0,0,1,.737.569l-1.155,1.5A.467.467,0,0,1,1154.877,1185.176Z" transform="translate(-1066.96 -1182.507)"/></g><g transform="translate(116.925 40.477)"><path class="c" d="M1673.034,1186.208a.462.462,0,0,1-.464-.449l-.047-1.337a.469.469,0,0,1,.451-.483.458.458,0,0,1,.481.451l.044,1.337a.461.461,0,0,1-.448.48Z" transform="translate(-1672.522 -1183.94)"/></g><g transform="translate(108.112 14.258)"><path class="c" d="M1614.783,1002.3h0l-3.175-.019a.466.466,0,0,1,0-.932h0l3.175.018a.467.467,0,0,1,0,.933Z" transform="translate(-1611.144 -1001.346)"/></g><g transform="translate(85.137 19.169)"><path class="c" d="M1468.443,1045.27h0l-16.838-.036a.465.465,0,1,1,0-.931h0l16.662.033,10.016-8.678a.467.467,0,0,1,.612.7l-10.148,8.792A.471.471,0,0,1,1468.443,1045.27Z" transform="translate(-1451.138 -1035.544)"/></g><g transform="translate(26.023 38.108)"><path class="c" d="M1130.775,1170.441h-.014c-.068,0-6.821-.2-27.32-.3-18.661-.083-55.975.063-63.266.091h-.006c-.522,0-.662-.276-.7-.444-.075-.339-.16-.721,3.263-2.308a.466.466,0,1,1,.392.845c-.653.3-1.368.666-1.916.97,9.385-.036,44.364-.165,62.234-.086,20.517.091,27.28.292,27.346.3a.466.466,0,0,1-.015.932Z" transform="translate(-1039.448 -1167.441)"/></g><g transform="translate(102.888 9.595)"><path class="c" d="M1575.232,985.665a.467.467,0,0,1-.266-.85c.077-.053,7.712-5.355,12.968-8.738,3.591-2.308,7.662-5.041,9.49-6.273-.7,0-1.674.055-2.537.129a.466.466,0,0,1-.081-.928c3.992-.343,4.119.019,4.232.34a.563.563,0,0,1-.276.68c-.961.653-5.991,4.051-10.323,6.838-5.244,3.373-12.862,8.663-12.941,8.717A.466.466,0,0,1,1575.232,985.665Z" transform="translate(-1574.767 -968.866)"/></g><g transform="translate(26.179 8.21)"><path class="c" d="M1041,961.28a.467.467,0,0,1-.012-.933c.4-.01,40.187-1.094,61.341-1.121,21.253-.046,24.28.992,24.4,1.035a.467.467,0,1,1-.321.876c-.115-.039-3.2-.979-23.218-.979h-.862c-21.143.028-60.918,1.109-61.315,1.122Z" transform="translate(-1040.534 -959.225)"/></g><g transform="translate(102.877 9.441)"><path class="c" d="M1575.151,984.294a.467.467,0,0,1-.293-.83c.054-.045,5.572-4.51,10.673-8.479s9.2-7.064,9.239-7.1a.467.467,0,0,1,.562.746c-.039.03-4.136,3.118-9.231,7.084s-10.6,8.426-10.656,8.47A.463.463,0,0,1,1575.151,984.294Z" transform="translate(-1574.684 -967.796)"/></g><g transform="translate(118.607 32.201)"><path class="c" d="M1684.7,1132.919a.494.494,0,0,1-.254-.075.465.465,0,0,1-.133-.645l3.714-5.682a.466.466,0,0,1,.78.511l-3.715,5.68A.468.468,0,0,1,1684.7,1132.919Z" transform="translate(-1684.236 -1126.307)"/></g><g transform="translate(20.789 32.547)"><path class="c" d="M1003.462,1135.677a.466.466,0,0,1-.24-.866l10.065-6.027a.466.466,0,0,1,.478.8l-8.426,5.049c2.97-.174,9.087-.516,15.957-.8,6.7-.28,12.512-.444,17.268-.489,15.99-.146,41.131.708,41.385.716a.466.466,0,1,1-.032.932c-.252-.008-25.375-.861-41.345-.716-4.745.044-10.544.209-17.238.49-9.619.4-17.762.906-17.841.913Z" transform="translate(-1002.997 -1128.717)"/></g><g transform="translate(39.684 27.419)"><path class="c" d="M1208.436,1103.044a.572.572,0,0,1-.064,0c-17.669-2.454-72.753-.963-73.3-.95a.474.474,0,0,1-.48-.453.466.466,0,0,1,.453-.479c.555-.014,55.232-1.494,73.224.925a59.024,59.024,0,0,1,5.66-5.1,50.4,50.4,0,0,1,4.657-3.047c-1,.017-2.579.14-3.971.3a.467.467,0,1,1-.108-.927c5.485-.625,5.642-.154,5.756.194.068.207.049.513-.431.789a53.853,53.853,0,0,0-5.339,3.433,58.83,58.83,0,0,0-5.715,5.176A.469.469,0,0,1,1208.436,1103.044Z" transform="translate(-1134.587 -1093.001)"/></g><g transform="translate(48.649 22.692)"><path class="c" d="M1253.26,1065.281a.548.548,0,0,1-.068-.005c-.076-.012-7.483-1.1-12.065-1.311-13.95-.63-43.359-1.592-43.652-1.6a.464.464,0,0,1-.451-.481.505.505,0,0,1,.479-.451c.3.012,29.711.971,43.664,1.6,3.33.151,8.118.762,10.576,1.1l-3.777-3.227a.465.465,0,0,1,.6-.708l4.993,4.266a.466.466,0,0,1-.3.82Z" transform="translate(-1197.023 -1060.083)"/></g><g transform="translate(17.23 20.589)"><path class="c" d="M978.677,1051.731a.465.465,0,0,1-.243-.863l8.74-5.363a.465.465,0,1,1,.486.793l-7.132,4.38c5.305-.346,20.614-1.332,30.029-1.82,12.772-.66,43.659-2.112,54.554-1.332a.466.466,0,1,1-.065.93c-10.847-.781-41.683.674-54.44,1.335-11.469.594-31.693,1.927-31.895,1.941Z" transform="translate(-978.21 -1045.435)"/></g><g transform="translate(103.847 23.062)"><path class="c" d="M1593.241,1073.748a.491.491,0,0,1-.082-.007c-2.474-.436-9.3-1.451-11.116-.915a.466.466,0,1,1-.261-.895c2.175-.643,9.58.559,11.227.838a49.607,49.607,0,0,1,4.032-5.66,24.522,24.522,0,0,1,3.3-3.175l-2.606-.345a.468.468,0,0,1,.125-.927l3.745.5a.467.467,0,0,1,.2.85,22.505,22.505,0,0,0-4.057,3.708,50.419,50.419,0,0,0-4.1,5.8A.47.47,0,0,1,1593.241,1073.748Z" transform="translate(-1581.445 -1062.658)"/></g><g transform="translate(111.4 3.059)"><path class="c" d="M1634.511,935.3a.457.457,0,0,1-.357-.166.464.464,0,0,1,.057-.656c.021-.02,2.343-1.974,5.242-4.255l7.624-5.917-2.266.034a.467.467,0,0,1-.013-.934l3.659-.054a.492.492,0,0,1,.447.312.469.469,0,0,1-.153.523l-8.725,6.772c-2.882,2.269-5.193,4.212-5.216,4.233A.46.46,0,0,1,1634.511,935.3Z" transform="translate(-1634.044 -923.349)"/></g><g transform="translate(103.821 19.648)"><path class="c" d="M1581.729,1042.614a.47.47,0,0,1-.261-.078.466.466,0,0,1-.125-.648,15.766,15.766,0,0,1,3.025-2.918.466.466,0,1,1,.555.748,15.3,15.3,0,0,0-2.808,2.693A.465.465,0,0,1,1581.729,1042.614Z" transform="translate(-1581.263 -1038.879)"/></g><g transform="translate(111.645 5.265)"><path class="c" d="M1636.222,950.177a.467.467,0,0,1-.287-.835,62.206,62.206,0,0,1,8.757-5.66,31.012,31.012,0,0,1,6.119-2.216l-3.547-1.876a.466.466,0,1,1,.433-.826l4.682,2.476a.462.462,0,0,1,.244.485.472.472,0,0,1-.384.387,29.059,29.059,0,0,0-7.135,2.407,63.044,63.044,0,0,0-8.6,5.559A.465.465,0,0,1,1636.222,950.177Z" transform="translate(-1635.753 -938.71)"/></g><g transform="translate(117.246 29.662)"><path class="c" d="M1675.224,1116.374a.464.464,0,0,1-.295-.1.47.47,0,0,1-.067-.658,18.656,18.656,0,0,1,6.62-5.368l-2.456-.7a.467.467,0,0,1,.257-.9l3.838,1.1a.463.463,0,0,1,.34.461.468.468,0,0,1-.364.442c-.04.007-3.674.86-7.512,5.555A.464.464,0,0,1,1675.224,1116.374Z" transform="translate(-1674.757 -1108.625)"/></g><g transform="translate(17.97 25.506)"><path class="c" d="M1050,1083.515h-.016c-.367-.014-36.812-1.25-46.76-1.161s-19.255.939-19.347.949a.466.466,0,0,1-.3-.852l3.654-2.431a.466.466,0,1,1,.516.777l-2.143,1.426c3.208-.256,10.241-.742,17.616-.8,9.626-.087,43.971,1.066,46.635,1.153a46.908,46.908,0,0,1,5.022-2.847.466.466,0,1,1,.412.835,45.04,45.04,0,0,0-5.009,2.859A.477.477,0,0,1,1050,1083.515Z" transform="translate(-983.365 -1079.679)"/></g><g transform="translate(52.558 34.887)"><path class="c" d="M1292.875,1151.684c-.021,0-.046,0-.071,0-.064-.009-6.528-1-13.779-1.86-10.876-1.289-42.172-3.082-54.326-3.523a.466.466,0,0,1-.45-.483.49.49,0,0,1,.483-.449c12.168.44,43.506,2.236,54.4,3.53,5.324.633,10.225,1.335,12.49,1.665a58.986,58.986,0,0,0-4.678-4.671.466.466,0,1,1,.439-.823c.809.432,5,4.939,5.833,5.837a.466.466,0,0,1-.343.783Z" transform="translate(-1224.249 -1145.01)"/></g><g transform="translate(26.25 29.384)"><path class="c" d="M1041.493,1114.922a.466.466,0,0,1-.312-.812c.3-.267,7.743-4.164,8.984-4.65a.467.467,0,0,1,.34.869c-.939.366-4.546,2.24-6.825,3.454,4.866-.439,17.152-1.459,31.688-2,17.757-.664,39.307-.63,41.735-.623.637-.77,3.238-3.718,6.3-4.464a.467.467,0,0,1,.221.908c-3.147.765-5.9,4.273-5.929,4.309a.473.473,0,0,1-.371.181c-.045.01-.85,0-2.3,0-6.292,0-24.364.054-39.628.624-18.726.7-33.713,2.192-33.863,2.208Z" transform="translate(-1041.026 -1106.684)"/></g><g transform="translate(31.217 8.595)"><path class="c" d="M1155.588,973.992h-.031l-24.337-1.612c-.116-.007-12.467-.63-26.1-1.1s-28.9-.805-29.052-.808a.477.477,0,0,1-.385-.219.464.464,0,0,1-.028-.439c.017-.042,1.92-4.242,2.078-6.63a.466.466,0,1,1,.929.06,24,24,0,0,1-1.878,6.309c3.145.072,16.386.38,28.367.795,13.637.47,25.995,1.1,26.12,1.1l23.528,1.559a46.088,46.088,0,0,0-2.939-4.924,47.377,47.377,0,0,0-3.411-4.079c-.5-.547-.914-1.01-1.183-1.339a.467.467,0,0,1,.722-.591c.261.322.669.772,1.152,1.3a46.828,46.828,0,0,1,3.48,4.17,48.282,48.282,0,0,1,3.382,5.776.465.465,0,0,1-.42.667Z" transform="translate(-1075.617 -961.904)"/></g><g transform="translate(119.818 16.536)"><path class="c" d="M1693.14,1021.7a.466.466,0,0,1-.467-.465v-3.559a.467.467,0,0,1,.934,0v3.559A.465.465,0,0,1,1693.14,1021.7Z" transform="translate(-1692.673 -1017.205)"/></g><g transform="translate(26.163 4.233)"><path class="c" d="M1040.887,937.573a.478.478,0,0,1-.123-.016.465.465,0,0,1-.328-.572l1.383-5.112a.466.466,0,1,1,.9.243l-1.381,5.114A.47.47,0,0,1,1040.887,937.573Z" transform="translate(-1040.42 -931.527)"/></g><g transform="translate(92.735)"><path class="c" d="M1523.756,911.9a.474.474,0,0,1-.334-.14l-8.515-8.744c-1.151.194-6.169,1.03-10.333,1.508a.467.467,0,0,1-.106-.928c4.684-.536,10.465-1.531,10.521-1.539a.463.463,0,0,1,.415.132l8.688,8.919a.467.467,0,0,1-.335.792Z" transform="translate(-1504.055 -902.046)"/></g><g transform="translate(27.479 1.472)"><path class="c" d="M1059.214,916.067c-3.977,0-7.192-.088-9.206-.282a.466.466,0,1,1,.092-.927c9.927.96,51.576-.857,65.7-2.561a.466.466,0,0,1,.113.926C1104.252,914.629,1075.416,916.067,1059.214,916.067Z" transform="translate(-1049.588 -912.294)"/></g><g transform="translate(26.88 13.321)"><path class="c" d="M1051.136,995.781h0l-5.251-.03a.467.467,0,0,1,0-.934h0l5.251.033a.466.466,0,0,1,0,.931Z" transform="translate(-1045.417 -994.816)"/></g><g transform="translate(105.649 8.733)"><path class="c" d="M1599.337,966.677c-.959,0-2.155,0-3.645-.008l-1.233,0a.466.466,0,1,1,0-.932l1.236,0c1.252,0,3.56.011,5.2,0a41.941,41.941,0,0,0-5.13-1.951.466.466,0,1,1,.183-.914,48.329,48.329,0,0,1,7.144,2.872.471.471,0,0,1,.228.528C1603.239,966.611,1603.221,966.677,1599.337,966.677Z" transform="translate(-1593.992 -962.864)"/></g><g transform="translate(40.508 8.605)"><path class="c" d="M1205.269,971.593c-.963,0-3.312-.345-9.3-1.225q-3.794-.557-9.16-1.329c-8.087-1.153-28.651-3.884-44.938-4.319a1.53,1.53,0,0,1-1.318-.6,1.64,1.64,0,0,1-.118-1.389.467.467,0,0,1,.877.322.726.726,0,0,0,.014.547c.106.153.4.183.571.189,16.334.436,36.942,3.173,45.045,4.328,3.583.512,6.632.958,9.165,1.329,4.36.64,7.5,1.1,8.752,1.2a72.155,72.155,0,0,0-5.766-7.875.466.466,0,1,1,.661-.658c.635.64,6.532,8.23,6.257,9.1C1205.931,971.45,1205.885,971.591,1205.269,971.593Z" transform="translate(-1140.328 -961.977)"/></g><g transform="translate(0 66.157)"><path class="c" d="M858.678,1363.828a.469.469,0,0,1-.465-.466.463.463,0,0,1,.462-.467l23.132-.106h0a.5.5,0,0,1,.5.463.437.437,0,0,1-.426.468l-23.207.108Z" transform="translate(-858.213 -1362.789)"/></g><g transform="translate(127.913 65.973)"><path class="c" d="M1749.515,1362.509a.467.467,0,0,1,0-.933l15.9-.071a.466.466,0,0,1,0,.931l-.782,0-15.111.07Z" transform="translate(-1749.05 -1361.504)"/></g></g></g></g></svg>