<svg xmlns="http://www.w3.org/2000/svg" width="21.463" height="21.463" viewBox="0 0 21.463 21.463"><defs><style>.a{fill-rule:evenodd;}</style></defs><path d="M12.1,15.208A3.1,3.1,0,1,0,9,12.1,3.1,3.1,0,0,0,12.1,15.208Z" transform="translate(-1.373 -1.373)"/><path class="a" d="M7.366,2A5.366,5.366,0,0,0,2,7.366V18.1a5.366,5.366,0,0,0,5.366,5.366H18.1A5.366,5.366,0,0,0,23.463,18.1V7.366A5.366,5.366,0,0,0,18.1,2Zm5.366,16.1a5.366,5.366,0,1,0-5.366-5.366A5.366,5.366,0,0,0,12.731,18.1Zm7.512-11.8A1.073,1.073,0,1,1,19.17,5.219,1.073,1.073,0,0,1,20.243,6.293Z" transform="translate(-2 -2)"/></svg>
