<svg xmlns="http://www.w3.org/2000/svg" xmlns:xlink="http://www.w3.org/1999/xlink" width="208.439" height="35.23" viewBox="0 0 208.439 35.23"><defs><style>.a{fill:#2a2a2a;}.b{fill:url(#a);}.c{fill:url(#b);}.d{fill:url(#c);}.e{fill:url(#d);}.f{fill:url(#e);}.g{fill:url(#f);}.h{fill:url(#g);}.i{fill:url(#h);}.j{fill:url(#i);}.k{fill:url(#j);}.l{fill:url(#k);}</style><linearGradient id="a" x1="1.225" y1="0.712" x2="2.283" y2="0.712" gradientUnits="objectBoundingBox"><stop offset="0" stop-color="#f07415"/><stop offset="1" stop-color="#eca317"/></linearGradient><linearGradient id="b" x1="0.979" y1="0.835" x2="0.048" y2="0.179" xlink:href="#a"/><linearGradient id="c" x1="0.972" y1="0.835" x2="0.055" y2="0.178" xlink:href="#a"/><linearGradient id="d" x1="0.857" y1="0.855" x2="0.144" y2="0.148" xlink:href="#a"/><linearGradient id="e" x1="0.857" y1="0.855" x2="0.144" y2="0.148" xlink:href="#a"/><linearGradient id="f" x1="3.443" y1="0.773" x2="-2.443" y2="0.227" xlink:href="#a"/><linearGradient id="g" x1="3.188" y1="0.776" x2="-2.188" y2="0.224" xlink:href="#a"/><linearGradient id="h" x1="1.057" y1="0.919" x2="0.211" y2="0.081" xlink:href="#a"/><linearGradient id="i" x1="1.057" y1="0.919" x2="0.211" y2="0.081" xlink:href="#a"/><linearGradient id="j" x1="0.87" y1="0.699" x2="-0.249" y2="0.148" xlink:href="#a"/><linearGradient id="k" x1="0.868" y1="0.704" x2="-0.241" y2="0.146" xlink:href="#a"/></defs><g transform="translate(-137.266 -127.704)"><g transform="translate(137.266 127.704)"><g transform="translate(3.133 7.716)"><path class="a" d="M209.221,194.688l-4.113-1.511,7.228-7.192,2.218.538a17.822,17.822,0,0,1-.749,1.967A18.59,18.59,0,0,1,209.221,194.688Z" transform="translate(-182.078 -171.225)"/><path class="a" d="M195.818,209.506l-3.288,3.271a12.4,12.4,0,0,0,6.478-1.976Z" transform="translate(-174.351 -185.675)"/><path class="a" d="M228.071,180.363l1.026.182c.062-.293.12-.6.171-.922q.056-.349.095-.681Z" transform="translate(-196.186 -166.898)"/><path class="a" d="M211.453,171.516l-7.358-1.749,5.665-4.276,4.866.781c.042.336.076.692.1,1.066s.034.705.037,1.033Z" transform="translate(-181.456 -158.634)"/><path class="a" d="M222.162,159.927l3.4.65c-.081-.443-.185-.916-.319-1.415-.12-.447-.25-.865-.385-1.251Z" transform="translate(-192.555 -153.977)"/><path class="a" d="M213.735,153.8h0l-3.441,2.853-5.648-.843,4.576-3.016,4.31.536h0Z" transform="translate(-181.794 -150.836)"/><path class="a" d="M221.91,149.385l-2.986-.326,2.015-1.349c.173.265.348.548.522.848Q221.706,148.985,221.91,149.385Z" transform="translate(-190.566 -147.711)"/><path class="a" d="M192.708,162.332l4.958.894-5.388,4.211-5.431-1.253Z" transform="translate(-170.86 -156.693)"/><path class="a" d="M169.877,174.856l5.19,1.377-7.944,5.9-5.509-1.827Z" transform="translate(-155.358 -164.388)"/><path class="a" d="M179.951,185.447l7.976-5.928,7.2,1.749-7.2,7.159Z" transform="translate(-166.623 -167.252)"/><path class="a" d="M159.69,204.492l5.86-4.73,8.009,3.11-3.907,4.276a15.189,15.189,0,0,1-9.962-2.656Z" transform="translate(-154.176 -179.689)"/><path class="a" d="M155.008,194.169l-5.925,4.7a14.041,14.041,0,0,1-3.691-3.794l4.377-2.885Z" transform="translate(-145.391 -175.036)"/></g><path class="b" d="M169.34,133.626l-3.557,2.455a16.927,16.927,0,0,0-10.976-5.075c-9.33-.4-14.865,8.139-15.183,8.648-1.711,2.736-2.135,5.3-2.311,5.24-.235-.076.341-4.686,3.256-9.036a19.088,19.088,0,0,1,4.707-4.91,18.4,18.4,0,0,1,10.168-3.241A19.707,19.707,0,0,1,169.34,133.626Z" transform="translate(-137.266 -127.704)"/></g><g transform="translate(183.5 128.359)"><g transform="translate(0 6.922)"><path class="c" d="M272.007,150.371l-1.974,1.646a7.866,7.866,0,0,0-4.816-1.929,4.158,4.158,0,0,0-2.562.8,2.293,2.293,0,0,0-1.067,1.858,2.488,2.488,0,0,0,.879,1.788,12.718,12.718,0,0,0,3.693,2.035,13.932,13.932,0,0,1,4.66,2.762,4.412,4.412,0,0,1,1.209,3.027,4.972,4.972,0,0,1-2.065,4.018,8.019,8.019,0,0,1-5.162,1.646,10.849,10.849,0,0,1-3.943-.726,8.508,8.508,0,0,1-3.108-2l1.93-1.77a7.326,7.326,0,0,0,4.99,2.142,5.154,5.154,0,0,0,3.144-.956,2.76,2.76,0,0,0,1.3-2.248,2.576,2.576,0,0,0-.857-1.894,14.342,14.342,0,0,0-3.868-2.053,12.453,12.453,0,0,1-4.4-2.655,4.374,4.374,0,0,1-1.165-2.991,4.449,4.449,0,0,1,1.857-3.646,7.384,7.384,0,0,1,4.69-1.452A10.805,10.805,0,0,1,272.007,150.371Z" transform="translate(-257.52 -147.608)"/><path class="d" d="M264.435,167.923a11.047,11.047,0,0,1-4-.737,8.7,8.7,0,0,1-3.166-2.039l-.115-.119,2.16-1.981.109.1a7.2,7.2,0,0,0,4.882,2.1,5.02,5.02,0,0,0,3.048-.924,2.586,2.586,0,0,0,1.232-2.118,2.4,2.4,0,0,0-.808-1.779,14.333,14.333,0,0,0-3.818-2.02,12.657,12.657,0,0,1-4.455-2.7,4.551,4.551,0,0,1-1.205-3.1,4.623,4.623,0,0,1,1.918-3.774,7.576,7.576,0,0,1,4.79-1.486,11.009,11.009,0,0,1,6.734,2.636l.157.123-2.227,1.857-.1-.08a7.744,7.744,0,0,0-4.716-1.9,4.022,4.022,0,0,0-2.465.764,2.126,2.126,0,0,0-1,1.73,2.347,2.347,0,0,0,.83,1.672,12.671,12.671,0,0,0,3.642,2,14.131,14.131,0,0,1,4.716,2.8,4.591,4.591,0,0,1,1.252,3.136,5.146,5.146,0,0,1-2.126,4.144A8.211,8.211,0,0,1,264.435,167.923Zm-6.819-2.881a8.463,8.463,0,0,0,2.934,1.845,10.733,10.733,0,0,0,3.885.715,7.9,7.9,0,0,0,5.061-1.611,4.84,4.84,0,0,0,2-3.892,4.279,4.279,0,0,0-1.167-2.919,13.867,13.867,0,0,0-4.6-2.72,12.72,12.72,0,0,1-3.743-2.07,2.651,2.651,0,0,1-.927-1.9,2.455,2.455,0,0,1,1.131-1.987,4.335,4.335,0,0,1,2.658-.829,7.975,7.975,0,0,1,4.812,1.884l1.72-1.435a10.587,10.587,0,0,0-6.377-2.446,7.263,7.263,0,0,0-4.591,1.417,4.315,4.315,0,0,0-1.794,3.52,4.236,4.236,0,0,0,1.124,2.884,12.377,12.377,0,0,0,4.338,2.614A14.3,14.3,0,0,1,268,160.193a2.743,2.743,0,0,1,.907,2.011,2.922,2.922,0,0,1-1.363,2.378,5.333,5.333,0,0,1-3.239.987,7.454,7.454,0,0,1-4.989-2.086Z" transform="translate(-257.153 -147.351)"/></g><g transform="translate(17.843 6.939)"><path class="e" d="M313.849,147.769a9.54,9.54,0,0,1,7.377,3.221,10.34,10.34,0,0,1-.151,14.01,10.18,10.18,0,0,1-14.469,0,10.317,10.317,0,0,1-.151-13.992A9.535,9.535,0,0,1,313.849,147.769Zm-.009,2.425a7.15,7.15,0,0,0-5.311,2.283,7.632,7.632,0,0,0-2.22,5.522,7.833,7.833,0,0,0,1.012,3.894,7.171,7.171,0,0,0,2.735,2.788,7.778,7.778,0,0,0,7.567,0,7.175,7.175,0,0,0,2.736-2.788A7.833,7.833,0,0,0,321.372,158a7.616,7.616,0,0,0-2.229-5.522A7.159,7.159,0,0,0,313.84,150.194Z" transform="translate(-303.65 -147.624)"/><path class="f" d="M313.618,167.933a9.632,9.632,0,0,1-7.349-3.064,10.462,10.462,0,0,1-.152-14.188,10.2,10.2,0,0,1,14.985-.018,10.485,10.485,0,0,1-.152,14.206A9.612,9.612,0,0,1,313.618,167.933Zm0-20.25a9.434,9.434,0,0,0-7.287,3.192,10.173,10.173,0,0,0,.149,13.8,10.036,10.036,0,0,0,14.258,0,10.2,10.2,0,0,0,.149-13.815A9.44,9.44,0,0,0,313.618,147.683Zm-.009,17.9a7.677,7.677,0,0,1-3.855-1,7.346,7.346,0,0,1-2.79-2.843,8.009,8.009,0,0,1-1.031-3.965,7.8,7.8,0,0,1,2.261-5.623,7.453,7.453,0,0,1,10.821,0,7.79,7.79,0,0,1,2.27,5.624,8.012,8.012,0,0,1-1.031,3.965,7.346,7.346,0,0,1-2.79,2.843A7.68,7.68,0,0,1,313.61,165.578Zm0-15.47a7.04,7.04,0,0,0-5.207,2.239,7.525,7.525,0,0,0-2.179,5.422,7.724,7.724,0,0,0,.994,3.823,7.059,7.059,0,0,0,2.681,2.733,7.633,7.633,0,0,0,7.424,0A7.065,7.065,0,0,0,320,161.593a7.726,7.726,0,0,0,.994-3.823,7.507,7.507,0,0,0-2.189-5.421A7.048,7.048,0,0,0,313.61,150.108Z" transform="translate(-303.42 -147.394)"/></g><g transform="translate(42.146)"><path class="g" d="M366.814,129.777h2.478V156.47h-2.478Z" transform="translate(-366.669 -129.632)"/><path class="h" d="M369.206,156.384h-2.767V129.4h2.767Zm-2.478-.289h2.189v-26.4h-2.189Z" transform="translate(-366.439 -129.402)"/></g><g transform="translate(48.907 6.939)"><path class="i" d="M404.4,148.265v19.258h-2.443v-3.31a10.624,10.624,0,0,1-3.5,2.85,9.765,9.765,0,0,1-11.222-2.009,9.941,9.941,0,0,1-2.894-7.213,9.759,9.759,0,0,1,2.92-7.116,9.523,9.523,0,0,1,7.027-2.956,9.089,9.089,0,0,1,4.292,1.009,9.768,9.768,0,0,1,3.372,3.027v-3.54Zm-9.9,1.894a7.472,7.472,0,0,0-6.6,3.872,7.8,7.8,0,0,0,.009,7.779,7.6,7.6,0,0,0,2.8,2.891,7.323,7.323,0,0,0,3.775,1.034,7.737,7.737,0,0,0,3.855-1.025,7.171,7.171,0,0,0,2.8-2.776,7.925,7.925,0,0,0,.981-3.943,7.665,7.665,0,0,0-2.2-5.587A7.293,7.293,0,0,0,394.5,150.158Z" transform="translate(-384.202 -147.624)"/><path class="j" d="M393.993,167.933a9.582,9.582,0,0,1-7.086-3.009,10.122,10.122,0,0,1-2.935-7.314,9.942,9.942,0,0,1,2.962-7.217,9.7,9.7,0,0,1,7.13-3,9.27,9.27,0,0,1,4.359,1.025,9.766,9.766,0,0,1,3.16,2.72V147.89h2.732v19.548h-2.732v-3.061a10.645,10.645,0,0,1-3.288,2.586A9.639,9.639,0,0,1,393.993,167.933Zm.071-20.25a9.423,9.423,0,0,0-6.924,2.913,9.661,9.661,0,0,0-2.879,7.014,9.843,9.843,0,0,0,2.853,7.112,9.62,9.62,0,0,0,11.054,1.98,10.529,10.529,0,0,0,3.448-2.812l.256-.312v3.569h2.154V148.179h-2.154v3.844l-.262-.364a9.671,9.671,0,0,0-3.322-2.983A8.987,8.987,0,0,0,394.064,147.683Zm.185,17.966A7.5,7.5,0,0,1,390.4,164.6a7.775,7.775,0,0,1-2.855-2.944,7.947,7.947,0,0,1-.009-7.921,7.617,7.617,0,0,1,6.73-3.946,7.462,7.462,0,0,1,5.522,2.289,7.837,7.837,0,0,1,2.243,5.688,8.1,8.1,0,0,1-1,4.014,7.348,7.348,0,0,1-2.857,2.831A7.912,7.912,0,0,1,394.25,165.649Zm.018-15.577a7.328,7.328,0,0,0-6.477,3.8,7.657,7.657,0,0,0,.009,7.637,7.486,7.486,0,0,0,2.749,2.837,7.209,7.209,0,0,0,3.7,1.015,7.633,7.633,0,0,0,3.784-1.007,7.066,7.066,0,0,0,2.747-2.72,7.816,7.816,0,0,0,.963-3.872,7.558,7.558,0,0,0-2.16-5.485A7.184,7.184,0,0,0,394.268,150.073Z" transform="translate(-383.972 -147.394)"/></g><g transform="translate(73.6 6.939)"><path class="k" d="M448.375,148.265h2.531v2.814a8.885,8.885,0,0,1,2.389-2.487,4.711,4.711,0,0,1,2.62-.823,4.521,4.521,0,0,1,2.195.655l-1.292,2.089a3.45,3.45,0,0,0-1.31-.336,3.582,3.582,0,0,0-2.389,1.018,6.437,6.437,0,0,0-1.752,3.16,30.3,30.3,0,0,0-.46,6.656v6.514h-2.531Z" transform="translate(-448.23 -147.624)"/><path class="l" d="M450.821,167.437H448V147.89h2.821v2.5a8.619,8.619,0,0,1,2.166-2.152,4.874,4.874,0,0,1,2.7-.847,4.681,4.681,0,0,1,2.266.673l.132.074-1.438,2.324-.115-.05a3.328,3.328,0,0,0-1.253-.324,3.459,3.459,0,0,0-2.293.981,6.325,6.325,0,0,0-1.709,3.091,30.355,30.355,0,0,0-.455,6.616Zm-2.531-.289h2.242v-6.369a30.547,30.547,0,0,1,.465-6.694,6.6,6.6,0,0,1,1.8-3.229,3.736,3.736,0,0,1,2.485-1.054,3.423,3.423,0,0,1,1.252.3l1.147-1.854a4.293,4.293,0,0,0-1.991-.564,4.59,4.59,0,0,0-2.541.8,8.8,8.8,0,0,0-2.349,2.447l-.264.388v-3.139h-2.242Z" transform="translate(-448 -147.394)"/></g><g transform="translate(88.192)"><path class="a" d="M486.214,129.777h2.478V156.47h-2.478Z" transform="translate(-486.069 -129.632)"/><path class="a" d="M488.606,156.384h-2.767V129.4h2.767Zm-2.478-.289h2.189v-26.4h-2.189Z" transform="translate(-485.839 -129.402)"/></g><g transform="translate(94.954 6.939)"><path class="a" d="M523.8,148.265v19.258h-2.443v-3.31a10.627,10.627,0,0,1-3.5,2.85,9.765,9.765,0,0,1-11.222-2.009,9.939,9.939,0,0,1-2.894-7.213,9.759,9.759,0,0,1,2.921-7.116,9.523,9.523,0,0,1,7.027-2.956,9.09,9.09,0,0,1,4.292,1.009,9.769,9.769,0,0,1,3.372,3.027v-3.54Zm-9.9,1.894a7.472,7.472,0,0,0-6.6,3.872,7.8,7.8,0,0,0,.008,7.779,7.6,7.6,0,0,0,2.8,2.891,7.323,7.323,0,0,0,3.775,1.034,7.736,7.736,0,0,0,3.855-1.025,7.171,7.171,0,0,0,2.8-2.776,7.925,7.925,0,0,0,.981-3.943,7.664,7.664,0,0,0-2.2-5.587A7.292,7.292,0,0,0,513.9,150.158Z" transform="translate(-503.602 -147.624)"/><path class="a" d="M513.394,167.933a9.581,9.581,0,0,1-7.086-3.009,10.121,10.121,0,0,1-2.936-7.314,9.941,9.941,0,0,1,2.963-7.217,9.7,9.7,0,0,1,7.13-3,9.271,9.271,0,0,1,4.36,1.025,9.77,9.77,0,0,1,3.16,2.72V147.89h2.732v19.548h-2.732v-3.061a10.654,10.654,0,0,1-3.287,2.586A9.645,9.645,0,0,1,513.394,167.933Zm.07-20.25a9.423,9.423,0,0,0-6.924,2.913,9.661,9.661,0,0,0-2.879,7.014,9.842,9.842,0,0,0,2.853,7.112,9.62,9.62,0,0,0,11.055,1.981,10.523,10.523,0,0,0,3.448-2.812l.256-.312v3.569h2.154V148.179h-2.154v3.844l-.262-.364a9.672,9.672,0,0,0-3.322-2.983A8.986,8.986,0,0,0,513.464,147.683Zm.186,17.966A7.5,7.5,0,0,1,509.8,164.6a7.775,7.775,0,0,1-2.855-2.944,7.95,7.95,0,0,1-.009-7.921,7.618,7.618,0,0,1,6.73-3.946,7.462,7.462,0,0,1,5.522,2.289,7.836,7.836,0,0,1,2.243,5.688,8.1,8.1,0,0,1-1,4.014,7.347,7.347,0,0,1-2.858,2.831A7.912,7.912,0,0,1,513.65,165.649Zm.018-15.577a7.328,7.328,0,0,0-6.477,3.8,7.658,7.658,0,0,0,.009,7.637,7.487,7.487,0,0,0,2.75,2.837,7.207,7.207,0,0,0,3.7,1.015,7.633,7.633,0,0,0,3.784-1.007,7.066,7.066,0,0,0,2.747-2.72,7.816,7.816,0,0,0,.963-3.872,7.556,7.556,0,0,0-2.16-5.485A7.183,7.183,0,0,0,513.668,150.073Z" transform="translate(-503.372 -147.394)"/></g><g transform="translate(120.585 6.939)"><path class="a" d="M570.209,148.265h2.478v3.452a10.363,10.363,0,0,1,3.293-2.965,8.09,8.09,0,0,1,3.929-.982,6.832,6.832,0,0,1,3.833,1.1,6.54,6.54,0,0,1,2.469,2.956,15.628,15.628,0,0,1,.8,5.788v9.913h-2.478v-9.187a22.685,22.685,0,0,0-.276-4.443,4.88,4.88,0,0,0-1.652-2.877,4.993,4.993,0,0,0-3.187-.964,6.114,6.114,0,0,0-4.028,1.487,6.965,6.965,0,0,0-2.346,3.682,25.6,25.6,0,0,0-.354,5.239v7.063h-2.478Z" transform="translate(-570.064 -147.624)"/><path class="a" d="M586.921,167.437h-2.767v-9.332a22.69,22.69,0,0,0-.271-4.408,4.765,4.765,0,0,0-1.6-2.8,4.873,4.873,0,0,0-3.1-.934,6,6,0,0,0-3.935,1.453,6.852,6.852,0,0,0-2.3,3.607,25.621,25.621,0,0,0-.349,5.2v7.207h-2.767V147.89H572.6v3.173a10.3,10.3,0,0,1,3.078-2.669,8.27,8.27,0,0,1,4-1,7,7,0,0,1,3.912,1.121,6.713,6.713,0,0,1,2.523,3.02,15.835,15.835,0,0,1,.808,5.845Zm-2.478-.289h2.189V157.38a15.58,15.58,0,0,0-.785-5.731,6.428,6.428,0,0,0-2.416-2.892,6.719,6.719,0,0,0-3.753-1.074,7.983,7.983,0,0,0-3.86.965,10.261,10.261,0,0,0-3.246,2.924l-.26.347v-3.741h-2.189v18.969h2.189V160.23a25.815,25.815,0,0,1,.358-5.274,7.135,7.135,0,0,1,2.393-3.758,6.277,6.277,0,0,1,4.12-1.521,5.15,5.15,0,0,1,3.276,1,5.039,5.039,0,0,1,1.7,2.958,22.882,22.882,0,0,1,.279,4.475Z" transform="translate(-569.834 -147.394)"/></g><g transform="translate(141.861)"><path class="a" d="M645.433,129.777V156.47H642.99v-3.31a10.626,10.626,0,0,1-3.5,2.85A9.765,9.765,0,0,1,628.272,154a9.939,9.939,0,0,1-2.894-7.213,9.759,9.759,0,0,1,2.921-7.116,9.523,9.523,0,0,1,7.027-2.956,9.087,9.087,0,0,1,4.292,1.009,9.767,9.767,0,0,1,3.372,3.027V129.777Zm-9.9,9.328a7.472,7.472,0,0,0-6.6,3.872,7.8,7.8,0,0,0,.008,7.779,7.6,7.6,0,0,0,2.8,2.891,7.323,7.323,0,0,0,3.775,1.034,7.736,7.736,0,0,0,3.855-1.025,7.173,7.173,0,0,0,2.8-2.776,7.924,7.924,0,0,0,.982-3.943,7.665,7.665,0,0,0-2.2-5.587A7.293,7.293,0,0,0,635.529,139.105Z" transform="translate(-625.233 -129.632)"/><path class="a" d="M635.025,156.879a9.582,9.582,0,0,1-7.086-3.009A10.122,10.122,0,0,1,625,146.557a9.941,9.941,0,0,1,2.963-7.217,9.7,9.7,0,0,1,7.13-3,9.272,9.272,0,0,1,4.36,1.025,9.769,9.769,0,0,1,3.16,2.72V129.4h2.732v26.982h-2.732v-3.061a10.652,10.652,0,0,1-3.287,2.586A9.645,9.645,0,0,1,635.025,156.879Zm.071-20.25a9.423,9.423,0,0,0-6.924,2.913,9.661,9.661,0,0,0-2.879,7.014,9.84,9.84,0,0,0,2.853,7.112,9.62,9.62,0,0,0,11.055,1.981,10.523,10.523,0,0,0,3.448-2.812l.256-.312v3.569h2.153v-26.4H642.9V140.97l-.262-.364a9.671,9.671,0,0,0-3.322-2.983A8.986,8.986,0,0,0,635.1,136.63Zm.186,17.966a7.5,7.5,0,0,1-3.848-1.054,7.775,7.775,0,0,1-2.855-2.944,7.949,7.949,0,0,1-.009-7.921,7.618,7.618,0,0,1,6.73-3.946,7.462,7.462,0,0,1,5.522,2.289,7.837,7.837,0,0,1,2.243,5.688,8.1,8.1,0,0,1-1,4.014,7.344,7.344,0,0,1-2.857,2.831A7.912,7.912,0,0,1,635.281,154.6Zm.018-15.577a7.329,7.329,0,0,0-6.478,3.8,7.659,7.659,0,0,0,.009,7.637,7.488,7.488,0,0,0,2.75,2.837,7.207,7.207,0,0,0,3.7,1.015,7.634,7.634,0,0,0,3.784-1.007,7.067,7.067,0,0,0,2.747-2.72,7.817,7.817,0,0,0,.963-3.872,7.557,7.557,0,0,0-2.16-5.485A7.183,7.183,0,0,0,635.3,139.019Z" transform="translate(-625.003 -129.402)"/></g></g></g></svg>