<svg id="Message" xmlns="http://www.w3.org/2000/svg" width="22.943" height="15.536" viewBox="0 0 22.943 15.536">
  <path id="Контур_1001" data-name="Контур 1001" d="M17.137,0a6.888,6.888,0,0,1,4.107,1.278,3.894,3.894,0,0,1,1.7,3.08h0v6.818c0,2.408-2.6,4.359-5.806,4.359H5.8c-3.2,0-5.8-1.951-5.8-4.359H0V4.359C0,1.951,2.591,0,5.8,0H17.137Zm1.3,4.488a1.058,1.058,0,0,0-.644.173h0L12.619,7.768a2.269,2.269,0,0,1-2.294,0h0L5.162,4.661a1.094,1.094,0,0,0-1.147.06.545.545,0,0,0-.081.863h0l.15.112L9.3,8.76a4.576,4.576,0,0,0,4.484,0h0l5.175-3.116.092-.069a.548.548,0,0,0-.013-.863A1.111,1.111,0,0,0,18.435,4.488Z" transform="translate(0 0)" fill="#383838"/>
</svg>
