<svg xmlns="http://www.w3.org/2000/svg" xmlns:xlink="http://www.w3.org/1999/xlink" width="89.034" height="58.643" viewBox="0 0 89.034 58.643">
  <defs>
    <linearGradient id="linear-gradient" x1="0.5" x2="0.5" y2="1" gradientUnits="objectBoundingBox">
      <stop offset="0" stop-color="#fff"/>
      <stop offset="1" stop-color="#fff"/>
    </linearGradient>
  </defs>
  <g id="noun_play_82451" transform="translate(0)">
    <g id="Сгруппировать_479" data-name="Сгруппировать 479" transform="translate(0 0)">
      <path id="Контур_1440" data-name="Контур 1440" d="M87.384,50.315c-1.951,7.927-9.371,8.3-16.609,8.672a515.677,515.677,0,0,1-52.016,0C11.521,58.611,4.1,58.242,2.15,50.315c-2.533-10.294-2.533-29.692,0-39.986C4.1,2.4,11.521,2.031,18.759,1.657a515.284,515.284,0,0,1,52.016,0c7.238.374,14.659.745,16.609,8.672C89.917,20.623,89.917,40.021,87.384,50.315ZM35.576,18.845,58.645,30.322,35.576,41.8C40.171,30.322,40.171,30.322,35.576,18.845Z" transform="translate(-0.25 -1)" fill-rule="evenodd" fill="url(#linear-gradient)"/>
    </g>
  </g>
</svg>
