<svg xmlns="http://www.w3.org/2000/svg" width="199.499" height="134.223" viewBox="0 0 199.499 134.223"><defs><style>.a{fill:#d1e9ed;}.b{fill:#feede5;}.b,.c,.d,.e,.f,.g,.h,.i,.j,.k,.l{fill-rule:evenodd;}.c{fill:#fff;}.d{fill:#dfe2eb;}.e{fill:#fbdfba;}.f{fill:#eac6b0;}.g{fill:#fcd5cb;}.h{fill:#ffd09f;}.i{fill:#b1bbc9;}.j{fill:#d8d6d7;}.k{fill:#a6cbd3;}.l{fill:#e4f2b5;}.m{fill:#628296;}</style></defs><g transform="translate(28.804 -8.338)"><path class="a" d="M-21.55-10.627c22.352-25.84,50.713,0,89.407,0s49.029-25.84,65.372,0,38.695,77.519,0,103.359-116.084,25.84-154.779,0S-43.9,15.213-21.55-10.627Z" transform="translate(16.035 30.449)"/><g transform="translate(0.817 31.581)"><path class="b" d="M2044.7,795.074a7.714,7.714,0,0,0-2.657-.925,5.217,5.217,0,0,0-4.347.9,2.058,2.058,0,0,0-.559.474c-.983,1.43-.792,3.187-.86,4.82a49.485,49.485,0,0,0-.043,8.219,21.456,21.456,0,0,0,.71,2.625,4.291,4.291,0,0,0,1.1,1.721c.354.394,0-.058.151.495.336,1.269.141,2.645.366,3.938.085.49.243,1.517.71,1.829a.371.371,0,0,0,.323-.043c.491-.348.856-.778,1.377-1.119.183-.12.368-.238.559-.344a12.449,12.449,0,0,1,2.044-.8,23.824,23.824,0,0,0,3.615-1.678,5.662,5.662,0,0,0,1.119-1.183c.365-.386.788-.721,1.183-1.076.51-.457,1.4-1.14,1.463-1.893.059-.737-.671-1.137-.366-1.915.332-.845,1.282-1.505,1.786-2.238.362-.527-.456-2.711.151-2.8.4-.058,1.089-1.027,1.011-2.109-.115-1.61-1.34-2.263-2.582-2.948-1.141-.629-2.281-1.266-3.4-1.936a19.067,19.067,0,0,1-1.872-1.27C2045.367,795.588,2045.029,795.285,2044.7,795.074Z" transform="translate(-1925.768 -773.666)"/><path class="b" d="M1564.323,1483.7c.146-.031.156-.458.14-.574a3.035,3.035,0,0,0-.506-1.106c-.076-.132-.168-.409-.049-.545.5-.566,1.451-.838,1.573-1.685a3.392,3.392,0,0,0-1.5-2.693c-.266-.206-.565-.311-.834-.5-1.013-.721-1.948-1.522-3.016-2.162-.518-.31-1.026-.805-1.686-.781-.332.012-.546.445-1.23.771a4.767,4.767,0,0,0-1.5.9c-.353.322-.187.9-.36,1.322-.188.461-.644.577-.7,1.162-.048.5.507.98.547,1.24s-.207.452-.113.82a2.4,2.4,0,0,0,.48.914c.153.178.508.441.568.661.087.318,0,.491.141.787.373.782,1.067,1.1,1.653,1.584a6.835,6.835,0,0,1,1.274,1.06c.29.478.343,1.36.967,1.466a3.656,3.656,0,0,0,3.177-1.208,4.186,4.186,0,0,0,.7-1.018C1564.123,1483.983,1564.172,1483.729,1564.323,1483.7Z" transform="translate(-1473.624 -1411.978)"/><path class="b" d="M500.95,812.791c-.348-.262.026-.012-.713-.259-.35-.117-1.586-.684-1.717-.748a9.262,9.262,0,0,1-1.981-1.213,11.226,11.226,0,0,0-1.115-1,12.194,12.194,0,0,1-2.981-2.534,8.44,8.44,0,0,0-1.854-2.347,1.406,1.406,0,0,0-.836-.312c-1.047.1-1.509,1.039-1.95,1.839-.215.39-.594.67-.775,1.08a10.238,10.238,0,0,0-.627,5.239,13.006,13.006,0,0,1-.317,5.008,1.829,1.829,0,0,1-.756.965c-.077.067-.387.2-.335.338a9.688,9.688,0,0,0,.617,1.02c1.142,1.943,2.834,3.449,3.988,5.359.9,1.485,1.321,3.485,2.921,4.467a3.458,3.458,0,0,0,.521.3,1.2,1.2,0,0,0,1.315-.426c.772-1.036.574-2.377,1.411-3.384.354-.427.289-1.307.652-1.537a2.947,2.947,0,0,0,.92-.786,17.567,17.567,0,0,0,1.1-1.781c.374-.635,1.4-1.93,1.762-2.572,1.067-1.894,2.025-4.545,1.633-6C501.749,813.173,501.223,813,500.95,812.791Z" transform="translate(-468.984 -783.395)"/><path class="b" d="M1085.783,1525.264c.1.009-.178.032-.267.11-.331.294-.554.793-.755.81a5.169,5.169,0,0,0-1.638.285c-.37.128-.856.258-.9.8s.188.627.038.62c-1.058-.046-2.577-.262-3.242.5-.158.18.026.42-.2.516-.46.194-1.02.174-1.27.59-.151.251.1.575.331.736.276.193-.046.589.129.847.392.578.9.685,1.85.865a8.922,8.922,0,0,0,2.78.4,2.051,2.051,0,0,0,1.352-.766c.243-.307.321-.684.572-.986.274-.329.634-.532.814-.947.12-.277.041-.608.15-.88.077-.194.243-.322.3-.531.023-.086-.048-.286.033-.332.22-.124.742-.3.9-.681.211-.5.1-.638-.166-1.065a4.317,4.317,0,0,0-.431-.577A4.4,4.4,0,0,1,1085.783,1525.264Z" transform="translate(-1025.477 -1460.457)"/><path class="b" d="M551.294,1534.322c-.07.006.478-.012.554,0a4.191,4.191,0,0,1,1.087.429,3.53,3.53,0,0,0,1.874.561,9.7,9.7,0,0,0,1.522-.418,4.363,4.363,0,0,0,1.678-.9.984.984,0,0,0,.273-.343c.032-.118-.006-.321.1-.414a10.433,10.433,0,0,0,1.745-1.407c.251-.325.263-.859.512-1.172.338-.424.846-.519,1.169-1a1.766,1.766,0,0,0,.255-.932c.014-.143.408-.111.523-.167.445-.216.894-.7.562-1.182a1.4,1.4,0,0,0-1.319-.54c-.088,0-1.139.045-1.178-.1-.06-.215.234-.568.354-.726.05-.066.366-.225.078-.217a3.37,3.37,0,0,1-.878-.031,6.32,6.32,0,0,0-1.668-.461c-.386.012-.878.017-1.261.055a11.776,11.776,0,0,1-1.754-.094,8.672,8.672,0,0,0-3.917.972,6.184,6.184,0,0,1-1.229.534.817.817,0,0,0-.54.179,5.911,5.911,0,0,0-.647,1.361c-.627,1.293-1.157,2.493-.258,3.818a8.935,8.935,0,0,0,1.526,1.527,3.742,3.742,0,0,0,.565.465C551.058,1534.142,551.422,1534.311,551.294,1534.322Z" transform="translate(-528.589 -1460.452)"/><path class="c" d="M2219.33,1052.59a1.3,1.3,0,0,1-.211-.494c-.087-.349-.124-.6-.363-.763s-.545-.407-.472-.138.3.523.21.748a2.132,2.132,0,0,1-.741,1c-.4.225-.872.516-1.279.77a16.172,16.172,0,0,0-1.352.93,12.737,12.737,0,0,0-.61,1.853,1.1,1.1,0,0,1,.414.262,4.533,4.533,0,0,1,.45.669s.087.189.378-.3a3.094,3.094,0,0,1,.807-1c.458-.407.8-.741,1.177-1.09a4.557,4.557,0,0,0,1.039-1.083,8.38,8.38,0,0,0,.538-.988A1.416,1.416,0,0,0,2219.33,1052.59Z" transform="translate(-2093.368 -1015.093)"/><path class="c" d="M1969.091,1108.724l-1.274-1.72-.655-.819a7.98,7.98,0,0,1-1.05-1.154,1.167,1.167,0,0,1,.045-.752c.1-.179.514-.693.655-.909s.592-.607.342-.7c-.782-.29-1.568,1.465-1.6,1.018-.075-1.107-.327-2.125-.339-2.842a10.715,10.715,0,0,1,.377-1.9c.052-.165.4-.856.089-.879a8.65,8.65,0,0,1-1.318-.286c-.146-.059-.085.079-.235.344s-.888,1.419-1.087,1.709a3.152,3.152,0,0,0-.513,1.081,9.549,9.549,0,0,1-.7,1.736c-.257.523-.777,1.527-1.131,2.167a27.145,27.145,0,0,0-1.312,2.615c-.159.486-.664,1.739-.818,2.413s-.542,2.835-.611,3.425a27.338,27.338,0,0,0-.1,3.213c.041,1.071.151,1.963.206,3.048a30.116,30.116,0,0,0,.453,3.583,17.276,17.276,0,0,0,.7,2.65,16.636,16.636,0,0,0,.714,1.757c.178.3.426-.289.81-.947a9.835,9.835,0,0,0,1.057-2.073c.22-.742.81-2,1.057-2.856s1.03-2.869,1.263-3.515.947-2.142,1.25-2.814.865-1.7,1.126-2.252a15.4,15.4,0,0,1,1.03-1.84,14.771,14.771,0,0,0,.988-1.51C1968.69,1109.345,1969.091,1108.724,1969.091,1108.724Z" transform="translate(-1852.305 -1058.948)"/><path class="d" d="M448.445,1034.147l-.134-.434a1.323,1.323,0,0,1-.562.257c-.3.042-.543,0-.745.14a.836.836,0,0,0-.439.543,4.233,4.233,0,0,0-.146,1.087c-.012.336.055.55-.067.793s-.342.61-.342.61-.171.006-.354-.256a3.367,3.367,0,0,1-.61-1.025c-.079-.366-.183-.855-.281-1.288a4.657,4.657,0,0,0-.616-1.361,10.494,10.494,0,0,0-.922-.672c-.293-.238-1.294-.885-1.691-1.166s-1.117-.732-1.752-1.172-1.489-1.019-1.874-1.355-.668-.549-.656-.652.337-.412.429-.68.209-.469-.035-.48a.8.8,0,0,0-.75.245,2.171,2.171,0,0,0-.653.948c-.146.486-.172.935-.317,1.348a3.622,3.622,0,0,1-.553,1.124c-.155.113-.12-.021-.493.12s-.894.352-1.028.373-.3.078.077.26,1.415.7,2.114,1.137a19.023,19.023,0,0,1,2.317,1.9,31,31,0,0,1,2.492,2.532,72.22,72.22,0,0,1,4.592,6.6c1.129,2.082,2.107,3.758,2.568,4.6s1.337,2.474,1.429,2.689.154-.661.184-1.506.23-1.905.215-2.8-.092-2.351-.108-3a20.564,20.564,0,0,0-.215-2.9,30.072,30.072,0,0,0-.676-3.181c-.215-.676-.369-1.168-.476-1.6s0-.446.031-.937S448.445,1034.147,448.445,1034.147Z" transform="translate(-420.813 -992.51)"/><path class="d" d="M834.488,1262.009l-.41-.317s.147.635.248,1.006.379,1.773.472,2.144.333,1.4.395,1.788.279,1.378.325,1.834a2.939,2.939,0,0,0,.186.782,18.56,18.56,0,0,0,1.362-2.1c.049-.133-.085-.232-.224-.813a12.61,12.61,0,0,0-1.881-3.8A6.376,6.376,0,0,0,834.488,1262.009Z" transform="translate(-796.853 -1212.907)"/><path class="d" d="M233.719,1162.206a4.624,4.624,0,0,0-.979.445,7.834,7.834,0,0,0-1.125.976,6.744,6.744,0,0,0-1.181,1.806c-.171.573-.491,1.35-.571,1.845s-.247,1.614-.309,2.087-.182,1.985-.2,2.51-.171,1.444-.144,1.995.066,2.389.1,3.006.039,2.021.066,2.756a26.35,26.35,0,0,1-.105,2.809c-.066.525-.341,2.651-.407,3.163a18.159,18.159,0,0,0-.381,2.035,7.3,7.3,0,0,0,.235,1.438c.156.648.48,2.276.655,3.082a12.16,12.16,0,0,0,.552,2.2,3.721,3.721,0,0,0,1.732,1.395,5.469,5.469,0,0,0,2.217.386c.835-.045,2.931-.072,3.549-.117a22.948,22.948,0,0,1,2.918.046,23.009,23.009,0,0,0,3.311-.076,16.118,16.118,0,0,0,2.8-.657c.472-.226,1.081-.566,1.37-.734a15.719,15.719,0,0,1,1.478-.683c.4-.155.844-.3,1.139-.408s.448-.2.174-.352a2.891,2.891,0,0,1-.826-.754,10.088,10.088,0,0,1-.68-1.621,5.319,5.319,0,0,1-.38-1.653,8.508,8.508,0,0,1,.1-1.774,6.953,6.953,0,0,1,.408-1.039c.256-.373.454-.8.081-.666a12.6,12.6,0,0,1-1.424.528,4.5,4.5,0,0,1-1.233.214c-.7.032-1.586.151-2.354.156s-2.129-.1-2.379-.126a1.259,1.259,0,0,0-.824.1,4.4,4.4,0,0,1-1.155.423c-.232.025-.373.11-.269-.6a20.452,20.452,0,0,0,.141-2.671,17.805,17.805,0,0,1,.226-2.182,17.419,17.419,0,0,0,.15-3.451,15.082,15.082,0,0,0-.433-2.812c-.245-.7-1.022-3.084-1.345-3.747s-1.085-2.421-1.318-3.04-.466-1.6-.6-2.008a11.972,11.972,0,0,0-.628-1.417,9.414,9.414,0,0,0-1.139-1.874C234.351,1162.738,233.719,1162.206,233.719,1162.206Z" transform="translate(-228.08 -1119.469)"/><path class="c" d="M2236.092,459.685l.059.029Z" transform="translate(-2113.636 -459.656)"/><path class="c" d="M2233.189,459.2c.164.131.119.062.177.176Z" transform="translate(-2110.91 -459.201)"/><path class="c" d="M2234.156,461.136l.088.118Z" transform="translate(-2111.818 -461.018)"/><path class="e" d="M2229.569,871.317l.225-1.69s-1.129-.424-1.467-.549a17.891,17.891,0,0,0-2.386-.481c-.467-.039-1.762-.058-2.065-.033s-.306.129-.055.714.183,1.48.428,1.88a2.54,2.54,0,0,0,.853.835c.213.108,1.548-.844,1.548-.844a.707.707,0,0,1,.484-.087c.213.071.418-.127.537-.258s.5-.464.812-.361.682.193.838.456Z" transform="translate(-2101.942 -843.668)"/><path class="f" d="M514.335,841.864l-2.036-2.623-3.8-1.19s-.447,1.1-.631,1.626a11.325,11.325,0,0,0-.467,2.148c-.013.407.2.047.374-.344a1.605,1.605,0,0,1,.786-.855c.318-.118.851-.394,1.187.009s.818.985.807,1.277a10.721,10.721,0,0,0-.037,1.284,3.283,3.283,0,0,0,.648.957s.54-.843.808-1.186a2.263,2.263,0,0,1,.9-.78,2.417,2.417,0,0,1,.912-.24A2.783,2.783,0,0,0,514.335,841.864Z" transform="translate(-490.034 -815.02)"/><path class="g" d="M2055.075,998.511c0-.54-1.251-.638-1.72-.674-.156-.012-.627-.028-.684.2a1.916,1.916,0,0,0,.121.785c.163.651.48,1.982,1.509,1.428A2.06,2.06,0,0,0,2055.075,998.511Z" transform="translate(-1941.352 -965.087)"/><path class="h" d="M1968.1,671.934s-1.125-.5-1.541-.626-2.815-.517-3.38-.584a17.28,17.28,0,0,0-3.341.1,7.2,7.2,0,0,0-2.932,1.225,8.639,8.639,0,0,0-2.067,2.239,12.2,12.2,0,0,0-1.2,2.345c-.284.8-.707,2.2-.788,2.587s.249.71-.467.727a10.876,10.876,0,0,0-1.684.224,4.409,4.409,0,0,0-1.367.318c-.17.156-.337.307-.094.688a1.881,1.881,0,0,0,.872.858,5.988,5.988,0,0,0,1.609.742c.574.123,1.866.483,2.511.545a30.738,30.738,0,0,0,3.084,0c1.025-.039,2.972-.159,3.619-.213s1.812-.328,2.921-.338a29.542,29.542,0,0,1,3.218-.038,22.984,22.984,0,0,1,3.522.583c.707.256,1.241.462,1.241.462a14.106,14.106,0,0,0-.188,1.436c.017.243,1.052.519,1.567.256s.776-.19.863-.555a1.127,1.127,0,0,0-.12-1.041c-.245-.253-.471-.188-.425-.69a14.761,14.761,0,0,0,.014-3.054,23.284,23.284,0,0,0-1.031-3.678,11.275,11.275,0,0,0-1.693-2.649,8.831,8.831,0,0,0-1.716-1.38C1968.552,672.145,1968.1,671.934,1968.1,671.934Z" transform="translate(-1844.099 -657.829)"/><path class="c" d="M525.571,680.592a8.882,8.882,0,0,1,.179-1.148,14.783,14.783,0,0,0,.179-3.82,6.483,6.483,0,0,0-.705-2.728,12.285,12.285,0,0,0-2.316-2.911,10.714,10.714,0,0,0-3.163-2,7.143,7.143,0,0,0-3.527-.456,12.4,12.4,0,0,0-3.273,1.17,13.925,13.925,0,0,0-2.591,1.755,3.319,3.319,0,0,1-.98.662c-.388.212-.477.175-.733.417a3.7,3.7,0,0,0-.715,1.443c-.275.785-.335,1.239-.748,1.577s-1.086.776-1,1,.035.348.544.463.727,0,1.073.168a5.227,5.227,0,0,1,1.525.871,17.349,17.349,0,0,1,2.084,2.181c.39.552,2.429,3.186,3.126,3.872a9.763,9.763,0,0,0,3.918,2.194,27.742,27.742,0,0,0,3.972.973,11.679,11.679,0,0,0,3.19-.036c.593-.117,1.147-.163,1.285-.555s.27-.419,0-.877-.883-1.43-1.041-1.7-.318-.331-.24-.627a7.743,7.743,0,0,0,.331-1.038c.037-.337-.013-.507-.148-.62S525.569,680.738,525.571,680.592Z" transform="translate(-488.874 -654.785)"/><path class="c" d="M1421.313,1116.836l-.451-.026-12.642,2.941,12.731-1.995,19.674,28.437,1.151-.011Z" transform="translate(-1336.092 -1076.833)"/><path class="c" d="M622.273,1288.5l-2.416,2.265s-2.092.148-2.523.211a9.41,9.41,0,0,1-1.833.031c-.317-.058-.66-.185-.947-.217s-2.1-.1-3.718-.1-3.9.1-4.566.117a19.673,19.673,0,0,1-3.048-.054,8.229,8.229,0,0,1-1.675-.6,22.162,22.162,0,0,1-2.351-1.444,7.447,7.447,0,0,0-1.126-.84,4.8,4.8,0,0,0-1.25-.577,17,17,0,0,0-1.467,1.868c-.3.426-9.7,14.192-9.7,14.192a2.159,2.159,0,0,0,.6.059,9.131,9.131,0,0,1,1.256-.033.8.8,0,0,1,.68.368c.149.3.3.727.074.943a3.516,3.516,0,0,1-.936.47c-.172.072-.138-.013-.136.294a1.276,1.276,0,0,1-.3.833,6.251,6.251,0,0,1-.878.651c-.209.122-.346.062-.366.25a1.713,1.713,0,0,1-.188.733,2.731,2.731,0,0,1-.8,1.033c-.349.218-.951.5-1.075.624s.1.256-.188.58a3.726,3.726,0,0,1-1.3.9c-.535.224-1.348.55-1.616.628a2.785,2.785,0,0,1-1.461-.045c-.456-.186-1.076-.511-1.554-.649a3.618,3.618,0,0,0-1.045-.223c-.165.03-.56.3-.846.387s-.633.208-.1.5a17.846,17.846,0,0,0,2.082,1.264,2.066,2.066,0,0,0,1.143-.017,4.346,4.346,0,0,1,1.219-.333c.429-.007,1.218.111,1.513.129s3.95.245,4.742.273,2.208.194,3.015.192,2.622-.022,3.353-.024,5.338.008,5.643.1a1.335,1.335,0,0,1,.762.418c.253.289.341.477.718.578a5.327,5.327,0,0,0,1.308.134c.26-.02,6.338-6.112,6.338-6.112a1.151,1.151,0,0,1-.693-.323c-.208-.272-.518-.34-.435-.67s-.027-.414-.246-.657-.266-.429-.134-.6a1.834,1.834,0,0,1,.728-.387c.222-.075.517-.075.577-.179s-.051-.285.142-.514a1.028,1.028,0,0,1,.746-.494,6.721,6.721,0,0,1,1.422-.079,3.1,3.1,0,0,0,.972-.018c.18-.084.147-.172.124-.386s-.087-.417.185-.614a3.342,3.342,0,0,1,1.1-.547c.282-.033.887-.136,1.106-.142s11.844-11.746,11.844-11.746a.934.934,0,0,0,.064-.82,2.089,2.089,0,0,0-.645-1.067,4.516,4.516,0,0,0-1.164-.523A5.4,5.4,0,0,0,622.273,1288.5Z" transform="translate(-553.718 -1236.957)"/><path class="i" d="M1617.655,1108.085c.4.509.531.976.976,1.04a2.672,2.672,0,0,0,1.351-.092c.453-.17.346-.219.863-.24s1.547-.078,2.235-.081,2.162-.058,2.737-.047,2.336-.132,2.828-.19,2.078-.328,2.535-.424a8.549,8.549,0,0,0,1.594-.476c.373-.184.681-.249.8-.344s.079.286.023.64-.2,2.12-.354,2.756-.284,1.6-.425,2.056c-.135.437-.741,2.54-.909,2.937h31.415l-.152-6.36.057-6.761s.005-.757.219-.571a5.9,5.9,0,0,0,1.928.854c.425,0,.85-.491,1.138-.816s.542-.729,1.011-1.2a15.653,15.653,0,0,0,1.379-1.438,9.34,9.34,0,0,0,1.6-2.522,12.581,12.581,0,0,0,.889-3.388c.149-1.358.707-6.447.689-7.271a24.168,24.168,0,0,0-.207-2.643c-.081-.4-.182-1.428-.284-1.925a15.771,15.771,0,0,0-.648-2.978,5.254,5.254,0,0,0-1.287-1.955,6.3,6.3,0,0,0-1.935-.881c-.486-.061-1.834-.213-2.35-.354a7.773,7.773,0,0,1-1.51-.537c-.3-.182-.79-.385-1.186-.567a5.488,5.488,0,0,1-1.317-.74c-.435-.365-1.226-.962-1.54-1.307a10.331,10.331,0,0,1-1.1-1.206c-.365-.526-.88-1.438-.893-1.258a3.269,3.269,0,0,1-.234,1.063,5.287,5.287,0,0,1-.976,1.316c-.368.354-1.43,1.4-1.651,1.6a12.392,12.392,0,0,0-.848.909c-.12.16-.2.531-.323.3s-.294-.672-.535-.733a2.362,2.362,0,0,0-.964-.115c-.3.067-2.215.54-2.685.737s-1.578.715-1.864.891a4.983,4.983,0,0,0-1.385,1.191,6.605,6.605,0,0,0-.789,1.289,1.491,1.491,0,0,0,.421.953,9.9,9.9,0,0,1,.8.869c.246.337,1.374,1.777,1.6,2.089s.233.208.06.538a16.759,16.759,0,0,1-.977,1.615,7.729,7.729,0,0,0-.957,1.554c-.326.723-1.937,3.779-2.387,4.858s-1.152,2.855-1.435,3.83a25.821,25.821,0,0,1-.938,2.712,22.425,22.425,0,0,1-1.16,2.475c-.333.493-1.031,1.46-1.031,1.46a2.628,2.628,0,0,1-.606-1.093c-.186-.681-.758-2.4-.867-3.183s-.5-3.367-.528-4.184-.1-1.955-.144-2.8.135-3.446.2-4.021a28.7,28.7,0,0,1,.872-3.672c.24-.595,1.01-2.41,1.241-2.836s1.91-3.505,2.09-3.9.1-.665.231-.945-.022-.595-.537-.355-.745.175-1.139.4a13.672,13.672,0,0,1-1.423.639c-.364.144-1.13.3-1.335.389a10.523,10.523,0,0,1-1.357.571c-.42.11-.786.1-1.043.166a3.976,3.976,0,0,0-1.555.84,6.348,6.348,0,0,0-1.212,1.65c-.313.714-.554,1.086-.774,1.736a13,13,0,0,0-.584,2.049c-.178.92-.45,3.278-.66,4.18s-.7,3.875-.7,3.875l7.806,11.257-1.166.006.758,1.334-.413.107-14.314-.024a1.359,1.359,0,0,1,.156.976,3.292,3.292,0,0,1-.741,1.015c-.28.306-.459.237-1.063.264s-1.306.063-1.928.071a2.542,2.542,0,0,1-1.267-.338,7.225,7.225,0,0,1-.735-.4c-.17-.1-.3.441-.1,1.079A7.084,7.084,0,0,0,1617.655,1108.085Z" transform="translate(-1531.823 -1032.658)"/><path class="j" d="M430.907,1499.921s-1.789-.121-2.458-.134-1.753-.138-2.3-.1a23.991,23.991,0,0,0-2.919.271c-1.071.2-3.046.482-4.182.811s-3.968.969-4.583,1.177-1.612.452-2.439.654-3,.516-3.266.536-.547.708-.245.717a2.085,2.085,0,0,0,1.014-.13,2.6,2.6,0,0,1,1.136-.329,11.494,11.494,0,0,0,1.49.144c.552,0,3.912-.213,4.266-.279s1.713-.7,1.951-.691.176.164.056.315.187.091.471-.081a13.972,13.972,0,0,1,3.657-1.437,4.712,4.712,0,0,1,1.517-.107,10.318,10.318,0,0,0,1.451.131,13.959,13.959,0,0,1,1.418-.085,9.582,9.582,0,0,1,1.286.272,6.354,6.354,0,0,0,1.277.235A11.6,11.6,0,0,0,430.907,1499.921Z" transform="translate(-397.037 -1436.426)"/><path class="c" d="M2189.722,913.288l-1.576-4.729a2.257,2.257,0,0,0-.312-.243c-.156-.1-.563-.251-.736-.052s-5.543,4.539-5.543,4.539l.355.632a11.9,11.9,0,0,0,.572,1.074c.147.19.381.537.563.5a.872.872,0,0,0,.65-.364c.2-.294.762-1.152.961-1.507a6.3,6.3,0,0,1,.953-1.412c.3-.234.825-.714,1.111-.631s.678.063.7.385a1.731,1.731,0,0,1-.378.989c-.22.335-.541,1.014-.767,1.388s-.883,1.76-.99,2.013a11.767,11.767,0,0,0-.36,1.261c-.059.26-.128,1.047-.128,1.047l4.634-4.114a.773.773,0,0,0,.251-.381A.889.889,0,0,0,2189.722,913.288Z" transform="translate(-2062.414 -880.874)"/><path class="k" d="M1428.052,1162.212s.425.033.336-.171-1.052-1.523-1.052-1.523l-19.476-28.185-.445.028-13.112,2.126.111.572,12.78,18.556a.683.683,0,0,1,.619-.1,1.794,1.794,0,0,1,1,.436c.288.306,1.487,1.7,1.656,1.845a1.547,1.547,0,0,0,.849.252,4.071,4.071,0,0,1,1.709.552,1.374,1.374,0,0,1,.255.766c-.015.193-.122.452.022.464a3.084,3.084,0,0,1,.846.058c.235.1.467.242.448.442a1.465,1.465,0,0,1-.277.67c-.136.164-.473.386-.458.468s.17.178.03.327a1.8,1.8,0,0,1-.57.41c-.287.144-.8.35-.958.413s-.264.013-.06.289.8,1.2.8,1.2l.476.037Z" transform="translate(-1323.021 -1091.412)"/><path class="l" d="M249.974,1100.712l-.568-.226a5.34,5.34,0,0,1-.015.736,5.489,5.489,0,0,0-.146.918c.029.255.808,2.883.808,2.883s.4,2.1.452,2.786.213,4.885.213,4.885l-.313,4.591-.5-.816-1.973-3.757-2.226-3.767-2.236-3.391-1.8-2.231-1.315-1.439-1.726-1.606-1.874-1.4-1.147-.7-.936-.474-2.872,1.11s-2.442.866-2.8.967a19.473,19.473,0,0,0-2.494.785,6.171,6.171,0,0,0-2.356,1.428,6.285,6.285,0,0,0-1.072,1.832,16.774,16.774,0,0,0-.611,2.548c-.111.751-.314,2.1-.357,2.95s-.122,3.485-.122,3.485l-.12,3.79-.026,1.749-.113,1.913.012,1.467.125,1.6.214,1.285.347.69a7.91,7.91,0,0,0,.184-1.143c.031-.509.269-2.176.327-2.719s.085-1.767.088-2.589a15.845,15.845,0,0,0-.054-1.968c-.077-.763-.12-2.066-.116-2.6s.184-3.868.332-5.173a18.429,18.429,0,0,1,.539-3.366,12.535,12.535,0,0,1,1.6-2.861,4.085,4.085,0,0,1,1.184-.9c.349-.141.557-.394.809-.321a3.9,3.9,0,0,1,1.5,1.465,19.548,19.548,0,0,1,1.04,2.115,11.829,11.829,0,0,1,.437,1.328c.149.48.682,1.9.961,2.569s.8,1.818,1.057,2.377a27.248,27.248,0,0,1,1.014,2.867,17.753,17.753,0,0,1,.449,2.394,29.719,29.719,0,0,1,.031,3.071c-.06.946-.231,1.73-.251,2.334s-.1,1.368-.141,2.223-.091,1.438-.091,1.438l1.459-.4a9.762,9.762,0,0,0,1.394-.278c.649-.191,1.863-.4,2.831-.684s3.01-.859,3.608-.983,3.425-.777,4.3-.927,2.246-.332,2.919-.367,2.569.1,2.981.1a11.47,11.47,0,0,1,1.645-.028c.521.081,1.05.148,1.05.148l5.079-7.3a5.267,5.267,0,0,1-.288-1.051c-.087-.559-.3-1.864-.4-2.281s-.353-1.5-.462-2a14.676,14.676,0,0,0-.487-1.937,3.3,3.3,0,0,0-.587-1.22,8.814,8.814,0,0,0-1.456-1.278,12.707,12.707,0,0,1-1.335-1.025,14.655,14.655,0,0,0-1.581-1.192c-.5-.311-1.154-.774-1.938-1.212s-1.158-.63-1.517-.831A4.148,4.148,0,0,1,249.974,1100.712Z" transform="translate(-221.735 -1058.884)"/><path class="l" d="M253.17,1687.542a6.118,6.118,0,0,1,.092,1.449c-.033.545-.108,1.368-.126,1.8-.01.228,0,.635.019.97h37.668l-.181-2.976-.133-1.823-.126-1.169-.134-.783h-2.063l-2.273.009-1.49-.1-3.7-.286-2.082-.1s-.936-.172-1.156-.172-1.73.455-2.029.467a2.638,2.638,0,0,1-1.233-.4c-.3-.217-1.181-.809-1.352-.914s-.273-.292-.443-.3a5.187,5.187,0,0,0-1.259.441c-.39.185-1.216.764-1.547.876a18.2,18.2,0,0,1-2.353.673c-.506.048-2.319.162-2.733.164s-2.281-.037-2.828-.051a18.908,18.908,0,0,0-2.319.069,28.355,28.355,0,0,1-3.161,0,6.154,6.154,0,0,1-1.372-.112,5.166,5.166,0,0,1-1.1-.548c-.247-.187-.656-.58-.795-.708s-.159.279-.119.614S253.083,1686.913,253.17,1687.542Z" transform="translate(-250.942 -1608.8)"/><path class="d" d="M524.57,818.511l-.173.373-1.012-.52-.254-.636a6.894,6.894,0,0,0-.746-.549,2.747,2.747,0,0,0-2.7.179s.324-.7.354-.823.506-1.029.564-1.2a1.642,1.642,0,0,1,.259-.4,3.776,3.776,0,0,1,.988.514,14.63,14.63,0,0,1,1.2,1.055c.16.226.638.733.778.966S524.57,818.511,524.57,818.511Z" transform="translate(-501.575 -793.319)"/><g transform="translate(109.473 26.33)"><path class="m" d="M2023.713,894.562a1.152,1.152,0,0,1-.146-.009,1.049,1.049,0,0,1-.735-.418,2.375,2.375,0,0,1-.263-1.671.168.168,0,0,1,.195-.141.17.17,0,0,1,.141.195,2.1,2.1,0,0,0,.2,1.413.711.711,0,0,0,.506.285,1.7,1.7,0,0,0,.518-.049l.177-.033a.17.17,0,0,1,.055.336c-.055.009-.111.02-.167.031A2.524,2.524,0,0,1,2023.713,894.562Z" transform="translate(-2022.526 -892.319)"/></g><g transform="translate(111.781 26.593)"><path class="m" d="M2062.393,897.467a.171.171,0,0,1-.1-.032c-.549-.393-.927-.608-1.545-.281a.17.17,0,0,1-.159-.3,1.6,1.6,0,0,1,1.9.306.17.17,0,0,1-.1.309Z" transform="translate(-2060.499 -896.652)"/></g><g transform="translate(113.641 26.622)"><path class="m" d="M2093.405,900.328a2.186,2.186,0,0,1-1.063-.284,2.433,2.433,0,0,1-1.224-1.71,2.384,2.384,0,0,1,.136-1.1.17.17,0,1,1,.325.1,2.062,2.062,0,0,0-.126.941,2.092,2.092,0,0,0,1.053,1.468,1.773,1.773,0,0,0,1.568.106,2.833,2.833,0,0,0,1.066-.839l.064-.074a2.379,2.379,0,0,0,.467-.677.17.17,0,0,1,.325.1,2.557,2.557,0,0,1-.535.8l-.062.072a3.149,3.149,0,0,1-1.194.931A2.072,2.072,0,0,1,2093.405,900.328Z" transform="translate(-2091.097 -897.117)"/></g><g transform="translate(119.07 27.044)"><path class="m" d="M2182.844,904.456h0c-.919-.017-1.249-.032-1.421-.04a4.768,4.768,0,0,0-.547.006l-.3.011a.17.17,0,1,1-.012-.34l.3-.011a5.072,5.072,0,0,1,.574-.006c.171.008.5.022,1.412.039a.17.17,0,0,1,0,.341Z" transform="translate(-2180.396 -904.071)"/></g></g><g transform="translate(0.667 40.405)"><g transform="translate(110.502 16.61)"><path class="m" d="M2037.156,880.382h-.007a.17.17,0,0,1-.164-.177c.018-.454.015-.918.013-1.365,0-.384,0-.747.006-1.092a.167.167,0,0,1,.175-.165.17.17,0,0,1,.165.175c-.01.339-.008.7-.006,1.08,0,.451.005.918-.013,1.38A.17.17,0,0,1,2037.156,880.382Z" transform="translate(-2036.986 -877.582)"/></g><g transform="translate(110.289 20.542)"><path class="m" d="M2036.707,952.234a.166.166,0,0,1-.043-.006c-.124-.033-.252-.062-.381-.091-.71-.161-1.514-.343-1.776-1.2-.1-.313-.166-.522-.228-.709a16.3,16.3,0,0,1-.464-1.641,24,24,0,0,1-.226-6.167.17.17,0,1,1,.339.034,24.026,24.026,0,0,0,.218,6.053,16.035,16.035,0,0,0,.456,1.613c.064.19.135.4.231.718.2.671.846.816,1.525.97.133.03.265.06.393.094a.17.17,0,0,1-.043.335Z" transform="translate(-2033.49 -942.264)"/></g><g transform="translate(125.656 17.831)"><path class="m" d="M2287.735,901.51a.17.17,0,0,1-.076-.323,1.009,1.009,0,0,0,.323-.415c.026-.047.051-.092.076-.134a2.167,2.167,0,0,0-.043-2.226,1.055,1.055,0,0,0-.838-.395.727.727,0,0,0-.6.33.17.17,0,1,1-.283-.189,1.067,1.067,0,0,1,.871-.482,1.392,1.392,0,0,1,1.119.526,2.5,2.5,0,0,1,.066,2.61c-.023.038-.046.08-.07.123a1.25,1.25,0,0,1-.47.556A.168.168,0,0,1,2287.735,901.51Z" transform="translate(-2286.266 -897.677)"/></g><g transform="translate(105.035 13.114)"><path class="m" d="M1971.747,825.119a.169.169,0,0,1-.094-.029,11.76,11.76,0,0,0-3.133-1.3,20.361,20.361,0,0,0-8.483-.283c-.808.1-1.633.127-2.43.155-.449.015-.9.031-1.344.058-.266.017-.533.037-.8.058a16.266,16.266,0,0,1-2.784.054,10.886,10.886,0,0,1-4.229-1.131l-.139-.077c-.1-.055-.2-.109-.294-.167-.215-.128-.967-.752-.948-1.306a.568.568,0,0,1,.348-.5,4.239,4.239,0,0,1,1.242-.323l.259-.041c.107-.018.218-.04.33-.062a4.883,4.883,0,0,1,1.174-.133.17.17,0,0,1,.162.178.169.169,0,0,1-.178.162,4.739,4.739,0,0,0-1.092.128c-.114.022-.228.044-.338.063l-.264.042a4,4,0,0,0-1.14.29c-.14.071-.16.149-.162.21-.011.328.538.857.782,1,.094.055.189.108.285.161l.141.078a10.558,10.558,0,0,0,4.095,1.089,16.03,16.03,0,0,0,2.725-.054c.271-.021.54-.041.807-.058.45-.028.9-.043,1.353-.059.79-.027,1.607-.055,2.4-.152a20.656,20.656,0,0,1,8.619.294,12.066,12.066,0,0,1,3.227,1.349.17.17,0,0,1-.1.312Z" transform="translate(-1947.067 -820.083)"/></g><g transform="translate(127.915 18.299)"><path class="m" d="M2324.2,906.114a3.984,3.984,0,0,1-.628-.054.17.17,0,1,1,.054-.336c.439.071,1.221.127,1.531-.291a.17.17,0,0,1,.274.2A1.469,1.469,0,0,1,2324.2,906.114Z" transform="translate(-2323.43 -905.363)"/></g><g transform="translate(126.804 15.666)"><path class="m" d="M2308.419,864.933a.171.171,0,0,1-.159-.232,1.008,1.008,0,0,0-.032-.9c-.335-.607-1.379-1.107-2.94-1.409a.17.17,0,0,1,.065-.334c1.175.227,2.68.685,3.173,1.578a1.348,1.348,0,0,1,.052,1.187A.17.17,0,0,1,2308.419,864.933Z" transform="translate(-2305.151 -862.056)"/></g><g transform="translate(109.035 13.379)"><path class="m" d="M2027.353,826.607a.168.168,0,0,1-.033,0,10.538,10.538,0,0,0-2.328-.092c-.318.011-.649.022-.947.021-.964,0-2.007-.032-3.381-.1a25.261,25.261,0,0,1-7.7-1.668.17.17,0,1,1,.124-.317,24.913,24.913,0,0,0,7.592,1.645c1.368.068,2.406.1,3.365.1.307,0,.621-.01.935-.021a10.778,10.778,0,0,1,2.4.1.17.17,0,0,1-.032.337Z" transform="translate(-2012.857 -824.436)"/></g><g transform="translate(123.911 5.094)"><path class="m" d="M2263.234,700.038a.17.17,0,0,1-.17-.17c0-.335.017-.7.035-1.08a12.718,12.718,0,0,0-.012-2.119c-.389-2.984-2.038-6.917-5.406-8.18a.17.17,0,0,1,.119-.319c3.509,1.316,5.223,5.377,5.625,8.454a13,13,0,0,1,.015,2.179c-.018.379-.035.736-.035,1.064A.17.17,0,0,1,2263.234,700.038Z" transform="translate(-2257.571 -688.16)"/></g><g transform="translate(108.667 3.854)"><path class="m" d="M2006.981,676.941l-.03,0a.17.17,0,0,1-.138-.2,14.943,14.943,0,0,1,3-6.525c3.023-3.426,7.668-2.5,11.059-1.819a.17.17,0,0,1-.067.334c-3.31-.662-7.843-1.569-10.737,1.71a14.938,14.938,0,0,0-2.916,6.359A.17.17,0,0,1,2006.981,676.941Z" transform="translate(-2006.811 -667.749)"/></g><g transform="translate(124.75 26.519)"><path class="m" d="M2271.809,1042.164a.17.17,0,0,1-.139-.071,2.26,2.26,0,0,1-.308-1.33.17.17,0,0,1,.167-.173.166.166,0,0,1,.173.168,1.963,1.963,0,0,0,.244,1.136.17.17,0,0,1-.138.269Z" transform="translate(-2271.363 -1040.59)"/></g><g transform="translate(122.153 27.276)"><path class="m" d="M2228.823,1056.349a.17.17,0,0,1-.1-.309,10.427,10.427,0,0,1,1.008-.613,5.947,5.947,0,0,0,1.541-1.086c.4-.425.5-.763.306-1.032a.17.17,0,0,1,.277-.2c.3.416.185.908-.334,1.463a6.3,6.3,0,0,1-1.625,1.151,10.175,10.175,0,0,0-.976.593A.169.169,0,0,1,2228.823,1056.349Z" transform="translate(-2228.653 -1053.04)"/></g><g transform="translate(125.002 27.042)"><path class="m" d="M2276.631,1051.109a.169.169,0,0,1-.126-.056,1.8,1.8,0,0,1-.323-.736c-.125-.454-.223-.733-.526-.783a.17.17,0,1,1,.056-.336c.539.089.683.61.8,1.028a1.558,1.558,0,0,0,.247.6.17.17,0,0,1-.126.285Z" transform="translate(-2275.513 -1049.196)"/></g><g transform="translate(122.348 28.224)"><path class="m" d="M2232.027,1073.744l-.028,0a.17.17,0,0,1-.14-.2c.058-.349.467-.691.828-.993.113-.094.216-.18.287-.251.161-.161.343-.332.534-.51.889-.832,1.995-1.866,1.994-2.984a.17.17,0,0,1,.17-.17h0a.17.17,0,0,1,.17.17c0,1.265-1.165,2.356-2.1,3.232-.188.176-.367.344-.526.5-.077.077-.187.17-.309.272-.268.224-.673.563-.71.787A.17.17,0,0,1,2232.027,1073.744Z" transform="translate(-2231.856 -1068.638)"/></g><g transform="translate(125.948 28.048)"><path class="m" d="M2292.713,1075.029a.173.173,0,0,1-.06-.011.171.171,0,0,1-.1-.219,1.933,1.933,0,0,0-.134-1.013c-.159-.546-.323-1.111,0-1.5a.926.926,0,0,1,.563-.255,1.208,1.208,0,0,0,.259-.072,11.343,11.343,0,0,1,1.049-.445,8.952,8.952,0,0,0,1.226-.543c.034-.019.09-.046.155-.078.082-.04.26-.127.376-.2-.1-.06-.277-.156-.586-.308l-.1-.048a11.253,11.253,0,0,1-1.477-1.052,13.348,13.348,0,0,1-2.774-3.279.17.17,0,1,1,.286-.184,13.035,13.035,0,0,0,2.7,3.2,11.049,11.049,0,0,0,1.432,1.022l.078.039c.689.339.815.439.851.548a.2.2,0,0,1-.011.145,1.489,1.489,0,0,1-.631.425c-.058.028-.107.052-.138.069a9.339,9.339,0,0,1-1.27.564,11.024,11.024,0,0,0-1.019.431,1.418,1.418,0,0,1-.342.1.743.743,0,0,0-.367.135c-.206.256-.068.734.067,1.2a2.109,2.109,0,0,1,.126,1.227A.17.17,0,0,1,2292.713,1075.029Zm3.441-4.26h0Z" transform="translate(-2291.083 -1065.74)"/></g><g transform="translate(108.353 40.942)"><path class="m" d="M2001.811,1296a.17.17,0,0,1-.146-.257,31.442,31.442,0,0,0,2.454-5.778,40.816,40.816,0,0,1,1.8-4.57q.267-.543.53-1.087c.61-1.257,1.242-2.558,1.933-3.812a11.86,11.86,0,0,1,.66-1.016,7.39,7.39,0,0,0,.9-1.518.17.17,0,1,1,.319.119,7.608,7.608,0,0,1-.936,1.594,11.348,11.348,0,0,0-.641.986c-.687,1.246-1.316,2.543-1.925,3.8q-.264.544-.53,1.089a40.606,40.606,0,0,0-1.783,4.531,31.71,31.71,0,0,1-2.482,5.841A.171.171,0,0,1,2001.811,1296Z" transform="translate(-2001.641 -1277.848)"/></g><g transform="translate(109.107 44.843)"><path class="m" d="M2014.212,1356.331a.17.17,0,0,1-.146-.257,76.992,76.992,0,0,1,10.611-14.008.17.17,0,0,1,.245.237,76.642,76.642,0,0,0-10.564,13.946A.17.17,0,0,1,2014.212,1356.331Z" transform="translate(-2014.042 -1342.014)"/></g><g transform="translate(105.554 34.64)"><path class="m" d="M1957.812,1199.5a.171.171,0,0,1-.155-.1c-1.614-3.529-1.941-7.588-2.048-11.093a21.663,21.663,0,0,1,.941-7.572,33.733,33.733,0,0,1,2.467-5.372c.2-.369.392-.737.583-1.1a.17.17,0,0,1,.3.157c-.191.367-.387.735-.584,1.105a33.456,33.456,0,0,0-2.443,5.316,21.338,21.338,0,0,0-.925,7.457c.106,3.471.428,7.487,2.017,10.961a.171.171,0,0,1-.155.241Z" transform="translate(-1955.594 -1174.174)"/></g><g transform="translate(104.084 32.59)"><path class="m" d="M1931.589,1147.057a.173.173,0,0,1-.054-.009.17.17,0,0,1-.108-.215c.125-.377.669-.782,1.029-1.051l.139-.1a1.536,1.536,0,0,1,.165-.1c.08-.046.294-.167.305-.229a4.2,4.2,0,0,0-.285-1.214,6.8,6.8,0,0,1-.249-.866c0-.019-.01-.047-.018-.083-.1-.428-.134-.707-.028-.866a3.138,3.138,0,0,1,1.533-.716,9.584,9.584,0,0,0,1.4-.517c.182-.078.363-.156.543-.228.132-.052.277-.094.417-.135a2.343,2.343,0,0,0,.626-.243.17.17,0,1,1,.189.283,2.58,2.58,0,0,1-.72.287c-.139.04-.269.077-.385.124-.177.071-.355.147-.535.224a9.86,9.86,0,0,1-1.456.535,2.885,2.885,0,0,0-1.332.574,1.486,1.486,0,0,0,.077.6c.009.041.017.074.021.1a6.4,6.4,0,0,0,.237.821,4.422,4.422,0,0,1,.3,1.323c0,.254-.276.41-.478.524a1.245,1.245,0,0,0-.125.076l-.143.107c-.286.213-.818.61-.91.886A.171.171,0,0,1,1931.589,1147.057Z" transform="translate(-1931.419 -1140.45)"/></g><g transform="translate(103.408 40.145)"><path class="m" d="M1922.727,1282.333a.17.17,0,0,1-.161-.117,43.3,43.3,0,0,1-2.121-11.682c-.014-.286-.031-.571-.047-.856a21.632,21.632,0,0,1,.085-4.8.172.172,0,0,1,.2-.14.17.17,0,0,1,.14.2,21.36,21.36,0,0,0-.081,4.726c.016.286.033.572.047.859a42.952,42.952,0,0,0,2.1,11.592.17.17,0,0,1-.108.215A.175.175,0,0,1,1922.727,1282.333Z" transform="translate(-1920.306 -1264.734)"/></g><g transform="translate(131.575 32.908)"><path class="m" d="M2392.023,1153.267a.17.17,0,0,1-.167-.138c-.049-.253-.095-.512-.14-.772-.324-1.838-.659-3.739-2.37-4.661a7.39,7.39,0,0,0-2.478-.646,6.044,6.044,0,0,1-3.164-1.073.17.17,0,1,1,.217-.262,5.708,5.708,0,0,0,2.995,1,7.65,7.65,0,0,1,2.592.684c1.856,1,2.206,2.984,2.543,4.9.045.259.091.515.139.766a.17.17,0,0,1-.135.2A.16.16,0,0,1,2392.023,1153.267Z" transform="translate(-2383.642 -1145.676)"/></g><g transform="translate(133.689 41.735)"><path class="m" d="M2418.578,1310.61a.17.17,0,0,1-.087-.317,6.793,6.793,0,0,0,1.545-1.475c.1-.12.2-.238.3-.351.246-.281.51-.549.765-.809a10.6,10.6,0,0,0,1.32-1.527c1.611-2.43,1.866-4.882,2.161-7.721l.021-.2q.038-.361.078-.73a21.917,21.917,0,0,0,.081-6.386.17.17,0,0,1,.334-.065,22.52,22.52,0,0,1-.076,6.488q-.04.368-.078.729l-.02.2c-.3,2.884-.559,5.375-2.216,7.874a10.887,10.887,0,0,1-1.361,1.578c-.252.257-.513.522-.753.8-.1.112-.2.229-.3.347a7.026,7.026,0,0,1-1.63,1.547A.169.169,0,0,1,2418.578,1310.61Z" transform="translate(-2418.408 -1290.893)"/></g><g transform="translate(113.713 35.365)"><path class="m" d="M2108.766,1211.823a.165.165,0,0,1-.05-.008c-1.382-.423-2.563-2.017-3.606-3.423-.293-.4-.57-.769-.828-1.081-2.264-2.747-4.343-5.714-6.354-8.583-1.4-2-2.857-4.077-4.357-6.052-.825-1.086-2.49-3.263-2.594-3.387-.016-.02-.056-.06-.11-.115-.59-.6-1.125-1.219-1.054-1.627a2.369,2.369,0,0,1,.474-.887,3.4,3.4,0,0,0,.3-.463.17.17,0,0,1,.307.147,3.631,3.631,0,0,1-.331.515,2.171,2.171,0,0,0-.415.747c-.023.134.125.474.962,1.331.064.065.109.112.128.135.117.14,1.86,2.422,2.6,3.4,1.5,1.98,2.958,4.055,4.365,6.063,2.007,2.864,4.082,5.825,6.338,8.562.263.319.542.7.839,1.1.961,1.3,2.157,2.91,3.432,3.3a.17.17,0,0,1-.05.333Z" transform="translate(-2089.807 -1186.099)"/></g><g transform="translate(115.813 32.468)"><path class="m" d="M2145.572,1155.021a.169.169,0,0,1-.148-.086,8.92,8.92,0,0,0-2.583-2.451c-.2-.146-.4-.289-.586-.431a39.4,39.4,0,0,1-5.108-4.437l-.061-.064a62.34,62.34,0,0,1-5.4-6.255c-.189-.262-.367-.533-.538-.8s-.367-.56-.564-.831c-.058-.08-.114-.169-.171-.261a1.3,1.3,0,0,0-.516-.566,2.526,2.526,0,0,0-1.193.064l-.115.024a13.823,13.823,0,0,0-3.984,1.567.17.17,0,1,1-.169-.3,14.174,14.174,0,0,1,4.086-1.605l.113-.023a2.691,2.691,0,0,1,1.387-.047,1.554,1.554,0,0,1,.68.7c.052.084.1.166.156.24.2.277.392.566.574.845.169.26.345.528.529.783a62.191,62.191,0,0,0,5.367,6.221l.061.064a39.083,39.083,0,0,0,5.065,4.4c.186.14.381.282.581.427a9.16,9.16,0,0,1,2.678,2.557.171.171,0,0,1-.147.255Z" transform="translate(-2124.355 -1138.45)"/></g><g transform="translate(115.304 27.585)"><path class="m" d="M2116.184,1063.045a.17.17,0,0,1-.17-.17c0-.262-.006-.525-.012-.789a13.509,13.509,0,0,1,.056-2.048c.031-.238.084-.477.136-.708a4.809,4.809,0,0,0,.156-1.035.17.17,0,1,1,.34,0,5.1,5.1,0,0,1-.165,1.109c-.053.234-.1.455-.131.678a13.289,13.289,0,0,0-.053,2c.006.267.012.533.012.8A.17.17,0,0,1,2116.184,1063.045Z" transform="translate(-2115.989 -1058.123)"/></g><g transform="translate(114.636 27.27)"><path class="m" d="M2105.876,1053.53h-.021a1.883,1.883,0,0,1-.788-.28.17.17,0,0,1,.189-.283,1.534,1.534,0,0,0,.641.225.17.17,0,0,1-.021.339Z" transform="translate(-2104.992 -1052.937)"/></g><g transform="translate(113.293 25.021)"><path class="m" d="M2084.161,1021.644a.416.416,0,0,1-.3-.128,1.567,1.567,0,0,1-.328-.577c-.032-.083-.064-.166-.1-.245a3.714,3.714,0,0,1-.129-3.55c.03-.069.061-.15.093-.236a1.68,1.68,0,0,1,.564-.892,1.294,1.294,0,0,1,.852.013,2.477,2.477,0,0,0,.275.047c.1.006.252,0,.408-.007a2.377,2.377,0,0,1,1.024.088.17.17,0,1,1-.152.3,2.321,2.321,0,0,0-.857-.053c-.164.007-.321.014-.443.007a2.593,2.593,0,0,1-.323-.054,1.565,1.565,0,0,0-.608-.054,1.473,1.473,0,0,0-.42.718c-.035.093-.068.181-.1.255a3.412,3.412,0,0,0,.123,3.259c.044.087.08.18.116.274a1.291,1.291,0,0,0,.251.46.074.074,0,0,0,.079.026.6.6,0,0,0,.313-.321,3.312,3.312,0,0,0-.007-1.695.17.17,0,1,1,.333-.067,3.566,3.566,0,0,1-.007,1.878.915.915,0,0,1-.559.537A.44.44,0,0,1,2084.161,1021.644Z" transform="translate(-2082.912 -1015.95)"/></g><g transform="translate(114.794 23.834)"><path class="m" d="M2111.337,997.7a.167.167,0,0,1-.074-.017c-.2-.1-.4-.2-.6-.311-1.027-.554-1.913-1.033-2.768-.051a.17.17,0,1,1-.257-.224c1.033-1.187,2.177-.57,3.186-.025.194.1.389.21.584.3a.17.17,0,0,1-.074.323Z" transform="translate(-2107.6 -996.421)"/></g><g transform="translate(116.563 22.442)"><path class="m" d="M2140.8,976.549a.171.171,0,0,1-.092-.027,2.8,2.8,0,0,1-.788-1.06c-.06-.113-.117-.221-.174-.318a4.538,4.538,0,0,0-.417-.625c-.03-.036-.065-.081-.105-.133-.128-.166-.368-.476-.533-.518-.362-.093-.886.292-1.306.6-.16.118-.311.229-.443.307a.17.17,0,0,1-.173-.293c.117-.069.261-.175.414-.287.479-.353,1.073-.791,1.594-.658.277.072.532.4.717.64.037.047.069.089.1.122a4.857,4.857,0,0,1,.449.671c.059.1.119.213.181.331a2.6,2.6,0,0,0,.672.934.17.17,0,0,1-.093.313Z" transform="translate(-2136.688 -973.514)"/></g><g transform="translate(120.754 21.268)"><path class="m" d="M2206.231,965.559a.167.167,0,0,1-.042-.005.17.17,0,0,1-.123-.207c.149-.588.331-1.174.506-1.741s.354-1.14.5-1.717c.076-.3.127-.615.176-.922a8.3,8.3,0,0,1,.269-1.252,20.885,20.885,0,0,1,1.522-3.357c.1-.178.206-.355.313-.526a5.89,5.89,0,0,0,.457-.828.308.308,0,0,0,.009-.3.744.744,0,0,0-.608-.155,1.552,1.552,0,0,0-.865.579,8.2,8.2,0,0,0-1.006,1.426c-.154.253-.312.516-.483.767-.033.048-.067.1-.1.161-.213.334-.506.791-.911.88a.17.17,0,0,1-.073-.333c.267-.058.515-.446.7-.73.04-.062.076-.119.111-.17.166-.244.322-.5.473-.752a8.578,8.578,0,0,1,1.05-1.484,1.81,1.81,0,0,1,1.088-.685,1.082,1.082,0,0,1,.909.295.616.616,0,0,1,.03.629,6.094,6.094,0,0,1-.482.878c-.109.174-.212.339-.3.507a20.6,20.6,0,0,0-1.5,3.3,8.007,8.007,0,0,0-.256,1.2c-.051.314-.1.639-.182.952-.149.585-.33,1.169-.5,1.734s-.354,1.144-.5,1.723A.17.17,0,0,1,2206.231,965.559Z" transform="translate(-2205.633 -954.205)"/></g><g transform="translate(120.914 25.856)"><path class="m" d="M2208.535,1031.52h-.019a.17.17,0,0,1-.15-.188,3.02,3.02,0,0,0-.1-1.432.17.17,0,0,1,.323-.108,3.349,3.349,0,0,1,.112,1.578A.17.17,0,0,1,2208.535,1031.52Z" transform="translate(-2208.261 -1029.675)"/></g><g transform="translate(119.23 25.725)"><path class="m" d="M2180.974,1028.862a.17.17,0,0,1-.169-.152,3.022,3.022,0,0,0-.23-.949.17.17,0,1,1,.309-.142,3.33,3.33,0,0,1,.26,1.054.17.17,0,0,1-.151.188Z" transform="translate(-2180.56 -1027.52)"/></g><g transform="translate(113.861 30.662)"><path class="m" d="M2093.368,1113.144a.171.171,0,0,1-.155-.1c-.055-.12-.112-.24-.167-.359a8.625,8.625,0,0,1-.76-2.062,3.87,3.87,0,0,1-.023-.957,4.345,4.345,0,0,0,0-.737.17.17,0,0,1,.339-.037,4.683,4.683,0,0,1,0,.794,3.553,3.553,0,0,0,.018.874,8.245,8.245,0,0,0,.734,1.981c.056.12.113.24.169.362a.17.17,0,0,1-.083.226A.174.174,0,0,1,2093.368,1113.144Z" transform="translate(-2092.244 -1108.741)"/></g><g transform="translate(125.74 18.774)"><path class="m" d="M2289.39,918.2a.171.171,0,0,1-.162-.116l-1.571-4.686a.17.17,0,0,1,.323-.108l1.571,4.686a.17.17,0,0,1-.107.216A.168.168,0,0,1,2289.39,918.2Z" transform="translate(-2287.649 -913.176)"/></g><g transform="translate(119.564 18.706)"><path class="m" d="M2186.237,917.058a.17.17,0,0,1-.108-.3l5.661-4.659a.17.17,0,1,1,.216.263l-5.661,4.659A.169.169,0,0,1,2186.237,917.058Z" transform="translate(-2186.067 -912.058)"/></g><g transform="translate(119.077 18.489)"><path class="m" d="M2178.219,913.256a.17.17,0,0,1-.106-.3l5.566-4.415a.17.17,0,0,1,.211.267l-5.565,4.415A.17.17,0,0,1,2178.219,913.256Z" transform="translate(-2178.049 -908.501)"/></g><g transform="translate(122.341 24.204)"><path class="m" d="M2231.9,1007.1a.17.17,0,0,1-.115-.3l4.645-4.252a.17.17,0,1,1,.23.251l-4.645,4.252A.17.17,0,0,1,2231.9,1007.1Z" transform="translate(-2231.734 -1002.506)"/></g><g transform="translate(127.202 23.649)"><path class="m" d="M2311.875,994.093a.168.168,0,0,1-.063-.012.17.17,0,0,1-.1-.221.87.87,0,0,0,.083-.316.17.17,0,1,1,.34,0,1.176,1.176,0,0,1-.106.442A.17.17,0,0,1,2311.875,994.093Z" transform="translate(-2311.705 -993.373)"/></g><g transform="translate(125.036 18.394)"><path class="m" d="M2276.711,907.417a.169.169,0,0,1-.109-.039.523.523,0,0,0-.365-.1.17.17,0,0,1,0-.341.85.85,0,0,1,.583.175.17.17,0,0,1-.109.3Z" transform="translate(-2276.067 -906.941)"/></g><g transform="translate(112.923 30.966)"><path class="m" d="M2077.321,1118.947a.2.2,0,0,1-.135-.059c-.063-.068-.079-.169-.064-.417a7.154,7.154,0,0,0-.054-.91c-.025-.2-.068-.4-.114-.605-.041-.186-.083-.378-.11-.572a5.7,5.7,0,0,1,.208-2.03c.036-.161.071-.319.1-.473a.17.17,0,1,1,.333.067c-.031.156-.067.317-.1.48a5.46,5.46,0,0,0-.2,1.907c.026.182.067.367.106.547.045.206.092.419.119.636a7.533,7.533,0,0,1,.057.877l.021-.022c.229-.229.334-.34.4-.406a1.686,1.686,0,0,1,.255-.229l.064-.051a.17.17,0,1,1,.213.266l-.064.051a1.443,1.443,0,0,0-.22.2c-.063.067-.17.18-.4.414C2077.468,1118.907,2077.409,1118.947,2077.321,1118.947Z" transform="translate(-2076.813 -1113.745)"/></g><g transform="translate(109.689 30.039)"><path class="m" d="M2023.793,1104.158a.169.169,0,0,1-.09-.029.186.186,0,0,1-.057-.235,4.136,4.136,0,0,0,.33-1.36,5.347,5.347,0,0,1,.252-1.209,7.981,7.981,0,0,1,.911-1.607,10.534,10.534,0,0,0,.7-1.135.17.17,0,1,1,.3.152,10.774,10.774,0,0,1-.72,1.173,7.724,7.724,0,0,0-.875,1.536,5.011,5.011,0,0,0-.233,1.133c-.024.19-.049.384-.084.576.116-.223.209-.455.307-.7.047-.117.094-.234.144-.35.012-.027.022-.062.034-.1.053-.171.134-.43.37-.477a1.117,1.117,0,0,1,.879.2,3.279,3.279,0,0,1,1.093,1.966.17.17,0,0,1-.336.056,2.992,2.992,0,0,0-.95-1.742.777.777,0,0,0-.619-.143c-.041.016-.092.182-.112.244s-.031.1-.046.134c-.049.114-.095.228-.141.343a7.148,7.148,0,0,1-.373.825,2.135,2.135,0,0,1-.3.382c-.039.042-.077.084-.112.124-.016.018-.04.051-.064.083C2023.944,1104.073,2023.88,1104.158,2023.793,1104.158Z" transform="translate(-2023.626 -1098.489)"/></g><g transform="translate(108.089 36.896)"><path class="m" d="M1997.465,1225.034a.16.16,0,0,1-.041-.005.17.17,0,0,1-.124-.206,56.139,56.139,0,0,1,1.776-5.919c.323-.873.716-1.731,1.1-2.56.257-.561.522-1.141.762-1.718.177-.425.332-.862.482-1.285a17.126,17.126,0,0,1,.788-1.957.17.17,0,0,1,.3.152,16.817,16.817,0,0,0-.771,1.919c-.152.427-.308.869-.489,1.3-.243.582-.509,1.165-.767,1.729-.377.824-.767,1.676-1.086,2.537a55.868,55.868,0,0,0-1.765,5.884A.17.17,0,0,1,1997.465,1225.034Z" transform="translate(-1997.295 -1211.288)"/></g><g transform="translate(131.298 60.793)"><path class="m" d="M2379.605,1617.729c-.219-4.912-.25-9.108-.1-13.168a.17.17,0,0,0-.164-.177h-.006a.17.17,0,0,0-.17.164c-.155,4.066-.124,8.266.095,13.181Z" transform="translate(-2379.073 -1604.384)"/></g><g transform="translate(106.67 60.879)"><path class="m" d="M1974.3,1619.049c.145-1.236.332-2.488.516-3.7.146-.963.3-1.958.423-2.933.054-.418.117-.84.18-1.267a18.373,18.373,0,0,0,.275-5.21.17.17,0,1,0-.337.048,18.112,18.112,0,0,1-.275,5.112c-.063.428-.126.853-.18,1.272-.126.972-.277,1.966-.422,2.927-.186,1.231-.376,2.5-.522,3.754Z" transform="translate(-1973.959 -1605.79)"/></g><g transform="translate(100.162 44.846)"><path class="m" d="M1867.521,1350.387a.17.17,0,0,1-.168-.146,31.614,31.614,0,0,1-.229-4.02,31.361,31.361,0,0,0-.225-3.965.17.17,0,0,1,.337-.048,31.573,31.573,0,0,1,.228,4.008,31.4,31.4,0,0,0,.226,3.977.17.17,0,0,1-.144.193Z" transform="translate(-1866.897 -1342.062)"/></g><g transform="translate(100.05 62.853)"><path class="m" d="M1865.426,1649.552c.078-.244.156-.488.235-.729.143-.433.283-.861.408-1.277a23.981,23.981,0,0,0,.959-9.133.17.17,0,0,0-.337.048,23.616,23.616,0,0,1-.948,8.986c-.125.414-.265.839-.406,1.269-.091.276-.18.556-.27.835Z" transform="translate(-1865.068 -1638.267)"/></g><g transform="translate(98.012 34.59)"><path class="m" d="M1831.711,1187.684l-.031,0a.17.17,0,0,1-.137-.2c.439-2.415.806-4.691,1.091-6.764a10.423,10.423,0,0,1,.686-2.763c.081-.182.16-.368.24-.555.7-1.632,1.42-3.319,3.361-3.907l1-.145a.17.17,0,0,1,.048.337l-.979.139c-1.764.537-2.454,2.15-3.122,3.71-.08.188-.161.375-.242.559a10.1,10.1,0,0,0-.66,2.671c-.286,2.078-.654,4.359-1.094,6.778A.17.17,0,0,1,1831.711,1187.684Z" transform="translate(-1831.541 -1173.348)"/></g><g transform="translate(84.915 64.372)"><path class="m" d="M1618.573,1666.8a.912.912,0,0,1-.215-.022c-1.134-.276-2.127-2.342-2.269-3.33a.17.17,0,1,1,.337-.048c.13.907,1.069,2.818,2.012,3.048a2.931,2.931,0,0,0,1.232-.245,6.508,6.508,0,0,1,2.09-.255l.121,0c.462-.008.921-.012,1.38-.016a33,33,0,0,0,6.322-.461c.2-.041.406-.076.609-.112a7.229,7.229,0,0,0,2.056-.572.17.17,0,0,1,.152.3,7.6,7.6,0,0,1-2.149.6c-.2.035-.4.07-.6.111a33.231,33.231,0,0,1-6.386.467c-.457,0-.916.008-1.376.016l-.121,0a6.435,6.435,0,0,0-1.967.23A4,4,0,0,1,1618.573,1666.8Z" transform="translate(-1616.088 -1663.249)"/></g><g transform="translate(85.657 62.668)"><path class="m" d="M1630.206,1639.046a1.087,1.087,0,0,1-.425-.087,3.462,3.462,0,0,1-1.318-1.57c-.047-.086-.092-.168-.135-.242a.17.17,0,1,1,.3-.169c.043.075.089.158.138.246.284.515.673,1.219,1.152,1.421.9.378,1.991-1.2,2.457-1.874.059-.085.11-.159.153-.218a10.027,10.027,0,0,1,.662-.854.839.839,0,0,0,.163-.282l.042-.087a.17.17,0,0,1,.307.147l-.042.087a1.114,1.114,0,0,1-.216.362,9.705,9.705,0,0,0-.641.826c-.042.057-.091.13-.149.212C1632.162,1637.671,1631.211,1639.046,1630.206,1639.046Z" transform="translate(-1628.305 -1635.234)"/></g><g transform="translate(82.534 60.564)"><path class="m" d="M1581.873,1604.464a3.956,3.956,0,0,1-1.149-.149,7.165,7.165,0,0,1-2.139-1.243l-.312-.231c-.75-.55-1.343-.984-1.343-2.047a.17.17,0,1,1,.34,0c0,.891.453,1.223,1.2,1.773l.314.233a6.926,6.926,0,0,0,2.034,1.19,5.211,5.211,0,0,0,1.9.1c.284-.02.577-.04.867-.04a.17.17,0,1,1,0,.34c-.279,0-.566.02-.844.04S1582.165,1604.464,1581.873,1604.464Z" transform="translate(-1576.93 -1600.624)"/></g><g transform="translate(81.465 58.109)"><path class="m" d="M1560.055,1562.307a.169.169,0,0,1-.12-.05,1.547,1.547,0,0,1-.41-1.939.17.17,0,1,1,.3.152,1.226,1.226,0,0,0,.346,1.546.17.17,0,0,1-.12.29Z" transform="translate(-1559.34 -1560.224)"/></g><g transform="translate(81.046 55.947)"><path class="m" d="M1552.848,1526.734a.17.17,0,0,1-.142-.076,1.564,1.564,0,0,1-.188-1.31,1.035,1.035,0,0,1,.675-.667.17.17,0,1,1,.108.323.7.7,0,0,0-.461.455,1.21,1.21,0,0,0,.149,1.01.17.17,0,0,1-.047.236A.168.168,0,0,1,1552.848,1526.734Z" transform="translate(-1552.449 -1524.672)"/></g><g transform="translate(81.829 53.128)"><path class="m" d="M1565.563,1480.9a.17.17,0,0,1-.161-.117,1.291,1.291,0,0,1,.651-1.522,6,6,0,0,1,1.556-.729c.063-.021.127-.046.192-.072a1.444,1.444,0,0,1,.724-.145,3.322,3.322,0,0,1,1.95,1.386c.164.191.318.371.477.53a.17.17,0,0,1-.24.24c-.168-.168-.327-.353-.5-.549a3.029,3.029,0,0,0-1.737-1.27,1.172,1.172,0,0,0-.554.124c-.071.028-.14.055-.209.078a5.9,5.9,0,0,0-1.465.682c-.492.353-.664.726-.526,1.138a.17.17,0,0,1-.108.215A.172.172,0,0,1,1565.563,1480.9Z" transform="translate(-1565.339 -1478.304)"/></g><g transform="translate(82.87 55.127)"><path class="m" d="M1589.989,1513.343a.17.17,0,0,1-.17-.17c0-.735-.534-.893-1.413-1.066l-.236-.048-.25-.053a11.391,11.391,0,0,0-5.258-.284.17.17,0,0,1-.078-.331,11.647,11.647,0,0,1,5.407.282l.25.053.232.047c.752.148,1.688.333,1.688,1.4A.17.17,0,0,1,1589.989,1513.343Z" transform="translate(-1582.452 -1511.175)"/></g><g transform="translate(82.975 57.221)"><path class="m" d="M1592.7,1547.294a.17.17,0,0,1-.131-.279.706.706,0,0,0,.155-.292c.054-.2-.011-.285-.032-.312-.2-.25-.883-.237-1.293-.229-.131,0-.244,0-.326,0-.393-.023-.793-.056-1.2-.089a14.232,14.232,0,0,0-4.233.064c-.139.032-.282.053-.425.075a2.664,2.664,0,0,0-.8.2.17.17,0,0,1-.152-.3,2.953,2.953,0,0,1,.9-.237c.135-.021.27-.041.4-.071a14.471,14.471,0,0,1,4.336-.072c.4.033.8.066,1.189.089.075,0,.179,0,.3,0,.535-.01,1.267-.024,1.568.359a.666.666,0,0,1,.093.61,1.048,1.048,0,0,1-.223.422A.169.169,0,0,1,1592.7,1547.294Z" transform="translate(-1584.181 -1545.625)"/></g><g transform="translate(83.919 58.942)"><path class="m" d="M1601.462,1576.868a.17.17,0,0,1-.1-.306,7.246,7.246,0,0,1,2.756-1.065,11.6,11.6,0,0,0,1.627-.468,3.828,3.828,0,0,0,.353-.173c.061-.032.121-.065.18-.094a.787.787,0,0,0,.235-.163c.143-.129.149-.189.149-.189-.022-.029-.177-.151-1.18-.125l-.115,0c-.269,0-.582,0-.892.021-.58.036-1.148.076-1.727.166-.707.11-1.42.243-2.109.37l-.72.133a.17.17,0,0,1-.061-.335l.719-.133c.692-.128,1.407-.261,2.118-.372.593-.093,1.17-.133,1.758-.17.32-.02.639-.021.913-.021l.106,0c.815-.021,1.381.032,1.506.346.1.255-.155.485-.239.561a1.115,1.115,0,0,1-.311.215c-.056.028-.114.059-.172.09a4.048,4.048,0,0,1-.386.189,12.021,12.021,0,0,1-1.675.483,7,7,0,0,0-2.63,1.006A.17.17,0,0,1,1601.462,1576.868Z" transform="translate(-1599.718 -1573.94)"/></g><g transform="translate(84.862 31.905)"><path class="m" d="M1635.83,1159.207a.169.169,0,0,1-.14-.074l-20.437-29.686a.17.17,0,0,1,.28-.193l20.437,29.687a.17.17,0,0,1-.14.266Z" transform="translate(-1615.222 -1129.18)"/></g><g transform="translate(89.237 60.468)"><path class="m" d="M1688.172,1600.546a.169.169,0,0,1-.14-.073l-.81-1.171a.17.17,0,0,1,.28-.193l.81,1.171a.17.17,0,0,1-.14.267Z" transform="translate(-1687.192 -1599.034)"/></g><g transform="translate(71.36 34.612)"><path class="m" d="M1405.936,1192.335a.17.17,0,0,1-.14-.073l-12.645-18.289a.17.17,0,1,1,.28-.194l12.645,18.289a.17.17,0,0,1-.14.267Z" transform="translate(-1393.12 -1173.706)"/></g><g transform="translate(71.251 31.935)"><path class="m" d="M1391.491,1132.172a.17.17,0,0,1-.027-.338l13.183-2.15a.17.17,0,0,1,.055.336l-13.183,2.15Z" transform="translate(-1391.321 -1129.682)"/></g><g transform="translate(90.498 61.709)"><path class="m" d="M1722.545,1619.839h0l-14.446-.043a.17.17,0,0,1,0-.34h0l14.446.043a.17.17,0,0,1,0,.34Z" transform="translate(-1707.929 -1619.456)"/></g><g transform="translate(85.255 31.014)"><path class="m" d="M1642.247,1144.162a.169.169,0,0,1-.14-.073l-20.392-29.3a.17.17,0,1,1,.279-.194l20.392,29.3a.17.17,0,0,1-.042.237A.168.168,0,0,1,1642.247,1144.162Z" transform="translate(-1621.684 -1114.525)"/></g><g transform="translate(71.267 30.993)"><path class="m" d="M1391.758,1117.53a.17.17,0,0,1-.037-.336l13.519-3.012a.17.17,0,1,1,.074.332l-13.519,3.012A.169.169,0,0,1,1391.758,1117.53Z" transform="translate(-1391.588 -1114.177)"/></g><g transform="translate(104.519 60.352)"><path class="m" d="M1939.834,1597.47h0l-1.092,0a.17.17,0,0,1,0-.34h0l1.092,0a.17.17,0,0,1,0,.34Z" transform="translate(-1938.572 -1597.128)"/></g><g transform="translate(115.624 18.099)"><path class="m" d="M2122.212,902.641a1.512,1.512,0,0,1-.9-.251.17.17,0,0,1,.2-.279,1.837,1.837,0,0,0,1.347.129,4.2,4.2,0,0,1,.739-.059.17.17,0,0,1-.015.34,3.932,3.932,0,0,0-.677.056A5.057,5.057,0,0,1,2122.212,902.641Z" transform="translate(-2121.244 -902.08)"/></g><g transform="translate(115.893 18.374)"><path class="m" d="M2126.341,907.125a1.12,1.12,0,0,1-.592-.211.17.17,0,1,1,.2-.279c.155.109.42.206.514.105a.17.17,0,0,1,.249.233A.484.484,0,0,1,2126.341,907.125Z" transform="translate(-2125.677 -906.604)"/></g><g transform="translate(110.85 17.812)"><path class="m" d="M2043.179,897.806a.572.572,0,0,1-.41-.153.17.17,0,1,1,.233-.249c.093.087.222.067.426.028a.97.97,0,0,1,.467-.015.17.17,0,0,1-.1.326.735.735,0,0,0-.3.023A1.643,1.643,0,0,1,2043.179,897.806Z" transform="translate(-2042.715 -897.358)"/></g><g transform="translate(111.141 18.004)"><path class="m" d="M2048,900.888h0l-.29-.008a.162.162,0,0,1-.044-.007l-.036-.011a.17.17,0,1,1,.1-.326l.014,0,.2.006a.17.17,0,0,1,.219.258l-.029.031A.171.171,0,0,1,2048,900.888Z" transform="translate(-2047.499 -900.517)"/></g><g transform="translate(111.154 17.018)"><path class="m" d="M2048.337,888.582a.171.171,0,0,1-.155-.1c-.05-.112-.108-.216-.165-.317a1.557,1.557,0,0,1-.279-1.067,1.4,1.4,0,0,1,.583-.787,2.348,2.348,0,0,0,.313-.293,1.993,1.993,0,0,0,.352-1.527.17.17,0,1,1,.338-.035,2.312,2.312,0,0,1-.426,1.777,2.654,2.654,0,0,1-.358.34c-.221.185-.429.36-.466.581a1.254,1.254,0,0,0,.24.846c.061.11.124.222.178.342a.17.17,0,0,1-.085.225A.167.167,0,0,1,2048.337,888.582Z" transform="translate(-2047.722 -884.303)"/></g><g transform="translate(111.284 23.75)"><path class="m" d="M2051.217,997.922a.784.784,0,0,1-.321-.067c-.554-.245-.766-1.091-.892-1.6-.016-.064-.028-.107-.041-.153a1.563,1.563,0,0,1-.086-.739c.084-.337.576-.351.862-.33.562.043,1.879.144,1.877.844h0a2.224,2.224,0,0,1-.864,1.889A1.136,1.136,0,0,1,2051.217,997.922Zm-.647-2.552c-.239,0-.356.052-.362.078a1.386,1.386,0,0,0,.083.565c.014.049.027.1.037.137.11.441.3,1.215.706,1.393a.621.621,0,0,0,.558-.073,1.934,1.934,0,0,0,.685-1.591c0-.143-.2-.4-1.563-.5C2050.661,995.371,2050.614,995.37,2050.57,995.37Zm1.876.51h0Z" transform="translate(-2049.857 -995.029)"/></g><g transform="translate(116.707 16.324)"><path class="m" d="M2140.923,873.85a.172.172,0,0,1-.091-.027,3.226,3.226,0,0,0-1.6-.594.17.17,0,0,1,0-.34h0a3.547,3.547,0,0,1,1.777.647.17.17,0,0,1-.092.314Z" transform="translate(-2139.064 -872.889)"/></g><g transform="translate(121.839 16.559)"><path class="m" d="M2224.97,878.755a.168.168,0,0,1-.076-.018,3.5,3.5,0,0,1-1.4-1.731.174.174,0,0,1,.074-.232.167.167,0,0,1,.227.073l0,.007a3.2,3.2,0,0,0,1.247,1.579.17.17,0,0,1-.076.323Z" transform="translate(-2223.477 -876.755)"/></g><g transform="translate(122.322 18.589)"><path class="m" d="M2232.325,911.129a.169.169,0,0,1-.063-.012,1.671,1.671,0,0,1-.805-.726.17.17,0,1,1,.292-.175,1.34,1.34,0,0,0,.639.585.17.17,0,0,1-.063.328Z" transform="translate(-2231.433 -910.133)"/></g><g transform="translate(26.037 23.241)"><path class="m" d="M647.886,996.26h-.14a.17.17,0,1,1,0-.341h.067a3.278,3.278,0,0,0,.776-.059c1.057-.288,1.7-1.407,2.209-2.305.336-.588.716-1.135,1.083-1.664a13.851,13.851,0,0,0,1.58-2.688c.16-.4.306-.8.453-1.2.069-.186.137-.372.207-.56a3.29,3.29,0,0,0,.169-.646.17.17,0,1,1,.336.056,3.605,3.605,0,0,1-.186.709c-.07.186-.138.372-.207.558-.148.4-.3.8-.456,1.2a14.105,14.105,0,0,1-1.616,2.756c-.363.523-.738,1.063-1.056,1.621-.555.972-1.233,2.158-2.426,2.484A3.193,3.193,0,0,1,647.886,996.26Z" transform="translate(-647.576 -986.659)"/></g><g transform="translate(20.875 29.451)"><path class="m" d="M567.86,1092.212a.175.175,0,0,1-.034,0,8.55,8.55,0,0,1-3.947-2.15c-.14-.117-.288-.228-.437-.339a6.7,6.7,0,0,1-.736-.607.17.17,0,0,1,.241-.241,6.433,6.433,0,0,0,.7.576c.154.115.307.229.451.35a8.258,8.258,0,0,0,3.8,2.077.17.17,0,0,1-.033.337Z" transform="translate(-562.656 -1088.823)"/></g><g transform="translate(17.515 16.51)"><path class="m" d="M509.226,881.519a.8.8,0,0,1-.258-.045,2.826,2.826,0,0,1-1.228-1.317,3.245,3.245,0,0,1-.254-.664,4.074,4.074,0,0,1,.4-2.946,1.4,1.4,0,0,1,1.06-.6,1.552,1.552,0,0,1,1.3.657,1.66,1.66,0,0,1,.339,1.5.17.17,0,0,1-.323-.108,1.32,1.32,0,0,0-.284-1.185,1.221,1.221,0,0,0-1.009-.527,1.072,1.072,0,0,0-.811.463,3.743,3.743,0,0,0-.343,2.667,2.952,2.952,0,0,0,.23.6,2.476,2.476,0,0,0,1.031,1.142.377.377,0,0,0,.3-.01.17.17,0,0,1,.152.3A.68.68,0,0,1,509.226,881.519Z" transform="translate(-507.379 -875.941)"/></g><g transform="translate(18.971 19.127)"><path class="m" d="M532.06,920.117a.17.17,0,0,1-.167-.137,1.3,1.3,0,0,0-.494-.7.17.17,0,0,1,.224-.256,1.631,1.631,0,0,1,.6.885.17.17,0,0,1-.134.2A.174.174,0,0,1,532.06,920.117Z" transform="translate(-531.341 -918.986)"/></g><g transform="translate(16.813 12.985)"><path class="m" d="M496.013,831.309a.17.17,0,0,1-.12-.291.914.914,0,0,0,.138-.351c.01-.04.02-.078.03-.112a10.842,10.842,0,0,0,.368-1.6,12.22,12.22,0,0,0,.1-2.977c-.019-.169-.039-.338-.06-.507a11.577,11.577,0,0,1-.119-2.482,11.8,11.8,0,0,1,1.184-3.822c.072-.153.157-.3.238-.444a3.746,3.746,0,0,0,.322-.657.17.17,0,1,1,.323.108,4.056,4.056,0,0,1-.35.719c-.082.144-.16.279-.226.42a11.493,11.493,0,0,0-1.153,3.709,11.334,11.334,0,0,0,.118,2.409c.021.17.041.341.06.51a12.546,12.546,0,0,1-.1,3.061,11.173,11.173,0,0,1-.379,1.648c-.009.031-.018.065-.027.1a1.1,1.1,0,0,1-.227.507A.17.17,0,0,1,496.013,831.309Z" transform="translate(-495.842 -817.95)"/></g><g transform="translate(21.163 17.887)"><path class="m" d="M567.57,901.136a.17.17,0,0,1-.152-.246,3.6,3.6,0,0,1,2.646-2.3.17.17,0,0,1,.045.337,3.3,3.3,0,0,0-2.386,2.115A.17.17,0,0,1,567.57,901.136Z" transform="translate(-567.4 -898.588)"/></g><g transform="translate(30.051 22.651)"><path class="m" d="M713.775,981.279a.17.17,0,0,1-.041-.335c.486-.121,1.047-.358,1.168-.658.058-.145-.067-.412-.159-.608a2.409,2.409,0,0,1-.116-.275,2.9,2.9,0,0,1,.016-2.353.17.17,0,0,1,.292.175,2.609,2.609,0,0,0,.016,2.075,2.13,2.13,0,0,0,.1.233,1.172,1.172,0,0,1,.166.878c-.2.495-.963.753-1.4.862A.167.167,0,0,1,713.775,981.279Z" transform="translate(-713.604 -976.967)"/></g><g transform="translate(16.227 25.685)"><path class="m" d="M490.592,1036.259a.17.17,0,0,1-.145-.259,11.346,11.346,0,0,1,1.363-1.692c.206-.224.411-.448.607-.677s.388-.437.577-.627a.379.379,0,0,1,.037-.032l-.061-.042a.885.885,0,0,1-.1-.072,6.025,6.025,0,0,0-.651-.5c-.1-.071-.2-.143-.3-.217-.666-.494-1.375-.952-2.061-1.4-.624-.4-1.27-.82-1.883-1.264-.087-.063-.177-.126-.266-.189a4.3,4.3,0,0,1-1.443-1.4.678.678,0,0,1,.084-.736.685.685,0,0,1,.7-.276.17.17,0,0,1-.077.332.357.357,0,0,0-.351.152.347.347,0,0,0-.054.368,4.044,4.044,0,0,0,1.339,1.283c.091.064.181.128.27.192.606.439,1.248.853,1.868,1.254.69.446,1.4.907,2.079,1.408.1.072.2.142.3.212a6.4,6.4,0,0,1,.687.531.614.614,0,0,0,.055.039c.111.074.263.175.257.341a.306.306,0,0,1-.159.24.231.231,0,0,0-.024.017c-.182.183-.37.388-.559.607s-.407.459-.615.686a11.1,11.1,0,0,0-1.324,1.64A.171.171,0,0,1,490.592,1036.259Z" transform="translate(-486.192 -1026.86)"/></g><g transform="translate(14.294 25.555)"><path class="m" d="M454.572,1029.2a.171.171,0,0,1-.166-.209.7.7,0,0,1,.166-.279.75.75,0,0,0,.084-.112,6.726,6.726,0,0,0,.376-.819c.022-.064.047-.129.072-.193a2.355,2.355,0,0,0,.123-.379,3.678,3.678,0,0,1,1.136-2.291,1.116,1.116,0,0,1,.889-.149.17.17,0,1,1-.077.332.776.776,0,0,0-.627.1,3.27,3.27,0,0,0-.987,2.071,2.63,2.63,0,0,1-.14.436c-.024.061-.047.121-.068.181a6.8,6.8,0,0,1-.384.844.991.991,0,0,1-.136.2.525.525,0,0,0-.1.138A.17.17,0,0,1,454.572,1029.2Z" transform="translate(-454.401 -1024.733)"/></g><g transform="translate(26.32 32.631)"><path class="m" d="M653.441,1144.139a.169.169,0,0,1-.059-.01c-.087-.032-.113-.092-.2-.356-.019-.061-.043-.12-.066-.179a2.657,2.657,0,0,1-.095-.272c-.039-.145-.068-.307-.1-.479-.089-.5-.19-1.074-.59-1.256a.17.17,0,1,1,.14-.31c.563.255.686.949.785,1.506.018.1.035.2.054.289l.015-.139a3,3,0,0,1,.071-.377c.014-.062.029-.124.042-.19a2.6,2.6,0,0,0,.066-1.028.17.17,0,0,1,.333-.072,2.851,2.851,0,0,1-.064,1.163c-.014.073-.03.139-.045.205a2.684,2.684,0,0,0-.063.335c-.028.261-.055.529-.076.791a.074.074,0,0,1,.013.026.254.254,0,0,1-.072.327A.171.171,0,0,1,653.441,1144.139Z" transform="translate(-652.234 -1141.132)"/></g><g transform="translate(23.233 31.674)"><path class="m" d="M603.307,1129.631a.17.17,0,0,1-.148-.087,4.389,4.389,0,0,0-.281-.417,2.612,2.612,0,0,1-.478-.88c-.05-.193-.094-.4-.14-.618a4.2,4.2,0,0,0-.76-1.964.17.17,0,0,1,.249-.232,4.43,4.43,0,0,1,.844,2.126c.044.211.088.415.136.6a2.316,2.316,0,0,0,.424.765,4.7,4.7,0,0,1,.3.451.17.17,0,0,1-.148.254Z" transform="translate(-601.454 -1125.379)"/></g><g transform="translate(25.22 32.705)"><path class="m" d="M634.306,1145.62a.167.167,0,0,1-.046-.006.17.17,0,0,1-.118-.21,2.564,2.564,0,0,1,.181-.439,2,2,0,0,0,.176-.45,3.2,3.2,0,0,0,.034-.49c.017-.658.043-1.654.912-1.677a.174.174,0,0,1,.175.166.17.17,0,0,1-.166.175c-.506.014-.561.592-.581,1.346a3.274,3.274,0,0,1-.042.552,2.279,2.279,0,0,1-.2.527,2.283,2.283,0,0,0-.159.382A.17.17,0,0,1,634.306,1145.62Z" transform="translate(-634.136 -1142.348)"/></g><g transform="translate(25.334 36.223)"><path class="m" d="M638.982,1210.882a.17.17,0,0,1-.164-.127c-.137-.516-.258-1.045-.376-1.557-.137-.594-.278-1.209-.443-1.8-.13-.469-.287-.941-.438-1.4-.215-.65-.438-1.322-.592-2-.071-.315-.131-.65-.189-.974a8.141,8.141,0,0,0-.746-2.555.17.17,0,1,1,.3-.167,8.384,8.384,0,0,1,.785,2.662c.06.335.117.651.186.959.15.666.371,1.33.583,1.972.153.461.311.937.443,1.414.167.6.309,1.219.447,1.817.117.509.238,1.035.373,1.546a.171.171,0,0,1-.165.214Z" transform="translate(-636.01 -1200.211)"/></g><g transform="translate(27.551 34.397)"><path class="m" d="M673.787,1185.557a.17.17,0,0,1-.168-.146,15.913,15.913,0,0,1,.1-1.891c.086-1.1.184-2.357.155-2.987-.022-.474-.038-.952-.055-1.431a31.554,31.554,0,0,0-.483-5.32c-.134-.647-.308-1.285-.477-1.9-.132-.483-.268-.982-.385-1.487a.17.17,0,1,1,.332-.077c.116.5.251.995.382,1.474.17.622.345,1.265.481,1.923a31.8,31.8,0,0,1,.49,5.378c.016.477.032.953.054,1.427.03.651-.068,1.915-.156,3.03-.063.806-.128,1.641-.1,1.815a.17.17,0,0,1-.144.193Z" transform="translate(-672.469 -1170.184)"/></g><g transform="translate(12.875 29.259)"><path class="m" d="M449.233,1112.533a.17.17,0,0,1-.162-.118c-.156-.486-.3-.981-.454-1.477a26.434,26.434,0,0,0-1.577-4.328,86.029,86.029,0,0,0-7.691-12.981,28.813,28.813,0,0,0-4.946-5.124,16.334,16.334,0,0,0-2.583-1.632c-.017-.009-.052-.023-.1-.041-.315-.128-.708-.287-.659-.557.032-.183.226-.191.29-.193a.314.314,0,0,0,.042,0,4.765,4.765,0,0,0,1.086-.394.17.17,0,1,1,.153.3,5.016,5.016,0,0,1-1.074.4q.111.055.29.128c.06.024.106.044.128.055a16.652,16.652,0,0,1,2.636,1.667,29.154,29.154,0,0,1,5.005,5.186,86.336,86.336,0,0,1,7.723,13.032,26.7,26.7,0,0,1,1.6,4.383c.148.494.3.986.452,1.471a.171.171,0,0,1-.162.223Z" transform="translate(-431.062 -1085.666)"/></g><g transform="translate(28.207 32.875)"><path class="m" d="M693.913,1159.6a.17.17,0,0,1-.168-.146c-.222-1.512-.544-3.167-.986-5.059-.034-.145-.067-.294-.1-.445a7.232,7.232,0,0,0-.9-2.532,6.27,6.27,0,0,0-1.676-1.523c-.294-.207-.6-.422-.9-.67a35.931,35.931,0,0,0-5.838-3.761.17.17,0,1,1,.162-.3,36.231,36.231,0,0,1,5.893,3.8c.289.24.587.45.876.654a6.536,6.536,0,0,1,1.758,1.607,7.477,7.477,0,0,1,.95,2.653c.033.15.066.3.1.441.443,1.9.768,3.566.991,5.087a.17.17,0,0,1-.144.193Z" transform="translate(-683.264 -1145.145)"/></g><g transform="translate(0 30.104)"><path class="m" d="M219.793,1126.546a.17.17,0,0,1-.166-.132,24.364,24.364,0,0,1-.263-6.557c.017-.342.033-.681.047-1.014.042-1.008.059-2.031.075-3.021a56.894,56.894,0,0,1,.35-6.427l.026-.2c.255-1.968.544-4.2,2-5.655a9.946,9.946,0,0,1,4.453-2.079c.351-.1.694-.194,1.024-.3.98-.3,1.966-.69,2.919-1.065.449-.177.9-.353,1.346-.522a.17.17,0,1,1,.12.319c-.447.168-.894.344-1.341.52-.959.378-1.951.768-2.944,1.074-.332.1-.679.2-1.032.3a9.551,9.551,0,0,0-4.3,1.992c-1.375,1.375-1.656,3.544-1.9,5.458l-.026.2a56.686,56.686,0,0,0-.347,6.389c-.016.992-.033,2.018-.075,3.03-.014.334-.031.673-.047,1.016a24.122,24.122,0,0,0,.255,6.464.17.17,0,0,1-.128.2A.189.189,0,0,1,219.793,1126.546Z" transform="translate(-219.271 -1099.564)"/></g><g transform="translate(3.779 33.434)"><path class="m" d="M289.41,1179.158h-.019a.17.17,0,0,1-.15-.188c.072-.652.1-1.327.118-1.979a22.145,22.145,0,0,1,.166-2.372,16.876,16.876,0,0,0-.138-6.4,32.513,32.513,0,0,0-1.77-4.827c-.481-1.125-.979-2.288-1.371-3.464-.052-.157-.093-.316-.134-.474a4.2,4.2,0,0,0-.214-.677c-.1-.22-.191-.441-.284-.661l-.141-.331c-.513-1.2-1.437-2.614-2.491-3a1.593,1.593,0,0,0-1.3.082.17.17,0,1,1-.152-.3,1.918,1.918,0,0,1,1.574-.1c1.455.533,2.424,2.573,2.687,3.185l.141.332c.092.218.185.436.282.655a4.509,4.509,0,0,1,.232.73c.039.151.077.3.127.451.388,1.163.882,2.32,1.361,3.438a32.75,32.75,0,0,1,1.787,4.878,17.2,17.2,0,0,1,.145,6.531A21.95,21.95,0,0,0,289.7,1177c-.022.658-.045,1.34-.119,2.005A.17.17,0,0,1,289.41,1179.158Z" transform="translate(-281.431 -1154.34)"/></g><g transform="translate(0.411 33.779)"><path class="m" d="M227.416,1191.831a.17.17,0,0,1-.169-.149,4.14,4.14,0,0,0-.138-.558,5.262,5.262,0,0,1-.144-.565c-.152-.912-.35-1.822-.542-2.7-.116-.532-.232-1.064-.34-1.6a4.857,4.857,0,0,1,.147-1.929c.052-.248.1-.482.134-.707.132-.925.237-1.875.338-2.793l.05-.453a36.467,36.467,0,0,0,.071-5.243,39.625,39.625,0,0,1,.035-4.93c.04-.443.072-.895.1-1.35.205-2.9.417-5.89,2.742-7.983a3.485,3.485,0,0,1,1.089-.617c.164-.068.335-.137.5-.222a.17.17,0,1,1,.152.3c-.18.09-.356.162-.527.232a3.173,3.173,0,0,0-.99.555c-2.223,2-2.43,4.926-2.631,7.754-.032.458-.065.912-.1,1.357a39.386,39.386,0,0,0-.034,4.887,36.677,36.677,0,0,1-.073,5.292l-.05.453c-.1.921-.206,1.873-.339,2.8-.034.236-.084.476-.138.729a4.609,4.609,0,0,0-.147,1.792c.107.537.223,1.068.339,1.6.193.884.392,1.8.546,2.719a5.039,5.039,0,0,0,.135.526,4.259,4.259,0,0,1,.149.612.17.17,0,0,1-.148.19Z" transform="translate(-226.034 -1160.009)"/></g><g transform="translate(11.022 52.4)"><path class="m" d="M400.751,1470.681a.17.17,0,0,1-.17-.17,14.779,14.779,0,0,1,.384-2.9c.076-.38.155-.772.219-1.158a.17.17,0,1,1,.336.056c-.065.392-.145.787-.221,1.169a14.527,14.527,0,0,0-.377,2.831A.17.17,0,0,1,400.751,1470.681Z" transform="translate(-400.581 -1466.313)"/></g><g transform="translate(2.436 53.637)"><path class="m" d="M259.513,1492.867a.167.167,0,0,1-.076-.018.17.17,0,0,1-.076-.228,3.382,3.382,0,0,1,1.136-1.019l.157-.1c1.588-1.083,3.065-1.121,4.978-1.054a5.881,5.881,0,0,1,1.853.363l.047.02a2.941,2.941,0,0,0,.381.151,3.9,3.9,0,0,0-.245-.657c-.022-.05-.038-.087-.046-.107l-.121-.316c-.116-.3-.235-.613-.341-.926a9.7,9.7,0,0,1-.277-1.083,9.319,9.319,0,0,0-.253-1,.17.17,0,1,1,.323-.107,9.73,9.73,0,0,1,.263,1.038,9.424,9.424,0,0,0,.267,1.046c.1.306.222.615.336.913l.121.318c.006.016.02.048.038.089.235.531.347.874.227,1.055s-.377.1-.815-.1a5.54,5.54,0,0,0-1.77-.353c-1.848-.063-3.272-.029-4.774,1l-.161.107a3.252,3.252,0,0,0-1.02.888A.17.17,0,0,1,259.513,1492.867Z" transform="translate(-259.343 -1486.661)"/></g><g transform="translate(1.968 57.162)"><path class="m" d="M256.45,1555.5c-.524,0-1.038-.016-1.559-.056l-.1-.008a3.8,3.8,0,0,1-1.24-.232l-.161-.07a3.926,3.926,0,0,1-.977-.537,5.842,5.842,0,0,1-.73-.731.17.17,0,0,1,.267-.212,5.54,5.54,0,0,0,.687.686,3.692,3.692,0,0,0,.888.481l.164.072a3.554,3.554,0,0,0,1.126.2l.106.008a31.094,31.094,0,0,0,4.1-.032c.918-.048,1.879-.028,2.809-.007,2.625.057,5.34.116,7.538-1.349a6.984,6.984,0,0,1,1.473-.677c.294-.109.572-.211.837-.334a1.672,1.672,0,0,1,.269-.084,1.548,1.548,0,0,0,.321-.107q-.038-.029-.094-.067c-.027-.018-.046-.033-.054-.039l-.146-.125a2.525,2.525,0,0,1-.631-.691,8.9,8.9,0,0,1-1.019-3.088,5.759,5.759,0,0,1,.265-2.653,2.933,2.933,0,0,1,.222-.405c.064-.108.161-.271.232-.4-.053.018-.121.042-.2.076l-.03.012-.334.124a7.163,7.163,0,0,1-1.6.465,33.282,33.282,0,0,1-4.046.194,6.34,6.34,0,0,1-.656-.05,3.493,3.493,0,0,0-1.073-.019,4.846,4.846,0,0,0-.572.2,1.87,1.87,0,0,1-1.785.1.17.17,0,1,1,.189-.283c.425.282.933.081,1.471-.131a5.057,5.057,0,0,1,.615-.214,3.678,3.678,0,0,1,1.193.011,6.135,6.135,0,0,0,.619.048,32.977,32.977,0,0,0,4-.192,6.908,6.908,0,0,0,1.526-.445c.113-.042.225-.085.336-.125.421-.167.643-.219.748-.063.088.132.015.283-.336.872-.079.132-.177.3-.192.339a5.425,5.425,0,0,0-.251,2.5,8.558,8.558,0,0,0,.978,2.967,2.229,2.229,0,0,0,.555.6l.15.128.021.014c.145.1.388.264.271.46a.937.937,0,0,1-.6.325,1.455,1.455,0,0,0-.211.064c-.277.128-.574.238-.862.344a6.753,6.753,0,0,0-1.4.641c-2.288,1.525-5.057,1.465-7.735,1.406-.923-.02-1.878-.041-2.783.007C258.1,1555.458,257.263,1555.5,256.45,1555.5Z" transform="translate(-251.642 -1544.651)"/></g><g transform="translate(21.804 55.823)"><path class="m" d="M578.115,1524.468a.17.17,0,0,1-.066-.327c.256-.108.516-.224.781-.342a10.815,10.815,0,0,1,3.791-1.166,9.216,9.216,0,0,1,1.257.057,9.45,9.45,0,0,0,1.144.058c.115,0,.236-.01.36-.017a5,5,0,0,1,1.477.067c.157.041.314.092.473.143a3.116,3.116,0,0,0,1.315.226.17.17,0,1,1,.042.338,3.4,3.4,0,0,1-1.461-.24c-.153-.049-.305-.1-.456-.138a4.682,4.682,0,0,0-1.373-.056c-.126.007-.249.013-.367.017a9.919,9.919,0,0,1-1.185-.059,9.02,9.02,0,0,0-1.211-.055,10.573,10.573,0,0,0-3.668,1.137c-.266.119-.529.236-.787.345A.17.17,0,0,1,578.115,1524.468Z" transform="translate(-577.945 -1522.626)"/></g><g transform="translate(26.235 57.115)"><path class="m" d="M651.983,1547.331a.17.17,0,0,1-.02-.339l.51-.062a25.624,25.624,0,0,0,3.156-.509,8.474,8.474,0,0,1,1.151-.18,7.063,7.063,0,0,0,1.251-.211l.19-.054a2.481,2.481,0,0,0,.834-.339.514.514,0,0,0,.179-.478.679.679,0,0,0-.354-.533,2.771,2.771,0,0,0-1.28-.079c-.162.013-.318.026-.459.029a8.224,8.224,0,0,1-1.408-.128,9.2,9.2,0,0,0-1.231-.126c-.362-.005-.733.021-1.09.045a6.548,6.548,0,0,1-2.464-.151.17.17,0,0,1,.1-.325,6.2,6.2,0,0,0,2.339.136c.364-.024.741-.048,1.116-.046a9.352,9.352,0,0,1,1.277.13,8.246,8.246,0,0,0,1.35.124c.135,0,.283-.016.438-.029a3,3,0,0,1,1.452.11,1.016,1.016,0,0,1,.549.8.847.847,0,0,1-.308.785,2.726,2.726,0,0,1-.953.4l-.184.052a7.424,7.424,0,0,1-1.31.223,8.245,8.245,0,0,0-1.1.171,25.9,25.9,0,0,1-3.2.517l-.509.062Z" transform="translate(-650.828 -1543.884)"/></g><g transform="translate(27.378 59.429)"><path class="m" d="M669.807,1585.541a.17.17,0,0,1-.048-.333l.416-.12c.313-.089.637-.182.948-.288.188-.064.375-.132.562-.2s.378-.139.569-.2c.1-.035.206-.072.308-.108.191-.068.382-.136.575-.194.21-.064.42-.135.661-.224.839-.31,2.1-1.048,1.924-1.708a.17.17,0,0,1,.329-.089c.323,1.193-2.034,2.079-2.134,2.116-.247.091-.463.165-.68.23-.188.057-.374.123-.56.189l-.313.11c-.188.064-.375.132-.561.2s-.378.139-.569.2c-.319.109-.647.2-.964.293-.138.039-.276.078-.413.119A.175.175,0,0,1,669.807,1585.541Z" transform="translate(-669.637 -1581.947)"/></g><g transform="translate(27.464 61.277)"><path class="m" d="M671.22,1615.763a.17.17,0,0,1-.094-.312,2.5,2.5,0,0,1,1.013-.32c.1-.016.19-.031.282-.05,1.426-.288,2.954-1.271,3.117-2.591a.17.17,0,0,1,.338.042c-.19,1.549-1.889,2.581-3.387,2.883-.1.02-.195.036-.294.052a2.235,2.235,0,0,0-.879.268A.171.171,0,0,1,671.22,1615.763Z" transform="translate(-671.05 -1612.341)"/></g><g transform="translate(22.945 63.817)"><path class="m" d="M600.042,1656.5q-.064,0-.127,0a5.488,5.488,0,0,1-1.794-.552,6.843,6.843,0,0,0-1.28-.464.17.17,0,0,1,.072-.333,7.227,7.227,0,0,1,1.345.485,5.24,5.24,0,0,0,1.68.524,4.543,4.543,0,0,0,1.9-.532l.2-.087.214-.091c.6-.25,1.215-.508,1.31-1.17a.17.17,0,1,1,.337.048c-.122.854-.862,1.163-1.516,1.436l-.21.089-.2.086A5.162,5.162,0,0,1,600.042,1656.5Z" transform="translate(-596.707 -1654.126)"/></g><g transform="translate(37.653 40.123)"><path class="m" d="M841.2,1269.406a.17.17,0,0,1-.165-.13,11.044,11.044,0,0,0-2.345-4.627.17.17,0,1,1,.26-.22,11.377,11.377,0,0,1,2.416,4.767.17.17,0,0,1-.125.206A.172.172,0,0,1,841.2,1269.406Z" transform="translate(-838.652 -1264.368)"/></g><g transform="translate(56.736 55.909)"><path class="m" d="M1155.282,1527.054a10.206,10.206,0,0,1-1.139-.085l-.317-.035a2.011,2.011,0,0,0-.288,0,1.455,1.455,0,0,1-.615-.065.573.573,0,0,1-.336-.378.894.894,0,0,1,.146-.733,2.137,2.137,0,0,1,1.456-.74,7.014,7.014,0,0,1,.805-.106,5.934,5.934,0,0,0,.833-.116.17.17,0,1,1,.08.331,6.251,6.251,0,0,1-.881.125,6.813,6.813,0,0,0-.766.1,1.858,1.858,0,0,0-1.249.6.56.56,0,0,0-.1.442.229.229,0,0,0,.14.158,1.2,1.2,0,0,0,.471.04,2.383,2.383,0,0,1,.337,0l.32.035a4.6,4.6,0,0,0,2.265-.116.89.89,0,0,0,.638-1.136,1.791,1.791,0,0,0-.234-.384l-.062-.086a2.87,2.87,0,0,0-.477-.558.17.17,0,1,1,.217-.262,3.162,3.162,0,0,1,.538.624l.059.083a2.065,2.065,0,0,1,.277.463,1.208,1.208,0,0,1-.833,1.573A3.465,3.465,0,0,1,1155.282,1527.054Z" transform="translate(-1152.561 -1524.05)"/></g><g transform="translate(53.41 58.417)"><path class="m" d="M1102.287,1567.461a13.347,13.347,0,0,1-1.669-.139c-.226-.029-.453-.057-.68-.081-.122-.013-.265-.017-.418-.022a2.384,2.384,0,0,1-1.393-.311.69.69,0,0,1-.271-.52.915.915,0,0,1,.34-.68,2.05,2.05,0,0,1,1.338-.416c.249-.01.5,0,.745.019a5.857,5.857,0,0,0,.884.007.17.17,0,0,1,.032.339,6.335,6.335,0,0,1-.935-.006c-.236-.013-.48-.027-.712-.018a1.759,1.759,0,0,0-1.123.328.6.6,0,0,0-.228.42.352.352,0,0,0,.148.266,2.241,2.241,0,0,0,1.187.233c.162,0,.314.01.443.023.23.024.459.053.687.082a9.732,9.732,0,0,0,2.153.112,2.244,2.244,0,0,0,.955-.478l.153-.107c.269-.186.719-.5.789-.794a.17.17,0,0,1,.332.077c-.1.425-.6.769-.927,1l-.151.105a2.515,2.515,0,0,1-1.12.539C1102.659,1567.454,1102.472,1567.461,1102.287,1567.461Z" transform="translate(-1097.855 -1565.291)"/></g><g transform="translate(52 59.607)"><path class="m" d="M1079.257,1587.521a7.712,7.712,0,0,1-2.932-.712c-.131-.057-.275-.1-.428-.155a2.076,2.076,0,0,1-1.136-.671.481.481,0,0,1-.081-.436c.113-.355.639-.542.922-.643l.067-.024a.17.17,0,1,1,.12.319l-.072.026c-.161.057-.65.232-.712.426-.005.016-.019.059.036.137a1.8,1.8,0,0,0,.963.542c.153.051.312.1.457.166a6.59,6.59,0,0,0,3.319.648,5.077,5.077,0,0,0,1.759-.675c.226-.129.977-.6,1.115-1.191a.17.17,0,0,1,.332.077,2.624,2.624,0,0,1-1.277,1.41,5.4,5.4,0,0,1-1.879.716A3.983,3.983,0,0,1,1079.257,1587.521Z" transform="translate(-1074.659 -1584.869)"/></g><g transform="translate(52.473 61.195)"><path class="m" d="M1086.829,1612.978a11.341,11.341,0,0,1-2.485-.385l-.11-.026c-.495-.115-2-.465-1.773-1.441a.17.17,0,0,1,.332.077c-.15.645,1.106.937,1.519,1.033l.11.025a6.8,6.8,0,0,0,3.448.223,1.894,1.894,0,0,0,.781-.758l.093-.13a.17.17,0,0,1,.275.2l-.09.126a2.165,2.165,0,0,1-.948.883A3.521,3.521,0,0,1,1086.829,1612.978Z" transform="translate(-1082.438 -1610.995)"/></g><g transform="translate(18.102 14.582)"><path class="m" d="M520.682,845.514a.17.17,0,0,1-.125-.054,2.516,2.516,0,0,0-1.971-.887,3.9,3.9,0,0,0-.93.283.846.846,0,0,0-.089.047.649.649,0,0,1-.385.116.17.17,0,1,1,.045-.337.486.486,0,0,0,.172-.075,1.223,1.223,0,0,1,.127-.065,4.206,4.206,0,0,1,1.015-.305,2.82,2.82,0,0,1,2.264.993.17.17,0,0,1-.125.286Z" transform="translate(-517.035 -844.22)"/></g><g transform="translate(17.341 11.451)"><path class="m" d="M522.634,804.225a19.565,19.565,0,0,1-8.555-2.377,16.382,16.382,0,0,1-3.413-3.584c-.229-.3-.428-.556-.6-.757-.206-.247-.4-.507-.586-.759a11.809,11.809,0,0,0-.806-1.008,7.736,7.736,0,0,0-2.421-1.674,2.107,2.107,0,0,0-.6-.133,2.172,2.172,0,0,1-.721-.178.71.71,0,0,1-.411-.418.663.663,0,0,1,.161-.544.17.17,0,1,1,.276.2c-.083.116-.12.207-.106.264s.095.125.233.195a1.889,1.889,0,0,0,.611.144,2.4,2.4,0,0,1,.691.159,8.1,8.1,0,0,1,2.532,1.753,12.12,12.12,0,0,1,.83,1.037c.184.248.373.5.573.743.172.206.372.467.6.768a16.121,16.121,0,0,0,3.334,3.51c1.6,1.084,8.193,3.324,10.83,1.808a.334.334,0,0,0,.174-.215c.091-.365-.331-1.037-.671-1.576a6.884,6.884,0,0,1-.487-.854.17.17,0,1,1,.313-.134,6.707,6.707,0,0,0,.463.807c.412.656.839,1.334.713,1.84a.671.671,0,0,1-.335.428A5.368,5.368,0,0,1,522.634,804.225Z" transform="translate(-504.518 -792.723)"/></g><g transform="translate(21.558 14.917)"><path class="m" d="M575.306,851.767c-.059,0-.145-.055-.361-.195l-.149-.1a1.88,1.88,0,0,0-.2-.091,1.145,1.145,0,0,1-.541-.346,1.632,1.632,0,0,1-.151-.838c0-.1,0-.2-.01-.276a.17.17,0,1,1,.339-.036c.009.087.011.194.012.308a1.489,1.489,0,0,0,.094.655,1,1,0,0,0,.386.219,2.239,2.239,0,0,1,.245.112l.162.1.095.061a.813.813,0,0,1,.056-.136.17.17,0,1,1,.3.163.534.534,0,0,0-.034.089.555.555,0,0,1-.139.25A.152.152,0,0,1,575.306,851.767Z" transform="translate(-573.889 -849.738)"/></g><g transform="translate(18.019 7.16)"><path class="m" d="M515.848,726.355a.17.17,0,0,1-.1-.308,3.364,3.364,0,0,0,.953-1.742,6.2,6.2,0,0,1,.46-1.154,1.7,1.7,0,0,1,.681-.589,1.448,1.448,0,0,0,.457-.347.17.17,0,1,1,.276.2,1.714,1.714,0,0,1-.561.442,1.394,1.394,0,0,0-.557.465,5.987,5.987,0,0,0-.432,1.09,3.59,3.59,0,0,1-1.078,1.913A.169.169,0,0,1,515.848,726.355Z" transform="translate(-515.677 -722.144)"/></g><g transform="translate(19.834 7.874)"><path class="m" d="M556.367,741.932a6.244,6.244,0,0,1-1.986-.463c-.153-.054-.3-.106-.445-.153a16.167,16.167,0,0,1-2.69-1.256c-.237-.129-.474-.259-.714-.385a22.312,22.312,0,0,1-3.4-2.068c-1.026-.8-2.011-2.227-1.411-3.616a.17.17,0,0,1,.313.135c-.523,1.21.377,2.487,1.307,3.212a22.047,22.047,0,0,0,3.348,2.036c.241.127.48.257.719.387a15.9,15.9,0,0,0,2.632,1.232c.146.048.3.1.452.155a4.842,4.842,0,0,0,2.2.419c.6-.1.884-.85,1.115-1.457.032-.083.062-.163.092-.237a11.782,11.782,0,0,0,.848-3c.009-.079.014-.165.02-.256.032-.479.072-1.076.533-1.356a2.09,2.09,0,0,1,1.434-.121c.117.018.231.035.341.046a.17.17,0,0,1,.152.187.168.168,0,0,1-.186.152c-.115-.012-.235-.03-.357-.048a1.817,1.817,0,0,0-1.206.075c-.31.188-.342.666-.37,1.088-.006.1-.012.187-.021.27A12.1,12.1,0,0,1,558.22,740c-.029.072-.059.15-.089.231-.248.652-.588,1.545-1.379,1.672A2.428,2.428,0,0,1,556.367,741.932Z" transform="translate(-545.539 -733.888)"/></g><g transform="translate(24.391 16.456)"><path class="m" d="M631.992,878.6l-.029,0c-.7-.119-1.425-.185-2.125-.248a23.218,23.218,0,0,1-2.675-.35,22.618,22.618,0,0,1-6.581-2.631.17.17,0,1,1,.169-.3,22.29,22.29,0,0,0,6.482,2.594,22.973,22.973,0,0,0,2.636.344c.706.064,1.436.131,2.151.252a.17.17,0,0,1-.028.338Z" transform="translate(-620.497 -875.051)"/></g><g transform="translate(36.559 16.813)"><path class="m" d="M820.828,883.852a.17.17,0,0,1-.168-.146,2.3,2.3,0,0,1,.239-1.111,1.729,1.729,0,0,0,.2-1.064.579.579,0,0,0-.167-.182,1.244,1.244,0,0,1-.159-.154.17.17,0,0,1,.264-.214.944.944,0,0,0,.116.109.781.781,0,0,1,.27.338,1.98,1.98,0,0,1-.205,1.29,2.047,2.047,0,0,0-.219.94.17.17,0,0,1-.145.192Z" transform="translate(-820.649 -880.918)"/></g><g transform="translate(20.561 3.706)"><path class="m" d="M573.959,677.668l-.026,0a.17.17,0,0,1-.143-.194,12.541,12.541,0,0,0-.312-6,7.69,7.69,0,0,0-1.362-2.13c-1.5-1.839-4.274-3.9-7.164-3.651-2.327.2-4.673,1.422-7.173,3.736a.17.17,0,1,1-.231-.25c2.558-2.368,4.97-3.619,7.376-3.825,3.02-.26,5.9,1.872,7.457,3.775a7.965,7.965,0,0,1,1.419,2.231,12.87,12.87,0,0,1,.328,6.169A.17.17,0,0,1,573.959,677.668Z" transform="translate(-557.493 -665.326)"/></g><g transform="translate(21.652 5.635)"><path class="m" d="M575.608,700.365a.17.17,0,0,1-.13-.28,7.71,7.71,0,0,1,1.909-1.515c2.631-1.585,6.454-2.487,8.573.188a.17.17,0,1,1-.267.211c-1.982-2.5-5.618-1.622-8.13-.108a7.411,7.411,0,0,0-1.825,1.444A.17.17,0,0,1,575.608,700.365Z" transform="translate(-575.438 -697.056)"/></g><g transform="translate(31.391 22.855)"><path class="m" d="M736.778,980.883a2.239,2.239,0,0,1-1.079-.268.17.17,0,0,1,.229-.252,2.112,2.112,0,0,0,.855.18h0a.17.17,0,0,1,0,.34Z" transform="translate(-735.643 -980.319)"/></g><g transform="translate(31.674 23.123)"><path class="m" d="M740.571,985.135a.518.518,0,0,1-.149-.024.17.17,0,0,1,.1-.326c.051.016.064.017.123-.025a.17.17,0,1,1,.2.274A.448.448,0,0,1,740.571,985.135Z" transform="translate(-740.3 -984.726)"/></g><g transform="translate(26.703 21.906)"><path class="m" d="M660.427,965.508a.17.17,0,0,1-.058-.01,2.488,2.488,0,0,0-.586-.086,1.6,1.6,0,0,1-1.224-.429.17.17,0,0,1,.273-.2c.171.231.581.262.976.292a2.687,2.687,0,0,1,.676.105.17.17,0,0,1-.058.33Z" transform="translate(-658.526 -964.712)"/></g><g transform="translate(27.487 22.328)"><path class="m" d="M671.8,972.144a.382.382,0,0,1-.071-.007.39.39,0,0,1-.3-.273.17.17,0,0,1,.324-.106c0,.015.016.04.035.044s.055-.01.088-.051a.17.17,0,1,1,.263.216A.45.45,0,0,1,671.8,972.144Z" transform="translate(-671.423 -971.642)"/></g><g transform="translate(26.901 20.666)"><path class="m" d="M664.3,945.749a.17.17,0,0,1-.167-.138,1.488,1.488,0,0,0-.457-.342,4.492,4.492,0,0,0-1.751-.625.17.17,0,0,1,.05-.337,4.8,4.8,0,0,1,1.865.663c.536.318.618.478.63.592a.17.17,0,0,1-.153.186Zm-.165-.134Z" transform="translate(-661.778 -944.305)"/></g><g transform="translate(31.405 22.314)"><path class="m" d="M736.191,971.77a1.151,1.151,0,0,1-.171-.012.17.17,0,0,1,.05-.337,1.3,1.3,0,0,0,.263,0,1.647,1.647,0,0,1,.331.006.17.17,0,0,1-.05.337,1.356,1.356,0,0,0-.263,0C736.3,971.767,736.246,971.77,736.191,971.77Z" transform="translate(-735.875 -971.419)"/></g><g transform="translate(26.503 27.987)"><path class="m" d="M658.174,1066.016a3.941,3.941,0,0,1-2.894-.993.17.17,0,0,1,.241-.241,3.478,3.478,0,0,0,2.653.894.17.17,0,1,1,0,.34Z" transform="translate(-655.23 -1064.732)"/></g><g transform="translate(31.12 23.659)"><path class="m" d="M732.712,994.74a3.689,3.689,0,0,1-1.434-.364.17.17,0,1,1,.152-.3c.5.253,1.39.468,1.742.217a.813.813,0,0,0,.215-.467c.013-.052.026-.1.04-.153a.17.17,0,0,1,.327.094c-.013.045-.024.092-.036.14a1.06,1.06,0,0,1-.348.663A1.126,1.126,0,0,1,732.712,994.74Z" transform="translate(-731.184 -993.545)"/></g><g transform="translate(29.9 22.757)"><path class="m" d="M712.569,979.488a.17.17,0,0,1-.146-.083.842.842,0,0,0-.641-.37.381.381,0,0,0-.349.173.17.17,0,0,1-.283-.189.7.7,0,0,1,.64-.325,1.181,1.181,0,0,1,.925.535.17.17,0,0,1-.146.258Z" transform="translate(-711.12 -978.695)"/></g><g transform="translate(25.436 21.438)"><path class="m" d="M640.756,959.553a6.306,6.306,0,0,1-2.95-.872,4.276,4.276,0,0,1-.1-1.527.17.17,0,1,1,.337.048,4.928,4.928,0,0,0,.048,1.293,6.241,6.241,0,0,0,3.038.682c.154-.034.263-.384.322-.571l.023-.072a.17.17,0,1,1,.324.1l-.022.069c-.09.289-.227.725-.573.8A2.091,2.091,0,0,1,640.756,959.553Z" transform="translate(-637.683 -957.008)"/></g><g transform="translate(20.767 18.069)"><path class="m" d="M565.03,904.678a.17.17,0,0,1-.094-.029c-.222-.148-.459-.285-.687-.417-.269-.155-.547-.316-.811-.5-.384-.268-.761-.557-1.126-.836-.439-.336-.892-.683-1.354-.991a.17.17,0,0,1,.189-.283c.471.314.929.665,1.372,1,.362.277.736.564,1.114.827.252.176.524.333.787.484.233.135.475.274.706.429a.17.17,0,0,1-.095.312Z" transform="translate(-560.882 -901.593)"/></g><g transform="translate(31.177 54.374)"><path class="m" d="M734.86,1499.314l-.027,0a9.965,9.965,0,0,0-2.516-.154.173.173,0,0,1-.187-.151.17.17,0,0,1,.151-.187,10.3,10.3,0,0,1,2.606.156.17.17,0,0,1-.027.338Z" transform="translate(-732.129 -1498.789)"/></g><g transform="translate(12.918 54.28)"><path class="m" d="M431.937,1500.869a.17.17,0,0,1-.023-.339,34.926,34.926,0,0,0,4.565-1.05c.732-.2,1.488-.414,2.239-.6l.219-.053a43.6,43.6,0,0,1,9.414-1.577.173.173,0,0,1,.174.166.17.17,0,0,1-.166.174,43.376,43.376,0,0,0-9.341,1.568l-.219.053c-.746.182-1.5.391-2.229.593a35.189,35.189,0,0,1-4.61,1.059Z" transform="translate(-431.767 -1497.254)"/></g><g transform="translate(32.011 41.344)"><path class="m" d="M746.123,1300.654l-.281-.192s9.393-13.7,10.092-14.72a5.159,5.159,0,0,1,1.032-1.255.17.17,0,0,1,.19.283,5.464,5.464,0,0,0-.94,1.164C755.516,1286.955,746.123,1300.654,746.123,1300.654Z" transform="translate(-745.842 -1284.459)"/></g><g transform="translate(43.592 41.623)"><path class="m" d="M955.506,1292.893a5.274,5.274,0,0,1-1.439-.212,42.357,42.357,0,0,0-6.856-.086,45.493,45.493,0,0,1-4.633,0c-1.376-.088-3.379-1.438-4.766-2.447a4.275,4.275,0,0,0-1.334-.765.171.171,0,0,1-.138-.2.168.168,0,0,1,.192-.14,4.194,4.194,0,0,1,1.48.825c.779.567,3.151,2.291,4.588,2.382a45.374,45.374,0,0,0,4.6,0,42.041,42.041,0,0,1,6.959.1,5.56,5.56,0,0,0,2.491.114l.258-.028c.98-.1,1.8-.142,2.026-.151l2.43-2.28a.17.17,0,0,1,.233.248l-2.476,2.323a.17.17,0,0,1-.111.046c-.009,0-.925.032-2.066.152l-.258.027A11.05,11.05,0,0,1,955.506,1292.893Z" transform="translate(-936.338 -1289.045)"/></g><g transform="translate(59.276 44.954)"><path class="m" d="M1194.511,1355.879a.17.17,0,0,1-.12-.291l11.789-11.709a.17.17,0,0,1,.24.242l-11.789,11.709A.17.17,0,0,1,1194.511,1355.879Z" transform="translate(-1194.341 -1343.829)"/></g><g transform="translate(47.556 62.547)"><path class="m" d="M1001.729,1639.337a.17.17,0,0,1-.12-.291l5.795-5.756a.17.17,0,0,1,.24.241l-5.795,5.756A.17.17,0,0,1,1001.729,1639.337Z" transform="translate(-1001.559 -1633.241)"/></g><g transform="translate(44.761 45.891)"><path class="m" d="M955.75,1380.647a.17.17,0,0,1-.121-.29l20.894-21.055a.17.17,0,1,1,.242.24L955.871,1380.6A.169.169,0,0,1,955.75,1380.647Z" transform="translate(-955.58 -1359.251)"/></g><g transform="translate(21.834 65.708)"><path class="m" d="M603.951,1688.3a3.652,3.652,0,0,1-1.669-.335,2.344,2.344,0,0,1-.417-.4,1.006,1.006,0,0,0-.532-.384c-.361-.1-5.911-.127-9.552-.118-.067,0-5.517-.37-6.76-.413a10.507,10.507,0,0,1-1.135-.108,2.977,2.977,0,0,0-1.435.04l-.168.051a2.314,2.314,0,0,1-1.954.065c-.625-.328-1.772-1.12-1.82-1.154a.17.17,0,1,1,.194-.28c.012.008,1.178.814,1.785,1.132.521.273.914.153,1.7-.089l.168-.052a3.3,3.3,0,0,1,1.58-.051,10.3,10.3,0,0,0,1.1.1c1.248.044,6.7.41,6.759.414.92,0,9.113-.02,9.635.131a1.343,1.343,0,0,1,.695.488,2.016,2.016,0,0,0,.358.344,3.451,3.451,0,0,0,1.487.272h0a.17.17,0,0,1,0,.34Z" transform="translate(-578.435 -1685.24)"/></g><g transform="translate(68.541 42.566)"><path class="m" d="M1348.8,1307.19a2.894,2.894,0,0,1-1.595-.939l-.072-.071a1.26,1.26,0,0,1-.3-.388,1.322,1.322,0,0,1-.04-.785.17.17,0,0,1,.331.08,1,1,0,0,0,.02.565.962.962,0,0,0,.227.284l.077.077c.414.423,1.034.9,1.42.831a.43.43,0,0,0,.386-.3,1.1,1.1,0,0,0-.346-.979,2.753,2.753,0,0,0-.652-.456,1.569,1.569,0,0,0-.995-.184.17.17,0,1,1-.076-.332,1.889,1.889,0,0,1,1.217.208,3.06,3.06,0,0,1,.738.514,1.441,1.441,0,0,1,.441,1.326.769.769,0,0,1-.656.537A.758.758,0,0,1,1348.8,1307.19Z" transform="translate(-1346.751 -1304.562)"/></g><g transform="translate(81.526 31.025)"><path class="m" d="M1561.653,1116.61l-.032,0a1.644,1.644,0,0,1-1.139-.791.805.805,0,0,1-.092-.669.7.7,0,0,1,.667-.434.814.814,0,0,1,.77.449.17.17,0,1,1-.312.135.484.484,0,0,0-.444-.244h-.009a.372.372,0,0,0-.356.219.5.5,0,0,0,.074.379,1.315,1.315,0,0,0,.9.62.17.17,0,0,1-.031.338Z" transform="translate(-1560.351 -1114.713)"/></g><g transform="translate(79.757 31.512)"><path class="m" d="M1532.384,1124.641a.164.164,0,0,1-.041-.005,1.483,1.483,0,0,1-.982-.763.848.848,0,0,1-.051-.712.753.753,0,0,1,.68-.436H1532a.613.613,0,0,1,.575.377.17.17,0,1,1-.312.135.277.277,0,0,0-.265-.171h0a.413.413,0,0,0-.37.234.524.524,0,0,0,.046.423,1.141,1.141,0,0,0,.757.582.17.17,0,0,1-.04.336Z" transform="translate(-1531.254 -1122.725)"/></g><g transform="translate(77.81 31.818)"><path class="m" d="M1500.425,1129.756a.161.161,0,0,1-.034,0,1.38,1.38,0,0,1-1.173-1.216,1.015,1.015,0,0,1,.776-.772.5.5,0,0,1,.56.32.17.17,0,0,1-.313.135.162.162,0,0,0-.195-.119.686.686,0,0,0-.49.469,1.079,1.079,0,0,0,.9.849.17.17,0,0,1-.033.337Z" transform="translate(-1499.215 -1127.757)"/></g><g transform="translate(75.891 32.321)"><path class="m" d="M1468.56,1137.927a.169.169,0,0,1-.053-.009,1.233,1.233,0,0,1-.8-.846.859.859,0,0,1,.11-.779.73.73,0,0,1,.638-.26.519.519,0,0,1,.4.325.17.17,0,1,1-.312.135.184.184,0,0,0-.144-.123.4.4,0,0,0-.329.146.545.545,0,0,0-.038.465.886.886,0,0,0,.582.614.17.17,0,0,1-.053.332Z" transform="translate(-1467.661 -1136.026)"/></g><g transform="translate(73.661 32.752)"><path class="m" d="M1432.015,1144.915H1432a1.245,1.245,0,0,1-.9-.717.662.662,0,0,1-.026-.719.8.8,0,0,1,.705-.357.552.552,0,0,1,.483.337.17.17,0,0,1-.312.135.214.214,0,0,0-.2-.132.456.456,0,0,0-.391.2.317.317,0,0,0,.019.348c.2.359.422.543.66.571a.17.17,0,0,1-.019.339Z" transform="translate(-1430.972 -1143.119)"/></g><g transform="translate(39.413 67.959)"><path class="m" d="M868.1,1728.44h.341l-.042-.6c-.167-2.415-.326-4.7-.463-5.435a.17.17,0,0,0-.335.063c.134.718.3,3.1.458,5.4Z" transform="translate(-867.597 -1722.262)"/></g><g transform="translate(1.882 66.832)"><path class="m" d="M250.6,1707.435a14.191,14.191,0,0,1-.033,1.857,15.667,15.667,0,0,0-.04,1.736h.341a15.231,15.231,0,0,1,.039-1.715,14.493,14.493,0,0,0,.033-1.9c-.04-.57-.111-1.143-.18-1.7-.074-.6-.151-1.22-.188-1.831a.17.17,0,0,0-.34.021c.037.622.115,1.248.19,1.853C250.488,1706.306,250.559,1706.874,250.6,1707.435Z" transform="translate(-250.23 -1703.723)"/></g><g transform="translate(32.319 68.958)"><path class="m" d="M751.223,1743.867h.341q-.012-.249-.023-.5c-.068-1.488-.139-3.027-.289-4.529a.17.17,0,0,0-.339.034c.149,1.493.219,3.028.287,4.511Q751.211,1743.626,751.223,1743.867Z" transform="translate(-750.912 -1738.687)"/></g><g transform="translate(14.782 30.192)"><path class="m" d="M468.016,1106.016a.17.17,0,0,1-.106-.037c-.552-.441-1.067-.931-1.565-1.405-.384-.366-.782-.744-1.192-1.095a7.974,7.974,0,0,0-.9-.632,9.278,9.278,0,0,1-.8-.549,5.352,5.352,0,0,1-.641-.644c-.11-.124-.22-.247-.333-.361a.17.17,0,1,1,.241-.241c.118.118.232.246.347.376a5.091,5.091,0,0,0,.6.6,8.832,8.832,0,0,0,.767.527,8.263,8.263,0,0,1,.934.66c.416.357.817.738,1.2,1.107.493.469,1,.954,1.543,1.386a.17.17,0,0,1-.107.3Z" transform="translate(-462.437 -1101.003)"/></g><g transform="translate(49.128 19.225)"><path class="c" d="M1033.221,924.769c.438.463,1.39,1.846.5,2.292-.819.41-2.55-.323-3.088-1-.436-.545-.736-2.323.2-2.591C1031.921,923.162,1032.573,924.084,1033.221,924.769Z" transform="translate(-1030.045 -923.24)"/><path class="m" d="M1030.506,924.707a3.977,3.977,0,0,1-2.636-1.178,2.789,2.789,0,0,1-.367-2.177.965.965,0,0,1,.652-.683c1.063-.3,1.737.438,2.331,1.092.077.085.154.17.231.25h0c.292.309,1.024,1.267.9,1.978a.791.791,0,0,1-.448.583A1.48,1.48,0,0,1,1030.506,924.707Zm-1.875-3.767a1.385,1.385,0,0,0-.382.056.631.631,0,0,0-.422.459,2.47,2.47,0,0,0,.308,1.861c.49.612,2.13,1.326,2.879.951a.451.451,0,0,0,.265-.338,2.628,2.628,0,0,0-.811-1.685c-.078-.083-.156-.169-.235-.255C1029.747,921.452,1029.281,920.94,1028.632,920.94Z" transform="translate(-1027.418 -920.599)"/></g><g transform="translate(45.541 23.234)"><path class="c" d="M972.777,989.853c.165.222.393,1.237.05,1.494a1.1,1.1,0,0,1-1.494-.5C970.863,989.676,971.907,988.684,972.777,989.853Z" transform="translate(-971.045 -989.161)"/><path class="m" d="M969.735,989.051a1.271,1.271,0,0,1-.343-.049,1.333,1.333,0,0,1-.466-2.349c.337-.188.869-.159,1.351.49.2.274.465,1.4.015,1.732A.913.913,0,0,1,969.735,989.051Zm-.419-2.16a.453.453,0,0,0-.224.059.982.982,0,0,0-.238,1.227.964.964,0,0,0,.63.5.7.7,0,0,0,.6-.072c.221-.166.067-1.054-.084-1.256h0A.941.941,0,0,0,969.317,986.891Z" transform="translate(-968.409 -986.552)"/></g><g transform="translate(75.727 9.367)"><path class="c" d="M1494.57,767.654c0-3.537-6-6.4-13.406-6.4s-13.407,2.867-13.407,6.4,6,6.4,13.407,6.4c1.177,0,10.414,3.305,10.414,3.305s-5.116-3.806-4.247-4.022C1491.632,772.275,1494.57,770.128,1494.57,767.654Z" transform="translate(-1467.587 -761.079)"/><path class="m" d="M1488.95,774.9a.169.169,0,0,1-.057-.01c-3.185-1.14-9.449-3.3-10.357-3.3-7.486,0-13.577-2.949-13.577-6.575s6.09-6.575,13.577-6.575,13.577,2.949,13.577,6.575c0,2.477-2.807,4.714-7.329,5.843.155.458,2.292,2.259,4.269,3.73a.17.17,0,0,1-.1.307Zm-10.415-16.114c-7.3,0-13.236,2.8-13.236,6.234s5.938,6.234,13.236,6.234c.966,0,6.973,2.081,9.435,2.947-1.519-1.169-3.637-2.909-3.531-3.441a.283.283,0,0,1,.223-.218c4.386-1.087,7.11-3.2,7.11-5.523C1491.772,761.587,1485.834,758.79,1478.536,758.79Z" transform="translate(-1464.959 -758.45)"/></g><g transform="translate(39.925)"><path class="c" d="M900.58,614.419a6.3,6.3,0,0,0-.26-3.283c-1.139-2.279-4.164-2.575-6.19-1.356-.169.1-1.175.958-1.3.836a3.979,3.979,0,0,1-.484-.87,4.917,4.917,0,0,0-.641-.861c-1.524-1.641-4.962-2.7-6.4-.391a5.176,5.176,0,0,0-.8,2.282c-.016.181.187,1.254.12,1.321-.053.05-.6-.287-.7-.319a2.7,2.7,0,0,0-.993-.1,4.356,4.356,0,0,0-3.168,2.127,5.954,5.954,0,0,0-.908,3.779,5.853,5.853,0,0,0,5.606,5.325,9.467,9.467,0,0,0,2.2-.48c.164-.041.536-.209.7-.136s.084.165.106.307a2.081,2.081,0,0,0,.193.545,4.4,4.4,0,0,0,1.55,1.806c1.381.914,4.115,1.254,5.123-.4.117-.191.363-.837.633-.72s.321.437.486.635a2.627,2.627,0,0,0,.77.552,4.883,4.883,0,0,0,2.422.444,4.423,4.423,0,0,0,2.877-.989,2.771,2.771,0,0,0,.857-1.547,2.418,2.418,0,0,0-.011-.93c-.03-.138-.345-.729-.235-.84.01-.009.509-.231.67-.327a3.775,3.775,0,0,0,1.487-3.4C903.881,614.624,900.567,614.628,900.58,614.419Z" transform="translate(-878.657 -606.989)"/><path class="m" d="M889.239,623.25a5.214,5.214,0,0,1-2.764-.79,4.547,4.547,0,0,1-1.61-1.876,2.2,2.2,0,0,1-.206-.59.759.759,0,0,1-.006-.145.389.389,0,0,0,0-.048,1.789,1.789,0,0,0-.419.109c-.065.022-.124.041-.169.053-.191.048-.386.105-.583.163a5.559,5.559,0,0,1-7.436-5.156,6.085,6.085,0,0,1,.934-3.888,4.462,4.462,0,0,1,3.3-2.2,2.838,2.838,0,0,1,1.057.109,1.956,1.956,0,0,1,.238.12c.06.033.155.084.239.126-.015-.149-.043-.354-.062-.5a3.87,3.87,0,0,1-.061-.606,5.349,5.349,0,0,1,.826-2.357,2.947,2.947,0,0,1,2.308-1.4,5.76,5.76,0,0,1,4.365,1.761,5.092,5.092,0,0,1,.663.891,3.339,3.339,0,0,1,.165.337,1.919,1.919,0,0,0,.245.446,6.837,6.837,0,0,0,.839-.588c.156-.121.247-.19.3-.221a5.149,5.149,0,0,1,4.018-.545,3.8,3.8,0,0,1,2.412,1.971,5.316,5.316,0,0,1,.313,2.871c-.01.133-.02.265-.028.4.067.019.171.043.266.064.928.211,3.1.705,3.436,3.009a3.942,3.942,0,0,1-1.568,3.571c-.117.07-.378.191-.552.272l-.055.026a2.917,2.917,0,0,0,.158.438,1.671,1.671,0,0,1,.093.25,2.565,2.565,0,0,1,.012,1,2.945,2.945,0,0,1-.911,1.644A4.576,4.576,0,0,1,896.007,623a5.066,5.066,0,0,1-2.505-.464,2.763,2.763,0,0,1-.821-.593,1.512,1.512,0,0,1-.17-.273.626.626,0,0,0-.253-.315c-.06.01-.172.173-.33.484-.035.068-.065.128-.09.168a2.582,2.582,0,0,1-1.706,1.151A4.118,4.118,0,0,1,889.239,623.25Zm-4.619-3.778a.411.411,0,0,1,.17.033.327.327,0,0,1,.2.354.418.418,0,0,0,0,.082,1.976,1.976,0,0,0,.179.5,4.206,4.206,0,0,0,1.489,1.736,4.763,4.763,0,0,0,3.394.649,2.222,2.222,0,0,0,1.49-1c.021-.035.047-.086.077-.145.152-.3.405-.8.769-.643a.905.905,0,0,1,.419.469,1.243,1.243,0,0,0,.13.213,2.47,2.47,0,0,0,.719.511,4.734,4.734,0,0,0,2.339.424,4.241,4.241,0,0,0,2.767-.946,2.6,2.6,0,0,0,.8-1.45,2.231,2.231,0,0,0-.01-.864c-.006-.026-.045-.12-.074-.189-.169-.4-.262-.659-.115-.806.026-.025.026-.025.183-.1s.419-.194.52-.255a3.617,3.617,0,0,0,1.406-3.23c-.3-2.072-2.315-2.53-3.174-2.726-.376-.086-.548-.125-.537-.314h0c.01-.167.022-.335.035-.5a5.062,5.062,0,0,0-.278-2.693,3.468,3.468,0,0,0-2.2-1.8,4.868,4.868,0,0,0-3.748.509c-.036.022-.153.112-.265.2-.809.625-1.07.782-1.24.612a1.89,1.89,0,0,1-.363-.6,3.039,3.039,0,0,0-.148-.3,4.751,4.751,0,0,0-.619-.831,5.4,5.4,0,0,0-4.083-1.653,2.585,2.585,0,0,0-2.051,1.237,5.011,5.011,0,0,0-.776,2.208c-.005.058.032.33.059.529.1.71.1.81.011.9-.129.121-.292.033-.688-.182-.083-.045-.154-.085-.185-.1a2.493,2.493,0,0,0-.928-.092,4.24,4.24,0,0,0-3.035,2.049,5.823,5.823,0,0,0-.881,3.67,5.647,5.647,0,0,0,5.437,5.172,5.759,5.759,0,0,0,1.564-.309c.2-.059.4-.117.6-.166.037-.009.087-.026.143-.045A1.68,1.68,0,0,1,884.621,619.471Zm13.319-7.684h0Z" transform="translate(-876.017 -604.358)"/></g></g></g></svg>