<svg xmlns="http://www.w3.org/2000/svg" width="71.373" height="109.534" viewBox="0 0 71.373 109.534">
  <g id="Сгруппировать_64" data-name="Сгруппировать 64" transform="translate(-478.827 -212.366)">
    <g id="noun_Energy_2456849" transform="translate(478.827 212.366)">
      <g id="Сгруппировать_62" data-name="Сгруппировать 62" transform="translate(0)">
        <path id="Контур_1012" data-name="Контур 1012" d="M311.694,178.693l-25.267,35.494h27.035a1.863,1.863,0,0,1,1.142,3.139l-52.787,67.182c-1.117,1.419-3.2.226-2.829-1.6l9.327-46.128H245.374a1.829,1.829,0,0,1-1.464-2.653l21.13-57.395a1.642,1.642,0,0,1,1.514-1.128l43.957-.007a1.862,1.862,0,0,1,1.184,3.093Z" transform="translate(-243.73 -175.6)" fill="#5eb752" fill-rule="evenodd"/>
      </g>
    </g>
    <g id="noun_Energy_2456849-2" data-name="noun_Energy_2456849" transform="translate(499.354 242.657)">
      <g id="Сгруппировать_62-2" data-name="Сгруппировать 62">
        <path id="Контур_1012-2" data-name="Контур 1012" d="M282.727,177.2l-14.5,18.3h15.513a.943.943,0,0,1,.656,1.619l-30.289,34.646a.941.941,0,0,1-1.624-.824l5.352-23.789H244.673a.943.943,0,0,1-.84-1.368l12.124-29.6a.938.938,0,0,1,.869-.581l25.222,0a.944.944,0,0,1,.68,1.6Z" transform="translate(-243.73 -175.6)" fill="#9fd833" fill-rule="evenodd"/>
      </g>
    </g>
  </g>
</svg>
