<svg xmlns="http://www.w3.org/2000/svg" width="322.71" height="220.969" viewBox="0 0 322.71 220.969"><defs><style>.a{fill:#959696;}.a,.b,.c,.d,.e,.f,.g,.h,.i,.k{fill-rule:evenodd;}.b{fill:#ffedde;}.c{fill:#cdd2d8;}.d{fill:#a1a1a1;}.e{fill:#5eb752;}.f{fill:#e7e6e2;}.g{fill:#efefef;}.h{fill:#b7a28d;}.i{fill:#b0bcc4;}.j,.k{fill:#384154;}</style></defs><g transform="translate(-344.291 -232.694)"><g transform="translate(369.101 241.817)"><path class="a" d="M1196.309,1289.216a9.035,9.035,0,0,0-2.788-3.791,47.489,47.489,0,0,0-9.212-5.409c-2.317-1.065-15.034-6.2-16.368-6.632-6.718-2.189-11.7-3.346-18.285-5.995a63.913,63.913,0,0,0-6.392-1.8s-3.224-7.748-4.661-11.008a16.554,16.554,0,0,1-1.774-4.98c-.657-4.013-.759-11.431-5.265-13.475a12.7,12.7,0,0,1-5.273-4.585s-2.667.493-4.664.733c-1.807.217-16.857,4.2-16.857,4.2s.629,3.454-.344,4.749c-1.424,1.895-2.823,2.569-4.1,4.572-.7,1.106-12.252,20.547-14.293,25.806-.543,1.4-1,3.808-1.484,5.259a53.694,53.694,0,0,0-1.7,11.172,29.835,29.835,0,0,0,1.212,8.446s34.764,2.584,62.827.769A252.284,252.284,0,0,0,1196.309,1289.216Z" transform="translate(-993.325 -1086.045)"/><path class="b" d="M765.423,437.429s.318-1.4.38-2.025a6.158,6.158,0,0,1,3.135-4.511c1.189-.765,1.978-.537,3.3-.678,3.513-.376,6.276,1.064,8.17-2.251.749-1.311.956-4.5.956-5.951a22.08,22.08,0,0,1,1.079-7.554c.508-1.354,1.955-2.251,2.5-3.515.75-1.75-1.119-2.016-2.19-3.48a5.008,5.008,0,0,1-.6-2.473c-.239-2.622.845-7.2.267-10.665-.124-.744-1.115-5.926-2.413-6.792-3.731-2.488-10.592-.458-14.029,1.506a11.488,11.488,0,0,0-3.525,2.468c-2.445,3.055-4.479,7.354-7.757,9.7a10.9,10.9,0,0,1-4.407,1.763c-1.474.295-4.359-1.177-5.582.046-2.732,2.732-2.013,8.8-3.409,12.295a8.782,8.782,0,0,1-2.084,2.605l-.062,4.44s5.421,3.088,7.61,4.061c2.125.944,4.206,1.9,6.346,2.82C758.041,431.347,765.423,437.429,765.423,437.429Z" transform="translate(-702.839 -371.714)"/><path class="c" d="M640.076,692.549a.648.648,0,0,0,.142-.568c-.106-.263-1.294-.15-1.562-.283-.644-.322-1.565-.108-2.271-.284a12.569,12.569,0,0,0-2.1-.293,3.035,3.035,0,0,0-1.077-1.457,6.95,6.95,0,0,0-2.712-.9c-1.851-.309-6.667-.375-8.816-.819-4.231-.875-8.459-2.194-8.459-2.194s-6.278-10.68-8.631-14.209c-2.563-3.846-6.012-7.2-8.091-11.356-1.284-2.569-2.373-5.624-4.116-7.949-1.442-1.922-3.833-4.965-3.833-4.965l-3.3-2.921s.11-2.145-.485-2.938c-.851-1.135-1.744-1.214-2.876-2.119-1.9-1.519-4.682-2.773-6.692-4.209-2.614-1.867-4.595-3.349-7.328-5.058-4.761-2.976-11.84-6.964-13.505-7.692s-4.345-1.674-5.45-1.453c-2.35.47-4.542,4.421-4.542,4.421s-4.744,1.12-6.493,2.519c-.84.672-1.394,2.3-2.09,3.112-2.468,2.88-4.451,5.558-7.137,8.244-3.28,3.28-6.111,4.776-8.824,8.574a34.037,34.037,0,0,0-2.531,5.194,25.542,25.542,0,0,0-2.129,6.956c-1.5,16.548,5.6,28.848,12.982,42.68,2.2,4.123,4.416,8.9,6.947,12.836,1.974,3.07,6.3,12.808,6.3,12.808s2.943,3.4,4.01,5.076c1.183,1.859,8.129,10.135,10.155,16.11.754,2.225,1.458,4.419,1.458,4.419s4.428-8.617,7.975-5.07c3.431,3.431,3.11,10.288,8.517,11.64,6.2,1.55,13.794.9,20.015-.141a15.279,15.279,0,0,0,6.53-3.407,9.439,9.439,0,0,1,6.282-2.3,87.525,87.525,0,0,1,12.379,1.262c2.56.365,6.876.454,9.282.6s5.286.014,6.787-1.237a20.439,20.439,0,0,0,2.815-3.7s6.676.379,8.935-.751c1.619-.809,1.864-1.982,2.444-4.532a18.9,18.9,0,0,0,.074-8.585c-.138-.692-.762-2.5-1.027-3.3a13.613,13.613,0,0,0-2.729-4.213c-1.36-1.088-3.039-.483-4.869-.8a27.673,27.673,0,0,0-3.614-.342,34.274,34.274,0,0,0-4.621-3.249c-1.877-.8-7.6-.719-7.6-.719a25.3,25.3,0,0,0,.314-2.6,17.969,17.969,0,0,0-1-6.409c-.531-1.062-1.76-4.8-1.76-4.8a25.661,25.661,0,0,0,3.192.418,7.041,7.041,0,0,0,3.939-1.193,10.986,10.986,0,0,0,2.953-3.462s3.829.985,5.567.263a5,5,0,0,0,2.012-2.082l-3.312-.209s-.03-.5-.03-1.7A20.651,20.651,0,0,1,640.076,692.549Z" transform="translate(-513.35 -569.886)"/><path class="d" d="M964.211,850.785l1.975-7.564a33.811,33.811,0,0,0,3.74-7.635c2.246-8.421.308-18.16-1.632-26.4-.969-4.121-1.472-5.492-2.585-9.575a65.2,65.2,0,0,0-2.646-6.686c-.6-1.269-2.368-5.172-2.368-5.172l.376-1.724s4.216,6,5,7.6,3.191,6.5,5.159,10.926c1.585,3.567,4.441,8.3,5.073,12.2,1.5,9.26,1.243,19.319.148,28.627-.394,3.351-2.144,13.49-2.144,13.49l-5.357-.414s-1.654-3.193-2.161-4.207A28.684,28.684,0,0,0,964.211,850.785Z" transform="translate(-890.087 -709.495)"/><path class="d" d="M698.157,1433.128s.837-.4-3.954,5.229c-.544.64-5.47,5.16-6.143,5.7-3.38,2.725-5.815,4.371-9.284,6.973-.179.134-1.9,1.306-2.889,1.968-.3.2,6.7,3.165,13.039,5.27a97.394,97.394,0,0,0,12.3,3.15s4.5-4.787,5.142-5.432a113.376,113.376,0,0,0,8.191-10.335c.333-.454,2.758-3.989,2.758-3.989a52.737,52.737,0,0,1-5.877-.9c-1.976-.692-4.472-1.186-6.833-2.648A41.631,41.631,0,0,1,698.157,1433.128Z" transform="translate(-649.359 -1256.42)"/><path class="e" d="M995.462,826.018s-1.363-3.68-3.15-7.455c-1.893-4-4.266-8.194-6.167-11.362a44.471,44.471,0,0,0-6.343-8.908,65.544,65.544,0,0,1-5.06-6.067,15.235,15.235,0,0,0-3.259-2.944s-3.792-8.082-5.694-10.618c-.623-.831-2.408-3.057-2.408-3.057l.755-2.2a33.5,33.5,0,0,0,2.96,1.966c1.876.938,3.783,3.163,5.159,4.883,1.584,1.98,4.106,9.3,4.106,9.3s5.679,8.272,9.8,14.974c1.351,2.2,5.249,8.817,5.249,8.817s1.864,3.642,2.61,4.884a11.441,11.441,0,0,1,1.221,4.463A22.721,22.721,0,0,1,995.462,826.018Z" transform="translate(-892.357 -698.83)"/><path class="e" d="M509.551,793.292c-3.146,3.932-4.108,8.072-4.654,12.986a22.805,22.805,0,0,0-.246,5.339,109.618,109.618,0,0,0,4.113,18.286c1.211,4.036,2.11,9.333,3.433,13.3,1.2,3.613,2.218,6.984,3.315,10.64A177.106,177.106,0,0,0,526.968,881.9c2.954,5.906,5.933,11.748,8.885,17.652.694,1.387,3.414,5.612,3.414,5.612l4.212-3.3,4.428-3.975s-.968-3.628-1.217-4.252a55.928,55.928,0,0,0-2.843-5.269c-.705-1.467-2.932-4.073-3.667-5.3-.559-.932-1.827-2.562-2.487-3.443-1.994-2.659-5.019-6.533-5.019-6.533a80.018,80.018,0,0,0-3.722-8.135c-2.581-4.3-4.809-9.322-7.359-13.57-1.282-2.137-2.018-3.895-3.133-6.122-.8-1.592-1.955-4.264-2.748-5.85-.445-.889-2.519-5.837-3.369-7.778-2.3-5.254-3.788-12.019-4.7-18.371a41.734,41.734,0,0,1-.358-10.3,34.877,34.877,0,0,1,3.782-10.963A4.122,4.122,0,0,0,509.551,793.292Z" transform="translate(-504.568 -714.548)"/><path class="e" d="M856.611,1484.566a109.026,109.026,0,0,1-6.125,9.137c-.065.078-2.358,2.738-4.828,5.475-2.133,2.363-4.5,4.844-4.457,5.024.021.083,13.631,2.509,24.929,4.113a123.856,123.856,0,0,0,13.756,1.39c0-.572-1.188-5.4-1.083-9.406a49.786,49.786,0,0,1,1.893-11.876c.324-.973,1.554-4.537,1.554-4.537s-3.5.095-4.477.095c-5.191,0-10.467.125-15.665.351C860.8,1484.389,856.611,1484.566,856.611,1484.566Z" transform="translate(-789.091 -1299.326)"/><path class="e" d="M650.981,735.759,653,727.8a39.043,39.043,0,0,0,2.625-3.865,29.95,29.95,0,0,0,3.022-10.246,31.342,31.342,0,0,0-.214-7.487c-.249-2.24-.17-5.162-.963-7.274a71.626,71.626,0,0,0-4.6-10.589,72.652,72.652,0,0,0-6.951-10.448c-2.357-2.946-9.922-10.5-10.739-11.182-1.533-1.277-3.394-2.984-4.927-4.262a79.624,79.624,0,0,0-7.917-6c-5.1-3.189-11.452-7.873-17.8-6.286a6.073,6.073,0,0,0-2.333,1.679c-2.307,2.307-4.1,4.687-5.859,6.758a28.616,28.616,0,0,1-3.281,3.476c-.378.284-3.242,2.734-3.242,2.734a63.924,63.924,0,0,1,7.4-2.158,27.213,27.213,0,0,1,12.983,2.184,9.6,9.6,0,0,1,3.462,2.905,32.949,32.949,0,0,1,2.473,3.854c.762,1.36,2.154,4.658,3.792,7.115a51.8,51.8,0,0,0,5.456,7.38c2.034,2.109,5.088,6.077,6.195,9.028,1.279,3.411.568,10.555.568,10.555s4.02,5.149,6.259,8.509c1.791,2.685,2.79,5,4.385,7.789.743,1.3,1.364,4.227,2.336,5.394a63.535,63.535,0,0,1,3.433,5.365C648.9,733.237,650.981,735.759,650.981,735.759Z" transform="translate(-576.621 -594.392)"/><path class="e" d="M1036.683,927.133s.713,1.246,1.8,7.121a64.72,64.72,0,0,1,.962,7.487c.219,3.278.515,6.568.749,9.841.422,5.908-.214,12.028-.214,17.969a42.221,42.221,0,0,1-.856,6.846,16.993,16.993,0,0,1-.646,1.83s4.2,1.418,5.052,1.7a61.29,61.29,0,0,1,6.365,2.381,54.45,54.45,0,0,0,6.5,1.325,18.343,18.343,0,0,0,.559-3.341c-.553-3.595-3.45-9.55-4.892-12.1-1.909-3.38-2.572-6.174-3.522-9.978-.774-3.1-1.337-6.934-2.066-10.032a85.083,85.083,0,0,0-4.139-12.751C1041.244,932.717,1036.683,927.133,1036.683,927.133Z" transform="translate(-954.312 -828.758)"/><path class="f" d="M566.906,1162.029s1.534,4.662,2.273,6.881c.488,1.464,2.286,6.37,2.286,6.37a27.18,27.18,0,0,1,3.813,1.892,11.3,11.3,0,0,0,2.254.964,16.249,16.249,0,0,0,2.1.267s-2.3-4.1-2.92-5.469c-.679-1.494-2.126-4.016-2.924-5.412-.914-1.6-2.629-4.03-2.629-4.03Z" transform="translate(-557.256 -1027.292)"/><path class="f" d="M1062.134,1128.637a6.878,6.878,0,0,0-.322-.989c-1.828.17-8.415,3.656-8.415,3.656s-.3,5.288-.574,7.058c-.188,1.2-.621,5.794-.621,5.794s1.8-.726,2.046-.85a49.466,49.466,0,0,1,5.1-1.771c1.569-.6,3-.838,4.576-1.287a14.994,14.994,0,0,1,2.483-.046s-1.678-3.423-1.747-3.586C1063.543,1133.955,1062.389,1131.553,1062.134,1128.637Z" transform="translate(-967.429 -998.233)"/><path class="g" d="M602.937,701.435c4.273-1.246,11.042-1.285,15.067.728a18.618,18.618,0,0,1,5.894,4.868c1.076,1.315,2.189,2.868,3.262,4.2,1.191,1.475,4.1,6.055,5.564,7.287,3.9,3.279,6.709,6.366,9.839,9.459a31.887,31.887,0,0,1,7.444,11.969c2.734,7.291,2.871,14.837,2.188,22.352-.243,2.669-1.257,7.5-1.257,7.5l2.009,2.713s1.43-4.491,1.663-5.318a63.629,63.629,0,0,0,2.091-18.218,37.3,37.3,0,0,0-3.972-16.331,48.832,48.832,0,0,0-5.555-7.985c-2.266-2.677-4.579-4.009-6.731-6.776-1.324-1.7-2.9-3.716-4.224-5.413-2-2.574-1.664-2.2-3.682-4.8a54.229,54.229,0,0,0-5.469-5.483,18.087,18.087,0,0,0-7.121-3.539c-2.015-.384-4.006-1.189-6.083-1.3a23.877,23.877,0,0,0-7.293.42c-3.752,1.126-5.936,1.946-9.029,4.524a7.958,7.958,0,0,0-2.478,2.477A31.318,31.318,0,0,1,602.937,701.435Z" transform="translate(-581.057 -634.476)"/><path class="h" d="M684.554,336.815c-.981-1.4-2.332-4.146-3.507-6.374-3.059-5.795-5.356-13.556-4.394-20.289a51.576,51.576,0,0,1,1.082-5.1c.832-2.663,4.33-3.493,6.142-5.3,2.738-2.738,2.8-4.558,6.394-6.156a30.991,30.991,0,0,1,7.676-1.837,53.749,53.749,0,0,1,17.279,1.778c2.109.562,4.279.657,6.223,1.541,2.708,1.231,5.957,1.985,8.091,4.12a8.458,8.458,0,0,1,1.867,6.7,9.5,9.5,0,0,1-2.667,4.445l-1.807-2.845s-1.974.547-2.845.741c-3.222.716-5.117-1.527-7.969,1.087-1.867,1.711-3.953,5.941-5.4,7.965a8.923,8.923,0,0,1-3.31,2.708s-2.874,4.188-4.45,4.714a5.156,5.156,0,0,1-3.243.15c-1.512-.5-3.507-1.847-4.978-1.885a5.04,5.04,0,0,0-3.507,1.584c-1.254,1.97-.491,4.94.6,7.128a33.092,33.092,0,0,0,2.941,3.167,4.561,4.561,0,0,1-.528,1.282c-1.208,2.116-3.785,2.272-5.958,2.489A4.406,4.406,0,0,1,684.554,336.815Z" transform="translate(-649.827 -291.627)"/><path class="i" d="M1440.784,833.4a45.39,45.39,0,0,0-13.308,2.628c-11.946,3.982-27.552,13.116-31.885,16.055s-9.512,7.19-13.121,10.077c-1.261,1.008-4.012,3.639-4.012,3.639l-5.32,4.118c-1.714.572-3.7,4.534-4.607,5.985-3.009,4.815-6.137,11.7-6.137,17.3a12.132,12.132,0,0,0,2.407,6.513,13.893,13.893,0,0,0,8.034,4.685c6.829.853,24.89-2.617,31.411-5.226.936-.375-6.9,8.2-9.277,15.959-1.884,6.143-5.759,10.317,2.721,14.582,4.671,2.348,13.863,2.416,20.306.413a60.834,60.834,0,0,0,5.721-2.449l27.139,19.846a194.271,194.271,0,0,0,24.522-11.368,211,211,0,0,0,23.022-15.418l-42.668-25.494,3.792-3.4-.4-.924-2.541-2.7a8.324,8.324,0,0,0-2.693.83c-1.764.792-4.364,2.338-4.364,2.338s-5.768-2.237-8.7-6.126c-2.457-3.263-2.3-9.412-2.3-9.412s1.984-1.866,5.124-5.355a84.118,84.118,0,0,0,5.993-7.53,63.137,63.137,0,0,0,5.272-9.082,27.123,27.123,0,0,0,2.122-9.339c.328-3.61-3.5-7.866-6.473-9.566a15.845,15.845,0,0,0-4.145-1.268A25.575,25.575,0,0,0,1440.784,833.4Zm-3.26,7.094a28.948,28.948,0,0,1,9.807.448,18.834,18.834,0,0,1-.087,5.579c-.475,1.756-2.626,6.876-3.927,8.2-.344.351-4.254,5.881-4.361,6.005a135.084,135.084,0,0,1-10.355,10.322l-5.557-2.039s-6.973-5.822-8.107-6.575a40.571,40.571,0,0,0-8.374-4.263,28.4,28.4,0,0,0-7.339-1.355,86.3,86.3,0,0,1,7.77-4.789c4.465-2.449,10.267-5.106,11.339-5.655a52.685,52.685,0,0,1,10.022-3.83C1429.63,842.265,1436.351,840.674,1437.524,840.491Z" transform="translate(-1229.604 -749.513)"/><path class="b" d="M1302.562,1048.633s-.959,1.432-1.142,1.853a37.154,37.154,0,0,0-2.329,6.872,6.916,6.916,0,0,0-.026,3.211,57.359,57.359,0,0,0,5.935.551c1.194-.256,4.207.383,5.273-.328a6.1,6.1,0,0,0,1.759-2.764,26.288,26.288,0,0,1,3.165-5.12,40.268,40.268,0,0,1,2.931-3.746c2.021-2.177,2.127-2.518,2.68-3.022s1.39-.019,2.366.1a17.575,17.575,0,0,1,2.908,1.169l2.168-2.715s-.82-1.065-1.026-1.248a10.46,10.46,0,0,0-1.766-1.506c-1.083-.494-2.545.014-3.848-.013a13.875,13.875,0,0,0-3.465.291c-1.73.432-3.974,3.848-5.522,4.843C1309.663,1048.968,1302.562,1048.633,1302.562,1048.633Z" transform="translate(-1175.945 -925.612)"/><path class="b" d="M1362.167,1214.1c-.125.035,1.65,2.479,2.161,3.826a15.4,15.4,0,0,1,.975,4.513,50.026,50.026,0,0,1,.075,5.054c0,.248-.965,3.868-.752,4.188a13.01,13.01,0,0,1,4.075-.044,37.737,37.737,0,0,0,4.067.365c1.837.1,6.718.748,9.006.421,4.726-.675,9.956-.214,13.43-1.7,1.027-.438,1.157-1.012,1.979-2.379s.8-2.511,1.933-4.233c.9-1.373,2.459-2.657,3.118-3.755.85-1.418-.283-3.589-.283-3.589a16.294,16.294,0,0,0,4.022-3.155c.579-.746.127-2.173.111-2.785a4.733,4.733,0,0,0-1.113-2.454s3.843-.071,5.162-1.06c.589-.442,2.166-1.786,2.007-2.582-.513-2.562-3.376-2.158-5.08-2.418a43.184,43.184,0,0,0-10.929-.056c-1.394.2-3.191.416-4.579.647-2.207.368-5.734,1.125-8.061.66-2.752-.55-.369-2.87,1-4.241,1.335-1.335,3.665-1.77,4.708-3.335.544-.814,1.2-2.7-.1-3.276-1.534-.682-3.162.182-4.453.509-1.492.378-3.585.581-4.736,1.512a70.887,70.887,0,0,0-6.206,6.606,23.8,23.8,0,0,0-2.359,4.443c-1.314,2.941-2.143,5.255-5.813,7.7C1364.84,1213.946,1362.962,1213.877,1362.167,1214.1Z" transform="translate(-1229.407 -1053.012)"/></g><g transform="translate(344.291 232.694)"><g transform="translate(51.185 17.964)"><path class="j" d="M682.6,383.947a.38.38,0,0,1-.317-.171c-3.252-4.927-6.007-11.581-6.7-16.18-1.169-7.756-1.437-16.058,5.434-18.828a.38.38,0,0,1,.284.7c-6.363,2.566-6.148,10.172-4.967,18.01.678,4.5,3.385,11.03,6.583,15.875a.38.38,0,0,1-.317.589Z" transform="translate(-674.945 -348.74)"/></g><g transform="translate(61.794 8.731)"><path class="j" d="M743.862,294.607a.38.38,0,0,1-.328-.572c2.753-4.722,10.957-5.019,14.357-4.929a56.478,56.478,0,0,1,6.816.649c1.062.156,2.1.324,3.1.487,4.573.742,8.521,1.383,11.258.244a.38.38,0,0,1,.292.7c-2.937,1.222-6.984.565-11.672-.2-1-.162-2.035-.33-3.092-.485a55.766,55.766,0,0,0-6.726-.641c-3.263-.088-11.132.181-13.68,4.552A.38.38,0,0,1,743.862,294.607Z" transform="translate(-743.482 -289.095)"/></g><g transform="translate(99.295 13.528)"><path class="j" d="M990.316,334.727a.38.38,0,0,1-.25-.666,6.977,6.977,0,0,0,2.176-7.453,8.008,8.008,0,0,0-6.181-5.765.38.38,0,0,1,.116-.751,8.778,8.778,0,0,1,6.795,6.3,7.711,7.711,0,0,1-2.406,8.237A.379.379,0,0,1,990.316,334.727Z" transform="translate(-985.739 -320.088)"/></g><g transform="translate(101.447 24.516)"><path class="j" d="M1002.725,404.395l-.041,0a.38.38,0,0,1-.338-.418c.469-4.416-.729-10.041-2.616-12.283a.38.38,0,0,1,.581-.489c2.035,2.417,3.286,8.183,2.791,12.853A.38.38,0,0,1,1002.725,404.395Z" transform="translate(-999.641 -391.067)"/></g><g transform="translate(103.652 41.275)"><path class="j" d="M1015.635,508.656a.38.38,0,0,1-.229-.683c1.126-.85,1.626-1.652,1.484-2.382-.044-.227-.412-.526-.8-.843a4.7,4.7,0,0,1-2.071-5.112.38.38,0,0,1,.745.151c-.506,2.491.776,3.534,1.806,4.371.522.424.973.791,1.069,1.289.2,1.039-.4,2.094-1.773,3.133A.379.379,0,0,1,1015.635,508.656Z" transform="translate(-1013.887 -499.33)"/></g><g transform="translate(65.255 40.034)"><path class="j" d="M772.318,504.288a5.007,5.007,0,0,1-2.937-.986,9.4,9.4,0,0,1-3.5-6.551c-.228-2.333.473-4.149,1.922-4.984a4.428,4.428,0,0,1,4.8.64.38.38,0,0,1-.444.617,3.7,3.7,0,0,0-3.981-.6c-1.179.679-1.742,2.228-1.545,4.251a8.735,8.735,0,0,0,3.185,6.007,4.1,4.1,0,0,0,3.449.731.38.38,0,0,1,.175.74A4.9,4.9,0,0,1,772.318,504.288Z" transform="translate(-765.839 -491.312)"/></g><g transform="translate(68.828 44.602)"><path class="j" d="M791.983,524.35a.38.38,0,0,1-.328-.188,7.977,7.977,0,0,0-2.532-2.622.38.38,0,1,1,.351-.674,8.609,8.609,0,0,1,2.837,2.911.38.38,0,0,1-.328.572Z" transform="translate(-788.918 -520.823)"/></g><path class="k" d="M977.165,496.67a1.327,1.327,0,0,1,1.264-1.347,1.305,1.305,0,0,1,1.054,1.5,1.327,1.327,0,0,1-1.264,1.348A1.306,1.306,0,0,1,977.165,496.67Z" transform="translate(-879.193 -454.667)"/><g transform="translate(95.406 34.336)"><path class="j" d="M961,456.295a.38.38,0,0,1-.221-.689,5.945,5.945,0,0,1,6.134-.435.38.38,0,1,1-.372.663,5.226,5.226,0,0,0-5.321.392A.379.379,0,0,1,961,456.295Z" transform="translate(-960.616 -454.507)"/></g><g transform="translate(94.344 21.741)"><path class="j" d="M957.8,377.085a.38.38,0,0,1-.377-.334,3.422,3.422,0,0,0-1.252-2.329,2.56,2.56,0,0,0-1.98-.487.38.38,0,0,1-.116-.751,3.305,3.305,0,0,1,2.555.632,4.183,4.183,0,0,1,1.547,2.842.38.38,0,0,1-.331.423Z" transform="translate(-953.753 -373.141)"/></g><g transform="translate(76.255 25.115)"><path class="j" d="M838.961,408.576a14.637,14.637,0,0,1-1.727-.107.38.38,0,1,1,.089-.754c6.443.764,8.625-2.911,11.15-7.166.487-.82.99-1.667,1.533-2.5.728-1.111,2.664-4.061,6.068-2.816a.38.38,0,1,1-.261.714c-2.516-.92-4.085.863-5.172,2.52-.534.813-1.032,1.654-1.515,2.466C846.8,404.855,844.593,408.576,838.961,408.576Z" transform="translate(-836.899 -394.937)"/></g><g transform="translate(97.496 55.703)"><path class="j" d="M978.518,594.069a9.894,9.894,0,0,1-4.177-.806.38.38,0,1,1,.311-.693,10.443,10.443,0,0,0,5.305.677.38.38,0,1,1,.061.758C979.49,594.047,978.991,594.069,978.518,594.069Z" transform="translate(-974.116 -592.537)"/></g><g transform="translate(74.422 41.055)"><path class="j" d="M826.716,499.7a3.251,3.251,0,0,1-1.449-.3.38.38,0,0,1,.34-.68,4.023,4.023,0,0,0,3.787-.707.38.38,0,0,1,.508.565A5.1,5.1,0,0,1,826.716,499.7Z" transform="translate(-825.057 -497.912)"/></g><g transform="translate(87.135 60.877)"><path class="j" d="M907.563,640.158a.38.38,0,0,1-.38-.38,7.727,7.727,0,0,1,3.751-6.846c1.19-.748,2.963-.706,4.839-.664,2.443.057,4.969.115,6.144-1.609.682-1,.924-3.187,1.055-4.362a.38.38,0,0,1,.755.084c-.147,1.328-.394,3.551-1.182,4.706-1.407,2.065-4.267,2-6.789,1.941-1.759-.041-3.421-.079-4.417.547a7,7,0,0,0-3.4,6.2A.38.38,0,0,1,907.563,640.158Z" transform="translate(-907.183 -625.959)"/></g><g transform="translate(60.775 55.296)"><path class="j" d="M737.28,594.811h-.018a.38.38,0,0,1-.362-.4c.088-1.852.112-3.236.074-4.112a.38.38,0,1,1,.759-.034c.04.9.015,2.306-.073,4.181A.38.38,0,0,1,737.28,594.811Z" transform="translate(-736.899 -589.905)"/></g><g transform="translate(64.672 52.133)"><path class="j" d="M762.449,573.447a.38.38,0,0,1-.042-.758,5.045,5.045,0,0,0,4.441-2.965.38.38,0,1,1,.713.261,5.78,5.78,0,0,1-5.071,3.458Z" transform="translate(-762.07 -569.476)"/></g><g transform="translate(157.233 148.121)"><path class="j" d="M1361.338,1211.876a8.906,8.906,0,0,1-.982-.056.38.38,0,1,1,.084-.755c5.126.568,7-3.771,8.812-7.968.379-.878.737-1.708,1.122-2.479a22.559,22.559,0,0,1,4.21-5.254c.527-.541,1.025-1.052,1.49-1.562l.089-.1a8.754,8.754,0,0,1,2.806-2.326,12.22,12.22,0,0,1,2.475-.673,11.43,11.43,0,0,0,2.674-.766,3.606,3.606,0,0,1,3.922.38c.371.4.868,1.323.016,2.936a6.988,6.988,0,0,1-3.248,2.65,9.211,9.211,0,0,0-2.587,1.753l-.165.18c-.942,1.023-1.564,1.8-.972,2.543.746.931,3.634.426,5.359.125.568-.1,1.059-.185,1.414-.216,1-.087,2.1-.247,3.266-.416,1.5-.218,3.059-.443,4.4-.505,1.317-.061,2.489-.045,3.623-.029s2.3.033,3.61-.029a22.8,22.8,0,0,1,5.2.357,3.589,3.589,0,0,1,2.64,2.128,2.315,2.315,0,0,1-.882,2.305c-1.264,1.212-2.961,1.492-5.311,1.88l-.717.119a48.722,48.722,0,0,0-5.263,1.149.38.38,0,1,1-.211-.73,49.441,49.441,0,0,1,5.348-1.169l.719-.12c2.215-.365,3.815-.629,4.909-1.678a1.647,1.647,0,0,0,.673-1.564,2.894,2.894,0,0,0-2.094-1.585,22,22,0,0,0-4.975-.334c-1.336.062-2.516.045-3.656.029-1.122-.016-2.283-.032-3.577.029s-2.839.283-4.325.5c-1.178.171-2.291.332-3.309.421-.322.028-.8.111-1.349.207-2.134.373-5.057.883-6.083-.4-1.046-1.306.189-2.646,1.007-3.533l.162-.177a9.767,9.767,0,0,1,2.794-1.914,6.343,6.343,0,0,0,2.929-2.332c.332-.629.619-1.5.1-2.067a2.9,2.9,0,0,0-3.066-.195,12.227,12.227,0,0,1-2.831.813,11.427,11.427,0,0,0-2.336.633,8.234,8.234,0,0,0-2.523,2.131l-.089.1c-.474.52-.976,1.035-1.507,1.581a22.014,22.014,0,0,0-4.075,5.063c-.375.752-.73,1.572-1.1,2.44C1368.227,1207.387,1366.288,1211.876,1361.338,1211.876Z" transform="translate(-1360.018 -1189.555)"/></g><g transform="translate(192.684 164.824)"><path class="j" d="M1592.339,1298.659a12,12,0,0,1-3.021-.37.38.38,0,0,1,.19-.736,13.885,13.885,0,0,0,6.515-.088.38.38,0,0,1,.16.743A18.3,18.3,0,0,1,1592.339,1298.659Z" transform="translate(-1589.033 -1297.457)"/></g><g transform="translate(193.011 165.888)"><path class="j" d="M1591.524,1314.012a.38.38,0,0,1-.238-.677,19.892,19.892,0,0,1,2.687-1.641c3.1-1.7,6.612-3.617,5.04-6.817a.38.38,0,0,1,.682-.335c1.892,3.853-2.3,6.145-5.357,7.819a19.448,19.448,0,0,0-2.577,1.567A.378.378,0,0,1,1591.524,1314.012Z" transform="translate(-1591.144 -1304.33)"/></g><g transform="translate(159.789 172.83)"><path class="j" d="M1392.207,1365.257c-1.184,0-2.359-.033-3.462-.1-1.235-.076-2.652-.222-4.022-.364-2.984-.308-6.069-.626-7.741-.293a.38.38,0,0,1-.149-.746c1.784-.354,4.927-.03,7.967.283,1.362.141,2.771.286,3.991.361a57.4,57.4,0,0,0,10.227-.3c.807-.109,1.653-.144,2.548-.181,2.3-.095,4.681-.193,6.313-1.62a7.558,7.558,0,0,0,1.924-3.512,13.827,13.827,0,0,1,.98-2.386,7.833,7.833,0,0,1,1.409-1.6c1.424-1.366,2.9-2.778,1.805-5.076a.38.38,0,1,1,.687-.326c1.327,2.793-.576,4.618-1.966,5.95a7.4,7.4,0,0,0-1.274,1.423,13.064,13.064,0,0,0-.922,2.255,8.245,8.245,0,0,1-2.144,3.84c-1.834,1.6-4.349,1.707-6.782,1.807-.877.036-1.706.07-2.477.175A54.113,54.113,0,0,1,1392.207,1365.257Z" transform="translate(-1376.527 -1349.181)"/></g><g transform="translate(151.102 124.924)"><path class="j" d="M1320.793,1047.214a.38.38,0,0,1-.037-.758c.873-.087,1.8-.109,2.773-.132,2.446-.058,4.976-.118,6.887-1.214a10,10,0,0,0,2.319-2.187c1.229-1.413,2.5-2.875,4.412-3.024a14.847,14.847,0,0,1,1.564-.012,10.636,10.636,0,0,0,1.926-.061,6.465,6.465,0,0,1,3.278.181,8.038,8.038,0,0,1,2.4,2.254c.037.047.079.105.122.165s.12.166.159.209a.38.38,0,0,1-.322.683c-.164-.056-.268-.192-.453-.448-.037-.051-.072-.1-.1-.14a7.872,7.872,0,0,0-2.117-2.033,5.517,5.517,0,0,0-2.844-.12,11.391,11.391,0,0,1-2.063.069,14.072,14.072,0,0,0-1.484.01c-1.6.125-2.717,1.407-3.9,2.765a10.688,10.688,0,0,1-2.514,2.347c-2.078,1.191-4.706,1.254-7.247,1.314-.963.023-1.872.044-2.716.128Z" transform="translate(-1320.414 -1039.702)"/></g><g transform="translate(162.066 128.972)"><path class="j" d="M1391.616,1073.67a.38.38,0,0,1-.043-.758c1.152-.131,2.778-1.981,3.854-3.205.327-.372.609-.693.846-.934a6.3,6.3,0,0,0,.594-.781c.742-1.078,1.759-2.553,3.8-2.029a16.839,16.839,0,0,1,2.829,1.063c.257.116.511.231.768.34a.38.38,0,1,1-.3.7c-.262-.112-.52-.228-.782-.346a16.225,16.225,0,0,0-2.706-1.02c-1.523-.393-2.265.684-2.981,1.724a6.77,6.77,0,0,1-.677.883c-.222.225-.5.539-.817.9-1.222,1.39-2.9,3.295-4.338,3.459Z" transform="translate(-1391.236 -1065.853)"/></g><g transform="translate(147.576 143.768)"><path class="j" d="M1305.29,1162.615c-2.043,0-4.468-.14-7.314-.421a.38.38,0,0,1,.075-.756,50.33,50.33,0,0,0,11.146.182.38.38,0,0,1,.108.752A28.667,28.667,0,0,1,1305.29,1162.615Z" transform="translate(-1297.633 -1161.435)"/></g><g transform="translate(147.869 167.739)"><path class="j" d="M1303.235,1339.722a13.469,13.469,0,0,1-2.313-.153.38.38,0,0,1,.149-.745c1.893.379,8.025.086,9.422-1.311.89-.89,1.992-5.505,1.62-9.3-.34-3.449-.8-6.162-3.611-9.679-.536-.67-2.062-.809-3.163-.855-1.348-.056-5.316-.61-5.484-.634a.38.38,0,0,1,.105-.753c.041.006,4.1.573,5.411.628,1.439.06,3.007.243,3.724,1.14,2.945,3.68,3.422,6.5,3.774,10.08.382,3.888-.71,8.778-1.839,9.907C1309.776,1339.307,1305.913,1339.722,1303.235,1339.722Z" transform="translate(-1299.528 -1316.293)"/></g><g transform="translate(147.435 131.058)"><path class="j" d="M1297.985,1094.911a.379.379,0,0,1-.3-.142c-2.58-3.21.576-11.647,2.992-15.269a.38.38,0,1,1,.632.422c-2.331,3.5-5.253,11.608-3.032,14.372a.38.38,0,0,1-.3.618Z" transform="translate(-1296.725 -1079.33)"/></g><g transform="translate(140.08 144.243)"><path class="j" d="M1256.792,1167.284a21.736,21.736,0,0,1-3.8-.492,23.177,23.177,0,0,0-3.407-.473.38.38,0,0,1,.021-.76,23.691,23.691,0,0,1,3.526.485c2.991.56,5.817,1.089,6.606-1.281a.38.38,0,1,1,.721.24C1259.867,1166.773,1258.482,1167.284,1256.792,1167.284Z" transform="translate(-1249.212 -1164.505)"/></g><g transform="translate(143.67 129.868)"><path class="j" d="M1282,1073.863a.377.377,0,0,1-.17-.04,15.382,15.382,0,0,0-5.882-1.119,31.736,31.736,0,0,1-3.229-.308.38.38,0,0,1,.125-.75,31.276,31.276,0,0,0,3.151.3,15.926,15.926,0,0,1,6.175,1.2.38.38,0,0,1-.17.72Z" transform="translate(-1272.399 -1071.641)"/></g><g transform="translate(139.511 129.088)"><path class="j" d="M1246.378,1084.473a.38.38,0,0,1-.364-.272c-1.361-4.594.237-13.747,3.975-17.484a.38.38,0,0,1,.537.537c-3.473,3.473-5.075,12.37-3.783,16.731a.38.38,0,0,1-.365.488Z" transform="translate(-1245.534 -1066.605)"/></g><g transform="translate(124.363 124.489)"><path class="j" d="M1168.638,1043a.38.38,0,0,1-.38-.38c0-1.228-2.447-1.861-3.491-1.861a49.25,49.25,0,0,1-16.848-3.132.38.38,0,1,1,.282-.706,48.431,48.431,0,0,0,16.565,3.078c1.09,0,4.251.645,4.251,2.621A.38.38,0,0,1,1168.638,1043Z" transform="translate(-1147.68 -1036.893)"/></g><g transform="translate(133.219 145.933)"><path class="j" d="M1208.152,1180.623a9.577,9.577,0,0,1-3-.5.38.38,0,0,1,.237-.722,7.7,7.7,0,0,0,6.489-.537,6.594,6.594,0,0,0,2.908-3.134.38.38,0,0,1,.745.149,7.178,7.178,0,0,1-3.271,3.641A8.1,8.1,0,0,1,1208.152,1180.623Z" transform="translate(-1204.889 -1175.421)"/></g><g transform="translate(101.785 157.757)"><path class="j" d="M1048.066,1286.366a.38.38,0,0,1-.29-.625,18.061,18.061,0,0,0,3.7-15.974c-1.128-4.766-4.024-8.776-7.377-10.214-2.622-1.124-4.684-.973-8.1-.723q-.55.04-1.147.082a40.865,40.865,0,0,1-12.385-1.284,52.5,52.5,0,0,1-7.092-2.355c-4.539-1.75-8.825-3.4-13.086-2.413a.38.38,0,0,1-.172-.74c4.489-1.042,9.086.73,13.532,2.444a51.91,51.91,0,0,0,6.987,2.323,40.144,40.144,0,0,0,12.165,1.267l1.144-.082c3.411-.25,5.664-.415,8.456.782,3.567,1.53,6.635,5.745,7.817,10.738a18.815,18.815,0,0,1-3.859,16.64A.38.38,0,0,1,1048.066,1286.366Z" transform="translate(-1001.822 -1251.809)"/></g><g transform="translate(57.56 88.947)"><path class="j" d="M760.257,873.176a.38.38,0,0,1-.376-.328c-.049-.286-.771-1.488-3.922-5.585-.194-.253-.341-.444-.419-.547a39.454,39.454,0,0,1-4.985-8.215c-3.67-9.184-9.358-16.28-14.376-22.541-1.109-1.384-2.157-2.691-3.178-4.009a58.5,58.5,0,0,1-5.508-9.49c-2.893-5.77-5.884-11.736-11.159-14.448a.38.38,0,1,1,.348-.676c5.5,2.826,8.543,8.9,11.491,14.783a57.959,57.959,0,0,0,5.43,9.365c1.017,1.313,2.062,2.618,3.169,4,5.051,6.3,10.777,13.445,14.489,22.734a38.773,38.773,0,0,0,4.888,8.042c.077.1.221.29.413.539,2.854,3.71,4,5.377,4.073,5.946a.38.38,0,0,1-.326.428A.36.36,0,0,1,760.257,873.176Z" transform="translate(-716.128 -807.294)"/></g><g transform="translate(27.047 79.855)"><path class="j" d="M633.7,864.732c-.5,0-1-.017-1.467-.033-.417-.014-.811-.028-1.168-.028a99.633,99.633,0,0,1-11.945-.959c-3.321-.4-6.755-.818-10.173-.928-3.289-.106-6.791.1-10.5.308-9.041.519-18.391,1.056-26.05-2.774-7.006-3.5-11.384-11.211-15.248-18.01-.791-1.392-1.538-2.706-2.3-3.97-3.372-5.62-7.005-11.226-10.519-16.648-6.3-9.722-12.815-19.775-18.07-30.284-4.423-8.845-6.791-15.628-7.037-20.16-.009-.161-.03-.369-.056-.621-.313-3.094-1.268-12.508,10.393-21.983a.38.38,0,1,1,.479.59c-11.343,9.216-10.42,18.324-10.116,21.317.027.267.049.487.058.656.241,4.428,2.582,11.11,6.958,19.861,5.236,10.471,11.739,20.506,18.028,30.21,3.517,5.427,7.154,11.039,10.532,16.67.763,1.271,1.512,2.589,2.3,3.985,3.81,6.706,8.128,14.306,14.927,17.706,7.478,3.739,16.724,3.208,25.667,2.695,3.726-.214,7.244-.416,10.567-.309,3.451.111,6.9.53,10.24.934a99.08,99.08,0,0,0,11.853.953c.37,0,.771.014,1.195.028,1.96.068,4.4.152,5.68-1.13a.38.38,0,0,1,.537.537C637.3,864.524,635.458,864.732,633.7,864.732Z" transform="translate(-519.018 -748.557)"/></g><g transform="translate(55.277 59.713)"><path class="j" d="M742.888,655.109a.392.392,0,0,1-.057,0,.38.38,0,0,1-.319-.432,12.346,12.346,0,0,0-.724-5.622,8.74,8.74,0,0,1-.591-3.857,6.34,6.34,0,0,1,.406-1.152c.467-1.133,1.172-2.845.634-3.948-.561-1.149-2.149-2.083-4.347-3.375-.852-.5-1.818-1.069-2.853-1.726-1.66-1.054-3.461-2.277-5.368-3.571-2.383-1.617-4.846-3.289-7.189-4.734-7.554-4.656-11.586-6.661-14.876-7.4-1.564-.35-2.679.177-5.529,4.352a.38.38,0,0,1-.628-.428c2.794-4.091,4.211-5.137,6.323-4.665,3.381.757,7.476,2.788,15.109,7.493,2.357,1.453,4.828,3.13,7.217,4.752,1.9,1.291,3.7,2.51,5.349,3.558,1.023.65,1.984,1.215,2.831,1.713,2.313,1.36,3.983,2.342,4.645,3.7.688,1.41-.1,3.312-.614,4.571a6.475,6.475,0,0,0-.359.988,8.1,8.1,0,0,0,.569,3.512,12.971,12.971,0,0,1,.748,5.954A.38.38,0,0,1,742.888,655.109Z" transform="translate(-701.38 -618.443)"/></g><g transform="translate(95.654 85.646)"><path class="j" d="M975.6,858.826a.4.4,0,0,1-.061,0,.38.38,0,0,1-.315-.436c3.951-24.567.664-46.064-4.346-56.469-.224-.466-.507-1.084-.835-1.8-1.66-3.622-4.749-10.363-7.724-13.508a.38.38,0,1,1,.552-.522c3.062,3.236,6.067,9.795,7.863,13.714.326.712.608,1.326.829,1.786,2.809,5.835,4.833,14.319,5.7,23.889a134.918,134.918,0,0,1-1.285,33.031A.38.38,0,0,1,975.6,858.826Z" transform="translate(-962.217 -785.968)"/></g><g transform="translate(95.192 87.289)"><path class="j" d="M965.744,813.089a.38.38,0,0,1-.372-.306c-.9-4.51-4.682-12.612-6.1-15.662a.38.38,0,0,1,.689-.321c1.569,3.362,5.242,11.234,6.161,15.834a.38.38,0,0,1-.3.447A.387.387,0,0,1,965.744,813.089Z" transform="translate(-959.231 -796.58)"/></g><g transform="translate(98.723 142.087)"><path class="j" d="M982.426,1159.232a.38.38,0,0,1-.364-.491c.753-2.472,1.423-5.117,1.99-7.863a.38.38,0,0,1,.744.154c-.572,2.768-1.247,5.436-2.007,7.931A.38.38,0,0,1,982.426,1159.232Z" transform="translate(-982.045 -1150.575)"/></g><g transform="translate(106.466 106.378)"><path class="j" d="M1052.758,977.682a.381.381,0,0,1-.375-.441c.729-4.457-.962-7.774-3.1-11.974-.913-1.791-1.947-3.82-2.906-6.162a63.053,63.053,0,0,1-2.544-9.655c-1.935-9.006-4.344-20.214-11.678-28.927a.38.38,0,1,1,.581-.489c7.456,8.858,9.99,20.647,11.84,29.256a62.634,62.634,0,0,0,2.5,9.527c.946,2.313,1.973,4.327,2.879,6.1,2.2,4.324,3.945,7.739,3.175,12.442A.38.38,0,0,1,1052.758,977.682Z" transform="translate(-1032.063 -919.898)"/></g><g transform="translate(96.265 83.353)"><path class="j" d="M978.442,787.507a.38.38,0,0,1-.371-.3c-1.989-9.093-7.12-12.39-11.243-15.039l-.49-.315a.38.38,0,0,1,.412-.639l.489.314c4.017,2.581,9.519,6.116,11.575,15.516a.381.381,0,0,1-.372.461Z" transform="translate(-966.164 -771.155)"/></g><g transform="translate(97.298 87.751)"><path class="j" d="M1011.561,876.144a.38.38,0,0,1-.36-.5c1.418-4.252-2.262-12.751-4.949-18.957-.686-1.584-1.334-3.08-1.8-4.28a28.491,28.491,0,0,1-1.327-5.749,22.725,22.725,0,0,0-1.726-6.578c-2.323-4.646-5.128-9.147-7.841-13.5q-1.028-1.649-2.049-3.3c-5.316-8.64-10.381-16.337-18.538-23.037a.38.38,0,0,1,.482-.587c8.248,6.775,13.35,14.527,18.7,23.226q1.017,1.653,2.047,3.3c2.722,4.367,5.536,8.884,7.875,13.562a23.268,23.268,0,0,1,1.8,6.8,27.923,27.923,0,0,0,1.286,5.6c.456,1.186,1.1,2.675,1.784,4.251,2.735,6.318,6.482,14.971,4.972,19.5A.38.38,0,0,1,1011.561,876.144Z" transform="translate(-972.836 -799.567)"/></g><g transform="translate(103.378 98.85)"><path class="j" d="M1038.164,913.7a.38.38,0,0,1-.36-.257c-5.942-17.441-14.069-30.634-25.574-41.52a.38.38,0,0,1,.522-.552c11.6,10.974,19.787,24.265,25.771,41.827a.38.38,0,0,1-.36.5Z" transform="translate(-1012.112 -871.264)"/></g><g transform="translate(24.488 64.278)"><path class="j" d="M545.944,776.063a.38.38,0,0,1-.377-.339c-.648-5.93-6.689-13.6-13.084-21.725-1.775-2.255-3.611-4.587-5.31-6.864A57.556,57.556,0,0,1,521.6,738a66.628,66.628,0,0,0-6.469-10.526c-6.046-8.132-9.149-21.107-10.816-28.077-.173-.722-.331-1.386-.478-1.982-1.594-6.476-2.618-14.29,1.877-23.137,2.737-5.387,7.427-9.249,10.851-12.068a38.83,38.83,0,0,0,2.93-2.558c2.053-2.124,3.724-4.14,5.2-5.919,2.669-3.22,4.6-5.547,6.637-5.751,5.588-.559,13.778,4.075,17.736,6.9,14.415,10.3,24.836,21.119,30.974,32.167a45.21,45.21,0,0,1,5.189,20.511c.067,5.872-1.054,14.072-6.778,19.8a.38.38,0,0,1-.537-.537c9.8-9.8,7.143-29.177,1.462-39.4-6.082-10.949-16.429-21.687-30.751-31.918-3.6-2.574-11.84-7.3-17.218-6.763-1.73.173-3.574,2.4-6.127,5.48-1.482,1.789-3.163,3.817-5.236,5.962a39.243,39.243,0,0,1-2.994,2.617c-3.373,2.777-7.992,6.581-10.657,11.826-4.382,8.625-3.377,16.271-1.816,22.612.147.6.306,1.263.479,1.987,1.654,6.917,4.733,19.794,10.686,27.8a67.261,67.261,0,0,1,6.534,10.631,56.911,56.911,0,0,0,5.5,9.031c1.693,2.27,3.525,4.6,5.3,6.849,6.465,8.211,12.571,15.967,13.243,22.113a.38.38,0,0,1-.337.419Z" transform="translate(-502.484 -647.932)"/></g><g transform="translate(24.837 76.837)"><path class="j" d="M560.35,772.921h-.017a.38.38,0,0,1-.363-.4c.024-.545.052-1.068.078-1.572.342-6.564.514-9.859-7.7-18.7a44.655,44.655,0,0,1-7.333-11.266c-2.49-4.965-4.457-8.886-10.413-10.306-9.914-2.362-14.637.58-18.985,4.077-5.772,4.642-8.422,9.074-10.126,16.938a.38.38,0,0,1-.743-.161c1.745-8.057,4.465-12.6,10.392-17.369,4.5-3.619,9.388-6.666,19.637-4.224,6.3,1.5,8.337,5.563,10.917,10.7a44.016,44.016,0,0,0,7.21,11.09c8.437,9.077,8.248,12.693,7.906,19.257-.026.5-.053,1.024-.078,1.567A.38.38,0,0,1,560.35,772.921Z" transform="translate(-504.737 -729.061)"/></g><g transform="translate(27.218 102.145)"><path class="j" d="M545.667,958.209a.38.38,0,0,1-.357-.251c-1.231-3.41-3.959-8.469-7.118-14.328-7.958-14.76-18.857-34.975-18.025-50.719a.38.38,0,0,1,.759.04c-.821,15.531,10.02,35.638,17.935,50.319,3.173,5.885,5.913,10.968,7.164,14.431a.38.38,0,0,1-.358.509Z" transform="translate(-520.122 -892.55)"/></g><g transform="translate(50.841 185.292)"><path class="j" d="M673.1,1450.509a.38.38,0,0,1-.208-.7c9.356-6.1,20.156-15.781,22.224-19.918a.38.38,0,1,1,.68.34c-2.154,4.309-12.873,13.944-22.489,20.215A.378.378,0,0,1,673.1,1450.509Z" transform="translate(-672.724 -1429.682)"/></g><g transform="translate(0 29.212)"><path class="j" d="M363.241,591.828a.38.38,0,0,1-.356-.248,296.466,296.466,0,0,1-18.394-91.791c-1.019-26.908,2.144-45.38,3.138-50.4,2.724-13.756,5.762-21.678,9.852-25.686,2.941-2.882,10.752-3.05,23.879-.515,7.629,1.473,9.754,3.23,11.57,5.207,4.126,4.491,4.5,13.365,4.8,20.494.078,1.867.153,3.63.29,5.116a.38.38,0,0,1-.757.07c-.139-1.505-.213-3.277-.292-5.154-.295-7.006-.662-15.725-4.6-20.012-1.4-1.528-3.151-3.429-11.154-4.975-4.728-.913-19.117-3.692-23.2.312-3.974,3.893-6.946,11.693-9.638,25.29-2.168,10.95-11.622,69.245,15.223,141.78a.38.38,0,0,1-.356.512Z" transform="translate(-344.291 -421.406)"/></g><g transform="translate(27.333 32.153)"><path class="j" d="M521.247,494.17a.38.38,0,0,1-.38-.378c-.1-20.39,1.738-30.87,3.975-41.527,1.363-6.5,2.844-9.7,5.109-11.065,1.755-1.056,3.947-1.06,7.565-.016a.38.38,0,1,1-.211.73c-3.392-.979-5.41-1-6.963-.063-2.063,1.241-3.442,4.3-4.757,10.569-2.228,10.613-4.063,21.051-3.959,41.366a.38.38,0,0,1-.378.382Z" transform="translate(-520.863 -440.405)"/></g><g transform="translate(30.029 128.709)"><path class="j" d="M567.5,1135.232a.379.379,0,0,1-.326-.185c-17.39-29.032-25.306-54.323-28.885-70.427a.38.38,0,0,1,.742-.165c3.567,16.049,11.457,41.256,28.8,70.2a.38.38,0,0,1-.326.575Z" transform="translate(-538.278 -1064.158)"/></g><g transform="translate(173.501 92.675)"><path class="j" d="M1490.734,897.213a.38.38,0,0,1-.154-.728,129.819,129.819,0,0,0,14.7-7.706c11.931-7.214,22.936-16.983,30.194-26.8,7.409-10.024,9.832-18.794,6.647-24.062-3.209-5.307-10.371-7-20.708-4.9-9.543,1.938-21.657,7.152-34.11,14.682a122.7,122.7,0,0,0-21.555,16.485.38.38,0,0,1-.528-.546,123.482,123.482,0,0,1,21.69-16.589c12.526-7.574,24.725-12.821,34.351-14.776,10.682-2.169,18.12-.352,21.51,5.255,3.4,5.626,1.027,14.471-6.686,24.907-7.315,9.9-18.4,19.738-30.412,27a130.607,130.607,0,0,1-14.791,7.752A.38.38,0,0,1,1490.734,897.213Z" transform="translate(-1465.109 -831.376)"/></g><g transform="translate(157.263 129.349)"><path class="j" d="M1368.848,1102.663a.37.37,0,0,1-.13-.023,13.116,13.116,0,0,1-6.981-5.543c-3.95-6.533-.151-16.987,10.425-28.682a.38.38,0,0,1,.563.51c-10.335,11.429-14.1,21.554-10.339,27.779a12.379,12.379,0,0,0,6.591,5.223.38.38,0,0,1-.13.737Z" transform="translate(-1360.21 -1068.289)"/></g><g transform="translate(160.714 150.687)"><path class="j" d="M1392.269,1211.392h-.013c-4.647-.158-7.909-1.734-9.693-4.684a.38.38,0,1,1,.65-.393c1.644,2.717,4.695,4.169,9.069,4.318a.38.38,0,0,1-.013.76Z" transform="translate(-1382.507 -1206.131)"/></g><g transform="translate(182.803 95.285)"><path class="j" d="M1525.58,906.815a.38.38,0,0,1-.11-.744c7.836-2.386,16.978-6.67,26.438-12.389a103.046,103.046,0,0,0,22.5-18.66c6.443-7.2,10.192-13.774,10.557-18.518a6.067,6.067,0,0,0-2-5.438c-3.972-3.328-11.5-1.978-15.33-.656a.38.38,0,0,1-.248-.718c3.976-1.374,11.834-2.754,16.066.792a6.785,6.785,0,0,1,2.267,6.079c-.768,9.984-16.071,27.281-33.418,37.77-9.513,5.752-18.714,10.062-26.61,12.466A.384.384,0,0,1,1525.58,906.815Z" transform="translate(-1525.2 -848.235)"/></g><g transform="translate(193.683 99.365)"><path class="j" d="M1595.868,892.21a.38.38,0,0,1-.2-.7c20.763-13.136,38.513-19.049,48.7-16.227a.38.38,0,1,1-.2.732c-9.979-2.766-27.506,3.116-48.088,16.137A.378.378,0,0,1,1595.868,892.21Z" transform="translate(-1595.488 -874.592)"/></g><g transform="translate(136.069 154.406)"><path class="j" d="M1223.68,1235.637a.38.38,0,0,1-.117-.741,143.356,143.356,0,0,1,21.039-4.737.38.38,0,0,1,.084.755,142.34,142.34,0,0,0-20.888,4.7A.383.383,0,0,1,1223.68,1235.637Z" transform="translate(-1223.3 -1230.156)"/></g><g transform="translate(231.092 114.408)"><path class="j" d="M1838.555,979.75a.38.38,0,0,1-.377-.334c-.266-2.172-.611-4.6-1.024-7.206a.38.38,0,1,1,.75-.119c.415,2.618.761,5.051,1.028,7.232a.38.38,0,0,1-.331.424Z" transform="translate(-1837.149 -971.771)"/></g><g transform="translate(228.583 100.474)"><path class="j" d="M1823.146,892.346a.38.38,0,0,1-.374-.315c-.536-3.11-1.151-6.413-1.828-9.817a.38.38,0,0,1,.745-.148c.677,3.41,1.294,6.719,1.831,9.836a.38.38,0,0,1-.31.439A.386.386,0,0,1,1823.146,892.346Z" transform="translate(-1820.938 -881.76)"/></g><g transform="translate(110.873 28.294)"><path class="j" d="M1177.261,481.839a.38.38,0,0,1-.371-.3c-2.824-13.215-6.254-26.528-9.657-37.487q-.732-2.355-1.378-4.478c-2.82-9.215-4.683-15.3-7.532-18.067-3.287-3.19-10.322-3.612-34.217-4.583-15.283-.621-43.1-.954-63.189-.436a.38.38,0,0,1-.02-.76c20.108-.518,47.945-.185,63.24.436,24.12.98,31.229,1.413,34.716,4.8,2.989,2.9,4.874,9.063,7.729,18.39q.65,2.122,1.376,4.475c3.411,10.98,6.846,24.316,9.675,37.553a.381.381,0,0,1-.372.46Z" transform="translate(-1060.528 -415.473)"/></g><g transform="translate(235.37 113.536)"><path class="j" d="M1865.637,970.42a.38.38,0,0,1-.377-.334c-.139-1.132-.3-2.314-.471-3.513a.38.38,0,1,1,.752-.109c.175,1.2.334,2.392.474,3.529a.38.38,0,0,1-.331.424A.358.358,0,0,1,1865.637,970.42Z" transform="translate(-1864.785 -966.139)"/></g><g transform="translate(232.999 99.718)"><path class="j" d="M1851.578,887.3a.38.38,0,0,1-.375-.319c-.484-2.965-1.066-6.216-1.729-9.661a.38.38,0,1,1,.746-.144c.665,3.453,1.249,6.71,1.733,9.683a.38.38,0,0,1-.314.436A.375.375,0,0,1,1851.578,887.3Z" transform="translate(-1849.467 -876.87)"/></g><g transform="translate(111.874 22.467)"><path class="j" d="M1187.128,449a.38.38,0,0,1-.372-.3c-3.073-14.721-7.009-30.164-10.8-42.367q-.731-2.354-1.377-4.476c-2.82-9.216-4.683-15.3-7.532-18.069-3.288-3.191-10.323-3.613-34.217-4.583-14.346-.582-44.751-.86-65.443-.326a.376.376,0,0,1-.39-.37.38.38,0,0,1,.37-.39c20.707-.534,51.135-.256,65.493.327,24.119.979,31.228,1.412,34.716,4.8,2.989,2.9,4.875,9.063,7.729,18.391q.649,2.121,1.376,4.473c3.8,12.225,7.739,27.693,10.818,42.437a.38.38,0,0,1-.373.458Z" transform="translate(-1066.999 -377.831)"/></g><g transform="translate(112.505 0)"><path class="j" d="M1153.63,255.29c-6.436,0-13.768-.191-21.581-.4-3.333-.087-6.78-.177-10.257-.255-19.335-.431-34.857-.489-50.331-.19a.38.38,0,0,1-.015-.76c15.484-.3,31.016-.24,50.362.19,3.479.077,6.926.167,10.26.255,17.327.453,32.292.844,40.236-.778,11.631-2.375,22.891-9.554,32.532-16.1l.125-.085c2.048-1.389,4.243-2.879,6.486-4.414a.38.38,0,1,1,.429.627c-2.244,1.536-4.44,3.026-6.489,4.416l-.125.085c-9.7,6.583-21.038,13.809-32.807,16.212C1168.038,255,1161.505,255.29,1153.63,255.29Z" transform="translate(-1071.073 -232.694)"/></g><g transform="translate(236.543 1.308)"><path class="j" d="M1901.225,358.934a.38.38,0,0,1-.363-.267c-.207-.665-20.737-66.675-24.611-80.6-3.836-13.787-4.631-19.376-3.272-23,1.187-3.165,4.715-5.426,11.12-9.531q1.076-.69,2.264-1.455c1.4-.905,2.924-1.873,4.519-2.877a.38.38,0,1,1,.4.643c-1.593,1-3.111,1.969-4.512,2.873q-1.19.768-2.266,1.456c-6.268,4.017-9.721,6.23-10.819,9.158-1.277,3.4-.446,9.089,3.293,22.528,3.871,13.915,24.4,79.913,24.6,80.578a.381.381,0,0,1-.363.493Z" transform="translate(-1872.362 -241.147)"/></g><g transform="translate(229.619 15.3)"><path class="j" d="M1860.306,434.783a.38.38,0,0,1-.36-.258c-4.524-13.32-26.128-82.378-32.3-102.5a.38.38,0,0,1,.727-.223c6.167,20.119,27.767,89.163,32.289,102.478a.38.38,0,0,1-.36.5Z" transform="translate(-1827.634 -331.534)"/></g><g transform="translate(248.368 115.957)"><path class="j" d="M2022.712,1002.71a.378.378,0,0,1-.164-.038c-23.186-11.144-60.158-18.5-73.464-20.138a.38.38,0,1,1,.093-.754c13.345,1.648,50.43,9.024,73.7,20.208a.38.38,0,0,1-.165.722Z" transform="translate(-1948.75 -981.776)"/></g><g transform="translate(247.093 118.761)"><path class="j" d="M2014.036,1024.279a.378.378,0,0,1-.176-.043c-15.41-8.05-59.8-21.953-73.015-23.584a.38.38,0,1,1,.093-.754c13.261,1.637,57.812,15.588,73.273,23.665a.38.38,0,0,1-.176.717Z" transform="translate(-1940.512 -999.894)"/></g><g transform="translate(238.255 146.982)"><path class="j" d="M1889.812,1186.736a.379.379,0,0,1-.2-.055c-.829-.5-2.107-1.312-3.342-2.1-1.044-.663-2.03-1.289-2.671-1.68a.38.38,0,1,1,.4-.649c.647.4,1.636,1.023,2.682,1.687,1.232.782,2.506,1.59,3.328,2.087a.38.38,0,0,1-.2.705Z" transform="translate(-1883.42 -1182.201)"/></g><g transform="translate(250.38 154.432)"><path class="j" d="M2005.032,1256.751a.378.378,0,0,1-.2-.057c-7.693-4.765-19.027-11.482-29.027-17.41-5.052-2.995-9.824-5.823-13.875-8.249a.38.38,0,0,1,.39-.652c4.05,2.425,8.821,5.253,13.873,8.247,10,5.929,21.34,12.649,29.04,17.417a.38.38,0,0,1-.2.7Z" transform="translate(-1961.745 -1230.329)"/></g><g transform="translate(239.529 120.801)"><path class="j" d="M1892.028,1038.819a.38.38,0,0,1-.344-.542c6.435-13.729,15.347-24.509,16.663-25.167a.38.38,0,0,1,.34.68c-1.225.612-10.068,11.483-16.314,24.809A.381.381,0,0,1,1892.028,1038.819Z" transform="translate(-1891.648 -1013.071)"/></g><g transform="translate(252.734 127.632)"><path class="j" d="M1977.334,1078.62a.38.38,0,0,1-.34-.55c1.15-2.3,2.939-5.319,4.7-8.235.729-1.207,7.17-11.815,8.626-12.463,1.432-.635,5.13.606,9.413,2.043.742.249,1.5.5,2.249.749,4.627,1.516,35.691,14.409,40.943,17.122a.38.38,0,1,1-.349.675c-5.237-2.706-36.216-15.563-40.83-17.075-.756-.247-1.511-.5-2.254-.75-3.786-1.271-7.7-2.585-8.862-2.069-.63.282-3.9,4.908-8.284,12.162-1.755,2.9-3.535,5.9-4.672,8.181A.38.38,0,0,1,1977.334,1078.62Z" transform="translate(-1976.954 -1057.201)"/></g><g transform="translate(252.799 152.719)"><path class="j" d="M2020.391,1245.383a.379.379,0,0,1-.2-.055c-5.737-3.482-13.834-8.289-19.746-11.8-2.547-1.512-4.714-2.8-6.158-3.662-3.079-1.841-6.17-3.649-8.9-5.244-3.294-1.927-6.139-3.591-7.843-4.659a.38.38,0,1,1,.4-.644c1.694,1.062,4.535,2.723,7.823,4.647,2.728,1.6,5.82,3.4,8.9,5.248,1.444.863,3.61,2.149,6.156,3.661,5.913,3.511,14.012,8.319,19.753,11.8a.38.38,0,0,1-.2.7Z" transform="translate(-1977.373 -1219.261)"/></g><g transform="translate(258.603 121.158)"><path class="j" d="M2020.959,1020.954a.377.377,0,0,1-.245-.09l-5.708-4.819a.38.38,0,1,1,.49-.581l5.708,4.819a.38.38,0,0,1-.245.67Z" transform="translate(-2014.871 -1015.375)"/></g><g transform="translate(238.304 158.387)"><path class="j" d="M1907.64,1297.871a.378.378,0,0,1-.225-.074c-1.482-1.095-3.354-2.455-5.335-3.895-4.028-2.927-8.593-6.245-12.173-8.988-6.364-4.877-6.241-5.364-6.142-5.754a134.27,134.27,0,0,1,5.188-16.288c1-2.512,2.8-6.76,3.7-6.984,1.331-.331,10.548,5.647,14.447,8.234,4.778,3.171,13.05,8.906,13.74,10.288.177.354-.01,1.364-1.332,7.207-.748,3.306-1.678,7.42-2.329,10.956a.38.38,0,1,1-.748-.138c.653-3.551,1.586-7.673,2.335-10.986.691-3.054,1.4-6.209,1.374-6.734-.566-.956-6.24-5.16-13.3-9.854-8.06-5.357-13.184-8.218-13.986-8.234-.948.7-5.2,10.261-8.33,22.658.539,1.307,11.461,9.243,18.01,14,1.983,1.441,3.855,2.8,5.34,3.9a.38.38,0,0,1-.226.686Z" transform="translate(-1883.738 -1255.875)"/></g><g transform="translate(198.54 127.278)"><path class="j" d="M1628.662,1071.718a.38.38,0,0,1-.345-.219c-1.041-2.233-2.337-5.012-.624-6.716,4.507-4.488,10.419-9.844,12.986-9.869h.059c3.309,0,10.883,2.67,11.206,2.785a.38.38,0,0,1-.254.716c-.078-.028-7.773-2.741-10.95-2.741h-.053c-1.777.017-6.318,3.533-12.457,9.647-1.235,1.229-.379,3.379.776,5.856a.38.38,0,0,1-.344.541Z" transform="translate(-1626.86 -1054.913)"/></g><g transform="translate(177.865 122.301)"><path class="j" d="M1493.678,1050.087a.374.374,0,0,1-.125-.022.38.38,0,0,1-.233-.484c.959-2.739,8.03-9.6,14.612-15.184l.664-.564c6.841-5.809,13.914-11.816,17.1-11,3.17.81,8.154,5.895,8.365,6.11a.38.38,0,1,1-.544.531c-.05-.051-5.045-5.147-8.009-5.9-2.808-.718-10.358,5.694-16.424,10.846l-.664.564c-6.292,5.339-13.479,12.264-14.386,14.855A.38.38,0,0,1,1493.678,1050.087Z" transform="translate(-1493.297 -1022.757)"/></g><g transform="translate(176.835 116.308)"><path class="j" d="M1527.972,996.6a.38.38,0,0,1-.278-.121c-6.859-7.372-18.514-13.751-26.6-11.056-2.925.974-8.484,4.752-13.78,10.743a.38.38,0,0,1-.57-.5c4.618-5.224,10.419-9.731,14.109-10.961,8.392-2.8,20.379,3.713,27.4,11.259a.38.38,0,0,1-.278.639Z" transform="translate(-1486.646 -984.044)"/></g><g transform="translate(161.598 127.129)"><path class="j" d="M1388.6,1075.888a.38.38,0,0,1-.223-.688c2.011-1.452,4.273-4.947,6.892-8.994,1.266-1.955,2.574-3.977,3.991-5.983.665-.941,3.885-5.083,4.9-6.156a.38.38,0,1,1,.551.523c-.975,1.028-4.193,5.166-4.833,6.072-1.407,1.993-2.712,4.008-3.974,5.957-2.661,4.111-4.959,7.661-7.086,9.2A.377.377,0,0,1,1388.6,1075.888Z" transform="translate(-1388.217 -1053.949)"/></g><g transform="translate(162.5 141.474)"><path class="j" d="M1399.848,1160.672a.38.38,0,0,1-.17-.72c3.065-1.533,6.921-5.732,6.816-8.091-.065-1.436-1.345-2.918-2.586-3.749a2.894,2.894,0,0,0-2.089-.694c-.857.308-1.62,1.5-2.358,2.656-.305.478-.621.971-.938,1.389a26.17,26.17,0,0,1-3.868,4.33.38.38,0,0,1-.461-.6,25.635,25.635,0,0,0,3.724-4.185c.3-.393.592-.852.9-1.338.807-1.261,1.64-2.565,2.741-2.961a3.418,3.418,0,0,1,2.77.778c1.3.869,2.841,2.529,2.922,4.347.129,2.9-4.3,7.338-7.236,8.805A.38.38,0,0,1,1399.848,1160.672Z" transform="translate(-1394.043 -1146.618)"/></g><g transform="translate(175.097 144.085)"><path class="j" d="M1475.8,1166.509a.38.38,0,0,1-.211-.7c3-2,5.143-2.7,6.543-2.142a.38.38,0,0,1-.283.706c-1.133-.454-3.1.242-5.839,2.069A.379.379,0,0,1,1475.8,1166.509Z" transform="translate(-1475.419 -1163.485)"/></g><g transform="translate(217.18 109.688)"><path class="j" d="M1747.653,959.377a.38.38,0,0,1-.328-.572c5.23-8.967,8.542-13.508,11.43-15.672,2.757-2.067,6.993-1.928,11.9-1.768a.38.38,0,0,1,.367.392.385.385,0,0,1-.392.367c-4.762-.155-8.875-.29-11.417,1.616-2.8,2.1-6.054,6.574-11.229,15.447A.38.38,0,0,1,1747.653,959.377Z" transform="translate(-1747.273 -941.283)"/></g><g transform="translate(220.235 113.202)"><path class="j" d="M1767.393,980.2a.38.38,0,0,1-.328-.572c5.485-9.4,7.768-12.045,10.536-14.121,2.051-1.538,4.7-1.534,8.043-1.534h.035a.38.38,0,0,1,0,.76h-.036c-3.208,0-5.738,0-7.587,1.382-2.685,2.013-4.917,4.606-10.336,13.9A.38.38,0,0,1,1767.393,980.2Z" transform="translate(-1767.013 -963.978)"/></g><g transform="translate(180.378 43.026)"><path class="j" d="M1529.117,574.034a.387.387,0,0,1-.079-.008l-1.029-.213-9.956-2.061-.04-.011a6.724,6.724,0,0,1-2.624-1.634,6.223,6.223,0,0,1-1.255-2.754l-4.593-43.658a9.326,9.326,0,0,1,.526-3.689,4.108,4.108,0,0,1,2.178-1.995l13.713-5.673c.109-.046,2.743-1.15,4.361-1.6a1.8,1.8,0,0,1,1.544.174c.811.546,1.053,1.783,1.183,2.921l6.13,54.407a.38.38,0,0,1-.755.085l-6.13-54.407c-.1-.838-.288-2-.852-2.376a1.066,1.066,0,0,0-.916-.072c-1.571.439-4.245,1.56-4.272,1.571l-13.734,5.682a3.391,3.391,0,0,0-1.76,1.6,8.7,8.7,0,0,0-.458,3.309l4.588,43.616h0a5.537,5.537,0,0,0,1.071,2.353,5.965,5.965,0,0,0,2.271,1.409l10.964,2.27a.38.38,0,0,1-.078.752Z" transform="translate(-1509.532 -510.642)"/></g><g transform="translate(184.113 45.613)"><path class="j" d="M1554.427,585.423l-.037,0c-.355-.034-.792-.071-1.293-.114a75.227,75.227,0,0,1-9.177-1.2c-.353-.076-.7-.143-1.033-.208-2.346-.454-4.371-.846-4.847-3.765-.467-2.861-1.731-12.52-3.172-28.6-.247-2.756-.5-5.068-.71-6.926-.753-6.778-.98-8.824,1.734-10.1,2.78-1.308,13.9-6.245,16.647-7.136a.38.38,0,0,1,.235.723c-2.717.883-13.789,5.8-16.559,7.1-2.148,1.011-2.062,2.493-1.3,9.33.207,1.861.464,4.178.711,6.942,1.439,16.062,2.7,25.7,3.165,28.549.391,2.4,1.923,2.692,4.242,3.141.34.066.69.134,1.049.211a74.58,74.58,0,0,0,9.081,1.182c.5.043.945.08,1.3.115a.38.38,0,0,1-.036.758Z" transform="translate(-1533.66 -527.353)"/></g><g transform="translate(207.021 109.09)"><path class="j" d="M1686.45,951.573a.38.38,0,0,1-.38-.38c0-4.592-2.189-9.93-4.358-13.185a.38.38,0,1,1,.632-.421c2.233,3.349,4.486,8.855,4.486,13.606A.38.38,0,0,1,1686.45,951.573Z" transform="translate(-1681.649 -937.418)"/></g><g transform="translate(201.648 111.666)"><path class="j" d="M1649.143,961.251a.38.38,0,0,1-.378-.35,13.988,13.988,0,0,0-1.758-6.251.38.38,0,0,1,.628-.428,14.412,14.412,0,0,1,1.888,6.619.38.38,0,0,1-.348.409Z" transform="translate(-1646.941 -954.056)"/></g><g transform="translate(178.665 41.153)"><path class="j" d="M1517.247,565.13a.39.39,0,0,1-.074-.007l-9.683-1.909-.044-.011a7.094,7.094,0,0,1-2.77-1.725,6.573,6.573,0,0,1-1.324-2.908l-4.868-46.275a9.844,9.844,0,0,1,.555-3.9,4.328,4.328,0,0,1,2.295-2.1l17.625-6.957c.217-.1,2.4-1.127,3.942-.68a3.1,3.1,0,0,1,2.505,2.544l6.182,55.982a.38.38,0,1,1-.755.083l-6.183-56c-.006-.066-.14-1.354-1.96-1.882-1.305-.379-3.389.629-3.41.639l-.028.012L1501.6,507a3.612,3.612,0,0,0-1.871,1.71,9.252,9.252,0,0,0-.487,3.519l4.863,46.233h0a5.894,5.894,0,0,0,1.141,2.507,6.372,6.372,0,0,0,2.416,1.5l9.659,1.9a.38.38,0,0,1-.073.753Z" transform="translate(-1498.471 -498.543)"/></g><g transform="translate(228.028 149.45)"><path class="j" d="M1826.6,1214.6a4.785,4.785,0,0,1-2.247-.737l-5.522-3.808a4.07,4.07,0,0,1-1.449-2.152,4.026,4.026,0,0,1,.7-2.471l.017-.023,3.707-4.645a8.953,8.953,0,0,1,2.636-2.391,2.815,2.815,0,0,1,2.59.209l4.405,3.047a.38.38,0,0,1-.432.625l-4.4-3.045a2.047,2.047,0,0,0-1.852-.143,8.409,8.409,0,0,0-2.344,2.162l-3.7,4.641a3.271,3.271,0,0,0-.57,1.913,3.35,3.35,0,0,0,1.148,1.658l5.5,3.789a3.609,3.609,0,0,0,2.108.584,3.323,3.323,0,0,0,1.7-1.312l3.863-5,.018-.022a5.314,5.314,0,0,0,1.01-1.75.38.38,0,1,1,.729.212,5.988,5.988,0,0,1-1.165,2.034l-3.841,4.975a4.109,4.109,0,0,1-2.172,1.613A2.266,2.266,0,0,1,1826.6,1214.6Z" transform="translate(-1817.354 -1198.145)"/></g><g transform="translate(226.655 148.12)"><path class="j" d="M1819.226,1208.669a5.519,5.519,0,0,1-2.59-.851l-6.456-4.452a4.691,4.691,0,0,1-1.667-2.474,4.635,4.635,0,0,1,.807-2.843l.017-.023,4.334-5.431a10.423,10.423,0,0,1,3.058-2.778,3.227,3.227,0,0,1,2.967.239l5.2,3.6a.384.384,0,0,1,.1.527.377.377,0,0,1-.52.108l-.007,0-5.2-3.6a2.456,2.456,0,0,0-2.228-.172,9.883,9.883,0,0,0-2.767,2.549l-4.331,5.428a2.776,2.776,0,0,0,.688,4.266l6.43,4.433a4.284,4.284,0,0,0,2.513.692,4.074,4.074,0,0,0,2.031-1.562l4.513-5.848.019-.022a6.1,6.1,0,0,0,1.233-2.209.38.38,0,1,1,.738.18,6.747,6.747,0,0,1-1.4,2.526l-4.492,5.819a4.745,4.745,0,0,1-2.5,1.863A2.61,2.61,0,0,1,1819.226,1208.669Z" transform="translate(-1808.482 -1189.553)"/></g><g transform="translate(231.064 151.512)"><path class="j" d="M1843.988,1223.975a3.683,3.683,0,0,1-1.737-.567l-4.137-2.853a3.081,3.081,0,0,1-1.125-1.675,3.044,3.044,0,0,1,.539-1.92l.017-.023,2.775-3.478a6.8,6.8,0,0,1,2.01-1.818,2.208,2.208,0,0,1,2.032.165l2.56,1.7a.38.38,0,1,1-.421.633l-2.562-1.706a1.438,1.438,0,0,0-1.3-.1,5.97,5.97,0,0,0-1.718,1.589l-2.773,3.475a2.314,2.314,0,0,0-.409,1.361,2.352,2.352,0,0,0,.824,1.182l4.11,2.834a2.536,2.536,0,0,0,1.506.422,2.385,2.385,0,0,0,1.212-.943l3.618-4.852a.38.38,0,1,1,.609.454l-3.608,4.838a3.182,3.182,0,0,1-1.689,1.249A1.775,1.775,0,0,1,1843.988,1223.975Z" transform="translate(-1836.968 -1211.462)"/></g><g transform="translate(247.478 147.474)"><path class="j" d="M1946.422,1192.9h-.056a1.92,1.92,0,0,1-1.148-.644l-1.808-2.172a1.992,1.992,0,0,1-.407-1.205,1.965,1.965,0,0,1,.589-1.1l.021-.019,1.932-1.573a3.772,3.772,0,0,1,1.383-.782,1.325,1.325,0,0,1,1.224.429l1.6,1.932a2.442,2.442,0,0,1,.705,1.547h0a2.174,2.174,0,0,1-.9,1.389l-2.012,1.693A1.882,1.882,0,0,1,1946.422,1192.9Zm-2.315-4.565a1.227,1.227,0,0,0-.346.607,1.272,1.272,0,0,0,.247.672l1.788,2.147a1.2,1.2,0,0,0,.611.379,1.116,1.116,0,0,0,.635-.316l2.039-1.716.023-.018c.148-.107.578-.491.6-.827h0a1.762,1.762,0,0,0-.505-.986l-.018-.02-1.609-1.938a.579.579,0,0,0-.5-.173,3.143,3.143,0,0,0-1.038.618Z" transform="translate(-1942.999 -1185.377)"/></g><g transform="translate(235.003 147.45)"><path class="j" d="M1864.389,1197.938a1.922,1.922,0,0,1-1.669-1.128,1.81,1.81,0,0,1,.243-2.354c1.025-.676,2.859-1.6,4.477-2.406a11.452,11.452,0,0,0,2.854-2.073l.067-.061a29.393,29.393,0,0,1,4.371-2.93,17.93,17.93,0,0,1,4.017-1.752.38.38,0,1,1,.187.737,16.8,16.8,0,0,0-3.835,1.68,28.6,28.6,0,0,0-4.233,2.832l-.067.06a12.193,12.193,0,0,1-3.021,2.187c-1.6.8-3.412,1.711-4.4,2.362-.289.191-.285.813.008,1.36a1.115,1.115,0,0,0,1.414.637c.908-.387,1.391-.621,1.951-.892.48-.232,1.025-.5,1.943-.908a10.006,10.006,0,0,1,3.036-.766,9.4,9.4,0,0,0,2.161-.467c1.707-.639,4.556-1.958,4.585-1.972a.38.38,0,0,1,.32.69c-.029.013-2.9,1.345-4.638,1.994a10.144,10.144,0,0,1-2.327.508,9.383,9.383,0,0,0-2.824.706c-.907.408-1.447.668-1.923.9-.569.275-1.06.513-1.984.907A1.813,1.813,0,0,1,1864.389,1197.938Z" transform="translate(-1862.41 -1185.222)"/></g><g transform="translate(198.926 163.912)"><path class="j" d="M1633.421,1319.348a27.689,27.689,0,0,1-3.739-.252.38.38,0,0,1,.1-.753c10.733,1.459,20.247-3.879,26.339-8.613,8.947-6.953,14.364-15.421,14.64-17.824a.38.38,0,1,1,.755.087c-.346,3.015-6.334,11.658-14.928,18.337C1651.1,1314.6,1642.862,1319.348,1633.421,1319.348Z" transform="translate(-1629.353 -1291.569)"/></g><g transform="translate(203.061 136.283)"><path class="j" d="M1667.24,1115.092a.38.38,0,0,1-.376-.326c-.035-.243-.515-.551-1.758-.688a52.439,52.439,0,0,0-8.635-.106.385.385,0,0,1-.406-.352.38.38,0,0,1,.352-.406,53.546,53.546,0,0,1,8.772.109c1.528.168,2.322.6,2.427,1.335a.38.38,0,0,1-.322.43A.393.393,0,0,1,1667.24,1115.092Z" transform="translate(-1656.065 -1113.086)"/></g><g transform="translate(233.294 135.017)"><path class="j" d="M1861.054,1122.588a.381.381,0,0,1-.362-.265c-.318-1-2.163-2.74-4.116-4.584-.93-.878-1.892-1.786-2.8-2.714-2.048-2.089-2.388-9.414-2.4-9.725a.38.38,0,0,1,.363-.4.384.384,0,0,1,.4.363c0,.073.339,7.344,2.185,9.226.9.918,1.856,1.821,2.781,2.694,2.114,2,3.94,3.721,4.318,4.906a.381.381,0,0,1-.247.478A.385.385,0,0,1,1861.054,1122.588Z" transform="translate(-1851.373 -1104.903)"/></g><g transform="translate(202.293 142.775)"><path class="j" d="M1651.485,1186.33a.38.38,0,0,1-.106-.745c15.057-4.371,29.008-23.472,32.023-30.336a.38.38,0,1,1,.7.306c-3.746,8.529-18.211,26.61-32.507,30.76A.38.38,0,0,1,1651.485,1186.33Z" transform="translate(-1651.105 -1155.023)"/></g><g transform="translate(37.906 74.627)"><path class="j" d="M646.044,784.885a.38.38,0,0,1-.368-.474c1.749-6.858,1.415-14.235,1.255-17.78-.691-15.177-7.566-22.415-18.808-32.532a44.854,44.854,0,0,1-5.259-6.489c-2.947-4.074-6.287-8.692-9.605-10.1-5.178-2.194-11.693-3.958-23.522,2.93a.38.38,0,0,1-.383-.657c12.132-7.064,18.853-5.239,24.2-2.973,3.513,1.489,6.919,6.2,9.924,10.352a44.456,44.456,0,0,0,5.152,6.37c11.389,10.25,18.355,17.589,19.059,33.063.162,3.582.5,11.035-1.278,18A.38.38,0,0,1,646.044,784.885Z" transform="translate(-589.165 -714.787)"/></g><g transform="translate(38.69 71.587)"><path class="j" d="M652.263,771.015a.376.376,0,0,1-.131-.023.38.38,0,0,1-.226-.487c4.251-11.613,4.95-25.206,1.78-34.63-2.8-8.316-7.963-13.37-11.735-17.061a38.342,38.342,0,0,1-3.09-3.239c-1.019-1.286-1.988-2.57-2.925-3.812-3.231-4.279-6.282-8.322-10.714-11.645a27.292,27.292,0,0,0-10.745-3.948,22.479,22.479,0,0,0-19.608,6.406.38.38,0,1,1-.525-.549,23.5,23.5,0,0,1,20.243-6.609,28.172,28.172,0,0,1,11.092,4.093c4.517,3.388,7.6,7.472,10.864,11.8.935,1.238,1.9,2.519,2.915,3.8a37.974,37.974,0,0,0,3.025,3.167c3.827,3.744,9.069,8.873,11.923,17.362,3.221,9.578,2.519,23.369-1.787,35.134A.38.38,0,0,1,652.263,771.015Z" transform="translate(-594.227 -695.145)"/></g><g transform="translate(109.509 150.591)"><path class="j" d="M1052.1,1210.147a.38.38,0,0,1-.12-.74c.795-.265,1.725-.605,2.71-.966,3.563-1.3,8-2.925,11.173-2.925a.38.38,0,1,1,0,.76c-3.042,0-7.406,1.6-10.912,2.878-.99.362-1.925.7-2.73.973A.38.38,0,0,1,1052.1,1210.147Z" transform="translate(-1051.72 -1205.516)"/></g><g transform="translate(110.633 138.332)"><path class="j" d="M1059.362,1130.4a.38.38,0,0,1-.12-.741,14.528,14.528,0,0,0,2.1-1.022,20.343,20.343,0,0,1,5.588-2.3.38.38,0,1,1,.158.743,19.717,19.717,0,0,0-5.381,2.228,14.973,14.973,0,0,1-2.221,1.077A.382.382,0,0,1,1059.362,1130.4Z" transform="translate(-1058.982 -1126.32)"/></g><g transform="translate(38.561 156.578)"><path class="j" d="M601.557,1248.258c-1.71,0-3.716-1.113-5.5-2.1a23.39,23.39,0,0,0-2.426-1.236.38.38,0,0,1,.282-.706,23.859,23.859,0,0,1,2.512,1.277c1.785.991,3.805,2.109,5.349,2a.38.38,0,1,1,.057.758C601.744,1248.254,601.651,1248.258,601.557,1248.258Z" transform="translate(-593.396 -1244.187)"/></g><g transform="translate(34.179 143.369)"><path class="j" d="M569.734,1161.477a.38.38,0,0,1-.151-.031l-4.265-1.856a.38.38,0,1,1,.3-.7l4.265,1.856a.38.38,0,0,1-.152.728Z" transform="translate(-565.089 -1158.861)"/></g><g transform="translate(243.531 164.783)"><path class="j" d="M1939.338,1330.415a4.343,4.343,0,0,1-1.857-.5c-6.182-3-18.409-12.336-19.3-13.477-1.59-2.048.08-8.759.151-9.044,1.153-4.563,2.774-7.681,4.958-9.535,2.377-2.016,8.283,1,11.448,3.372,2.408,1.806,6.047,4.535,7.1,8.034.979,3.266.77,7.682.548,12.358-.056,1.17-.113,2.381-.151,3.578a.38.38,0,0,1-.76-.024c.039-1.2.1-2.416.152-3.589.219-4.609.426-8.963-.517-12.1-.978-3.259-4.5-5.9-6.825-7.644-3.7-2.778-8.771-4.868-10.5-3.4-2.058,1.747-3.6,4.737-4.712,9.141-.671,2.658-1.3,7.087-.288,8.392.7.9,12.835,10.255,19.027,13.259a2.376,2.376,0,0,0,2.27.228c.884-.556.891-2.125.891-2.14a.38.38,0,0,1,.379-.381h0a.38.38,0,0,1,.38.377c0,.082,0,2-1.244,2.786A2.117,2.117,0,0,1,1939.338,1330.415Z" transform="translate(-1917.502 -1297.195)"/></g><g transform="translate(218.724 186.919)"><path class="j" d="M1784.411,1460.781a.379.379,0,0,1-.258-.1c-2.456-2.267-8.624-6.645-14.59-10.879-4.994-3.545-9.711-6.893-12.177-8.939a.38.38,0,0,1,.485-.585c2.444,2.028,7.15,5.368,12.132,8.9,5.985,4.248,12.174,8.64,14.665,10.94a.38.38,0,0,1-.258.659Z" transform="translate(-1757.249 -1440.19)"/></g><g transform="translate(173.04 188.156)"><path class="j" d="M1516.8,1472.446a.38.38,0,0,1-.337-.2c-1.809-3.437-5.2-5.548-7.955-7-13.015-6.874-39.977-15.284-46.062-16.3a.38.38,0,0,1,.125-.75c6.119,1.02,33.218,9.471,46.292,16.377,2.851,1.505,6.367,3.7,8.273,7.32a.38.38,0,0,1-.336.557Z" transform="translate(-1462.133 -1448.186)"/></g><g transform="translate(76.232 194.244)"><path class="j" d="M837.127,1507.666a.38.38,0,0,1-.251-.665c5.79-5.085,11.958-13.9,14.592-17.67.543-.776.935-1.337,1.185-1.669a.38.38,0,0,1,.608.456c-.242.323-.651.908-1.169,1.649-2.65,3.788-8.854,12.66-14.713,17.805A.378.378,0,0,1,837.127,1507.666Z" transform="translate(-836.747 -1487.51)"/></g><g transform="translate(114.134 193.352)"><path class="j" d="M1082.89,1508.376a.38.38,0,0,1-.368-.288c-3.066-12.319,2.494-25.968,2.551-26.1a.38.38,0,1,1,.7.291c-.056.134-5.52,13.558-2.515,25.63a.38.38,0,0,1-.277.46A.373.373,0,0,1,1082.89,1508.376Z" transform="translate(-1081.599 -1481.749)"/></g><g transform="translate(202.527 41.095)"><path class="j" d="M1667.721,554.733a.38.38,0,0,1-.378-.344c-.519-5.539-3.29-29.037-4.782-40.553-.981-7.574-1.989-12.033-4.5-13.908a6.366,6.366,0,0,0-5.006-.862.38.38,0,1,1-.12-.75,7.074,7.074,0,0,1,5.581,1c2.724,2.037,3.787,6.639,4.8,14.419,1.492,11.521,4.265,35.035,4.785,40.58a.38.38,0,0,1-.343.414Z" transform="translate(-1652.618 -498.166)"/></g><g transform="translate(208.07 39.887)"><path class="j" d="M1688.8,493.33a.38.38,0,0,1-.253-.664,13.172,13.172,0,0,1,3.991-2.273.38.38,0,0,1,.277.708,12.451,12.451,0,0,0-3.763,2.133A.379.379,0,0,1,1688.8,493.33Z" transform="translate(-1688.424 -490.367)"/></g><g transform="translate(211.051 45.589)"><path class="j" d="M1708.063,529.929a.38.38,0,0,1-.269-.649,10.781,10.781,0,0,1,3.036-2.048.38.38,0,1,1,.3.7,9.942,9.942,0,0,0-2.8,1.887A.379.379,0,0,1,1708.063,529.929Z" transform="translate(-1707.683 -527.201)"/></g><g transform="translate(210.922 103.797)"><path class="j" d="M1707.228,908.989a.38.38,0,0,1-.111-.743c.059-.018,5.934-1.851,6.437-4.707a.38.38,0,0,1,.749.132c-.584,3.313-6.7,5.222-6.964,5.3A.375.375,0,0,1,1707.228,908.989Z" transform="translate(-1706.847 -903.224)"/></g><g transform="translate(207.347 106.433)"><path class="j" d="M1685.631,923.673c-.459,0-.965-.022-1.52-.058a.38.38,0,0,1-.354-.4.387.387,0,0,1,.4-.355c1.948.127,3.269.082,3.835-.526a1.95,1.95,0,0,0,.3-1.644.38.38,0,0,1,.753-.1,2.633,2.633,0,0,1-.495,2.266A3.823,3.823,0,0,1,1685.631,923.673Z" transform="translate(-1683.756 -920.253)"/></g></g></g></svg>