<svg xmlns="http://www.w3.org/2000/svg" width="344.336" height="216.508" viewBox="0 0 344.336 216.508"><defs><style>.a{fill:#fde1d3;}.a,.b,.c,.d,.e,.f,.h{fill-rule:evenodd;}.b{fill:#b7a28d;}.c{fill:#f0af45;}.d{fill:#fff;}.e{fill:#d7cbcb;}.f{fill:#bab3b3;}.g{fill:#723f3b;}.h{fill:#6a3b35;}.i{fill:#906d34;}</style></defs><g transform="translate(-455.367 -406.321)"><g transform="translate(455.367 406.321)"><g transform="translate(0 2.622)"><path class="a" d="M1251.319,562.429c-3.84-14,4-25.272,14.1-25.272,8.4,0,28.078,13,38.7,14.779,1.448.24,2.528,2.009,2.528,3.7,0,1.781-.582,8.965-4.88,9.709-1.609.277-1.7,5.51-1.595,7.99.154,3.533,2.073,11,9,13.472,15.795,5.633-19.48,35.111-25.489,35.111-4,0-10.779-11.354-15.507-21.176-2.034-4.228-.216-7.631-3.368-10.615a36.224,36.224,0,0,1-8.434-11.317C1255.459,576.979,1251.78,564.122,1251.319,562.429Z" transform="translate(-1102.067 -515.379)"/><path class="b" d="M1230.993,473.718c-.627-1.166-2.965-2.835-3.795-5.3s-2.046-4.592-2.213-7.554-.208-5.052-.167-6.1-1.088-2.252-1.378-3.5a9.565,9.565,0,0,1-.459-4.172,9.421,9.421,0,0,1,1.837-4.256c.917-1.124,1.416-2.423,2.335-4.963s2.087-5.719,3.8-7.889,6.759-6.341,8.716-7.135,5.258-2.17,7.431-2.212,6.424.124,8.342-.164a45.619,45.619,0,0,1,8.053.33,21.975,21.975,0,0,1,6.679,1.835c2.293,1.129,6.676,3.964,7.845,6.137a29.82,29.82,0,0,1,3.089,7.76,25.951,25.951,0,0,0,1.418,5.216c.794,2.043.081,4.464.331,6.3a69.528,69.528,0,0,1,.083,7.176c0,1.585-.414,1-1.416,1.671s-4.8,2.8-6.6,2.837-4.143.341-6.747-1.355-3.6-3.29-5.432-4.195-3.175-1.421-6.042-2.781-7.014-4.047-8.256-4.378-4.845-.483-6.266.188-2.556,3.572-3.921,3.715a6.266,6.266,0,0,0-4.283,2.715c-1.4,1.833-2.35,2.4-2.668,3.766s-2.256,4.3-1.068,10.356C1230.475,468.936,1231.617,474.887,1230.993,473.718Z" transform="translate(-1079.747 -420.381)"/><path class="c" d="M1053.62,809.642a54.248,54.248,0,0,1,1.96-6.5c.953-2.239,3.136-9.459,3.751-11.867s2.016-7.444,2.688-9.57,1.511-5.49,2.629-6.833a55,55,0,0,1,7.054-6.439c1.455-.892,5.6-3.526,7.837-4.589s8-3.638,9.8-4.366,7.844-3.227,10.009-4.43,2.607-2.447,3.73-1.443a22.335,22.335,0,0,0,4.047,3.366c1.524.8,1.884,1.244,2.286,2.327a12.138,12.138,0,0,1,.76,3.966c-.039,1.164-.76,1.965.123,3.491a31.554,31.554,0,0,0,3.768,5.011c1.042,1.044,2.727,2.766,4.048,4.368s2.249,3.849,2.849,2.646a13.168,13.168,0,0,1,2.928-4.006,97.118,97.118,0,0,1,7.737-6.74c2.406-1.843,4.569-3.526,7.534-5.65s4.662-3.084,6.247-5.123,2.249-2.6,2.9-3.994.478-1.526-.728-2.146a13.259,13.259,0,0,1-4.2-3.57,12,12,0,0,1-2.256-4.486c-.575-1.928-1.218-3.976-.093-3.17s3.621,1.384,5.591,1.888,3.974,1.088,5.267,2.264a8.514,8.514,0,0,1,2.754,3.834c.576,1.7.431,2.979,1.72,3.614s10.285,3.859,12.97,4.8,8,2.371,11.155,3.709a101.11,101.11,0,0,1,9.313,4.765,27.164,27.164,0,0,1,5.991,4.052,39.3,39.3,0,0,1,5.72,7.151,50.05,50.05,0,0,1,4.239,9.6,93.379,93.379,0,0,1,2.769,12.228c.544,2.938,1.151,7.87,2.08,11.472s4.37,17.194,5.358,20.771,3.8,16.251,4.388,20.017,1.031,12.056.624,15.031a60.821,60.821,0,0,1-1.9,7.69l-47.41-2.852Z" transform="translate(-942.047 -680.166)"/><path class="c" d="M790.068,1239.465s-2.369-.4-4.287-.615-6.253-.706-7.921-1.458-6.884-3.19-9.008-4.368-8.379-4.645-11.483-6.563-9.431-5.608-12.365-7.664-6.659-4.322-8.048-5.355-2.555-1.232-1.237-2.114a7.549,7.549,0,0,0,2.883-3.031,23.685,23.685,0,0,0,1.667-4.765c.256-1.727.877-2.22,2.067-2.494s8.314-1.445,9.736-1.565,2.714,1.215,3.618,1.568a35.2,35.2,0,0,0,6.532,1.832c2.774.438,9.6,1.362,12.071,1.644s5.522.777,7.193.968a9.391,9.391,0,0,1,2.656.644Z" transform="translate(-682.963 -1054.166)"/><path class="d" d="M566.319,728.65c-7.6-29.6-17.456-68.149-17.456-68.149s23.937,3.484,29.939,2.967,4.647-1.029,5.873,2.131,43.554,97.24,43.554,97.24-17.807-3.1-24.9-2.195-24.909,4.451-26.2,4.775-1.614-1.419-2.195-3.357c-.081-.279-.7-2.653-1.693-6.5C571.66,749.468,566.319,728.65,566.319,728.65Z" transform="translate(-531.426 -615.719)"/><path class="a" d="M606,1071.737a51.466,51.466,0,0,1-4.942-2.5c-1.72-1.044-6.382-3.6-8.193-4.552a87.953,87.953,0,0,1-8.531-5.326c-1.634-1.3-3.594-2.568-4.413-4.4s-1.076-3.472-1.744-4.562-1.218-1.071-1.712-2.68-.353-2.707-.916-3.76a5.725,5.725,0,0,1-1.042-2.884c0-1.122.559-1.568,1.34-2.685a10.759,10.759,0,0,0,1.894-3.993c.264-1.465.335-1.931,1.374-2.788a8.912,8.912,0,0,1,3.729-1.85,39.132,39.132,0,0,1,5.091-.238,17.233,17.233,0,0,1,3.518-.022,1.721,1.721,0,0,1,1.706,1.838c.1,1.125-.228,2.754-1.181,3.057s-2.73.865-1.676.99a57.379,57.379,0,0,1,5.725,1.382,13.222,13.222,0,0,1,3.673,1.433c.872.566,1.668,1.612,1.281,2.352s-1.168,1.284-.171,1.8a15.792,15.792,0,0,1,3.363,2.132c.632.681,1.382,1.293.873,2.134s-1.738,1.281-2.073,1.761.319.713-.161,1.637a4.178,4.178,0,0,1-2.375,2.43,21.177,21.177,0,0,1-4.623,1.183c-1.512.272-2.154.755-1.786,2.159s2.6,9.023,2.6,9.023.024.9,1.3.627,7.539-1.511,9.293-1.889,2.827.069,2.563,1.056-1.262,5.015-2.7,6.652C606.737,1071.644,607,1072.19,606,1071.737Z" transform="translate(-552.286 -915.821)"/><path class="e" d="M977.715,1113.786l124.661.929a1.221,1.221,0,0,1,1.22,1.218l6.546,72.425a1.219,1.219,0,0,1-1.218,1.218l-118.58-2.9a1.217,1.217,0,0,1-1.218-1.218l-12.632-70.452A1.222,1.222,0,0,1,977.715,1113.786Z" transform="translate(-879.305 -984.467)"/><path class="e" d="M1688.336,1461.806l14.594-9.565a3.684,3.684,0,0,0,.373-2.545c-.113-.257-2.982-.557-2.982-.557l-12.98-.374Z" transform="translate(-1457.58 -1256.973)"/><path class="d" d="M1727.606,1515.04l23.319.226c.576,0,.581,2.126.581,2.7l-19.456,5.775a8.353,8.353,0,0,1-2.354.392l-26.09-.559a1.037,1.037,0,0,1-1.039-1.036v-1.325C1702.567,1520.638,1727.035,1515.04,1727.606,1515.04Z" transform="translate(-1469.966 -1310.888)"/><path class="f" d="M1704.273,1520.67l8.125-2.124,16.537-4.045,23.618.443s.485.542-.384.823-20.843,5.826-20.843,5.826l-19.967-.35Z" transform="translate(-1471.354 -1310.449)"/><path class="d" d="M459.108,732.088a10.555,10.555,0,0,0-1.125-4.047,4.406,4.406,0,0,0-2.616-1.794,4.088,4.088,0,0,0,2.343-1.72,13.291,13.291,0,0,0,1.4-3.979,11.763,11.763,0,0,0,1.127,4.175,3.682,3.682,0,0,0,2.484,1.644,3.807,3.807,0,0,0-2.575,1.62A10.582,10.582,0,0,0,459.108,732.088Z" transform="translate(-455.367 -664.567)"/><path class="d" d="M474.315,816.686a12.858,12.858,0,0,0-1.35-4.885,5.348,5.348,0,0,0-3.161-2.166,4.918,4.918,0,0,0,2.822-2.073,15.983,15.983,0,0,0,1.688-4.8,14.176,14.176,0,0,0,1.365,5.034,4.443,4.443,0,0,0,3,1.985,4.6,4.6,0,0,0-3.109,1.955A12.778,12.778,0,0,0,474.315,816.686Z" transform="translate(-467.111 -731.448)"/><path class="d" d="M493.469,676.166a7.188,7.188,0,0,0-.759-2.737,2.984,2.984,0,0,0-1.767-1.21,2.756,2.756,0,0,0,1.58-1.162,8.92,8.92,0,0,0,.945-2.687,7.965,7.965,0,0,0,.762,2.817,2.483,2.483,0,0,0,1.678,1.112,2.568,2.568,0,0,0-1.737,1.1A7.1,7.1,0,0,0,493.469,676.166Z" transform="translate(-484.308 -622.121)"/><path class="d" d="M785.664,685.977a10.649,10.649,0,0,0-1.12-4.052,4.421,4.421,0,0,0-2.621-1.789,4.1,4.1,0,0,0,2.342-1.722,13.2,13.2,0,0,0,1.4-3.977,11.7,11.7,0,0,0,1.132,4.173,3.679,3.679,0,0,0,2.479,1.644,3.808,3.808,0,0,0-2.573,1.617A10.576,10.576,0,0,0,785.664,685.977Z" transform="translate(-721.021 -627.056)"/><path class="d" d="M820.027,630.051a7.149,7.149,0,0,0-.757-2.734,2.992,2.992,0,0,0-1.772-1.21,2.746,2.746,0,0,0,1.583-1.159,9,9,0,0,0,.946-2.687,7.876,7.876,0,0,0,.764,2.817,2.473,2.473,0,0,0,1.673,1.11,2.566,2.566,0,0,0-1.737,1.093A7.072,7.072,0,0,0,820.027,630.051Z" transform="translate(-749.961 -584.61)"/></g><g transform="translate(5.281 0)"><g transform="translate(145.15 52.244)"><path class="g" d="M1286.615,717.448a16.656,16.656,0,0,1-2.895-.255c-9.773-1.715-20.58-13.424-21.746-30.052a.641.641,0,1,1,1.28-.09c1.11,15.788,11.6,27.283,20.69,28.876,11.018,1.935,21.065-8.274,24.432-24.821a.642.642,0,0,1,1.259.254C1306.41,707.2,1297.178,717.448,1286.615,717.448Z" transform="translate(-1261.972 -686.451)"/></g><g transform="translate(163.255 49.453)"><path class="g" d="M1361.271,683.678a.614.614,0,0,1-.331-.1,3.9,3.9,0,0,1-1.886-2.651,3,3,0,0,1,1.066-2.036,3.526,3.526,0,0,0,.651-.86,6.294,6.294,0,0,0-.507-5.576.643.643,0,1,1,1.106-.657,7.565,7.565,0,0,1,.607,6.679,4.281,4.281,0,0,1-.906,1.279c-.333.368-.749.828-.735,1.1a2.7,2.7,0,0,0,1.274,1.626.644.644,0,0,1-.338,1.193Z" transform="translate(-1359.052 -671.485)"/></g><path class="h" d="M1416.653,676.193a1.414,1.414,0,1,1,1.471,1.651A1.586,1.586,0,0,1,1416.653,676.193Z" transform="translate(-1242.653 -624.396)"/><g transform="translate(193.283 38.699)"><path class="g" d="M1520.7,628.479a.642.642,0,0,1-.032-1.284,3.567,3.567,0,0,0,2.587-1.377c1.666-1.982,2.345-5.8,2.036-8.347a2.788,2.788,0,0,0-1.423-2.3,1.342,1.342,0,0,0-1.411.451.641.641,0,1,1-.881-.931,2.591,2.591,0,0,1,2.728-.728,4,4,0,0,1,2.264,3.354c.335,2.783-.368,7-2.332,9.329a4.8,4.8,0,0,1-3.5,1.833Z" transform="translate(-1520.065 -613.823)"/></g><g transform="translate(194.209 44.077)"><path class="g" d="M1525.672,647.483a.63.63,0,0,1-.315-.081.648.648,0,0,1-.245-.879c.208-.365.372-.718.534-1.056a7.622,7.622,0,0,1,1.806-2.641.643.643,0,0,1,.862.953,6.289,6.289,0,0,0-1.5,2.239c-.177.365-.358.743-.578,1.137A.642.642,0,0,1,1525.672,647.483Z" transform="translate(-1525.028 -642.659)"/></g><path class="h" d="M1313.358,689.549a1.414,1.414,0,1,1,1.426,1.69A1.587,1.587,0,0,1,1313.358,689.549Z" transform="translate(-1158.624 -635.292)"/><g transform="translate(192.201 59.24)"><path class="g" d="M1522.666,739.215a.644.644,0,0,1-.286-.069c-4.929-2.465-8.117-8.173-8.117-14.538a.644.644,0,1,1,1.289,0c0,5.883,2.9,11.14,7.4,13.389a.643.643,0,0,1-.29,1.218Z" transform="translate(-1514.263 -723.964)"/></g><g transform="translate(160.996 80.176)"><path class="g" d="M1348.843,843.567a.64.64,0,0,1-.64-.639,10.911,10.911,0,0,0-1.2-5.777.642.642,0,0,1,.287-.863.649.649,0,0,1,.862.289,12.067,12.067,0,0,1,1.33,6.35A.641.641,0,0,1,1348.843,843.567Z" transform="translate(-1346.939 -836.222)"/></g><g transform="translate(105.704 75.429)"><path class="g" d="M1051.106,867.69a.741.741,0,0,1-.214-.034.641.641,0,0,1-.392-.818c.848-2.433,2-6.225,3.028-9.569.485-1.583.938-3.06,1.306-4.231.544-1.73,1.021-3.521,1.482-5.251.549-2.063,1.117-4.192,1.811-6.26.249-.75.482-1.541.72-2.347.841-2.872,1.791-6.123,3.935-8.362,6.556-6.858,15.013-10.42,23.192-13.857a123.37,123.37,0,0,0,13.046-6.107.642.642,0,0,1,.632,1.117,123.638,123.638,0,0,1-13.179,6.174c-8.428,3.545-16.388,6.9-22.759,13.561-1.929,2.014-2.8,4.973-3.637,7.837-.24.821-.475,1.627-.73,2.389-.681,2.031-1.245,4.143-1.789,6.186-.465,1.742-.943,3.548-1.5,5.307-.368,1.169-.818,2.641-1.3,4.222-1.029,3.354-2.193,7.159-3.05,9.614A.64.64,0,0,1,1051.106,867.69Z" transform="translate(-1050.464 -810.768)"/></g><g transform="translate(159.967 80.656)"><path class="g" d="M1354.355,860.222a.644.644,0,0,1-.529-.274,55.981,55.981,0,0,0-4.319-5.2c-3.974-4.43-8.085-9.007-8.085-15.31a.642.642,0,0,1,1.284,0c0,5.811,3.943,10.2,7.757,14.453a58.6,58.6,0,0,1,4.417,5.322.645.645,0,0,1-.524,1.012Z" transform="translate(-1341.422 -838.795)"/></g><g transform="translate(172.96 65.144)"><path class="g" d="M1411.733,792.864a.744.744,0,0,1-.177-.024.644.644,0,0,1-.443-.794c.757-2.636,2.987-4.663,4.954-6.449.294-.269.588-.534.87-.8,1.735-1.62,3.506-3.067,5.471-4.66.958-.777,1.933-1.529,2.908-2.281l1.23-.951c.528-.409,1.088-.762,1.627-1.1.379-.238.757-.476,1.114-.728,2.681-1.894,9.8-6.917,10.067-11.645a5.456,5.456,0,0,0-2.163-4.473,12.383,12.383,0,0,0-2.93-1.749c-.255-.123-.507-.248-.757-.373a.641.641,0,1,1,.573-1.147c.249.123.49.24.74.36a13.406,13.406,0,0,1,3.227,1.948,6.738,6.738,0,0,1,2.594,5.507c-.266,4.739-5.809,9.234-10.606,12.62-.382.267-.774.517-1.173.767a18.063,18.063,0,0,0-1.521,1.026l-1.235.955c-.968.747-1.938,1.492-2.886,2.264-1.95,1.573-3.7,3.011-5.4,4.6-.285.265-.581.534-.882.809-1.843,1.671-3.925,3.565-4.579,5.848A.643.643,0,0,1,1411.733,792.864Z" transform="translate(-1411.089 -755.624)"/></g><g transform="translate(175.679 98.767)"><path class="g" d="M1442.432,946.372a.731.731,0,0,1-.127-.012,9.355,9.355,0,0,1-5.277-2.607,24.244,24.244,0,0,1-1.875-2.379c-2.46-3.4-4.3-5.464-7.355-3.278a3.675,3.675,0,0,0-.742.86c-.074.105-.149.208-.223.312a.644.644,0,0,1-1.031-.772c.069-.09.138-.186.206-.284a4.724,4.724,0,0,1,1.044-1.161c4.325-3.09,7.11.759,9.144,3.567a23.079,23.079,0,0,0,1.77,2.256,8.087,8.087,0,0,0,4.593,2.227.642.642,0,0,1-.125,1.272Z" transform="translate(-1425.673 -935.907)"/></g><g transform="translate(192.4 76.458)"><path class="g" d="M1515.968,849.163a.644.644,0,0,1-.639-.644c0-2.513,1.788-5.451,3.094-7.592l.419-.7a82.709,82.709,0,0,1,6.294-9.033c3.075-3.842,6.781-9.984,7.666-14.394a.642.642,0,1,1,1.259.252c-.929,4.646-4.648,10.852-7.921,14.945a81.695,81.695,0,0,0-6.2,8.893l-.422.7c-1.23,2.013-2.91,4.775-2.91,6.926A.647.647,0,0,1,1515.968,849.163Z" transform="translate(-1515.329 -816.285)"/></g><g transform="translate(193.305 61.92)"><path class="g" d="M1537.239,753.921a.651.651,0,0,1-.456-.187,12.1,12.1,0,0,1-2.646-5.064,11.632,11.632,0,0,0-1.918-4.035c-1.825-2.134-4.376-2.81-7.076-3.521a23.9,23.9,0,0,1-4.606-1.561.641.641,0,1,1,.571-1.149,22.74,22.74,0,0,0,4.363,1.468c2.771.732,5.634,1.487,7.727,3.924a12.886,12.886,0,0,1,2.161,4.467,10.924,10.924,0,0,0,2.337,4.562.641.641,0,0,1-.458,1.1Z" transform="translate(-1520.18 -738.337)"/></g><g transform="translate(155.035 99.769)"><path class="g" d="M1315.618,947.02a.643.643,0,0,1,0-1.286,12.161,12.161,0,0,0,4.6-.86,12.347,12.347,0,0,0,2.7-1.661c1.911-1.419,3.888-2.884,7.112-1.129a5.648,5.648,0,0,1,1.51,1.171l.147.152a.641.641,0,1,1-.909.9l-.149-.149a4.306,4.306,0,0,0-1.215-.948c-2.5-1.362-3.856-.36-5.73,1.029a13.312,13.312,0,0,1-2.989,1.825A13.59,13.59,0,0,1,1315.618,947.02Z" transform="translate(-1314.979 -941.281)"/></g><g transform="translate(155.033 77.004)"><path class="g" d="M1315.609,846.209a.63.63,0,0,1-.287-.069.642.642,0,0,1-.287-.862c1.573-3.146,1.04-6.713.522-10.163-.2-1.326-.4-2.69-.488-4.013a43.762,43.762,0,0,1,1.348-11.4.642.642,0,1,1,1.246.311,42.768,42.768,0,0,0-1.31,11.008c.079,1.264.272,2.546.47,3.9.552,3.646,1.115,7.421-.639,10.927A.646.646,0,0,1,1315.609,846.209Z" transform="translate(-1314.967 -819.216)"/></g><g transform="translate(170.925 102.979)"><path class="g" d="M1400.823,988l-.074,0a.649.649,0,0,1-.568-.713,91.821,91.821,0,0,0,.358-10.4c-.012-2.408-.02-4.9.1-7.352s.478-4.875.819-7.227c.156-1.078.313-2.159.451-3.244a.64.64,0,1,1,1.27.159c-.134,1.093-.294,2.183-.451,3.271-.333,2.32-.683,4.719-.808,7.105-.123,2.418-.113,4.893-.1,7.281a92.674,92.674,0,0,1-.363,10.554A.643.643,0,0,1,1400.823,988Z" transform="translate(-1400.178 -958.492)"/></g><g transform="translate(208.424 73.29)"><path class="g" d="M1665.135,920.17a.589.589,0,0,1-.186-.027.64.64,0,0,1-.434-.8c3.771-12.789-1.08-30.858-5.36-46.8-1.965-7.321-3.821-14.237-4.853-20.435-.157-.941-.309-1.874-.463-2.8-1.612-9.94-3.136-19.325-9.477-27.484l-.406-.522a17.008,17.008,0,0,0-3.267-3.523c-4.524-3.232-8.365-5.865-13.143-7.911a115.691,115.691,0,0,0-11.512-4.006,94.608,94.608,0,0,1-14.431-5.346.642.642,0,1,1,.573-1.149,93.4,93.4,0,0,0,14.239,5.267,117.771,117.771,0,0,1,11.638,4.052c4.895,2.095,8.793,4.771,13.379,8.046a18.049,18.049,0,0,1,3.54,3.785l.4.519c6.543,8.413,8.1,17.958,9.736,28.065.149.928.3,1.859.458,2.8,1.023,6.135,2.869,13.024,4.827,20.315,4.327,16.106,9.226,34.361,5.353,47.5A.643.643,0,0,1,1665.135,920.17Z" transform="translate(-1601.247 -799.302)"/></g><g transform="translate(229.616 135.153)"><path class="g" d="M1718.776,1167.7a.5.5,0,0,1-.09-.008.641.641,0,0,1-.549-.728c.528-3.694-1.073-10.361-2.137-14.776-.231-.951-.436-1.823-.606-2.573a27.741,27.741,0,0,1,2.781-18.292.642.642,0,1,1,1.112.642,26.352,26.352,0,0,0-2.641,17.368c.167.743.375,1.61.6,2.555,1.151,4.778,2.722,11.319,2.163,15.256A.646.646,0,0,1,1718.776,1167.7Z" transform="translate(-1714.879 -1131.007)"/></g><g transform="translate(221.942 169.066)"><path class="g" d="M1678.647,1316.853a16.267,16.267,0,0,1-4.449-.6.643.643,0,1,1,.35-1.237c4.2,1.193,8.1.247,12.221-.752,1.673-.409,3.41-.833,5.182-1.105a36.639,36.639,0,0,1,14.411,1.076.642.642,0,0,1-.307,1.247,35.416,35.416,0,0,0-13.908-1.054c-1.717.267-3.422.681-5.076,1.08A35.568,35.568,0,0,1,1678.647,1316.853Z" transform="translate(-1673.729 -1312.847)"/></g><g transform="translate(66.314 148.757)"><path class="g" d="M868.545,1210.109a.718.718,0,0,1-.1-.01c-1.84-.282-4.288-.576-6.884-.884-7.532-.9-16.91-2.024-21.9-4.021a.642.642,0,1,1,.477-1.193c4.836,1.933,14.117,3.043,21.577,3.937,2.6.311,5.067.605,6.924.892a.643.643,0,0,1-.1,1.279Z" transform="translate(-839.259 -1203.954)"/></g><g transform="translate(45.557 150.731)"><path class="g" d="M783.75,1252.355c-.032,0-.056,0-.088-.005l-.26-.034a79.932,79.932,0,0,1-11.368-2.075,33.245,33.245,0,0,1-6.128-2.759c-.717-.382-1.443-.772-2.19-1.147a260.464,260.464,0,0,1-22.856-13.384l-.462-.291c-2.02-1.274-4.019-2.639-5.949-3.957-1.094-.745-2.18-1.488-3.274-2.22-3.391-2.207-3.391-2.207-3.1-2.8.218-.431.723-.49,1.169-.544a1.511,1.511,0,0,0,.2-.027,3.578,3.578,0,0,0,1.509-1.112c1.643-1.977,2.4-4.638,2.991-6.977a.642.642,0,1,1,1.247.309,18.66,18.66,0,0,1-3.251,7.49,4.827,4.827,0,0,1-1.845,1.409c.422.284.99.664,1.733,1.144,0,0,.061.042.063.045,1.09.725,2.181,1.473,3.278,2.217,1.921,1.313,3.908,2.671,5.907,3.935l.463.289a261.13,261.13,0,0,0,22.748,13.326c.757.38,1.49.769,2.22,1.161a32.209,32.209,0,0,0,5.9,2.66,78.444,78.444,0,0,0,11.165,2.031l.257.035a.642.642,0,0,1-.083,1.279Z" transform="translate(-727.959 -1214.537)"/></g><g transform="translate(19.959 136.508)"><path class="g" d="M618.8,1160.772a.663.663,0,0,1-.206-.032,26.156,26.156,0,0,1-5.406-2.835c-1.111-.7-2.154-1.35-3.228-1.889a96.818,96.818,0,0,1-12-7.031c-.225-.154-.451-.309-.676-.46a16.451,16.451,0,0,1-3.648-3.031,12.41,12.41,0,0,1-1.962-3.988,19.25,19.25,0,0,0-.912-2.3.642.642,0,1,1,1.149-.573,20.573,20.573,0,0,1,.975,2.448,11.265,11.265,0,0,0,1.742,3.6,15.487,15.487,0,0,0,3.374,2.781c.233.159.463.311.688.468a95.787,95.787,0,0,0,11.839,6.943c1.129.564,2.25,1.267,3.337,1.948a25.533,25.533,0,0,0,5.133,2.7.641.641,0,0,1-.2,1.249Z" transform="translate(-590.704 -1138.276)"/></g><g transform="translate(17.822 130.261)"><path class="g" d="M580.625,1110.585a.643.643,0,0,1-.573-.358,8.653,8.653,0,0,1-.806-4.452v-.358a.642.642,0,0,1,1.283,0v.363a7.491,7.491,0,0,0,.671,3.874.641.641,0,0,1-.287.863A.632.632,0,0,1,580.625,1110.585Z" transform="translate(-579.245 -1104.776)"/></g><g transform="translate(16.148 123.767)"><path class="g" d="M571.269,1076.339a.64.64,0,0,1-.639-.642,2.748,2.748,0,0,0-.149-.718,3.079,3.079,0,0,1-.167-1.544,4.891,4.891,0,0,1,1.306-2.212,6.979,6.979,0,0,0,.745-.953.642.642,0,1,1,1.1.659,7.742,7.742,0,0,1-.879,1.137,3.823,3.823,0,0,0-1.014,1.619,2.064,2.064,0,0,0,.14.931,3.8,3.8,0,0,1,.2,1.08A.641.641,0,0,1,571.269,1076.339Z" transform="translate(-570.271 -1069.958)"/></g><g transform="translate(19.542 115.582)"><path class="g" d="M589.113,1033.483a.643.643,0,0,1-.642-.642v-.38a5.327,5.327,0,0,1,.512-2.925c2.125-3.337,7.74-3.663,10.728-3.337a6.616,6.616,0,0,0,1.26-.052,5.03,5.03,0,0,1,2.654.2,3.222,3.222,0,0,1,1.6,2.837,3.039,3.039,0,0,1-1.315,2.812c-1.71,1.024-4.332,1.009-6.24.995l-.586,0c-.936,0-1.891.044-2.82.086s-1.9.081-2.851.081a.642.642,0,0,1,0-1.284c.928,0,1.876-.044,2.8-.081.938-.042,1.909-.086,2.874-.086l.6,0c1.759.012,4.167.027,5.569-.813a1.806,1.806,0,0,0,.693-1.659,1.978,1.978,0,0,0-.9-1.737,4.269,4.269,0,0,0-1.952-.074,7.758,7.758,0,0,1-1.528.054c-2.507-.28-7.711-.059-9.5,2.749a4.522,4.522,0,0,0-.316,2.215l.007.4A.643.643,0,0,1,589.113,1033.483Z" transform="translate(-588.465 -1026.068)"/></g><g transform="translate(22.262 121.465)"><path class="g" d="M620.3,1066.431a18.515,18.515,0,0,1-2.68-.264c-.556-.086-1.081-.162-1.567-.2-1-.078-2.027-.2-3.022-.308a34.665,34.665,0,0,0-6.74-.351,4.473,4.473,0,0,0-1.056.3,4.565,4.565,0,0,1-1.549.367.644.644,0,0,1,0-1.289,3.561,3.561,0,0,0,1.11-.287,5.583,5.583,0,0,1,1.387-.37,35.878,35.878,0,0,1,6.995.355c.985.11,2,.23,2.972.306.534.039,1.082.12,1.659.208,1.734.26,3.526.526,4.843-.35a1.651,1.651,0,0,0,.887-1.458,2.443,2.443,0,0,0-1.676-1.769,32.834,32.834,0,0,0-11.434-2.421.642.642,0,0,1,0-1.284,34.261,34.261,0,0,1,11.915,2.511,3.674,3.674,0,0,1,2.472,2.827,2.832,2.832,0,0,1-1.453,2.661A5.367,5.367,0,0,1,620.3,1066.431Z" transform="translate(-603.051 -1057.614)"/></g><g transform="translate(24.152 128.781)"><path class="g" d="M613.828,1104.374a.643.643,0,1,1,0-1.286,59.931,59.931,0,0,0,5.988-.407,61.6,61.6,0,0,1,6.179-.414,24.981,24.981,0,0,1,3.082.25,17.279,17.279,0,0,0,4.155.169,5.934,5.934,0,0,0,.975-.284l.3-.1c.532-.179,1.426-.564,1.426-1.125,0-.916-1.886-2.443-3.811-3.084a.642.642,0,0,1,.406-1.218c1.894.632,4.692,2.432,4.692,4.3,0,.718-.4,1.705-2.305,2.343l-.28.093a6.259,6.259,0,0,1-1.241.345,18.037,18.037,0,0,1-4.469-.167,24.389,24.389,0,0,0-2.927-.237,59.982,59.982,0,0,0-6.052.409C617.943,1104.164,615.874,1104.374,613.828,1104.374Z" transform="translate(-613.184 -1096.841)"/></g><g transform="translate(28.51 134.453)"><path class="g" d="M637.192,1135.691a.641.641,0,0,1-.1-1.274,13.192,13.192,0,0,0,2.445-.752,17.1,17.1,0,0,1,2.2-.723,15.58,15.58,0,0,1,3.082-.424c2.918-.1,6.426-.774,7.529-2.359a2.186,2.186,0,0,0,.189-2.058.642.642,0,1,1,1.218-.406,3.432,3.432,0,0,1-.353,3.2c-1.678,2.414-6.529,2.837-8.533,2.909a14.142,14.142,0,0,0-2.84.394,14.833,14.833,0,0,0-2.038.671,14.537,14.537,0,0,1-2.69.816A.745.745,0,0,1,637.192,1135.691Z" transform="translate(-636.552 -1127.254)"/></g><g transform="translate(152.64 28.24)"><path class="g" d="M1302.781,563.445a.758.758,0,0,1-.206-.035.643.643,0,0,1-.407-.813c1.3-3.908,5.63-4.712,8.089-4.841a15,15,0,0,1,6.093,1.386c.775.3,1.512.578,2.242.8,3.92,1.184,7.147,1.269,10.151.265a.642.642,0,0,1,.4,1.22c-3.268,1.09-6.74,1.007-10.922-.255-.779-.233-1.568-.534-2.334-.823a14.035,14.035,0,0,0-5.564-1.306c-2.136.113-5.876.782-6.941,3.964A.642.642,0,0,1,1302.781,563.445Z" transform="translate(-1302.136 -557.743)"/></g><g transform="translate(173.023 34.036)"><path class="g" d="M1426.4,597.593c-3.276,0-5.784-1.99-8.215-3.92-2.018-1.6-3.929-3.116-6.243-3.579a.642.642,0,1,1,.25-1.259c2.619.522,4.738,2.2,6.791,3.834,2.588,2.051,5.023,3.989,8.292,3.585a7.859,7.859,0,0,0,3.111-1.852l.544-.436a.643.643,0,0,1,.792,1.014c-.167.129-.341.271-.529.421a8.566,8.566,0,0,1-3.761,2.129A8.323,8.323,0,0,1,1426.4,597.593Z" transform="translate(-1411.428 -588.821)"/></g><g transform="translate(147.981 17.406)"><path class="g" d="M1279.54,516.485a.6.6,0,0,1-.353-.111c-1.794-1.193-2.11-4.179-2.017-5.755a14.293,14.293,0,0,1,5.871-10.839.643.643,0,0,1,.771,1.029,12.867,12.867,0,0,0-5.358,9.888c-.086,1.409.228,3.8,1.443,4.608a.641.641,0,0,1,.177.889A.634.634,0,0,1,1279.54,516.485Z" transform="translate(-1277.157 -499.653)"/></g><g transform="translate(142.929 39.74)"><path class="g" d="M1251.283,629.707a.636.636,0,0,1-.621-.488c-.664-2.651-.936-6.718.037-9.391a.643.643,0,0,1,1.208.441c-.938,2.58-.515,6.581,0,8.639a.642.642,0,0,1-.466.781A.694.694,0,0,1,1251.283,629.707Z" transform="translate(-1250.064 -619.406)"/></g><g transform="translate(176.15 2.293)"><path class="g" d="M1453.276,445.205a.637.637,0,0,1-.284-.068c-3.446-1.725-4.456-5.966-5.351-9.709a29.058,29.058,0,0,0-1.259-4.347c-2.646-6.289-9.55-10.679-17.583-11.181a.642.642,0,0,1,.081-1.281c8.516.532,15.851,5.228,18.686,11.966a30.008,30.008,0,0,1,1.325,4.547c.87,3.641,1.762,7.4,4.675,8.857a.643.643,0,0,1-.29,1.218Z" transform="translate(-1428.197 -418.617)"/></g><g transform="translate(197.137 29.594)"><path class="g" d="M1541.452,575.215a.642.642,0,0,1-.641-.642c0-.752.054-1.661.117-2.624.132-2.208.287-4.709-.169-6.1a.641.641,0,1,1,1.218-.4c.534,1.624.375,4.258.23,6.58-.057.943-.113,1.835-.113,2.546A.641.641,0,0,1,1541.452,575.215Z" transform="translate(-1540.726 -565.005)"/></g><g transform="translate(138.973 36.861)"><path class="g" d="M1232.992,620.087a.643.643,0,0,1-.552-.314c-2.9-4.839-3.554-10.912-3.589-15.155a.643.643,0,0,1,1.286-.01c.044,5.772,1.254,10.925,3.405,14.5a.641.641,0,0,1-.223.88A.625.625,0,0,1,1232.992,620.087Z" transform="translate(-1228.852 -603.971)"/></g><g transform="translate(140.675)"><path class="g" d="M1245.772,443.29c-3.6,0-6.274-4.209-7.11-6.862-2.236-7.08,1.362-15.308,5.65-19.953a26.133,26.133,0,0,1,16.958-8.014c.919-.061,1.877-.042,2.894-.022,3.067.059,6.238.118,8.289-1.93a.642.642,0,1,1,.908.909c-2.438,2.433-6.041,2.367-9.222,2.306-.99-.02-1.923-.034-2.786.017a24.829,24.829,0,0,0-16.1,7.607c-4.173,4.521-7.355,12.4-5.366,18.694.759,2.406,3.151,5.963,5.882,5.963a.643.643,0,0,1,0,1.286Z" transform="translate(-1237.978 -406.321)"/></g><g transform="translate(137.296 23.596)"><path class="g" d="M1228.733,549.507a8.574,8.574,0,0,1-8.041-5.591,10.054,10.054,0,0,1,1.83-10.885.643.643,0,1,1,.909.909,8.751,8.751,0,0,0-1.55,9.484,7.321,7.321,0,0,0,6.851,4.8.643.643,0,0,1,0,1.286Z" transform="translate(-1219.863 -532.843)"/></g><g transform="translate(91.266 131.299)"><path class="g" d="M1106.123,1187.42l-118.6-2.9a1.865,1.865,0,0,1-1.845-1.8l-12.619-70.4a1.122,1.122,0,0,1-.01-.115,1.865,1.865,0,0,1,1.862-1.862h.005l124.661.931a1.859,1.859,0,0,1,1.857,1.857l6.544,72.366A1.873,1.873,0,0,1,1106.123,1187.42ZM974.34,1112.159l12.617,70.386a.862.862,0,0,1,.007.115.575.575,0,0,0,.578.573l118.6,2.9a.576.576,0,0,0,.563-.575l-6.549-72.366a.593.593,0,0,0-.578-.632l-124.663-.929A.576.576,0,0,0,974.34,1112.159Z" transform="translate(-973.051 -1110.346)"/></g><g transform="translate(223.84 193.772)"><path class="g" d="M1685.548,1459.649a.644.644,0,0,1-.355-1.181L1699.64,1449a3.3,3.3,0,0,0,.34-1.649,24.528,24.528,0,0,0-2.516-.377l-12.928-.37a.64.64,0,0,1-.625-.662.662.662,0,0,1,.659-.622l12.98.373c3.286.343,3.411.622,3.553.943a4.21,4.21,0,0,1-.392,3.1.636.636,0,0,1-.218.243l-14.6,9.562A.626.626,0,0,1,1685.548,1459.649Zm14.6-12.243Z" transform="translate(-1683.911 -1445.321)"/></g><g transform="translate(225.143 194.888)"><path class="g" d="M1691.538,1461.784a.642.642,0,0,1-.343-1.188l14.594-9.19a.642.642,0,0,1,.684,1.088l-14.595,9.19A.621.621,0,0,1,1691.538,1461.784Z" transform="translate(-1690.894 -1451.307)"/></g><g transform="translate(11.512 46.76)"><path class="g" d="M573.987,763.3c-1.367,0-1.854-1.7-2.293-3.207-.059-.214-.125-.429-.186-.647-.088-.284-.659-2.482-1.706-6.532a.643.643,0,1,1,1.245-.318c1.3,5.025,1.634,6.3,1.69,6.48.066.223.132.443.193.659.507,1.766.769,2.372,1.228,2.256,1.316-.328,19.172-3.886,26.276-4.789,6.123-.779,19.766,1.318,23.907,2-4.964-11.04-41.914-93.183-43.076-96.177-.206-.527-.341-.958-.448-1.3a2.227,2.227,0,0,0-.314-.769,7.8,7.8,0,0,0-2,.1c-.644.069-1.443.157-2.455.245-5.395.46-24.561-2.188-29.133-2.837,1.544,6.046,10.315,40.322,17.211,67.218a.641.641,0,1,1-1.242.318c-7.595-29.6-17.456-68.149-17.456-68.149a.649.649,0,0,1,.147-.59.641.641,0,0,1,.57-.206c.238.034,23.934,3.465,29.79,2.965,1-.083,1.794-.172,2.43-.24,2.548-.274,3.08-.336,3.673,1.55.108.326.233.73.426,1.225,1.205,3.111,43.117,96.273,43.539,97.211a.642.642,0,0,1-.692.9c-.183-.029-17.8-3.072-24.717-2.188-7.066.9-24.821,4.435-26.124,4.76A1.94,1.94,0,0,1,573.987,763.3Z" transform="translate(-545.411 -657.047)"/></g><g transform="translate(0 178.684)"><path class="i" d="M565.872,1370.5c-.012,0-.024,0-.037,0l-81.548-4.785a.644.644,0,0,1-.6-.681.651.651,0,0,1,.676-.6l81.548,4.787a.644.644,0,0,1-.037,1.286Z" transform="translate(-483.683 -1364.421)"/></g><g transform="translate(225.851 191.941)"><path class="i" d="M1807.252,1443.364l-.039,0-111.918-6.571a.642.642,0,0,1-.6-.679.652.652,0,0,1,.68-.605l111.917,6.573a.64.64,0,0,1,.6.676A.65.65,0,0,1,1807.252,1443.364Z" transform="translate(-1694.691 -1435.506)"/></g><g transform="translate(226.678 206.13)"><path class="g" d="M1726.9,1521.963l-26.107-.561a1.678,1.678,0,0,1-1.664-1.678V1518.4c0-.659,0-.885,12.795-3.923,4.244-1.009,12.4-2.891,12.883-2.891h.005l23.328.225c1,0,1.214,1.338,1.214,3.342a.645.645,0,0,1-.463.619l-19.455,5.772A9.044,9.044,0,0,1,1726.9,1521.963Zm-26.487-3.185v.946a.4.4,0,0,0,.4.394l26.1.561a7.883,7.883,0,0,0,2.161-.368l18.988-5.637a6.061,6.061,0,0,0-.172-1.583l-23.054-.223C1723.541,1513.042,1703.147,1517.751,1700.408,1518.778Zm47.711-5.684h0Z" transform="translate(-1699.124 -1511.585)"/></g><g transform="translate(226.769 207.115)"><path class="g" d="M1727.8,1523.984l-27.107-.374a.652.652,0,0,1-.4.174.644.644,0,0,1-.681-.6.8.8,0,0,1,.208-.625.749.749,0,0,1,.561-.238l27.434.378c.871-.118,19.121-5.038,20.512-5.694a.643.643,0,0,1,.95.828c-.171.3-.284.5-10.719,3.364C1738.462,1521.221,1728.4,1523.984,1727.8,1523.984Zm20.357-6.788Zm0,0Z" transform="translate(-1699.613 -1516.868)"/></g><g transform="translate(150.127 46.054)"><path class="g" d="M1289.3,655.783a.641.641,0,0,1-.358-1.174,7.268,7.268,0,0,1,6.953-.767.644.644,0,0,1-.576,1.151,6.024,6.024,0,0,0-5.661.683A.661.661,0,0,1,1289.3,655.783Z" transform="translate(-1288.658 -653.262)"/></g><g transform="translate(170.186 42.817)"><path class="g" d="M1396.858,638.563a.641.641,0,0,1-.286-1.215c2.249-1.127,4.486-2.046,7.053-.946a.642.642,0,0,1-.505,1.181c-2.063-.885-3.927-.11-5.973.914A.675.675,0,0,1,1396.858,638.563Z" transform="translate(-1396.216 -635.907)"/></g><g transform="translate(162.811 67.501)"><path class="g" d="M1360.618,772.123a8.664,8.664,0,0,1-3.562-.777.642.642,0,1,1,.519-1.174c2.866,1.274,5.873.7,9.447-1.8a.642.642,0,0,1,.737,1.051A12.762,12.762,0,0,1,1360.618,772.123Z" transform="translate(-1356.673 -768.259)"/></g></g></g></g></svg>