<svg xmlns="http://www.w3.org/2000/svg" xmlns:xlink="http://www.w3.org/1999/xlink" width="349.368" height="274.996" viewBox="0 0 349.368 274.996"><defs><style>.a{fill:none;}.b{clip-path:url(#a);}.c{fill:#feede5;}.c,.d,.e,.f,.h{fill-rule:evenodd;}.d{fill:#eac6b0;}.e{fill:#fff;}.f{fill:#5eb752;}.g,.h{fill:#384a5b;}</style><clipPath id="a"><path class="a" d="M548.756,382.137c-19.968-.471-39.933-1.606-59.892-3.018C409,373.388,344.127,316.908,344.126,244.661c0-36.571,23.686-80.78,52.172-102.421,42.541-32.316,101.219-34.151,152.458-35.055,79.956-1.411,144.738,65.228,144.738,137.476S628.712,383.548,548.756,382.137Z" transform="translate(-344.126 -107.163)"/></clipPath></defs><g transform="translate(-344.126 -107.163)"><g transform="translate(344.126 107.163)"><g class="b"><g transform="translate(66.509 46.131)"><g transform="translate(0.653 4.147)"><path class="c" d="M1257.459,543.648c0-4.042-.93-8.774-4.34-8.1-1.931.383-6.149-11.684-13-20.8-5.265-7-13.015-11.594-16.81-11.594-7.349,0-20.708,6.214-27.138,17.956-2.591,4.729-2.967,11.736-2.971,17.57,0,1.191-1.922-1.314-3.631-1.364-2.716-.081-2.956,2.9-3,3.724-.166,2.811.942,8.262,2.935,10.294,2.408,2.457,4.613,1.319,4.733,1.866a50.249,50.249,0,0,0,8.039,18.042c.762,1.089.82,5.284.665,7.993-.562,9.936,12.049,17.609,22.2,27.971,4.715,4.81,8.434,25.7,10.921,25.7,6.021,0,1.363-9.878,4.958-24.877.2-.838.429-1.694.684-2.562,2.234-7.589,11.356-15.17,6.981-20.307-4.436-5.211-5.531-18.055-4.541-19.928a64.4,64.4,0,0,0,4.167-10.415c.646-2.2,2.217-1.362,3.169-1.88C1255.077,550.968,1257.459,545.566,1257.459,543.648Z" transform="translate(-1110.324 -486.033)"/><path class="d" d="M1266.2,451.622c-.9-3.243.943-14.266.492-21.28-.646-10.005-4.75-15.858-6.362-17.789s-4.107-6.831-6.694-7.482c-1.633-.41-3.759-1.941-5.7-2.259a27.964,27.964,0,0,0-8.532.16c-3.864.563-5.212-.394-10.375-.278s-8.834.565-13.708,3.841c-2.568,1.728-4.361,4.5-6.508,6.338-7.365,6.315-7.407,10.554-8.05,14.411-.717,4.3-.483,11.833.081,17.548a72.958,72.958,0,0,1,.161,9.178,29.074,29.074,0,0,1,5.635,3.542c.805.563-.644-1.449,0-9.661a16.672,16.672,0,0,1,4.106-10.545c3.007-3.374,4.99-3.864,7.808-6.52s9.655-5.8,16.271-5.229c3.922.341,5.695,1.549,9.447,3.388,2.242,1.1,5.625,2.508,6.278,4.6,1.026,3.3,3.447,8.11,6.238,13.656a32.64,32.64,0,0,1,3.707,13.107c.136,2.489,2.549-7.823,3.262-8.313S1266.548,452.883,1266.2,451.622Z" transform="translate(-1121.745 -402.56)"/><path class="e" d="M953.042,1021.282s-2.929-26.673-4.218-33.883c-1.281-7.179-2.654-16.107-3.8-25.41a110.559,110.559,0,0,0-4.717-21.127c-2.3-6.622-7.69-13.836-12.128-16.878-2.971-2.037-8.255-2.945-11.871-4.063a135.848,135.848,0,0,1-23.77-9.983c-2.852-1.537-7.844-4.309-9.389-6.239-1.194-1.494-1.388-2.85-2.918-5.593s-4.312-6.593-7.141-7.044c-.795-.128,1.678,7.283,3.73,9.466.987,1.053-1.051,5.865-2.549,9.116-1.282,2.783-2.855,3.9-4.408,6.521a37.609,37.609,0,0,0-4.214,11.289c-.713,3.527-.326,4.622-.572,7.442-.077.88.126,4.1.259,6.54.05.918-4.453-9.921-4.776-11.38-.816-3.677-1.848-10.816-3.01-13-.78-1.468-2.451-1.35-4.2-2.886-1.949-1.709-2.839-1.17-6.057-3.51a64.066,64.066,0,0,1-11.673-11.185c-1.61-2.025-4.416-5.595-4.211-6.668.286-1.51.847-4.705-.376-5.911a11.838,11.838,0,0,1-2.4-3.295c-.479-.94-2.578,1.182-2.964,1.873-1.138,2.053-1.481,4.9-2.085,7.137s-2.828,3.151-5.341,3.57c-8.039,1.341-10.738,2.509-20.529,2.1-6.454-.269-17.722-2.076-25.636,1.066a29.494,29.494,0,0,0-9.4,6.221c-5.315,5.4-7.93,11.381-8.531,16.731-1.1,9.808-5.143,20.009-8.648,28.02C742.8,956.5,739,966.5,738.76,973.362c-.25,7.265.691,12.409,3.526,15.541a47.932,47.932,0,0,0,11.669,8.76,41.018,41.018,0,0,0,11.745,3.356c.927.146,1.713,1.381,3.164,3.411.782,1.092,2.181,2.55,4.233,2.3,1.818-.222,5.432-2.363,5.666-1.422,1.007,4.026,2.649,16.831,2.649,16.831a263.3,263.3,0,0,1,37.462-.3c27.341,1.681,64.145,5.353,88.288,2.964C943.693,1021.183,953.042,1021.282,953.042,1021.282Z" transform="translate(-738.722 -801.528)"/><path class="c" d="M1069.037,1242.251c0-1.972-.046-4.026-8.741-11.181-1.492-1.228-4.929-3.717-6.074-5.3-.9-1.245-.364-1.4,1.444-4.151.962-1.467,1.134-3.956,2.246-5.13.691-.729,6.741-2.733,9.633-5.106.682-.56,6.088-4.471,6.385-8.343.05-.656.365-3.656-2.081-3.828-1.616-.116-2.446.952-4.981,2.16a49.876,49.876,0,0,1-7.783,2.617c-4.462,1.052-10.771,2.619-13.83,4.294-5.143,2.816-8.206,7.456-14.91,11.5-1.555.936-6.025,2.42-15.146,2.738-6.631.234-5.325,19.966-4.009,26.571.342,1.711,1.7,8.735,3.478,9,1.136.167,3.146.2,4.532.342,5.825.6,11.809,3.011,16.889,5.4,3.851,1.809,5.486,3.278,10.668,3.508,3.865.172,12.748-1.96,14.32-3.2,2.252-1.775,4.074-2.937,5.122-3.788,1.749-1.421,1.594-4.647,2.271-4.907,3.98-1.532.317-5.948-.467-6.748-2.259-2.3-1.448-2.616-1.067-2.647C1068.574,1245.908,1069.037,1243.8,1069.037,1242.251Z" transform="translate(-963.928 -1063.609)"/><path class="f" d="M1381.727,1127.774l3.7-7.938a.994.994,0,0,1,1.208-.178c.756.362,2.266,1.675,2.923,1.61s3.153-.527,4.4-.625a35.329,35.329,0,0,1,6.569.491c1.412.333,1.969.824,3.054.067a14.067,14.067,0,0,0,2.955-2.43c.657-.854,1.052-.789,1.806-.1s2.3,4.993,2.3,5.78-1.412,2.563-2.3,3.382-1.675.952-1.87,2.365a20.589,20.589,0,0,1-1.215,4.828c-.823,2.266-.952,3.975-2.038,4.795s-2.068,1.576-1.871,2.825,2.3,11.5,2.526,14.451,3.158,25.365,3.63,27.76,1.811,11.726,2.536,14.714a111.194,111.194,0,0,1,2.184,13.491c.11,2.7.042,7.2.042,7.2l-22.585-1.067s-1.259-14.376-1.369-17.8.818-17.68.955-21,2.359-22.641,2.5-25.405.65-8.778.751-11.044-.385-2.485-1.292-4.658a35.647,35.647,0,0,0-2.919-4.982c-1.034-1.771-.905-2.7-1.469-3.264a27.264,27.264,0,0,0-2.892-1.993A20.123,20.123,0,0,0,1381.727,1127.774Z" transform="translate(-1272.284 -996.347)"/></g><g transform="translate(82.922 63.302)"><path class="g" d="M1250.391,786.8a21.076,21.076,0,0,1-3.751-.335c-12.839-2.322-23.4-17.656-24.565-35.666a.649.649,0,0,1,1.3-.084c1.285,19.862,13.066,32.585,23.5,34.473,12,2.169,27.019-6.771,31.656-31.538a.65.65,0,0,1,1.277.24C1275.469,777.036,1262.205,786.8,1250.391,786.8Z" transform="translate(-1222.074 -750.109)"/></g><g transform="translate(93.694 45.371)"><path class="g" d="M1286.012,647.625a.649.649,0,0,1-.328-1.209,11.6,11.6,0,0,1,8.066-1.472.649.649,0,1,1-.215,1.28,10.354,10.354,0,0,0-7.2,1.313A.635.635,0,0,1,1286.012,647.625Z" transform="translate(-1285.363 -644.763)"/></g><g transform="translate(120.572 45.844)"><path class="g" d="M1452.1,650.182a.644.644,0,0,1-.376-.12c-1.967-1.4-5.471-1.505-7.593-.794a.65.65,0,0,1-.41-1.233c2.475-.827,6.429-.69,8.756.971a.648.648,0,0,1-.378,1.177Z" transform="translate(-1443.281 -647.54)"/></g><g transform="translate(107.664 58.412)"><path class="g" d="M1370.041,735.679a.64.64,0,0,1-.326-.087,4.559,4.559,0,0,1-2.267-3.019,3.5,3.5,0,0,1,1.185-2.371,4.266,4.266,0,0,0,.776-1.084,7.624,7.624,0,0,0-.775-6.742.649.649,0,1,1,1.1-.69,8.885,8.885,0,0,1,.906,7.853,4.987,4.987,0,0,1-1.023,1.512c-.424.49-.9,1.046-.872,1.42a3.345,3.345,0,0,0,1.624,2,.649.649,0,0,1-.327,1.21Z" transform="translate(-1367.443 -721.379)"/></g><path class="h" d="M1304.886,713.5a1.9,1.9,0,1,1,1.77,2.38A2.123,2.123,0,0,1,1304.886,713.5Z" transform="translate(-1207.868 -654.556)"/><path class="h" d="M1460.7,713.633a1.9,1.9,0,1,1,1.771,2.381A2.125,2.125,0,0,1,1460.7,713.633Z" transform="translate(-1337.159 -654.668)"/><g transform="translate(102.629 82.223)"><path class="g" d="M1346.59,865.4a12.422,12.422,0,0,1-8.518-3,.649.649,0,1,1,.874-.961c4.35,3.955,11.915,3,16.822.1a.649.649,0,0,1,.662,1.117A19.872,19.872,0,0,1,1346.59,865.4Z" transform="translate(-1337.859 -861.273)"/></g><g transform="translate(133.658 82.634)"><path class="g" d="M1523.019,880.82a.65.65,0,0,1-.606-.413,33.218,33.218,0,0,1-2-16.148.659.659,0,0,1,.723-.567.651.651,0,0,1,.566.723,31.894,31.894,0,0,0,1.922,15.522.651.651,0,0,1-.374.841A.632.632,0,0,1,1523.019,880.82Z" transform="translate(-1520.16 -863.689)"/></g><g transform="translate(92.476 90.311)"><path class="g" d="M1278.937,915.145a.65.65,0,0,1-.625-.831,10.709,10.709,0,0,0-.1-5.257l1.272-.264-.639.115.645-.083a11.879,11.879,0,0,1,.072,5.853A.649.649,0,0,1,1278.937,915.145Z" transform="translate(-1278.209 -908.793)"/></g><g transform="translate(90.155 86.973)"><path class="g" d="M1284,939.615a.621.621,0,0,1-.229-.042.648.648,0,0,1-.377-.836,67.932,67.932,0,0,1,5.794-11.446,22.977,22.977,0,0,1,2.623-3.169l.273-.293a6.952,6.952,0,0,1,.554-.487,7.993,7.993,0,0,0,.959-.882,7.446,7.446,0,0,0-1.441-1.084c-.116-.073-.209-.135-.272-.179a38.881,38.881,0,0,0-3.637-2.143,39.744,39.744,0,0,1-3.786-2.238,61.78,61.78,0,0,1-16.419-16.7c-1.974-3.023-3.921-6.62-3.378-10.381a.649.649,0,1,1,1.285.187c-.48,3.332,1.337,6.665,3.179,9.485A60.479,60.479,0,0,0,1285.2,915.75a39.217,39.217,0,0,0,3.665,2.162,39.708,39.708,0,0,1,3.759,2.22c.054.037.137.09.238.154,1.385.9,2.128,1.519,2.081,2.228-.04.6-.639,1.139-1.48,1.832a5.39,5.39,0,0,0-.427.366l-.274.3a21.84,21.84,0,0,0-2.476,2.978A66.717,66.717,0,0,0,1284.6,939.2.648.648,0,0,1,1284,939.615Zm9.664-17.055Z" transform="translate(-1264.569 -889.182)"/></g><g transform="translate(118.857 119.449)"><path class="g" d="M1435.936,1089.455a.648.648,0,0,1-.639-.54l-.093-.552a29.13,29.13,0,0,0-1.942-7.458.648.648,0,1,1,1.183-.532,30.455,30.455,0,0,1,2.041,7.777l.092.549a.648.648,0,0,1-.531.748A.578.578,0,0,1,1435.936,1089.455Z" transform="translate(-1433.204 -1079.99)"/></g><g transform="translate(127.333 118.38)"><path class="g" d="M1483.653,1084.683a.558.558,0,0,1-.152-.02.648.648,0,0,1-.479-.783,40.563,40.563,0,0,1,3.859-9.834.649.649,0,1,1,1.141.618,39.4,39.4,0,0,0-3.739,9.523A.649.649,0,0,1,1483.653,1084.683Z" transform="translate(-1483.003 -1073.705)"/></g><g transform="translate(132.878 93.607)"><path class="g" d="M1516.228,951.855a.648.648,0,0,1-.532-1.019c6.528-9.4,7.161-16.652,1.887-21.556a.649.649,0,1,1,.885-.949c5.74,5.335,5.151,13.373-1.706,23.244A.649.649,0,0,1,1516.228,951.855Z" transform="translate(-1515.58 -928.157)"/></g><g transform="translate(129.721 95.978)"><path class="g" d="M1514.549,989.549a4.219,4.219,0,0,1-1.8-.857,13.423,13.423,0,0,1-3.717-3.2l-.46-.61a10.225,10.225,0,0,1-1.737-3.039,23.755,23.755,0,0,1-.949-3.167c-.553-2.187-1.125-4.447-2.471-5.679-1.176-1.072-2.115-1.406-2.954-1.055a5.884,5.884,0,0,0-2.116,1.493l-.215.206a.649.649,0,1,1-.9-.934l.211-.2a7.153,7.153,0,0,1,2.516-1.754c2-.845,3.755.763,4.334,1.291,1.635,1.493,2.282,4.057,2.852,6.319a23.223,23.223,0,0,0,.891,2.993,9.147,9.147,0,0,0,1.569,2.745l.47.619a12.173,12.173,0,0,0,3.348,2.869c.1.063.191.121.276.174-.085-.372-.139-.742-.193-1.1-.031-.214-.062-.428-.1-.641a33.562,33.562,0,0,1-.337-6.143c0-.72.01-1.433,0-2.135-.039-2.2.026-4.477.089-6.68.167-5.83.339-11.859-1.345-17.391a36.411,36.411,0,0,0-4.752-9.03c-.332-.514-.669-1.026-1-1.541a.648.648,0,1,1,1.093-.7c.326.511.659,1.019.991,1.528a37.464,37.464,0,0,1,4.906,9.365c1.746,5.733,1.571,11.869,1.4,17.806-.062,2.185-.126,4.449-.087,6.617.011.714.007,1.439,0,2.169a32.66,32.66,0,0,0,.316,5.9c.039.226.074.455.108.683a9.689,9.689,0,0,0,.237,1.25c.173.351.636,1.322-.133,1.743A.673.673,0,0,1,1514.549,989.549Zm.073-1.3Z" transform="translate(-1497.03 -942.089)"/></g><g transform="translate(80.188 85.586)"><path class="g" d="M1233.492,933.875a.65.65,0,0,1-.578-.353c-1.377-2.681-4.693-5.182-7.9-7.6-2.655-2-5.163-3.895-6.7-5.919a69.266,69.266,0,0,1-6.617-11.672c-.43-.889-.857-1.77-1.287-2.636-.513-1.035-1.114-2.06-1.7-3.05-.591-1.009-1.2-2.054-1.737-3.126-.019-.038-.063-.109-.119-.207-.766-1.3-1.08-1.973-.67-2.468a19.037,19.037,0,0,1,1.523-1.582,9.306,9.306,0,0,0,2.474-3.2,21.608,21.608,0,0,0,.859-3.071c.729-3.137,1.636-7.04,4.6-7.927a.648.648,0,1,1,.372,1.242c-2.238.671-3.019,4.022-3.706,6.978a22.149,22.149,0,0,1-.924,3.277,10.519,10.519,0,0,1-2.774,3.641c-.441.423-.863.826-1.257,1.276a10.632,10.632,0,0,0,.625,1.177c.079.135.138.238.162.286.514,1.033,1.113,2.059,1.694,3.049.593,1.009,1.2,2.054,1.738,3.13.432.868.861,1.753,1.295,2.646a68.063,68.063,0,0,0,6.482,11.453c1.426,1.882,3.864,3.722,6.445,5.67,3.324,2.5,6.761,5.1,8.273,8.043a.649.649,0,0,1-.577.945Z" transform="translate(-1206.009 -881.033)"/></g><g transform="translate(144.98 106.072)"><path class="g" d="M1647.115,1049.427a.651.651,0,0,1-.6-.4,35.8,35.8,0,0,1-1.552-5.03c-.335-1.3-.678-2.653-1.131-3.917a39.454,39.454,0,0,0-10.714-16.289c-2.9-2.491-7.238-3.647-11.428-4.764-1.475-.393-2.867-.765-4.167-1.187a143.229,143.229,0,0,1-21.768-9.391c-3.5-1.812-6.37-3.4-8.887-5.95a.65.65,0,0,1,.924-.914c2.382,2.416,5.167,3.953,8.56,5.713a142.129,142.129,0,0,0,21.573,9.307c1.265.413,2.642.779,4.1,1.167,4.13,1.1,8.809,2.349,11.938,5.035a40.773,40.773,0,0,1,11.093,16.836c.472,1.32.824,2.7,1.165,4.033a34.843,34.843,0,0,0,1.493,4.847.651.651,0,0,1-.346.85A.658.658,0,0,1,1647.115,1049.427Z" transform="translate(-1586.682 -1001.395)"/></g><g transform="translate(17.405 96.996)"><path class="g" d="M837.793,969a.657.657,0,0,1-.314-.082.649.649,0,0,1-.252-.883,42.594,42.594,0,0,1,8.151-10.685c7.088-6.671,16.4-7.078,24.571-6.6,8.322.488,17.755,1.043,26.406-.879.6-.133,1.2-.246,1.8-.359a17.958,17.958,0,0,0,4.832-1.372.649.649,0,1,1,.581,1.161,19.283,19.283,0,0,1-5.173,1.487c-.588.11-1.175.22-1.759.349-8.824,1.963-18.356,1.4-26.764.906-7.9-.462-16.877-.085-23.6,6.251a41.244,41.244,0,0,0-7.908,10.368A.649.649,0,0,1,837.793,969Z" transform="translate(-837.145 -948.072)"/></g><g transform="translate(0 122.509)"><path class="g" d="M737.059,1164.039a.649.649,0,0,1-.616-.445c-3.9-11.717.265-23.417,4.478-33.467,4.185-9.98,8.513-20.3,9.767-31.581a.65.65,0,1,1,1.292.143c-1.275,11.468-5.64,21.874-9.86,31.938-4.123,9.832-8.207,21.266-4.445,32.555a.648.648,0,0,1-.41.82A.62.62,0,0,1,737.059,1164.039Z" transform="translate(-734.886 -1097.968)"/></g><g transform="translate(9.553 154.279)"><path class="g" d="M830.783,1290.615a11.03,11.03,0,0,1-1.19-.064c-3.651-.406-7.632-.976-12.524-1.791-1.842-.306-3.746-.75-5.589-1.179-6.594-1.538-13.415-3.129-19.46.9a.649.649,0,1,1-.721-1.079c6.514-4.343,13.611-2.689,20.476-1.086,1.906.444,3.706.865,5.508,1.166,4.869.811,8.827,1.377,12.454,1.779a16.511,16.511,0,0,0,4.522-.325,22.127,22.127,0,0,1,3.613-.393.649.649,0,1,1,0,1.3,20.874,20.874,0,0,0-3.4.375A22.586,22.586,0,0,1,830.783,1290.615Z" transform="translate(-791.01 -1284.624)"/></g><g transform="translate(46.243 159.153)"><path class="g" d="M1016.25,1356.471c-.075,0-.146,0-.217-.008-2.894-.189-5.943-4.077-6.687-6.564-1.787-5.961-5.344-20.828.243-30.141,1.483-2.468,4.386-6.625,7.264-6.492,1.27.046,2.323.883,3.13,2.487a.648.648,0,1,1-1.157.585c-.58-1.151-1.259-1.747-2.021-1.775-1.846-.076-4.374,2.984-6.1,5.864-5.321,8.868-1.851,23.3-.112,29.1.637,2.128,3.368,5.5,5.528,5.642.889.05,1.567-.478,2.088-1.635a.649.649,0,1,1,1.183.531C1018.511,1356.02,1017.237,1356.471,1016.25,1356.471Z" transform="translate(-1006.575 -1313.262)"/></g><g transform="translate(21.686 159.98)"><path class="g" d="M874.8,1368.153a2.906,2.906,0,0,1-2.144-.748c-6.487-6.488-10.362-17.464-10.362-29.364,0-6.692.483-14.974,4.248-19.678a.649.649,0,1,1,1.012.812c-3.55,4.438-3.96,12.892-3.96,18.866,0,11.564,3.731,22.2,9.979,28.446,1.065,1.064,4.559-.36,6.645-1.211a17.368,17.368,0,0,1,2.016-.744,26.749,26.749,0,0,1,5.821-.486c5.389-.084,10.477-.162,10.958-6.125a.663.663,0,0,1,.7-.594.647.647,0,0,1,.594.7c-.576,7.14-7.04,7.24-12.231,7.32a26.037,26.037,0,0,0-5.527.445,18.737,18.737,0,0,0-1.841.689C878.885,1367.223,876.6,1368.153,874.8,1368.153Z" transform="translate(-862.295 -1318.12)"/></g><g transform="translate(3.66 190.665)"><path class="g" d="M780.625,1512.192a14.725,14.725,0,0,1-3.941-.707c-.459-.126-.921-.256-1.39-.367a35.664,35.664,0,0,1-18.759-11.661.649.649,0,0,1,1.011-.815,34.327,34.327,0,0,0,18.048,11.215c.483.111.962.243,1.437.376a11.574,11.574,0,0,0,4.167.635.648.648,0,1,1,.116,1.292C781.081,1512.182,780.851,1512.192,780.625,1512.192Z" transform="translate(-756.391 -1498.401)"/></g><g transform="translate(205.351 156.464)"><path class="g" d="M1951,1365.548c-.025,0-.05,0-.076,0a.651.651,0,0,1-.571-.719c.552-4.762-2.124-21.7-3.106-27.262-2.686-15.207-4.552-27.722-5.866-39.383a.645.645,0,0,1,.573-.717.656.656,0,0,1,.718.572c1.313,11.633,3.172,24.121,5.854,39.3.039.216,3.8,21.777,3.119,27.637A.649.649,0,0,1,1951,1365.548Z" transform="translate(-1941.379 -1297.46)"/></g><g transform="translate(178.736 159.028)"><path class="g" d="M1786.568,1379.656a.649.649,0,0,1-.65-.648c0-4.633.317-9.323.625-13.86a155.622,155.622,0,0,0,.514-18.224c-.347-6.91-.8-13.929-1.236-20.719-.279-4.327-.558-8.66-.814-12.993a.65.65,0,0,1,1.3-.075c.255,4.33.534,8.659.812,12.985.437,6.794.891,13.818,1.239,20.734a156.418,156.418,0,0,1-.517,18.379c-.3,4.515-.621,9.184-.621,13.773A.649.649,0,0,1,1786.568,1379.656Z" transform="translate(-1785.006 -1312.525)"/></g><g transform="translate(40.238 207.776)"><path class="g" d="M974.277,1615.656a.65.65,0,0,1-.643-.558c-.7-4.948-1.465-10.21-2.331-15.408a.65.65,0,0,1,1.282-.214c.867,5.211,1.629,10.484,2.335,15.439a.648.648,0,0,1-.55.734A.562.562,0,0,1,974.277,1615.656Z" transform="translate(-971.293 -1598.935)"/></g><g transform="translate(129.077 150.146)"><path class="g" d="M1504.833,1335.9a.648.648,0,0,1-.648-.648c0-6.1-1.209-12.335-2.377-18.365-.432-2.238-.881-4.553-1.261-6.816-1.1-6.608-1.949-13.351-2.773-19.874-1.2-9.563-2.448-19.45-4.51-29.071a.649.649,0,0,1,1.269-.273c2.074,9.677,3.322,19.592,4.531,29.181.819,6.509,1.668,13.24,2.767,19.825.374,2.244.82,4.55,1.253,6.779,1.178,6.094,2.4,12.392,2.4,18.614A.65.65,0,0,1,1504.833,1335.9Z" transform="translate(-1493.25 -1260.341)"/></g><g transform="translate(51.198 135.69)"><path class="g" d="M1037.293,1199.224a.648.648,0,0,1-.649-.65l0-2.428a135.482,135.482,0,0,0-.952-20,.65.65,0,0,1,.552-.735.642.642,0,0,1,.734.552,136.794,136.794,0,0,1,.966,20.182l0,2.425A.649.649,0,0,1,1037.293,1199.224Z" transform="translate(-1035.689 -1175.407)"/></g><g transform="translate(52.211 139.027)"><path class="g" d="M1080.654,1220.143a.649.649,0,0,1-.434-1.13,7.724,7.724,0,0,0,1.841-3.365,14.666,14.666,0,0,1,1-2.364c.8-1.419,2.673-2.122,4.175-2.687.38-.143.74-.279,1.052-.414,4.657-2.033,8.582-5.354,10.5-8.884a4.764,4.764,0,0,0,.645-3.568,2.2,2.2,0,0,0-1.3-1.319c-.917-.4-2.261.5-3.245,1.157-.211.141-.41.272-.59.382a21.378,21.378,0,0,1-4.741,1.948c-.426.136-.845.271-1.253.41-2.141.73-4.456,1.3-6.694,1.854-4.941,1.222-10.049,2.484-13.933,5.542-1.54,1.211-3.013,2.59-4.435,3.922a51.832,51.832,0,0,1-6.361,5.338c-2.3,1.546-11.814,2.959-14.626,2.815a.649.649,0,0,1-.614-.681.642.642,0,0,1,.682-.616c2.831.145,11.914-1.306,13.834-2.6a50.774,50.774,0,0,0,6.2-5.21c1.443-1.349,2.934-2.747,4.52-3.992,4.1-3.231,9.351-4.527,14.423-5.781,2.315-.573,4.5-1.112,6.588-1.824.415-.141.84-.279,1.275-.417a20.479,20.479,0,0,0,4.455-1.813c.17-.105.353-.229.552-.362,1.232-.82,2.919-1.947,4.484-1.266a3.477,3.477,0,0,1,2.01,2.089,5.938,5.938,0,0,1-.731,4.61c-2.084,3.831-6.139,7.277-11.124,9.452-.33.144-.711.289-1.113.438-1.307.492-2.931,1.106-3.5,2.115a13.6,13.6,0,0,0-.9,2.155,8.78,8.78,0,0,1-2.2,3.9A.637.637,0,0,1,1080.654,1220.143Z" transform="translate(-1041.639 -1195.011)"/></g><g transform="translate(84.66 157.807)"><path class="g" d="M1253.141,1332.784a.67.67,0,0,1-.154-.018.649.649,0,0,1-.478-.785c.77-3.178-.733-5.118-2.942-7.509a49.518,49.518,0,0,0-5.5-4.867,50.317,50.317,0,0,1-5.669-5.024,48.251,48.251,0,0,1-4.464-5.954c-.505-.754-1.012-1.506-1.534-2.249a.649.649,0,1,1,1.061-.748c.528.752,1.04,1.512,1.552,2.275a47.55,47.55,0,0,0,4.338,5.795,49.384,49.384,0,0,0,5.527,4.894,50.2,50.2,0,0,1,5.64,5c2.32,2.514,4.167,4.9,3.25,8.7A.649.649,0,0,1,1253.141,1332.784Z" transform="translate(-1232.285 -1305.352)"/></g><g transform="translate(75.711 171.862)"><path class="g" d="M1207.716,1403.43a.681.681,0,0,1-.315-.078,78.478,78.478,0,0,0-8.438-3.82c-1.549-.628-3.15-1.279-4.714-1.977a94.651,94.651,0,0,1-14.274-8.45.649.649,0,1,1,.763-1.05,93.355,93.355,0,0,0,14.041,8.316c1.543.687,3.135,1.334,4.674,1.958a79.9,79.9,0,0,1,8.576,3.886.648.648,0,0,1-.312,1.216Z" transform="translate(-1179.707 -1387.93)"/></g><g transform="translate(101.38 185.592)"><path class="g" d="M1333.955,1479.694a.649.649,0,0,1-.182-1.273c.855-.249,1.346-.635,1.5-1.18.565-2.049-3.108-5.983-4.315-7.278l-.261-.279a.649.649,0,0,1,.953-.881l.256.274c2.5,2.683,5.29,6.072,4.618,8.508a3.106,3.106,0,0,1-2.387,2.082A.679.679,0,0,1,1333.955,1479.694Z" transform="translate(-1330.523 -1468.595)"/></g><g transform="translate(73.986 184.415)"><path class="g" d="M1198.589,1474.534a.679.679,0,0,1-.154-.018c-7.294-1.765-13.334-3.547-19.1-6.511-1.181-.608-2.314-1.332-3.41-2.031a23.21,23.21,0,0,0-5.879-3.023.649.649,0,1,1,.365-1.245,24.669,24.669,0,0,1,6.214,3.173c1.07.684,2.177,1.391,3.3,1.97,5.653,2.908,11.61,4.661,18.813,6.406a.649.649,0,0,1-.151,1.28Z" transform="translate(-1169.576 -1461.679)"/></g><g transform="translate(71.002 193.901)"><path class="g" d="M1177.118,1526.555c-5.355,0-10.178-1.62-15.646-4.036-3.488-1.541-5.016-2.277-5.837-2.672a14.252,14.252,0,0,0-2.792-1.056l-.351-.112a.648.648,0,1,1,.393-1.236l.351.108a15.344,15.344,0,0,1,2.962,1.126c.815.39,2.333,1.121,5.8,2.654,5.834,2.576,10.9,4.224,16.641,3.88,1.895-.112,4.526-.472,5.519-2.271a.649.649,0,1,1,1.137.626c-1.3,2.363-4.377,2.81-6.577,2.941Q1177.908,1526.555,1177.118,1526.555Z" transform="translate(-1152.039 -1517.411)"/></g><g transform="translate(51.082 197.954)"><path class="g" d="M1068.809,1551.619a19.711,19.711,0,0,1-2.966-.224,31.367,31.367,0,0,1-7.8-2.62c-.822-.358-1.644-.717-2.469-1.051l-.42-.169c-6.287-2.534-12.785-5.16-19.489-5.022a.677.677,0,0,1-.663-.638.649.649,0,0,1,.636-.661c6.943-.145,13.591,2.533,20,5.119l.419.168c.839.338,1.671.7,2.505,1.065a30.357,30.357,0,0,0,7.473,2.525,23.992,23.992,0,0,0,9.919-.87,21.659,21.659,0,0,0,5.88-2.152.649.649,0,1,1,.666,1.113,22.747,22.747,0,0,1-6.229,2.3A30.286,30.286,0,0,1,1068.809,1551.619Z" transform="translate(-1035.003 -1541.227)"/></g><g transform="translate(113.943 126.546)"><path class="g" d="M1408.464,1124.727a.668.668,0,0,1-.129-.013,9.937,9.937,0,0,1-3.557-1.734l-.158-.1a.65.65,0,0,1,.72-1.081l.16.107a8.791,8.791,0,0,0,3.09,1.539.649.649,0,0,1-.127,1.286Z" transform="translate(-1404.331 -1121.687)"/></g><g transform="translate(130.492 125.676)"><path class="g" d="M1502.212,1120.885a.65.65,0,0,1-.24-1.255,9.208,9.208,0,0,0,3.788-2.816.649.649,0,0,1,1.014.811,10.5,10.5,0,0,1-4.323,3.213A.639.639,0,0,1,1502.212,1120.885Z" transform="translate(-1501.562 -1116.572)"/></g><g transform="translate(118.005 127.827)"><path class="g" d="M1445.1,1140.256a.651.651,0,0,1-.651-.649,6.836,6.836,0,0,0-1.05-2.932c-.191-.357-.377-.711-.534-1.053-.19-.41-.355-.88-.53-1.376a7.467,7.467,0,0,0-1.274-2.594,4.965,4.965,0,0,0-2.423-.677l-1.05-.119c-2.942-.343-5.718-.665-8.534.274a.651.651,0,1,1-.412-1.234c3.093-1.027,6.007-.689,9.1-.331l1.041.119a5.532,5.532,0,0,1,3.2,1.048,8.3,8.3,0,0,1,1.581,3.083c.165.467.319.909.484,1.262.148.322.324.652.5.99a7.844,7.844,0,0,1,1.2,3.54A.649.649,0,0,1,1445.1,1140.256Z" transform="translate(-1428.195 -1129.211)"/></g><g transform="translate(114.716 128.772)"><path class="g" d="M1409.523,1145.925a.667.667,0,0,1-.2-.032.651.651,0,0,1-.412-.822,19.06,19.06,0,0,0,.615-3.295c.34-2.564.724-5.472,2.61-6.885a.649.649,0,1,1,.78,1.037c-1.45,1.088-1.781,3.594-2.1,6.018a20.037,20.037,0,0,1-.671,3.535A.645.645,0,0,1,1409.523,1145.925Z" transform="translate(-1408.873 -1134.761)"/></g><g transform="translate(114.717 139.025)"><path class="g" d="M1413.978,1204.135a.65.65,0,0,1-.617-.444,17.022,17.022,0,0,0-2.2-3.94,21.025,21.025,0,0,1-2.232-3.86.649.649,0,1,1,1.2-.482,20.148,20.148,0,0,0,2.1,3.614,18.27,18.27,0,0,1,2.361,4.257.652.652,0,0,1-.411.822A.679.679,0,0,1,1413.978,1204.135Z" transform="translate(-1408.877 -1195.001)"/></g><g transform="translate(122.138 139.967)"><path class="g" d="M1453.129,1210.151a.65.65,0,0,1-.206-1.265,11.133,11.133,0,0,1,3.934-.189c1.8.11,3.667.218,4.479-.591a9.259,9.259,0,0,0,1.443-3.091c.143-.425.278-.82.406-1.142a15.448,15.448,0,0,0,.635-2.2l.157-.648a.65.65,0,1,1,1.261.314l-.153.634a16.682,16.682,0,0,1-.694,2.378c-.121.3-.246.675-.382,1.074a9.738,9.738,0,0,1-1.754,3.6c-1.225,1.224-3.388,1.092-5.476.969a10.532,10.532,0,0,0-3.445.123A.633.633,0,0,1,1453.129,1210.151Z" transform="translate(-1452.48 -1200.535)"/></g><g transform="translate(116.007 150.277)"><path class="g" d="M1418.2,1337.561a.651.651,0,0,1-.651-.648c0-3.45-.276-6.953-.543-10.341a109.9,109.9,0,0,1-.509-12.779c.4-10.713,1.506-21.452,2.574-31.841q.357-3.469.708-6.949c.189-1.894.309-3.849.425-5.739.152-2.5.311-5.087.63-7.59a.65.65,0,0,1,1.29.167c-.316,2.459-.473,5.021-.624,7.5-.118,1.9-.236,3.872-.43,5.786q-.347,3.486-.708,6.956c-1.066,10.368-2.168,21.088-2.568,31.758a109.182,109.182,0,0,0,.506,12.629c.269,3.411.548,6.939.548,10.441A.649.649,0,0,1,1418.2,1337.561Z" transform="translate(-1416.458 -1261.109)"/></g><g transform="translate(109.651 134.72)"><path class="g" d="M1384.468,1174.405a.651.651,0,0,1-.582-.359,7.876,7.876,0,0,0-2.327-1.677,12.264,12.264,0,0,1-1.168-.715c-.3-.226-.536-.4-.708-.553l-.3-.213a.649.649,0,1,1,.754-1.056l.286.2a.118.118,0,0,1,.027.02.006.006,0,0,1,0,0h0a.922.922,0,0,1,.085.083c.1.078.291.223.625.473.213.159.611.388,1.031.628,1.139.648,2.428,1.385,2.847,2.222a.65.65,0,0,1-.291.87A.657.657,0,0,1,1384.468,1174.405Z" transform="translate(-1379.113 -1169.71)"/></g><g transform="translate(134.338 132.295)"><path class="g" d="M1524.807,1160.981a.649.649,0,0,1-.407-1.156,19.547,19.547,0,0,0,3.8-4.072.65.65,0,0,1,1.081.72,21.024,21.024,0,0,1-4.064,4.367A.656.656,0,0,1,1524.807,1160.981Z" transform="translate(-1524.156 -1155.464)"/></g><g transform="translate(100.649 17.717)"><path class="g" d="M1326.871,495.106a.648.648,0,0,1-.648-.65c0-4.183,6.665-6.6,7.424-6.866a22.016,22.016,0,0,1,7.565-.814,22.326,22.326,0,0,0,6.442-.543,18.552,18.552,0,0,0,6.376-3.791.649.649,0,1,1,.845.984,19.793,19.793,0,0,1-6.863,4.055,23.745,23.745,0,0,1-6.812.6,20.67,20.67,0,0,0-7.13.742c-2.265.782-6.549,2.966-6.549,5.638A.65.65,0,0,1,1326.871,495.106Z" transform="translate(-1326.223 -482.284)"/></g><g transform="translate(109.351 26.483)"><path class="g" d="M1402.063,541.3a22.533,22.533,0,0,1-7.1-1.043,34.085,34.085,0,0,1-5.08-2.341c-3.736-1.977-7.266-3.845-11.648-2.2a.649.649,0,0,1-.455-1.215c4.931-1.849,8.884.244,12.711,2.27a33.1,33.1,0,0,0,4.883,2.258c4.629,1.542,9.875.933,13.419.343a.649.649,0,0,1,.214,1.28A42.162,42.162,0,0,1,1402.063,541.3Z" transform="translate(-1377.353 -533.785)"/></g><g transform="translate(129.946 36.716)"><path class="g" d="M1507.828,620.341a.65.65,0,0,1-.648-.649c0-6.093-2.377-10.9-4.892-15.988a70.13,70.13,0,0,1-3.9-8.936.65.65,0,0,1,1.233-.413,68.507,68.507,0,0,0,3.832,8.773c2.584,5.229,5.026,10.168,5.026,16.564A.65.65,0,0,1,1507.828,620.341Z" transform="translate(-1498.354 -593.911)"/></g><g transform="translate(94.2 6.806)"><path class="g" d="M1290.776,443.872a.649.649,0,0,1-.615-.444,33.14,33.14,0,0,1-1.746-8.226c-.86-7.837,5.663-14.03,11.51-16.955a.649.649,0,0,1,.581,1.161c-5.474,2.738-11.587,8.478-10.8,15.653a31.65,31.65,0,0,0,1.687,7.956.65.65,0,0,1-.412.821A.637.637,0,0,1,1290.776,443.872Z" transform="translate(-1288.338 -418.179)"/></g><g transform="translate(111.515)"><path class="g" d="M1390.718,383.9a.65.65,0,0,1-.156-1.28,26.243,26.243,0,0,1,5.025-.49c4.039-.156,8.616-.331,10.242-3.583a.65.65,0,0,1,1.163.581c-1.971,3.939-6.956,4.131-11.355,4.3a25.254,25.254,0,0,0-4.76.453A.69.69,0,0,1,1390.718,383.9Z" transform="translate(-1390.069 -378.193)"/></g><g transform="translate(129.806 4.032)"><path class="g" d="M1498.178,406.856a.649.649,0,0,1-.079-1.294,5.994,5.994,0,0,0,4.769-3.324.649.649,0,1,1,1.162.58,7.351,7.351,0,0,1-5.773,4.032A.594.594,0,0,1,1498.178,406.856Z" transform="translate(-1497.528 -401.88)"/></g><g transform="translate(84.482 35.982)"><path class="g" d="M1232.365,613.328a.65.65,0,0,1-.632-.5c-1.5-6.389.675-16.995,3.337-19.951a14.52,14.52,0,0,1,2.4-2.356,1.973,1.973,0,0,0,.27-.471l.047-.093a.65.65,0,1,1,1.162.58l-.048.094c-.306.613-.36.724-.683.951a13.937,13.937,0,0,0-2.187,2.164c-2.224,2.471-4.52,12.485-3.038,18.786a.652.652,0,0,1-.483.782A.7.7,0,0,1,1232.365,613.328Z" transform="translate(-1231.241 -589.596)"/></g><g transform="translate(76.225 54.776)"><path class="g" d="M1190.269,717.087a5.6,5.6,0,0,1-4.2-1.937c-2.459-2.635-3.544-7.577-3.314-10.889a4.659,4.659,0,0,1,2.428-4.039,2.989,2.989,0,0,1,3.178.684.649.649,0,0,1-.847.985,1.714,1.714,0,0,0-1.831-.47,3.4,3.4,0,0,0-1.632,2.929c-.214,3.081.837,7.632,2.967,9.914a4.352,4.352,0,0,0,3.25,1.525.649.649,0,0,1,0,1.3Z" transform="translate(-1182.725 -700.014)"/></g><g transform="translate(87.359 3.704)"><path class="g" d="M1249.565,419.518a.649.649,0,0,1-.54-.289c-1.375-2.063-.94-5.572-.076-8.167,2.007-6.021,9.419-11.108,16.185-11.108a.649.649,0,1,1,0,1.3c-6.151,0-13.138,4.776-14.953,10.221-.732,2.2-1.193,5.36-.078,7.035a.649.649,0,0,1-.538,1.01Z" transform="translate(-1248.142 -399.955)"/></g><g transform="translate(78.503 14.407)"><path class="g" d="M1197.7,502.261a.65.65,0,0,1-.648-.65c0-2.739-.221-5.575-.454-8.579-.652-8.424-1.325-17.135,2.868-24.473a23.181,23.181,0,0,1,4.091-4.866l.673-.665a.649.649,0,0,1,.919.918l-.679.672a21.963,21.963,0,0,0-3.875,4.583c-3.995,6.993-3.337,15.5-2.7,23.731.234,3.029.455,5.89.455,8.678A.651.651,0,0,1,1197.7,502.261Z" transform="translate(-1196.11 -462.837)"/></g><g transform="translate(78.895 61.21)"><path class="g" d="M1201.912,743.2a.65.65,0,0,1-.549-.3c-.287-.455-.524-.89-.751-1.313a7.706,7.706,0,0,0-1.96-2.616.649.649,0,0,1,.822-1.006,8.833,8.833,0,0,1,2.28,3.007c.217.4.438.808.707,1.234a.649.649,0,0,1-.548,1Z" transform="translate(-1198.415 -737.82)"/></g><g transform="translate(138.965 52.581)"><path class="g" d="M1552.321,706.665a2.191,2.191,0,0,1-.474-.05.649.649,0,0,1,.284-1.266c.82.184,2.692-.889,3.622-1.707,3.759-3.3,4.116-8.622,3.2-12.506a3.591,3.591,0,0,0-2.24-2.677,1.694,1.694,0,0,0-1.73.755.65.65,0,0,1-1.005-.823,2.968,2.968,0,0,1,3.026-1.2,4.8,4.8,0,0,1,3.212,3.643c1.007,4.252.59,10.1-3.6,13.782C1555.957,705.191,1553.9,706.665,1552.321,706.665Z" transform="translate(-1551.34 -687.119)"/></g><g transform="translate(140.581 59.289)"><path class="g" d="M1561.484,731.213a.65.65,0,0,1-.559-.977l.228-.4c.714-1.254,1.6-2.812,3.124-3.276a.65.65,0,1,1,.376,1.244c-1.028.311-1.772,1.621-2.369,2.673l-.24.416A.645.645,0,0,1,1561.484,731.213Z" transform="translate(-1560.835 -726.53)"/></g><g transform="translate(138.161 13.042)"><path class="g" d="M1553.372,493.3a.65.65,0,0,1-.646-.592,36.711,36.711,0,0,1,.247-6.687c.131-1.339.265-2.721.3-4.026.285-10.735-.012-18.89-6.485-26.1a.649.649,0,1,1,.965-.868c7.318,8.15,7.052,18.164,6.818,27-.036,1.351-.174,2.756-.305,4.117a35.667,35.667,0,0,0-.246,6.448.649.649,0,0,1-.59.7Z" transform="translate(-1546.62 -454.818)"/></g></g></g></g></g></svg>