<svg xmlns="http://www.w3.org/2000/svg" width="196.41" height="135.846" viewBox="0 0 196.41 135.846"><defs><style>.a{fill:#dfe3ec;}.a,.c,.d,.e,.f,.h{fill-rule:evenodd;}.b{fill:#864833;}.c{fill:#deb490;}.d{fill:#fff;}.e{fill:#a98773;}.f{fill:#aab8d6;}.g,.h{fill:#384154;}</style></defs><g transform="translate(-339.433 -201.3)"><g transform="translate(339.433 201.3)"><path class="a" d="M501.62,333.774c27.1-8.011,34.7-29.012,34.054-50.034-.754-24.522-13.669-49.644-34.377-62.971-34.88-22.448-94.515-28.366-128.5-2.277-17.646,13.545-26.786,32.5-30.292,44.539-4.629,15.9-8.319,55.459,22.7,67.774,24.072,9.557,43.785,3.291,63.264,3.214C443.189,333.961,476.337,341.247,501.62,333.774Z" transform="translate(-339.433 -201.3)"/><g transform="translate(137.548 10.246)"><path class="b" d="M1786.261,309.667a.241.241,0,0,1-.009-.482l.855-.035a52.864,52.864,0,0,1,5.384-.03.241.241,0,0,1,.228.254.233.233,0,0,1-.254.228,51.879,51.879,0,0,0-5.337.03l-.857.035Z" transform="translate(-1786.019 -309.062)"/></g></g><g transform="translate(377.3 219.611)"><path class="c" d="M1299.794,577.585a1.053,1.053,0,0,1-.263.288c-.042.023,0-.1,0-.144v-.575a8.375,8.375,0,0,1,.048-1.149c.206-1.445.48-2.925.766-4.358a35.066,35.066,0,0,0,.048-12.692,23.235,23.235,0,0,1-.1-7.807,9.735,9.735,0,0,1,1.053-3.449,14.486,14.486,0,0,1,1.172-1.548s2.867-1.515,3.423-2.905a15.656,15.656,0,0,0,.625-1.581,6.24,6.24,0,0,0,.427-2.127,1.885,1.885,0,0,0-.259-.734c-.5-.575-1.4-.66-1.8-1.45a7.594,7.594,0,0,1-.9-3.912,3.569,3.569,0,0,1,2-2.6c.335-.112.8.05,1.149,0,.655-.094,1.174-2.017,1.726-2.368,4.154-2.644,8.727-7.829,14.462-5.679,2.157.809,2.5,3.43,3.783,5.029a17.474,17.474,0,0,1,3.161,5.46,5.443,5.443,0,0,1,.479,2.491,12.049,12.049,0,0,1-.749,2.264s.3.81.365,1.133a3.389,3.389,0,0,1-.475,2.8,7.442,7.442,0,0,1-1.846,1.718c-.528.352-1.53.263-1.92.75-1.2,1.5-2.2,3.69-3.8,4.891-.8.6-2.612,1.8-2.612,1.8s.008.5.169.642a4.841,4.841,0,0,1,1.389,1.533c.335.837-.492,2.464-.719,3.257-1.18,4.13-4.926,7.711-8.046,10.44-1.921,1.681-3.755,3.465-5.652,5.173-1.059.953-2.211,1.828-3.209,2.826a23.155,23.155,0,0,1-2.586,1.772C1300.64,577.124,1300.184,577.115,1299.794,577.585Z" transform="translate(-1246.09 -510.076)"/><path class="d" d="M1447.39,745.7s-1.015-.367-1.352-.458c-1.156-.308-2.1-.564-2.961-.82s-1.578-.761-1.991-.554c-.108.055.032.746.054,1.076a5.614,5.614,0,0,0,.873,2.13,2.877,2.877,0,0,0,1.5.958,1.908,1.908,0,0,0,1.2,0,7.383,7.383,0,0,0,2.02-1.393A3.753,3.753,0,0,0,1447.39,745.7Z" transform="translate(-1374.166 -710.549)"/><path class="e" d="M1324.464,415.952s-1.39-.128-1.535-.994c-.046-.275.259-1.282.15-1.5-.166-.332-.454-.463-.379-.916s.666-1.015.553-1.465c-.181-.724-1.4-.945-1.564-1.788a1.876,1.876,0,0,1,.569-1.453c.228-.207.674-.3.758-.632.067-.266-.141-.914-.042-1.163.152-.38.941-.511.985-.863.071-.569-.994-.774-.627-1.417.463-.811,1.886-.819,2.326-1.552.383-.638-.537-1.292-.114-1.8.505-.606,1.906-.785,2.448-1.328.634-.634.012-1.3.772-1.953a2.885,2.885,0,0,1,2.082-.865,7.079,7.079,0,0,0,1.7-.071c.786-.157.415-.666,1.209-.864a2.237,2.237,0,0,1,1.3.156,5.926,5.926,0,0,0,.91.318,6.318,6.318,0,0,1,1.8-.884c.6-.1,1.306.209,1.843.074a2.136,2.136,0,0,0,.715-.454,3.066,3.066,0,0,1,2.21-.632c.26.065.712.15.884.379.228.3.014.488.475.6.763.191,1.136-.435,1.947-.233a5.933,5.933,0,0,1,1.116.229c.366.274.746.357,1.042.726.259.323.4.8.853.916,1.446.361,2.7-.521,4.006.455.265.2.258.739.258,1.029,0,.621-.22,1.71.342,2.179.457.381,1.737.442,2.192.784.613.46.038.635.466,1.206.337.449.832.59,1.105,1.137.35.7-.565,1.468-.379,2.211.2.808,1.378,1.053,1.6,1.922.236.945-.916,1.058-1.115,1.855s.9,2.452,1.09,3.2c.264,1.057-1.117,1.055-1.287,1.9-.135.676.61,1.285.469,1.991s-1.948.477-2.126,1.1c-.256.895.575,1.275.234,2.126a5,5,0,0,1-1.324,1.256c-.315.236.159.578-.094.916s-.634.261-.854.629c-.184.306-.091,1.109-.455,1.291a3.73,3.73,0,0,1-.617.259c-.344.057-.4.553-.6.724a3.112,3.112,0,0,1-1.276.264c-.061-.122.2-.588.2-.735a3.555,3.555,0,0,0-.466-1.612,3.427,3.427,0,0,0-.88-.6l.865-2.963a1.125,1.125,0,0,1-.34-.761c.041-.406.3-1.1.063-1.485-.342-.57-.9-.4-1.326-.821-.339-.339.261-1.362-.211-1.6-.747-.373-1.6.835-2.347.461-.476-.238-.19-1.432-.513-1.756-.419-.419-1.536.19-1.708-.5-.112-.448.568-1.762.27-2.135-.667-.833-2.177-.591-2.945-1.36-.361-.361-.145-.834-.253-1.263-.084-.337-.612-.581-.916-.632-.809-.135-1.016.688-1.674.853-.512.128-1.418-.646-1.832-.094-.484.645.236,1.414-.663,1.863a1.77,1.77,0,0,1-.885.126c-.3-.061-.711-.517-1.042-.253-.706.564-.368,1.391-.933,1.956-.59.589-1.494.047-2.1.35-.629.315-.237,1-.6,1.453a1.194,1.194,0,0,1-1.182.251c-.175-.035.1.6-.731,1.087s-1.524-.3-2.287-.107a1.672,1.672,0,0,0-1.11.559C1324.774,415.465,1324.464,415.952,1324.464,415.952Z" transform="translate(-1266.145 -393.87)"/><path class="f" d="M738.582,757.261s1.8.135,2.378.172a21.3,21.3,0,0,0,3.378.131c2.178-.2,4.9-.2,7.3-.428,2.884-.278,5.314-.782,6.05-.876,1.347-.172,3.337-.655,4.6-.81.256-.031,1.625-.538,1.625-.538s-.389,1.7-.409,1.773c-.265.971-.4,2-.6,2.984-.031.152-.216,1.089-.216,1.089s3.578.287,4.2.463,2.647.475,3.929.735a49.64,49.64,0,0,1,6.739,1.374c1.528.544,3.051,1.033,4.561,1.684a15.675,15.675,0,0,1,5.544,3.953,5.443,5.443,0,0,1,1.066,1.987c.078.236.534,1.5.534,1.5s1.69-.61,2.354-.823c1.648-.529,3.289-1.149,4.954-1.62,4.2-1.188,20.783-6.854,20.783-6.854a19.061,19.061,0,0,1,3.44,1.425c1.037.676,2.587,1.928,3.922,2.918,2.8,2.077,5.154,4.66,8.229,6.427a28.957,28.957,0,0,0,5.7,3.2,13.337,13.337,0,0,0,5.628.668c.689-.095,2.767-.822,4.112-3.724a28.771,28.771,0,0,0,1.518-9.248,17.711,17.711,0,0,0-.536-4.312,11.9,11.9,0,0,0-2.936-5.913s-8.293,11.8-9.125,9.936c-.276-.617-.085-1.687-.445-2.23a9.167,9.167,0,0,1-.981-1.3,7.957,7.957,0,0,1,0-1.976s-1.6-1.478-1.558-2.812a3.994,3.994,0,0,1,.259-1,13.988,13.988,0,0,0-.945-2.141,21.736,21.736,0,0,0-6.332-5.442,21.964,21.964,0,0,0-5.631-1.728,10.013,10.013,0,0,1-3.35-1.286,31.832,31.832,0,0,1-3.076-2.807,1.882,1.882,0,0,0-1.091-.528l-.728-1.584s-.787.608-1.009.739-1.15.657-1.15.657.391,1.1.47,1.209a5,5,0,0,1,.56.925s-2.009,4.12-2.635,5c-2.145,3.016-3.579,4.09-6.659,6.131a25.59,25.59,0,0,0-6.259,5.154,16.891,16.891,0,0,0-1.444,2.414,12.556,12.556,0,0,1-1.7,2.654,13.05,13.05,0,0,0-1.662,2.164,5.908,5.908,0,0,1-.254-1.073c.05-.551.076-1.316.186-1.86.415-2.047,1.075-4.246,1.416-5.494a9.1,9.1,0,0,0,.136-3.984c-.581-2.831-1.933-5.876-1.757-9.166a23.018,23.018,0,0,1,1.168-6.3c.244-.547,1.266-2.624,1.266-2.624a7.534,7.534,0,0,0,2.645-1.921c.226-.265,1.252-2.032,1.252-2.032a7.967,7.967,0,0,0-2.233.348,11.871,11.871,0,0,0-2.812,1.863s-1.316.142-2.507.288c-1.531.187-3.044.913-4.565,1.033a55.033,55.033,0,0,1-7.838-.36c-2.315-.147-4.882-.063-7.107-.068-3.247-.008-7.661,1.329-10.694,2.331-1.853.613-4.888,1.7-7.842,2.7-2.537.867-5.129,1.709-5.548,1.821-.907.242-2.322.469-2.322.469L737.675,753.8Z" transform="translate(-737.675 -700.112)"/><path class="c" d="M1751,797.126s-.125.252.979.843a6.042,6.042,0,0,0,3.544.384c2.159-.576,3-1.771,3.736-3.736a5.238,5.238,0,0,0,.623-2.442c-.116-.811-.786-1.46-.862-2.3a10.3,10.3,0,0,0-.208-2.761c-.265-.619-.994-.853-1.268-1.471-.3-.682-.126-1.5-.418-2.185-.254-.594-1.531-1.163-1.919-1.648-.491-.613-.34-1.474-.866-2.088a4.52,4.52,0,0,0-2.184-1.36,4.9,4.9,0,0,1-2.143-1.443,4.565,4.565,0,0,1-.812-2.707,12.035,12.035,0,0,1,.221-2.761,9.363,9.363,0,0,0-.077-2.843,14.971,14.971,0,0,0-.228-2.239,1.635,1.635,0,0,0-1.275-1.169,1.609,1.609,0,0,0-1.431.68,8.186,8.186,0,0,0-1.062,2.292c-.725,2.176-.085,4.513-.245,6.756a27.964,27.964,0,0,1-.5,4.073,10.582,10.582,0,0,0-.14,3.013,13.427,13.427,0,0,0,1.134,3,4.294,4.294,0,0,0-.26,2.221,2.333,2.333,0,0,0,.707,1.154c.146.091.851.462.851.462a6.454,6.454,0,0,0-.2,1.6c.132.791,1.37,1.485,1.37,1.485a6.657,6.657,0,0,0-.029,1.63,3.025,3.025,0,0,0,1.442,1.63,3.752,3.752,0,0,0,.508,1.088A2.749,2.749,0,0,0,1751,797.126Z" transform="translate(-1648.685 -729.886)"/></g><g transform="translate(349.819 202.114)"><g transform="translate(34.219 51.681)"><path class="g" d="M808.777,762.046a.241.241,0,0,1-.042-.479,72.051,72.051,0,0,0,10.13-3.081c5.581-1.97,11.907-4.2,17.012-4.284a76.694,76.694,0,0,1,8.343.324,35.982,35.982,0,0,0,5.031.186,15.264,15.264,0,0,0,3.569-.671,13.73,13.73,0,0,1,3.961-.661.241.241,0,1,1,0,.482,13.15,13.15,0,0,0-3.831.643,15.68,15.68,0,0,1-3.675.688,36.358,36.358,0,0,1-5.1-.188,74.634,74.634,0,0,0-8.3-.322c-5.025.08-11.312,2.3-16.858,4.256a72.3,72.3,0,0,1-10.205,3.1A.237.237,0,0,1,808.777,762.046Z" transform="translate(-808.536 -753.381)"/></g><g transform="translate(123.836 67.331)"><path class="g" d="M1752.918,927.281h-.027a1.864,1.864,0,0,1-1.333-.842,2.911,2.911,0,0,1-.449-2.23c.533-2.132,2.485-4.651,3.995-6.161a.241.241,0,1,1,.341.341c-1.466,1.466-3.358,3.9-3.867,5.937a2.437,2.437,0,0,0,.377,1.838,1.413,1.413,0,0,0,.99.638.241.241,0,0,1-.026.481Z" transform="translate(-1751.043 -917.976)"/></g><g transform="translate(125.204 70.524)"><path class="g" d="M1767.566,960.757a2.158,2.158,0,0,1-1.714-.835,2.2,2.2,0,0,1-.006-2.59,14.114,14.114,0,0,1,2.508-2.595,12.018,12.018,0,0,0,2.791-3.039.241.241,0,1,1,.435.207,12.241,12.241,0,0,1-2.906,3.193,13.843,13.843,0,0,0-2.418,2.49,1.74,1.74,0,0,0-.02,2.041,1.69,1.69,0,0,0,1.832.571,18.351,18.351,0,0,0,2.77-1.325,23.176,23.176,0,0,1,3.646-1.714.241.241,0,1,1,.146.46,22.831,22.831,0,0,0-3.563,1.679,18.492,18.492,0,0,1-2.857,1.362A2.173,2.173,0,0,1,1767.566,960.757Z" transform="translate(-1765.429 -951.56)"/></g><g transform="translate(126.482 79.43)"><path class="g" d="M1780.842,1048.666a1.726,1.726,0,0,1-1.3-.586,3.028,3.028,0,0,1-.59-2.682.241.241,0,1,1,.468.117,2.564,2.564,0,0,0,.479,2.24,1.249,1.249,0,0,0,1.155.411,16.7,16.7,0,0,0,6.229-2.634.241.241,0,0,1,.268.4,17.2,17.2,0,0,1-6.423,2.709A1.877,1.877,0,0,1,1780.842,1048.666Z" transform="translate(-1778.864 -1045.216)"/></g><g transform="translate(123.059 52.576)"><path class="g" d="M1751.036,795.389a3.09,3.09,0,0,1-3.155-2.288.241.241,0,0,1,.189-.284.244.244,0,0,1,.283.189,2.7,2.7,0,0,0,3.135,1.866,10.851,10.851,0,0,0,5.432-2.734,7.425,7.425,0,0,0,.772-.8,1.9,1.9,0,0,0,.141-2.472,5.545,5.545,0,0,1-.528-1.449,4.261,4.261,0,0,1-.013-1.1,3.193,3.193,0,0,0-.043-1.12,1.822,1.822,0,0,0-.63-.806,2.56,2.56,0,0,1-.71-.851,3.482,3.482,0,0,1-.244-1.136,2.147,2.147,0,0,0-.343-1.182,3.577,3.577,0,0,0-.819-.742,3.62,3.62,0,0,1-.97-.927,2.882,2.882,0,0,1-.339-.834,2.45,2.45,0,0,0-.813-1.387,7.683,7.683,0,0,0-1.441-.807c-1.107-.533-2.363-1.137-2.857-2.125a6.787,6.787,0,0,1-.359-4.382,10.953,10.953,0,0,0,.181-2.373c-.147-2.206-.321-3.92-1.083-4.246a1.184,1.184,0,0,0-1.073.02c-.739.389-1.358,1.583-1.7,3.276a20.039,20.039,0,0,0-.154,4.28,20.415,20.415,0,0,1-.111,3.939l-.044.252c-.388,2.216-.871,4.974.606,7.483a.241.241,0,0,1-.415.245c-1.567-2.662-1.068-5.517-.666-7.811l.044-.251a20.119,20.119,0,0,0,.1-3.842,20.325,20.325,0,0,1,.163-4.39c.373-1.863,1.063-3.144,1.945-3.608a1.657,1.657,0,0,1,1.487-.036c1.016.435,1.21,2.2,1.374,4.658a11.343,11.343,0,0,1-.186,2.477,6.318,6.318,0,0,0,.314,4.1,5.621,5.621,0,0,0,2.635,1.906,7.955,7.955,0,0,1,1.542.872,2.894,2.894,0,0,1,.967,1.624,2.428,2.428,0,0,0,.277.7,3.19,3.19,0,0,0,.853.8,4.019,4.019,0,0,1,.92.843,2.592,2.592,0,0,1,.438,1.426,3.044,3.044,0,0,0,.2.986,2.159,2.159,0,0,0,.59.687,2.211,2.211,0,0,1,.772,1.034,3.6,3.6,0,0,1,.06,1.288,3.82,3.82,0,0,0,.007.976,5.066,5.066,0,0,0,.488,1.326,2.345,2.345,0,0,1-.2,2.982,7.88,7.88,0,0,1-.825.857,11.338,11.338,0,0,1-5.683,2.854A3.472,3.472,0,0,1,1751.036,795.389Z" transform="translate(-1742.863 -762.797)"/></g><g transform="translate(103.765 58.385)"><path class="g" d="M1558.28,834.9a.24.24,0,0,1-.18-.081c-3.5-3.936-5.848-4.613-7.915-5.211a20.9,20.9,0,0,0-2.116-.469,10.118,10.118,0,0,1-3.723-1.233,8.893,8.893,0,0,1-2.109-1.878,5.12,5.12,0,0,0-2.125-1.676.241.241,0,1,1,.16-.455,5.56,5.56,0,0,1,2.325,1.81,8.4,8.4,0,0,0,2,1.785,9.608,9.608,0,0,0,3.562,1.172,21.265,21.265,0,0,1,2.162.48c2.13.616,4.544,1.314,8.141,5.354a.241.241,0,0,1-.18.4Z" transform="translate(-1539.951 -823.889)"/></g><g transform="translate(106.402 71.546)"><path class="g" d="M1593.59,986.182a13.827,13.827,0,0,1-6.689-1.976,65.5,65.5,0,0,1-10.672-7.926c-.52-.451-1.063-.922-1.645-1.422-1.665-1.431-4.81-3.526-6.645-3.4a.246.246,0,0,1-.256-.225.241.241,0,0,1,.225-.256c2.138-.133,5.505,2.238,6.99,3.514.583.5,1.127.973,1.647,1.424a65.084,65.084,0,0,0,10.6,7.876c2.85,1.716,8.079,3.184,10.808.2,2.529-2.767,2.872-7.887,2.714-11.7a16.547,16.547,0,0,0-3.411-9.6.241.241,0,1,1,.382-.294,17.021,17.021,0,0,1,3.511,9.874c.161,3.9-.2,9.152-2.84,12.04A6.161,6.161,0,0,1,1593.59,986.182Z" transform="translate(-1567.682 -962.305)"/></g><g transform="translate(104.178 72.798)"><path class="g" d="M1544.536,984.324a.245.245,0,0,1-.112-.027.241.241,0,0,1-.1-.325,21.719,21.719,0,0,1,8.851-8.473.241.241,0,1,1,.21.434,21.178,21.178,0,0,0-8.634,8.262A.241.241,0,0,1,1544.536,984.324Z" transform="translate(-1544.295 -975.475)"/></g><g transform="translate(79.722 59.315)"><path class="g" d="M1287.339,864.007a.23.23,0,0,1-.061-.008.241.241,0,0,1-.172-.294l.033-.126c.762-2.907,1.364-5.2,3.314-7.329a14.5,14.5,0,0,0,2.024-3.059,10.838,10.838,0,0,1,2.25-3.174,52.973,52.973,0,0,1,7.322-5.389c2.52-1.5,7.381-7.82,7.339-10.715a.241.241,0,0,1,.237-.245h0a.241.241,0,0,1,.241.238c.046,3.09-4.907,9.549-7.574,11.137a52.509,52.509,0,0,0-7.249,5.335,10.486,10.486,0,0,0-2.145,3.043,14.879,14.879,0,0,1-2.092,3.155c-1.869,2.039-2.457,4.284-3.2,7.126l-.033.126A.241.241,0,0,1,1287.339,864.007Z" transform="translate(-1287.097 -833.668)"/></g><g transform="translate(81.238 51.683)"><path class="g" d="M1303.431,786.063a.242.242,0,0,1-.235-.189c-.415-1.879.23-4.057.853-6.163a15.5,15.5,0,0,0,.9-4.557,23.477,23.477,0,0,0-.941-5,20.953,20.953,0,0,1-.967-5.854,21.911,21.911,0,0,1,1.913-8.242,10.465,10.465,0,0,1,2.044-2.6.241.241,0,0,1,.3.38,10.188,10.188,0,0,0-1.9,2.417,21.432,21.432,0,0,0-1.87,8.06,20.607,20.607,0,0,0,.952,5.716,23.8,23.8,0,0,1,.956,5.105,15.8,15.8,0,0,1-.924,4.71c-.606,2.048-1.233,4.165-.845,5.923a.241.241,0,0,1-.183.287A.248.248,0,0,1,1303.431,786.063Z" transform="translate(-1303.041 -753.41)"/></g><g transform="translate(69.774 49.428)"><path class="g" d="M1195.853,752.6a.24.24,0,0,1-.164-.064,13.819,13.819,0,0,1-1.191-1.324c-1.034-1.25-2.1-2.541-3.65-2.366-1.781.2-8.174-.476-8.366-1.523-.124-.669.616-1.27,1.84-2.266a25.837,25.837,0,0,0,3.889-3.716,27.917,27.917,0,0,0,2.564-3.578,29.333,29.333,0,0,1,2.49-3.507l.158-.2c1.075-1.343,3.311-4.137,6.895-4.368a.248.248,0,0,1,.256.225.241.241,0,0,1-.225.256c-3.371.217-5.518,2.9-6.549,4.188l-.16.2a28.915,28.915,0,0,0-2.454,3.458,28.676,28.676,0,0,1-2.6,3.63,26.277,26.277,0,0,1-3.957,3.784c-.973.791-1.742,1.416-1.67,1.8.316.521,5.6,1.384,7.838,1.131,1.8-.209,3.012,1.252,4.076,2.538a13.513,13.513,0,0,0,1.147,1.278.241.241,0,0,1-.164.418Z" transform="translate(-1182.468 -729.687)"/></g><g transform="translate(89.942 57.096)"><path class="g" d="M1402.446,833.629a.544.544,0,0,1-.341-.126c-.655-.515-.983-2.86-.968-4.355v-.066c.021-1.948-.04-3.143-1.471-3.191a12.913,12.913,0,0,0-4.641,1.2l-.114.048a.241.241,0,0,1-.185-.446l.114-.047a13.212,13.212,0,0,1,4.842-1.235c1.975.065,1.956,1.9,1.938,3.677v.066c-.017,1.68.372,3.647.784,3.971.035.028.047.023.05.022.312-.08.809-1.275,1.288-2.43.359-.865.766-1.845,1.266-2.846.381-.761.772-1.493,1.152-2.2a28.043,28.043,0,0,0,2.308-5.06,15.215,15.215,0,0,0-.689-9.933.241.241,0,1,1,.44-.2,15.491,15.491,0,0,1,.712,10.267,28.405,28.405,0,0,1-2.345,5.15c-.378.706-.768,1.436-1.146,2.191-.493.985-.9,1.958-1.252,2.815-.722,1.738-1.092,2.579-1.615,2.712A.5.5,0,0,1,1402.446,833.629Z" transform="translate(-1394.578 -810.334)"/></g><g transform="translate(88.575 50.499)"><path class="g" d="M1389.281,749.866a8.341,8.341,0,0,1-2.17-.292c-2.091-.561-5.769-2.39-6.9-8.331a.241.241,0,1,1,.474-.09c1.087,5.683,4.574,7.423,6.557,7.955,6.078,1.632,10.383-4.416,11.529-6.884a.241.241,0,1,1,.437.2C1398.148,744.7,1394.519,749.866,1389.281,749.866Z" transform="translate(-1380.202 -740.956)"/></g><g transform="translate(85.098 38.013)"><path class="g" d="M1346.222,617.555l-.029,0a2.544,2.544,0,0,1-1.6-1.2,5.448,5.448,0,0,1-.83-4.257c.334-1.352,1.061-2.258,1.944-2.424a2.014,2.014,0,0,1,1.985,1.01.241.241,0,0,1-.395.277,1.541,1.541,0,0,0-1.5-.814c-.692.13-1.277.9-1.565,2.066a4.95,4.95,0,0,0,.759,3.866,2.127,2.127,0,0,0,1.256,1,.241.241,0,0,1-.028.481Z" transform="translate(-1343.629 -609.644)"/></g><g transform="translate(107.905 45.4)"><path class="g" d="M1583.857,693.563c-.047,0-.094,0-.141,0a.241.241,0,0,1,.028-.481,3.663,3.663,0,0,0,2.972-1.961,3.036,3.036,0,0,0,.341-2.688.95.95,0,0,0-.642-.626.241.241,0,1,1,.091-.473,1.409,1.409,0,0,1,1,.912,3.493,3.493,0,0,1-.383,3.14A4.212,4.212,0,0,1,1583.857,693.563Z" transform="translate(-1583.489 -687.325)"/></g><g transform="translate(98.656 42.785)"><path class="g" d="M1486.461,665.017a.241.241,0,0,1-.1-.461c1.165-.519,1.083-.925.933-1.661a3.355,3.355,0,0,1,.575-2.968.241.241,0,1,1,.395.277,2.867,2.867,0,0,0-.5,2.594c.159.782.31,1.521-1.209,2.2A.235.235,0,0,1,1486.461,665.017Z" transform="translate(-1486.22 -659.823)"/></g><g transform="translate(93.821 37.741)"><path class="g" d="M1439.431,608.166a.24.24,0,0,1-.163-.064,4.811,4.811,0,0,0-3.6-.764.241.241,0,0,1-.119-.468,5.231,5.231,0,0,1,4.043.877.241.241,0,0,1-.163.418Z" transform="translate(-1435.369 -606.774)"/></g><g transform="translate(104.213 40.947)"><path class="g" d="M1548.046,641.938a.241.241,0,0,1-.193-.1,3.48,3.48,0,0,0-2.9-.818.241.241,0,1,1-.084-.475,3.9,3.9,0,0,1,3.37,1,.241.241,0,0,1-.048.338A.239.239,0,0,1,1548.046,641.938Z" transform="translate(-1544.669 -640.498)"/></g><g transform="translate(87.199 40.949)"><path class="g" d="M1366.737,642.989a.241.241,0,0,1-.239-.214,4.209,4.209,0,0,0-.72-1.875.241.241,0,0,1,.383-.292,4.656,4.656,0,0,1,.816,2.113.242.242,0,0,1-.213.267Z" transform="translate(-1365.729 -640.513)"/></g><g transform="translate(109.976 42.618)"><path class="g" d="M1605.51,662.366a.241.241,0,0,1-.224-.329c.007-.017.689-1.759,1.262-3.789a.241.241,0,0,1,.464.131c-.58,2.054-1.271,3.817-1.278,3.834A.241.241,0,0,1,1605.51,662.366Z" transform="translate(-1605.269 -658.072)"/></g><path class="h" d="M1440.714,641.142a.959.959,0,0,1,1.176-.693,1.009,1.009,0,0,1,.472,1.311.958.958,0,0,1-1.176.693A1.01,1.01,0,0,1,1440.714,641.142Z" transform="translate(-1346.32 -599.464)"/><g transform="translate(94.161 50.49)"><path class="g" d="M1442.171,745.617a2.608,2.608,0,0,1-.982-.2c-2.461-.993-2.238-4.2-2.227-4.34a.241.241,0,0,1,.309-.212l6.334,1.88a.242.242,0,0,1,.137.357C1445.671,743.224,1444.18,745.617,1442.171,745.617Zm-2.733-4.2c.011.782.208,2.857,1.933,3.553s3.269-1.149,3.782-1.857Z" transform="translate(-1438.953 -740.86)"/></g><path class="h" d="M1545.082,676.634a.959.959,0,0,1,1.212-.626,1.009,1.009,0,0,1,.4,1.335.958.958,0,0,1-1.212.626A1.009,1.009,0,0,1,1545.082,676.634Z" transform="translate(-1440.741 -631.628)"/><g transform="translate(82.834 18.719)"><path class="g" d="M1322.658,427.888a.24.24,0,0,1-.1-.023l-.051-.024c-1.157-.546-1.306-.616-1.483-1.284a2.01,2.01,0,0,1,.109-1.1,2.308,2.308,0,0,0,.064-.236,1.057,1.057,0,0,0-.141-.153.823.823,0,0,1-.289-.849,2.129,2.129,0,0,1,.381-.778c.146-.22.327-.493.3-.632-.071-.321-.286-.446-.63-.624a1.466,1.466,0,0,1-.986-1.4,1.738,1.738,0,0,1,.753-1.515,2.169,2.169,0,0,0,.552-.629.518.518,0,0,0,0-.411.946.946,0,0,1,0-.652,1.285,1.285,0,0,1,.562-.559,1.035,1.035,0,0,0,.37-.316c-.016-.01-.12-.116-.189-.187a1.043,1.043,0,0,1-.394-1.141,1.948,1.948,0,0,1,1.423-1.123,1.828,1.828,0,0,0,.93-.523c.051-.067-.04-.258-.128-.442a1.264,1.264,0,0,1-.036-1.4,2.517,2.517,0,0,1,1.618-.975,2.8,2.8,0,0,0,1.015-.417c.141-.1.173-.437.2-.759a2.055,2.055,0,0,1,.487-1.389,3.2,3.2,0,0,1,2.56-.743,5.5,5.5,0,0,0,1.232-.067.8.8,0,0,0,.271-.209,1.822,1.822,0,0,1,1.832-.553.241.241,0,1,1-.088.474,1.352,1.352,0,0,0-1.408.425,1.069,1.069,0,0,1-.508.335,5.792,5.792,0,0,1-1.341.077,2.743,2.743,0,0,0-2.22.613,1.693,1.693,0,0,0-.336,1.082c-.042.449-.081.872-.4,1.1a3.231,3.231,0,0,1-1.177.494,2.066,2.066,0,0,0-1.351.794c-.2.269-.1.522.083.907.142.3.3.639.077.939a2.208,2.208,0,0,1-1.161.689c-.5.17-.931.316-1.127.836-.086.229.051.392.287.633.185.189.439.448.266.76a1.423,1.423,0,0,1-.533.489.886.886,0,0,0-.376.34.512.512,0,0,0,.021.341.975.975,0,0,1-.036.757,2.617,2.617,0,0,1-.662.768,1.26,1.26,0,0,0-.589,1.139c.017.623.329.784.724.988a1.388,1.388,0,0,1,.88.948,1.411,1.411,0,0,1-.365,1,1.852,1.852,0,0,0-.306.586.366.366,0,0,0,.145.425,1.344,1.344,0,0,1,.241.284c.1.16.038.352-.037.6a1.614,1.614,0,0,0-.1.839c.12.451.12.451,1.222.972l.051.024a.241.241,0,0,1-.1.459Z" transform="translate(-1319.825 -406.721)"/></g><g transform="translate(96.753 17.224)"><path class="g" d="M1481.3,422.627a.241.241,0,0,1,0-.482c1.021,0,1.172-.323,1.305-.6a.693.693,0,0,1,.745-.5c.276.015.36-.218.459-.785.054-.311.1-.579.29-.71a1.364,1.364,0,0,1,.437-.164.9.9,0,0,0,.429-.18,1.772,1.772,0,0,0-.077-.5c-.075-.315-.135-.564.062-.7a4.861,4.861,0,0,1,.512-.3,1.523,1.523,0,0,0,.89-.9,1.325,1.325,0,0,0-.183-.872c-.171-.4-.348-.812-.126-1.175.2-.322.627-.417,1.083-.517.558-.122.927-.225.97-.518a1.19,1.19,0,0,0-.195-.711,1.468,1.468,0,0,1-.2-1.163,2.025,2.025,0,0,1,.714-.925c.37-.318.577-.518.524-.913a4.117,4.117,0,0,0-.585-1.45,4.454,4.454,0,0,1-.612-1.512,1.271,1.271,0,0,1,.69-1.218c.371-.282.594-.474.529-.859a2.021,2.021,0,0,0-.794-1.037,2.318,2.318,0,0,1-.929-1.286,1.784,1.784,0,0,1,.381-1.212c.282-.46.377-.671.187-.917a1.279,1.279,0,0,0-.465-.3,1.323,1.323,0,0,1-.734-.616,1.116,1.116,0,0,1-.083-.559c.01-.188.015-.265-.285-.454a2.67,2.67,0,0,0-.883-.289,2.229,2.229,0,0,1-1.441-.717,2.049,2.049,0,0,1-.248-1.687c.109-.728.139-1.158-.5-1.521a2.98,2.98,0,0,0-1.814-.1,4.607,4.607,0,0,1-1.712.013,1.424,1.424,0,0,1-.982-.971c-.127-.289-.208-.455-.4-.526a7.359,7.359,0,0,0-2.091-.513,2.862,2.862,0,0,0-.549.107,2.025,2.025,0,0,1-1.21.067.61.61,0,0,1-.336-.43.389.389,0,0,0-.078-.164,1.972,1.972,0,0,0-2.555.223,4.149,4.149,0,0,1-.861.512,1.4,1.4,0,0,1-1.019-.009,2.281,2.281,0,0,0-.419-.1,3.078,3.078,0,0,0-2.51,1.44.241.241,0,0,1-.371-.308A3.536,3.536,0,0,1,1469.2,392a2.663,2.663,0,0,1,.506.114.946.946,0,0,0,.71.02,3.816,3.816,0,0,0,.754-.456,2.682,2.682,0,0,1,1.517-.671,2.9,2.9,0,0,1,1.624.472.774.774,0,0,1,.228.386c.024.073.042.125.06.132a1.75,1.75,0,0,0,.909-.088,3.184,3.184,0,0,1,.653-.122,7.415,7.415,0,0,1,2.268.541,1.233,1.233,0,0,1,.683.786c.14.319.261.6.661.7a4.268,4.268,0,0,0,1.53-.025,3.354,3.354,0,0,1,2.114.162,1.671,1.671,0,0,1,.735,2.011,1.636,1.636,0,0,0,.152,1.319,1.8,1.8,0,0,0,1.159.541,3.065,3.065,0,0,1,1.041.353.851.851,0,0,1,.509.889.647.647,0,0,0,.042.337c.077.174.273.267.5.375a1.661,1.661,0,0,1,.639.442c.414.533.1,1.049-.156,1.465a1.4,1.4,0,0,0-.317.883,1.964,1.964,0,0,0,.771,1,2.388,2.388,0,0,1,.952,1.319,1.32,1.32,0,0,1-.713,1.323c-.355.27-.553.438-.5.764a4.021,4.021,0,0,0,.555,1.347,4.535,4.535,0,0,1,.642,1.621,1.434,1.434,0,0,1-.687,1.343,1.607,1.607,0,0,0-.567.7,1.026,1.026,0,0,0,.169.806,1.621,1.621,0,0,1,.241,1c-.095.644-.787.8-1.344.919-.321.071-.686.151-.775.3s.029.434.158.734a1.654,1.654,0,0,1,.19,1.236,2,2,0,0,1-1.114,1.152c-.125.066-.254.134-.384.218.011.068.035.17.053.244.08.333.162.677,0,.9a1.18,1.18,0,0,1-.7.361,1.178,1.178,0,0,0-.282.094,2.173,2.173,0,0,0-.09.4c-.08.46-.229,1.231-.964,1.184-.174-.01-.183.022-.279.225-.209.442-.517.875-1.739.88Z" transform="translate(-1466.208 -391.005)"/></g><g transform="translate(89.628 30.44)"><path class="g" d="M1392.457,537.068a4.035,4.035,0,0,1-.984-.165.262.262,0,0,1-.2-.3.224.224,0,0,1,.271-.179l.045.012c.7.182,1.261.281,1.526-.208a1.6,1.6,0,0,0,.092-.312c.081-.341.18-.766.559-.879a3.5,3.5,0,0,1,.861-.118,1.746,1.746,0,0,0,1.13-.326,1.238,1.238,0,0,0,.347-.785,1.482,1.482,0,0,1,.63-1.123.9.9,0,0,1,1.052.023.785.785,0,0,0,.411.148h0a1.513,1.513,0,0,0,.728-.381l.086-.065c.266-.2.235-.371.152-.681a.862.862,0,0,1,.028-.726c.408-.632,1.041-.444,1.5-.307a1.112,1.112,0,0,0,.776.068.913.913,0,0,0,.331-.588.241.241,0,0,1,.467.12,1.327,1.327,0,0,1-.561.887,1.459,1.459,0,0,1-1.151-.025c-.533-.158-.769-.192-.962.106-.038.059-.013.168.033.34a.976.976,0,0,1-.328,1.191l-.083.063a1.832,1.832,0,0,1-1.021.48h0a1.229,1.229,0,0,1-.653-.215.432.432,0,0,0-.562-.023c-.26.153-.322.405-.4.8a1.662,1.662,0,0,1-.518,1.066,2.182,2.182,0,0,1-1.407.432,3.086,3.086,0,0,0-.748.1c-.111.033-.181.33-.227.527a1.8,1.8,0,0,1-.138.432A1.14,1.14,0,0,1,1392.457,537.068Z" transform="translate(-1391.271 -529.992)"/></g><g transform="translate(101.94 30.116)"><path class="g" d="M1530.907,539.661a.238.238,0,0,1-.1-.02,1.308,1.308,0,0,1-.887-1.751,1.438,1.438,0,0,0-.014-.929c-.168-.36-.264-.365-.456-.376a1.146,1.146,0,0,1-.994-.6,1.058,1.058,0,0,1-.043-.852c.065-.294.081-.432,0-.473-.307-.161-.493-.04-.821.206a1.469,1.469,0,0,1-1.057.4c-1.006-.108-.967-.833-.941-1.312.02-.373.014-.559-.138-.649a.886.886,0,0,0-.5-.035,1.082,1.082,0,0,1-1.163-.422,1.3,1.3,0,0,1,.086-1.387c.156-.319.247-.523.143-.7a2.524,2.524,0,0,0-1.636-.881c-.673-.182-1.308-.354-1.547-.888a1.773,1.773,0,0,1,.22-1.5,2.349,2.349,0,0,1,.451-.576c.074-.076.149-.153.217-.234a.241.241,0,1,1,.37.309c-.075.091-.158.176-.241.261a1.948,1.948,0,0,0-.365.456,1.388,1.388,0,0,0-.212,1.087c.146.326.674.468,1.233.62a2.9,2.9,0,0,1,1.928,1.106,1.171,1.171,0,0,1-.128,1.156c-.189.385-.3.634-.115.911.16.246.355.24.712.2a1.257,1.257,0,0,1,.8.1c.417.25.392.715.372,1.089-.029.532-.02.749.511.807a1.029,1.029,0,0,0,.716-.307,1.13,1.13,0,0,1,1.335-.247c.417.219.313.691.244,1-.039.175-.087.393-.032.472.263.378.423.387.625.4.315.018.6.08.866.654a1.86,1.86,0,0,1,.049,1.229c-.11.543-.176.871.607,1.214a.241.241,0,0,1-.1.462Z" transform="translate(-1520.754 -526.588)"/></g><g transform="translate(83.761 46.431)"><path class="g" d="M1329.814,705.588a.241.241,0,0,1-.069-.472c2.177-.653,3.962-3.421,4.341-6.732a.244.244,0,0,1,.267-.212.241.241,0,0,1,.212.267c-.4,3.5-2.326,6.432-4.682,7.138A.244.244,0,0,1,1329.814,705.588Z" transform="translate(-1329.573 -698.17)"/></g><g transform="translate(100.94 58.381)"><path class="g" d="M1511.339,826.162a.242.242,0,0,1-.13-.038,2.917,2.917,0,0,1-.968-2.009.241.241,0,1,1,.48-.043,2.514,2.514,0,0,0,.747,1.646.241.241,0,0,1-.129.445Z" transform="translate(-1510.241 -823.852)"/></g><g transform="translate(129.312 83.241)"><path class="g" d="M1812.364,1088.391a4.406,4.406,0,0,1-3.694-1.659.241.241,0,0,1,.408-.258,4.019,4.019,0,0,0,3.438,1.432,4.662,4.662,0,0,0,4.063-2.484.241.241,0,0,1,.422.234,5.185,5.185,0,0,1-4.471,2.732Z" transform="translate(-1808.633 -1085.299)"/></g><g transform="translate(52.194 62.189)"><path class="g" d="M997.819,879.982a.265.265,0,0,1-.05-.005.241.241,0,0,1-.186-.286c.84-3.962,3.093-13.006,4.7-15.678a.241.241,0,0,1,.414.248c-1.572,2.62-3.8,11.594-4.637,15.529A.241.241,0,0,1,997.819,879.982Z" transform="translate(-997.577 -863.896)"/></g><g transform="translate(30.46 72.016)"><path class="g" d="M771.918,970.348c-1.014,0-1.926-.034-2.692-.109a.242.242,0,0,1-.217-.264.246.246,0,0,1,.263-.217c5.666.554,19.4-1.119,22.789-2.5a.241.241,0,1,1,.182.447C789.273,968.916,778.471,970.348,771.918,970.348Z" transform="translate(-769.008 -967.243)"/></g><g transform="translate(26.926 77.68)"><path class="g" d="M742.016,1056.242c-3.7,0-6.235-.443-7.78-1.339-2.619-1.519-3.1-5.6-1.416-12.115.947-3.676,3.248-10.352,8.02-13.761,3.123-2.231,10.711-2.817,20.3-1.566,8.813,1.15,16.674,3.52,19.56,5.9h0a9.419,9.419,0,0,1,3.583,8.658c-.275,3.059-1.635,6.51-9.643,8.907a138.752,138.752,0,0,1-23.915,4.76A82.692,82.692,0,0,1,742.016,1056.242Zm9.833-28.957c-4.646,0-8.609.622-10.729,2.135-4.647,3.32-6.9,9.876-7.833,13.489-1.619,6.284-1.219,10.18,1.191,11.577s7.714,1.639,16.191.72a138.264,138.264,0,0,0,23.828-4.742c7.732-2.315,9.041-5.59,9.3-8.489a8.86,8.86,0,0,0-3.409-8.242h0C776.455,1030.49,762.4,1027.285,751.849,1027.285Z" transform="translate(-731.839 -1026.815)"/></g><g transform="translate(50.878 86.486)"><path class="g" d="M983.981,1131.044a.239.239,0,0,1-.137-.043.242.242,0,0,1-.061-.336c1.315-1.9,3.333-4.393,4.693-5.176,1.57-.9,4.426-1.383,6.946-1.806,1.122-.188,2.182-.366,2.957-.558,1.167-.289,2.253-.539,3.272-.774,3.523-.812,6.3-1.453,8.84-2.888a.241.241,0,0,1,.237.42c-2.6,1.469-5.408,2.117-8.969,2.938-1.017.234-2.1.484-3.265.772-.793.2-1.861.376-2.993.566-2.479.416-5.29.888-6.785,1.749-1.291.743-3.251,3.175-4.537,5.032A.241.241,0,0,1,983.981,1131.044Z" transform="translate(-983.74 -1119.432)"/></g><g transform="translate(78.874 80.305)"><path class="g" d="M1278.416,1064.135a.241.241,0,0,1-.075-.47l28.1-9.225a.241.241,0,1,1,.151.458l-28.1,9.225A.23.23,0,0,1,1278.416,1064.135Z" transform="translate(-1278.175 -1054.428)"/></g><g transform="translate(78.669 82.79)"><path class="g" d="M1276.254,1092.3a.241.241,0,0,1-.077-.469l33.365-11.264a.241.241,0,1,1,.154.457l-33.365,11.264A.251.251,0,0,1,1276.254,1092.3Z" transform="translate(-1276.013 -1080.555)"/></g><g transform="translate(140.105 60.19)"><path class="g" d="M1922.379,854.851a.241.241,0,0,1-.064-.474l41.387-11.5a.241.241,0,0,1,.129.465l-41.386,11.5A.246.246,0,0,1,1922.379,854.851Z" transform="translate(-1922.138 -842.869)"/></g><g transform="translate(138.625 63.403)"><path class="g" d="M1906.813,889.557a.241.241,0,0,1-.066-.473l43.885-12.411a.241.241,0,1,1,.131.464l-43.885,12.411A.242.242,0,0,1,1906.813,889.557Z" transform="translate(-1906.572 -876.664)"/></g><g transform="translate(1.404 106.42)"><path class="g" d="M463.668,1335.926a.241.241,0,0,1-.078-.469l18.738-6.366a.241.241,0,1,1,.155.457l-18.738,6.365A.244.244,0,0,1,463.668,1335.926Z" transform="translate(-463.427 -1329.078)"/></g><g transform="translate(0.098 106.867)"><path class="g" d="M449.927,1344.532a.241.241,0,0,1-.078-.47l30.222-10.278a.241.241,0,0,1,.155.457l-30.223,10.278A.247.247,0,0,1,449.927,1344.532Z" transform="translate(-449.686 -1333.772)"/></g><g transform="translate(9.937 2.098)"><path class="g" d="M553.409,338.313a.234.234,0,0,1-.056-.007.241.241,0,0,1-.178-.291c.622-2.6,1.809-7.133,3.105-11.324,2.1-6.781,5.027-15.16,8.958-25.614,8.707-23.159,19.2-39.23,32.081-49.13,14.037-10.79,34.8-18.563,44.384-20.026a.241.241,0,1,1,.073.477c-9.536,1.455-30.189,9.192-44.162,19.932-12.807,9.844-23.249,25.845-31.924,48.918-3.927,10.445-6.854,18.815-8.948,25.587-1.292,4.18-2.476,8.7-3.1,11.294A.241.241,0,0,1,553.409,338.313Z" transform="translate(-553.167 -231.919)"/></g><g transform="translate(25.323 63.09)"><path class="g" d="M720.709,896.43a.241.241,0,0,1-.234-.184l-5.489-22.574a.241.241,0,0,1,.469-.114l5.489,22.574a.241.241,0,0,1-.177.292A.27.27,0,0,1,720.709,896.43Z" transform="translate(-714.979 -873.374)"/></g><g transform="translate(27.359 9.709)"><path class="g" d="M736.632,373.536a.241.241,0,0,1-.21-.359c11.391-20.344,27.2-37.455,43.361-46.946,13.852-8.133,28.9-12.53,48.8-14.258a.241.241,0,0,1,.041.48c-19.825,1.722-34.814,6.1-48.6,14.194-16.094,9.448-31.834,26.494-43.185,46.765A.241.241,0,0,1,736.632,373.536Z" transform="translate(-736.391 -311.971)"/></g><g transform="translate(118.04 5.436)"><path class="g" d="M1702.165,327.31a.241.241,0,0,1-.24-.219c-3.424-37.718-11.744-59.52-11.827-59.736a.241.241,0,1,1,.449-.174c.084.216,8.428,22.074,11.858,59.866a.241.241,0,0,1-.218.262Z" transform="translate(-1690.082 -267.027)"/></g><g transform="translate(125.988 6.876)"><path class="g" d="M1786.343,347.95a.241.241,0,0,1-.24-.219c-3.426-37.728-12.329-64.971-12.419-65.242a.241.241,0,1,1,.458-.152c.09.271,9.011,27.563,12.441,65.35a.241.241,0,0,1-.219.262Z" transform="translate(-1773.672 -282.172)"/></g><g transform="translate(124.121 6.609)"><path class="g" d="M1766.537,343.6a.241.241,0,0,1-.24-.218c-3.537-36.8-12.164-63.444-12.251-63.709a.241.241,0,0,1,.459-.15c.087.265,8.73,26.96,12.273,63.813a.241.241,0,0,1-.217.263Z" transform="translate(-1754.035 -279.361)"/></g><g transform="translate(111.313 10.973)"><path class="g" d="M1621.808,334.708a.241.241,0,0,1-.234-.182c-.241-.941-.479-2.024-.731-3.171a48.21,48.21,0,0,0-1.492-5.769.241.241,0,0,1,.451-.171,48.454,48.454,0,0,1,1.512,5.836c.251,1.142.488,2.221.727,3.155a.241.241,0,0,1-.174.293A.237.237,0,0,1,1621.808,334.708Z" transform="translate(-1619.336 -325.26)"/></g><g transform="translate(114.17 22.429)"><path class="g" d="M1649.776,447.035a.214.214,0,0,1-.216-.158l-.013-.053-.156-.8a.241.241,0,0,1,.474-.092l.154.791a.262.262,0,0,1-.177.3A.286.286,0,0,1,1649.776,447.035Z" transform="translate(-1649.387 -445.738)"/></g><g transform="translate(117.318 40.658)"><path class="g" d="M1685,663.852a.241.241,0,0,1-.241-.232c-.21-5.763-.917-15.59-2.267-25.89a.241.241,0,0,1,.479-.063c1.352,10.316,2.06,20.161,2.271,25.935a.241.241,0,0,1-.232.25Z" transform="translate(-1682.488 -637.457)"/></g><g transform="translate(109.735 11.11)"><path class="g" d="M1605.279,335.96a.242.242,0,0,1-.234-.181c-.2-.773-.411-1.676-.634-2.619a59.042,59.042,0,0,0-1.658-6.129.241.241,0,1,1,.451-.17,59.139,59.139,0,0,1,1.676,6.189c.222.94.434,1.84.633,2.61a.241.241,0,0,1-.234.3Z" transform="translate(-1602.737 -326.704)"/></g><g transform="translate(116.113 43.807)"><path class="g" d="M1671.661,692.329a.241.241,0,0,1-.241-.232c-.112-3.063-.492-11.266-1.606-21.251a.241.241,0,1,1,.479-.053c1.115,10,1.5,18.218,1.609,21.287a.241.241,0,0,1-.232.25Z" transform="translate(-1669.812 -670.578)"/></g><g transform="translate(55.718 32.321)"><path class="g" d="M1034.887,568.586h-.02a.241.241,0,0,1-.22-.26c.372-4.474,1.736-14.443,3.127-18.384a.241.241,0,0,1,.455.161c-1.378,3.9-2.731,13.812-3.1,18.264A.241.241,0,0,1,1034.887,568.586Z" transform="translate(-1034.646 -549.78)"/></g><g transform="translate(137.554 91.856)"><path class="g" d="M1896.989,1218.306a.241.241,0,0,1-.241-.236c-.036-1.563-.1-3.52-.161-5.691-.173-5.69-.388-12.771-.348-18.11a45.7,45.7,0,0,1,.274-5.321,19.321,19.321,0,0,0,.075-3.93c-.113-1.98-.7-5.471-1.1-7.781l-.177-1.053a.241.241,0,1,1,.476-.079l.177,1.051c.394,2.321.988,5.828,1.1,7.834a19.731,19.731,0,0,1-.077,4.01,45.281,45.281,0,0,0-.271,5.273c-.04,5.33.175,12.406.348,18.092.066,2.172.125,4.132.162,5.695a.242.242,0,0,1-.236.247Z" transform="translate(-1895.309 -1175.903)"/></g><g transform="translate(100.28 91.206)"><path class="g" d="M1507.828,1180.915a6.86,6.86,0,0,1-2.265-.293c-1.543-.573-2.24-1.106-2.26-1.73-.023-.713.829-1.388,2.942-2.331,2.771-1.235,19.337-7.415,19.5-7.477a.241.241,0,0,1,.169.452c-.167.062-16.719,6.236-19.476,7.466-.662.3-2.678,1.194-2.656,1.875.008.263.353.7,1.946,1.293,2.888,1.073,16.739-1.467,24.89-8.083a.241.241,0,1,1,.3.375C1524.166,1177.946,1513.145,1180.914,1507.828,1180.915Z" transform="translate(-1503.302 -1169.068)"/></g><g transform="translate(107.743 99.299)"><path class="g" d="M1588.958,1260.2a10.173,10.173,0,0,1-7.1-2.458.241.241,0,0,1,.336-.346c2.157,2.1,6.111,2.859,10.073,1.932,3.4-.8,5.914-2.659,6.733-4.984a.241.241,0,1,1,.455.16c-.874,2.482-3.52,4.461-7.078,5.294A15.087,15.087,0,0,1,1588.958,1260.2Z" transform="translate(-1581.789 -1254.181)"/></g><g transform="translate(143.124 77.537)"><path class="g" d="M1957.624,1036.387a5.44,5.44,0,0,1-1.807-.24c-1.315-.488-1.908-.952-1.926-1.5-.02-.626.689-1.2,2.447-1.985,1.949-.87,7.608-2.99,13.081-5.042l3.143-1.179h0c3.331-1.252,5.176-1.454,5.638-.619.57,1.028-1.419,3.066-3.3,4.5C1970.031,1034.036,1961.767,1036.387,1957.624,1036.387Zm15.107-9.5-3.143,1.179c-5.466,2.049-11.119,4.167-13.054,5.031-1.446.644-2.173,1.159-2.161,1.529.007.215.292.575,1.611,1.065,2.389.887,12.739-1.268,18.625-5.76,2.34-1.785,3.447-3.375,3.167-3.881-.082-.147-.7-.795-5.047.837Z" transform="translate(-1953.891 -1025.317)"/></g><g transform="translate(149.453 84.907)"><path class="g" d="M2025.523,1107.914a7.968,7.968,0,0,1-4.979-1.576.241.241,0,0,1,.3-.38c2.546,2,6.159,1.665,8.479.774,2.158-.828,3.6-2.216,3.864-3.713a.241.241,0,1,1,.475.083c-.291,1.666-1.848,3.192-4.165,4.081A11.339,11.339,0,0,1,2025.523,1107.914Z" transform="translate(-2020.451 -1102.817)"/></g><g transform="translate(82.442 86.591)"><path class="g" d="M1315.937,1166.014a.241.241,0,0,1-.108-.457c16.059-8.03,66.435-30.469,103.119-45.012a.241.241,0,1,1,.178.448c-36.673,14.54-87.03,36.97-103.081,45A.239.239,0,0,1,1315.937,1166.014Z" transform="translate(-1315.695 -1120.528)"/></g><g transform="translate(121.778 49.359)"><path class="g" d="M1731.313,732.408a.24.24,0,0,1-.195-.1,16.792,16.792,0,0,1-1.7-3.008.241.241,0,1,1,.445-.185,16.584,16.584,0,0,0,1.647,2.909.241.241,0,0,1-.2.383Z" transform="translate(-1729.398 -728.967)"/></g><g transform="translate(126.134 46.457)"><path class="g" d="M1775.531,703.654a.241.241,0,0,1-.24-.221,17.569,17.569,0,0,1,.193-4.816.241.241,0,0,1,.462.14,17.518,17.518,0,0,0-.174,4.635.241.241,0,0,1-.219.261Z" transform="translate(-1775.208 -698.446)"/></g><g transform="translate(129.074 49.022)"><path class="g" d="M1806.363,728.707a.241.241,0,0,1-.221-.337,8.722,8.722,0,0,1,2.2-2.9.241.241,0,1,1,.31.369,8.354,8.354,0,0,0-2.065,2.719A.241.241,0,0,1,1806.363,728.707Z" transform="translate(-1806.122 -725.417)"/></g><g transform="translate(109.159 48.075)"><path class="g" d="M1596.921,716.746a.241.241,0,0,1-.171-.412,5.079,5.079,0,0,1,1.232-.854.241.241,0,1,1,.208.435,4.653,4.653,0,0,0-1.1.759A.24.24,0,0,1,1596.921,716.746Z" transform="translate(-1596.68 -715.457)"/></g><g transform="translate(129.97 52.995)"><path class="g" d="M1815.8,768.836a.241.241,0,0,1-.165-.417,5.819,5.819,0,0,1,2.16-1.2.241.241,0,0,1,.132.464,5.416,5.416,0,0,0-1.963,1.089A.24.24,0,0,1,1815.8,768.836Z" transform="translate(-1815.555 -767.208)"/></g><g transform="translate(120.527 53.55)"><path class="g" d="M1718.746,774.181h-.01a5.815,5.815,0,0,1-2.373-.691.241.241,0,1,1,.236-.42,5.421,5.421,0,0,0,2.156.629.241.241,0,0,1-.01.482Z" transform="translate(-1716.241 -773.039)"/></g><g transform="translate(27.469 93.216)"><path class="g" d="M741.6,1200.74a11.577,11.577,0,0,1-3.917-.416.241.241,0,1,1,.2-.436c3.895,1.828,42.659-3.033,51.072-9.628a.241.241,0,0,1,.3.38c-5.369,4.208-21.07,7.068-27.572,8.1A144.946,144.946,0,0,1,741.6,1200.74Z" transform="translate(-737.548 -1190.208)"/></g><g transform="translate(27.153 90.567)"><path class="g" d="M739.914,1171.861a15.539,15.539,0,0,1-5.546-.7.241.241,0,0,1,.192-.443c6.815,2.965,44.035-4.305,51.431-8.339a.241.241,0,1,1,.231.423C779.991,1166.2,752.688,1171.861,739.914,1171.861Z" transform="translate(-734.223 -1162.347)"/></g><g transform="translate(106.088 90.151)"><path class="g" d="M1564.624,1165.566a.258.258,0,0,1-.046,0,.241.241,0,0,1-.191-.283c.765-3.965,6.517-7.9,13.56-7.224a.242.242,0,0,1,.217.264.247.247,0,0,1-.264.217c-6.775-.665-12.314,3.073-13.039,6.835A.241.241,0,0,1,1564.624,1165.566Z" transform="translate(-1564.382 -1157.979)"/></g><g transform="translate(148.788 78.244)"><path class="g" d="M2013.7,1038.469a.244.244,0,0,1-.052-.006.241.241,0,0,1-.184-.287,6.367,6.367,0,0,1,3.5-4c2.793-1.467,6.635-1.865,8.936-.926a.241.241,0,0,1-.182.447c-2.185-.891-5.851-.5-8.529.906a5.912,5.912,0,0,0-3.256,3.672A.241.241,0,0,1,2013.7,1038.469Z" transform="translate(-2013.455 -1032.748)"/></g><g transform="translate(11.177 86.404)"><path class="g" d="M587.435,1139.5c-9.161,0-20.851-.873-21.191-2.574-.388-1.938,2.747-11.278,4.814-16.71a2.138,2.138,0,0,1,2.076-1.648c3.208.06,8.421,7,9.522,10.259a.241.241,0,0,1-.457.155c-1.038-3.069-6.1-9.876-9.074-9.931-.736-.037-1.269.423-1.616,1.337-2.547,6.694-5.1,14.885-4.792,16.444.3,1.477,17.5,2.718,27.473,1.981a.241.241,0,0,1,.035.481C592.363,1139.431,590,1139.5,587.435,1139.5Z" transform="translate(-566.211 -1118.568)"/></g><g transform="translate(15.376 89.99)"><path class="g" d="M624.289,1199.1a.241.241,0,0,1-.241-.229,48.626,48.626,0,0,0-1.654-9.827,12.3,12.3,0,0,0-2.739-4.875,15.756,15.756,0,0,1-3.429-6.3c-1.392-4.574-5.811-21.116-5.855-21.282a.241.241,0,0,1,.171-.3.244.244,0,0,1,.3.171c.044.166,4.461,16.7,5.851,21.266a15.347,15.347,0,0,0,3.339,6.135,12.7,12.7,0,0,1,2.829,5.044,49.206,49.206,0,0,1,1.674,9.941.241.241,0,0,1-.229.253Z" transform="translate(-610.362 -1156.28)"/></g><g transform="translate(0 0)"><path class="g" d="M449.9,323.164a1.057,1.057,0,0,1-.768-.3c-.761-.742-.459-2.708-.072-4.226.461-1.806,1.406-5.393,2.559-9.123,2.1-6.778,5.026-15.156,8.957-25.613,5.839-15.531,18.047-43.439,34.2-55.857,12.3-9.451,23.066-15.229,33.9-18.182a.241.241,0,1,1,.127.465c-10.767,2.937-21.485,8.688-33.729,18.1-16.062,12.346-28.226,40.162-34.046,55.644-3.929,10.449-6.855,18.818-8.948,25.586-1.15,3.72-2.093,7.3-2.553,9.1-.489,1.915-.511,3.321-.059,3.761a.79.79,0,0,0,.812.1.241.241,0,0,1,.131.464A1.879,1.879,0,0,1,449.9,323.164Z" transform="translate(-448.658 -209.857)"/></g><g transform="translate(28.656 12.298)"><path class="g" d="M771.089,342.384a.24.24,0,0,1-.077-.013c-5.552-1.884-14.5-2.437-20.749-2.69a.241.241,0,0,1-.231-.251.234.234,0,0,1,.251-.231c6.278.254,15.273.811,20.885,2.715a.241.241,0,0,1-.078.47Z" transform="translate(-750.031 -339.199)"/></g></g></g></svg>