<svg xmlns="http://www.w3.org/2000/svg" width="21.422" height="25.9" viewBox="0 0 21.422 25.9"><path d="M11.877,9.784a1.782,1.782,0,0,0,1.533-.737,2.848,2.848,0,0,0,.4-1.706V4.811a2.8,2.8,0,0,0-.4-1.691,1.792,1.792,0,0,0-1.533-.736,1.767,1.767,0,0,0-1.516.736,2.8,2.8,0,0,0-.405,1.693V7.342a2.878,2.878,0,0,0,.405,1.706,1.767,1.767,0,0,0,1.516.736Zm-.622-5.232c0-.664.2-1,.622-1,.434,0,.622.332.622,1V7.587c0,.666-.187,1.012-.622,1.012-.419,0-.622-.347-.622-1.012ZM15,9.249a3.657,3.657,0,0,1-.114-1.083V2.471H16.2v5.3a3.068,3.068,0,0,0,.015.507c.029.2.129.317.3.317.259,0,.533-.2.823-.622V2.471h1.315V9.683H17.34v-.8a2.071,2.071,0,0,1-1.49.9A.817.817,0,0,1,15,9.249Zm5,8.745v.664H18.7v-.664c0-.651.218-.984.651-.984S20,17.344,20,17.994ZM5.864,2.7C5.547,1.807,5.23.9,4.924,0H6.458L7.483,3.8,8.466,0H9.941L8.192,5.766V9.683H6.747V5.766A23.072,23.072,0,0,0,5.864,2.7Zm16.65,10.681a2.718,2.718,0,0,0-2.313-2.11,74.192,74.192,0,0,0-8.023-.289,73.771,73.771,0,0,0-8.008.289,2.734,2.734,0,0,0-2.325,2.11,23.6,23.6,0,0,0-.376,5.058A22.73,22.73,0,0,0,1.846,23.5a2.686,2.686,0,0,0,2.313,2.1,70.815,70.815,0,0,0,8.021.3,70.855,70.855,0,0,0,8.023-.3,2.7,2.7,0,0,0,2.313-2.1,23.668,23.668,0,0,0,.376-5.058,22.754,22.754,0,0,0-.378-5.058Zm-14.93,1.46H6.039v8.224H4.593V14.844H3.074V13.485h4.51Zm3.9,8.224H10.2v-.78a2.1,2.1,0,0,1-1.475.882.792.792,0,0,1-.838-.535,3.483,3.483,0,0,1-.116-1.054V15.93H9.059v5.261a3.533,3.533,0,0,0,.014.507c.03.2.131.3.3.3.262,0,.536-.2.824-.606V15.931h1.287v7.136ZM16.4,20.928a5.127,5.127,0,0,1-.131,1.444,1.017,1.017,0,0,1-1.027.8,1.783,1.783,0,0,1-1.345-.8v.695H12.614V13.485H13.9v3.137a1.754,1.754,0,0,1,1.345-.78,1.015,1.015,0,0,1,1.027.809,4.957,4.957,0,0,1,.131,1.431Zm4.884-1.185H18.7V21c0,.666.218,1,.666,1a.556.556,0,0,0,.579-.52,7.808,7.808,0,0,0,.029-.882h1.315v.189a5.628,5.628,0,0,1-.029.838,1.714,1.714,0,0,1-.3.78,1.792,1.792,0,0,1-1.56.766,1.835,1.835,0,0,1-1.562-.737,2.724,2.724,0,0,1-.419-1.677v-2.5a2.761,2.761,0,0,1,.405-1.677,1.976,1.976,0,0,1,3.079,0,2.852,2.852,0,0,1,.392,1.677v1.49Zm-6.172-1.764v3.05c0,.651-.189.967-.564.967a.929.929,0,0,1-.652-.317V17.33a.925.925,0,0,1,.652-.318c.375,0,.564.332.564.967Z" transform="translate(-1.47)"/></svg>